<svg width="22" height="22" viewBox="0 0 22 22" fill="none" xmlns="http://www.w3.org/2000/svg">
<path fill-rule="evenodd" clip-rule="evenodd" d="M10.9999 3.66699C13.5002 3.66699 15.8909 4.9784 18.119 7.13305C18.8791 7.86812 19.5668 8.65289 20.1721 9.43798C20.5374 9.91173 20.7968 10.2844 20.9388 10.5064L21.2547 11.0003L20.9388 11.4942C20.7968 11.7162 20.5374 12.0889 20.1721 12.5627C19.5668 13.3478 18.8791 14.1325 18.119 14.8676C15.8909 17.0223 13.5002 18.3337 10.9999 18.3337C8.49965 18.3337 6.10886 17.0223 3.8808 14.8676C3.12068 14.1325 2.43301 13.3478 1.82765 12.5627C1.46236 12.0889 1.203 11.7162 1.061 11.4942L0.745117 11.0003L1.061 10.5064C1.203 10.2844 1.46236 9.91173 1.82765 9.43798C2.43301 8.65289 3.12068 7.86812 3.8808 7.13305C6.10886 4.9784 8.49965 3.66699 10.9999 3.66699ZM18.7203 10.5575C18.166 9.83865 17.5359 9.11951 16.8445 8.45094C14.9255 6.59517 12.9296 5.50033 10.9999 5.50033C9.07025 5.50033 7.07427 6.59517 5.15527 8.45094C4.46392 9.11951 3.83376 9.83865 3.2795 10.5575C3.1598 10.7127 3.04918 10.8608 2.94805 11.0003C3.04918 11.1398 3.1598 11.2879 3.2795 11.4432C3.83376 12.162 4.46392 12.8811 5.15527 13.5497C7.07427 15.4055 9.07025 16.5003 10.9999 16.5003C12.9296 16.5003 14.9255 15.4055 16.8445 13.5497C17.5359 12.8811 18.166 12.162 18.7203 11.4432C18.84 11.2879 18.9506 11.1398 19.0517 11.0003C18.9506 10.8608 18.84 10.7127 18.7203 10.5575ZM10.9999 14.667C8.97485 14.667 7.33323 13.0254 7.33323 11.0003C7.33323 8.97528 8.97485 7.33366 10.9999 7.33366C13.0249 7.33366 14.6666 8.97528 14.6666 11.0003C14.6666 13.0254 13.0249 14.667 10.9999 14.667ZM10.9999 12.8337C12.0124 12.8337 12.8332 12.0128 12.8332 11.0003C12.8332 9.9878 12.0124 9.16699 10.9999 9.16699C9.98738 9.16699 9.16657 9.9878 9.16657 11.0003C9.16657 12.0128 9.98738 12.8337 10.9999 12.8337Z" fill="#F2B80C"/>
</svg>
