<svg width="22" height="22" viewBox="0 0 22 22" fill="none" xmlns="http://www.w3.org/2000/svg">
<mask id="mask0_232_309" style="mask-type:luminance" maskUnits="userSpaceOnUse" x="0" y="0" width="22" height="22">
<path d="M0 0H21.4928V22H0V0Z" fill="white"/>
</mask>
<g mask="url(#mask0_232_309)">
<path fill-rule="evenodd" clip-rule="evenodd" d="M18.8633 2.97341L18.4543 2.56467L10.582 10.4311L10.9909 10.8399L18.8633 2.97341ZM12.3404 15.8341C12.3404 19.2393 9.57786 21.9997 6.1702 21.9997C2.7624 21.9997 0 19.2393 0 15.8341C0 12.4289 2.7624 9.66857 6.1702 9.66857C6.61763 9.66857 7.05403 9.71625 7.47462 9.80672L8.83641 8.44575L9.6577 9.43408L19.0973 0.00146484H20.7909L21.5034 0.713489V2.96687L20.6231 3.80451V5.74807H18.5106V8.16073H16.3309V10.4728H13.9835L12.4243 12.0308L13.3464 13.187L12.139 14.2658C12.2704 14.7666 12.3404 15.2921 12.3404 15.8341ZM4.52706 19.2855C5.5827 19.2855 6.43847 18.4303 6.43847 17.3755C6.43847 16.3207 5.5827 15.4656 4.52706 15.4656C3.47129 15.4656 2.61552 16.3207 2.61552 17.3755C2.61552 18.4303 3.47129 19.2855 4.52706 19.2855Z" fill="white"/>
</g>
</svg>
