<svg width="21" height="18" viewBox="0 0 21 18" fill="none" xmlns="http://www.w3.org/2000/svg">
<path d="M16.2501 4.29161V3.43336C16.4727 3.46512 16.6953 3.56052 16.9178 3.68768L17.204 3.27431C16.9178 3.08363 16.5999 2.95647 16.2501 2.92471V2.70215H15.964V2.92471C15.3916 2.95647 14.9465 3.3062 14.9465 3.8466C14.9465 4.41877 15.3599 4.64133 15.964 4.76849V5.65863C15.6778 5.62687 15.4235 5.46795 15.1691 5.24538L14.8193 5.65863C15.1691 5.94484 15.5189 6.10376 15.964 6.16727V6.517H16.2501V6.19916C16.8224 6.16727 17.2994 5.84943 17.2994 5.27714C17.2676 4.60957 16.8543 4.41877 16.2501 4.29161ZM15.9322 4.19633C15.6778 4.10093 15.487 4.03728 15.487 3.78296C15.487 3.56052 15.7096 3.43336 15.9322 3.40147V4.19633ZM16.2184 5.65863V4.83214C16.5045 4.92754 16.6953 4.99106 16.6953 5.27714C16.727 5.53147 16.4727 5.65863 16.2184 5.65863Z" fill="#F2B80C"/>
<mask id="mask0_232_4904" style="mask-type:luminance" maskUnits="userSpaceOnUse" x="5" y="0" width="7" height="6">
<path d="M5.78052 0H11.288V5.48358H5.78052V0Z" fill="white"/>
</mask>
<g mask="url(#mask0_232_4904)">
<path d="M8.52409 0C6.9979 0 5.78979 1.23986 5.78979 2.73404C5.78979 4.25998 7.02978 5.46808 8.52409 5.46808C10.0503 5.46808 11.2585 4.22822 11.2585 2.73404C11.2585 1.23986 10.0184 0 8.52409 0ZM8.52409 4.86403C7.34775 4.86403 6.4256 3.91026 6.4256 2.7658C6.4256 1.62134 7.37951 0.667695 8.52409 0.667695C9.66868 0.667695 10.6226 1.62134 10.6226 2.7658C10.6226 3.91026 9.66868 4.86403 8.52409 4.86403Z" fill="#F2B80C"/>
</g>
<path d="M8.65123 2.60637V1.97056C8.81028 2.00232 8.9692 2.06596 9.12812 2.16137L9.35068 1.8434C9.12812 1.68448 8.90555 1.62083 8.65123 1.58908V1.46191H8.42867V1.62083C8.01542 1.65259 7.69745 1.87516 7.69745 2.28853C7.69745 2.70177 7.98354 2.86069 8.42867 2.9561V3.59191C8.23799 3.56015 8.04718 3.46474 7.85637 3.30582L7.60205 3.59191C7.85637 3.81447 8.1107 3.90975 8.42867 3.94163V4.19596H8.65123V3.97339C9.0646 3.94163 9.38257 3.71907 9.38257 3.30582C9.38257 2.86069 9.0646 2.70177 8.65123 2.60637ZM8.42867 2.54285C8.23799 2.47921 8.1107 2.41569 8.1107 2.25664C8.1107 2.09772 8.26975 2.00232 8.42867 1.97056V2.54285ZM8.65123 3.59191V2.98785C8.84204 3.0515 9.00096 3.11502 9.00096 3.30582C8.9692 3.4965 8.81028 3.59191 8.65123 3.59191Z" fill="#F2B80C"/>
<path d="M0.193855 11.9851L1.68817 17.1669C1.84709 17.771 2.48302 18.1206 3.11896 17.9617L5.56717 17.2623C6.0123 17.1352 6.36203 16.7536 6.39379 16.2132L7.25229 15.5138L13.8656 15.1005C15.0738 15.0369 15.6461 14.4965 17.0769 13.2248C17.7764 12.589 18.762 11.7307 20.1292 10.618C20.5424 10.2683 20.6061 9.69602 20.2881 9.25102C19.9701 8.80589 19.4297 8.67873 18.9527 8.96494C15.4871 10.9676 14.5333 11.5082 14.3107 11.6353H9.76402C9.5097 11.6353 9.31889 11.4445 9.31889 11.1902C9.31889 10.9359 9.5097 10.7452 9.76402 10.7452H12.403C13.2297 10.7452 13.8974 10.0775 13.8974 9.25102C13.8974 8.4244 13.2297 7.75684 12.403 7.75684H8.01539C7.02973 7.75684 6.10758 8.23372 5.53529 9.06021L4.67691 10.3001C4.3907 9.91859 3.91382 9.75967 3.43693 9.88683L0.988712 10.5862C0.352775 10.7133 0.00304811 11.3493 0.193855 11.9851ZM6.04406 9.37818C6.48919 8.74237 7.22041 8.36089 8.01539 8.36089H12.4348C12.9117 8.36089 13.2933 8.74237 13.2933 9.21926C13.2933 9.69602 12.9117 10.0775 12.4348 10.0775H9.79578C9.19173 10.0775 8.71484 10.5544 8.71484 11.1584C8.71484 11.7625 9.19173 12.2394 9.79578 12.2394H14.3742C14.5014 12.2394 14.5014 12.2394 19.2707 9.47358C19.5569 9.31454 19.7476 9.5371 19.7795 9.60075C19.8112 9.66426 19.9701 9.88683 19.7158 10.1094C18.3169 11.2221 17.363 12.0803 16.6318 12.7161C15.2327 13.956 14.7876 14.3694 13.802 14.4329L7.09324 14.8461C7.02973 14.8461 6.96608 14.878 6.90257 14.9098L6.23487 15.4502L4.93124 10.9359L6.04406 9.37818ZM1.14763 11.1584L3.59585 10.459C3.88206 10.3637 4.16814 10.5544 4.23178 10.8087C5.21745 14.1468 5.21745 14.1786 5.72609 15.9906C5.78974 16.2132 5.69434 16.5311 5.37637 16.6264L2.92815 17.3259C2.67383 17.3895 2.35586 17.2305 2.29222 16.9761L0.797905 11.7943C0.702502 11.5082 0.86155 11.2221 1.14763 11.1584Z" fill="#F2B80C"/>
<path d="M16.0594 0.476562C13.7702 0.476562 11.926 2.28871 11.926 4.51398C11.926 6.73937 13.7702 8.5514 16.0594 8.5514C18.3487 8.5514 20.1927 6.73937 20.1927 4.51398C20.1927 2.28871 18.3487 0.476562 16.0594 0.476562ZM16.0594 7.91559C14.1199 7.91559 12.562 6.38965 12.562 4.51398C12.562 2.63831 14.1199 1.11237 16.0594 1.11237C17.9989 1.11237 19.5569 2.63831 19.5569 4.51398C19.5569 6.38965 17.9989 7.91559 16.0594 7.91559Z" fill="#F2B80C"/>
</svg>
