<svg width="24" height="19" viewBox="0 0 24 19" fill="none" xmlns="http://www.w3.org/2000/svg">
<mask id="mask0_232_3503" style="mask-type:luminance" maskUnits="userSpaceOnUse" x="0" y="17" width="24" height="2">
<path d="M0 17.5566H23.8259V18.5591H0V17.5566Z" fill="white"/>
</mask>
<g mask="url(#mask0_232_3503)">
<path fill-rule="evenodd" clip-rule="evenodd" d="M0.0136719 17.5635H23.8081V18.5585H0.0136719V17.5635Z" fill="white"/>
</g>
<path fill-rule="evenodd" clip-rule="evenodd" d="M20.5972 5.16797H22.4325V16.9963H20.5972V5.16797Z" fill="white"/>
<path fill-rule="evenodd" clip-rule="evenodd" d="M15.7949 11.1084H17.6308V16.9959H15.7949V11.1084Z" fill="white"/>
<path fill-rule="evenodd" clip-rule="evenodd" d="M10.9932 6.92383H12.8284V16.9958H10.9932V6.92383Z" fill="white"/>
<path fill-rule="evenodd" clip-rule="evenodd" d="M1.38867 8.80859H3.22455V16.9962H1.38867V8.80859Z" fill="white"/>
<path fill-rule="evenodd" clip-rule="evenodd" d="M6.19141 10.792H8.02715V16.9963H6.19141V10.792Z" fill="white"/>
<path fill-rule="evenodd" clip-rule="evenodd" d="M21.8544 2.28904C21.7816 2.28904 21.7095 2.2615 21.6538 2.2064C21.5431 2.09568 21.5431 1.91609 21.6538 1.8059L22.3148 1.14479L21.6538 0.483681C21.5431 0.37282 21.5431 0.193229 21.6538 0.083044C21.7646 -0.0276813 21.9442 -0.0276813 22.0543 0.083044L22.9152 0.944271C23.0259 1.055 23.0259 1.23459 22.9152 1.34477L22.0543 2.20586C21.9998 2.2615 21.927 2.28904 21.8544 2.28904Z" fill="white"/>
<path fill-rule="evenodd" clip-rule="evenodd" d="M16.7128 9.13426C16.6246 9.13426 16.5403 9.09294 16.4869 9.02192L11.9109 2.97362L7.33435 9.02192C7.28857 9.08241 7.21971 9.12211 7.14368 9.1321C7.06834 9.14142 6.99177 9.11995 6.93169 9.07255L3.40873 6.27269H1.10591C0.949413 6.27269 0.822754 6.1459 0.822754 5.98953C0.822754 5.83303 0.949413 5.70624 1.10591 5.70624H3.50784C3.57185 5.70624 3.6341 5.72771 3.68419 5.76794L7.0578 8.44885L11.6845 2.33343C11.738 2.26227 11.8217 2.22095 11.9104 2.22095C11.999 2.22095 12.0827 2.26227 12.1362 2.33343L16.655 8.30558L20.0578 1.02431C20.1041 0.924658 20.2043 0.861328 20.3145 0.861328H22.716C22.8724 0.861328 22.999 0.987987 22.999 1.14449C22.999 1.30099 22.8724 1.42765 22.716 1.42765H20.4951L16.97 8.97115C16.9282 9.06148 16.8421 9.12265 16.7436 9.13264C16.7326 9.13372 16.7232 9.13426 16.7128 9.13426Z" fill="white"/>
</svg>
