<svg width="39" height="32" viewBox="0 0 39 32" fill="none" xmlns="http://www.w3.org/2000/svg">
<path d="M18.5405 2.84187V5.32714C18.6846 5.31415 18.8303 5.30777 18.9774 5.30777C19.1137 5.30777 19.2487 5.31309 19.3819 5.32459V2.83569C20.1638 3.13613 21.0168 3.12591 21.7944 2.80524C22.5993 2.47265 23.2265 1.84665 23.5608 1.04221L23.7936 0.482216L23.2334 0.249701C21.5732 -0.440394 19.6611 0.34935 18.9712 2.00954L18.9693 2.01422L18.9676 2.00954C18.2775 0.34935 16.3654 -0.440394 14.705 0.249701L14.145 0.482216L14.3777 1.04221C15.054 2.6694 16.9039 3.4602 18.5405 2.84187Z" fill="#F7F7F7"/>
<path d="M37.4003 11.3906C36.5391 10.6436 35.2304 10.7362 34.483 11.5975L29.0764 17.8278C29.077 17.852 29.0773 17.8765 29.0773 17.9012C29.0773 19.4592 27.8097 20.7268 26.2513 20.7268H17.3778C17.1453 20.7268 16.9571 20.5385 16.9571 20.306C16.9571 20.0739 17.1453 19.8853 17.3778 19.8853H26.2513C27.3457 19.8853 28.236 18.9952 28.236 17.9012C28.236 17.8397 28.2328 17.7794 28.2275 17.7221C28.2275 17.7211 28.2275 17.72 28.2273 17.719C28.1864 17.2597 27.9828 16.8259 27.6549 16.4978C27.2802 16.1231 26.7813 15.9167 26.2513 15.9167H9.64944C8.38316 15.9167 7.1929 16.4097 6.29776 17.305L4.35864 19.2441L12.7562 27.6417L14.0674 26.3305C14.5883 25.8097 15.1972 25.4026 15.8782 25.1207C16.5587 24.8386 17.2773 24.6957 18.0142 24.6957H26.3774C27.7018 24.6957 29.0732 24.0686 30.0484 23.0176L37.6067 14.3077C37.9331 13.9316 38.1128 13.4506 38.1128 12.9537C38.1128 12.3534 37.853 11.7836 37.4003 11.3906Z" fill="#F7F7F7"/>
<path d="M20.3547 11.5401C20.2289 11.7343 20.0477 11.8867 19.8158 11.9925C19.6864 12.0519 19.5467 12.0945 19.3981 12.1194V12.4565C19.3981 12.6888 19.2098 12.8772 18.9773 12.8772C18.7448 12.8772 18.5566 12.6888 18.5566 12.4565V12.1024C18.4241 12.0771 18.3026 12.0404 18.1933 11.9934C17.9459 11.8867 17.7485 11.7234 17.6071 11.5079C17.5192 11.374 17.4566 11.2277 17.4206 11.0727C17.3942 10.9575 17.4189 10.8363 17.4885 10.7401C17.5588 10.6434 17.6676 10.5819 17.7866 10.5713C17.7986 10.5702 17.8107 10.5698 17.8228 10.5698C18.0083 10.5698 18.1714 10.6941 18.2195 10.8719C18.2402 10.9473 18.2687 11.0127 18.3047 11.0661C18.3603 11.1483 18.452 11.2177 18.5779 11.2726C18.6948 11.3233 18.8279 11.3525 18.9731 11.3593C18.9956 11.3604 19.0182 11.361 19.0421 11.361C19.1954 11.361 19.3306 11.3386 19.4436 11.2948C19.545 11.2556 19.6187 11.2043 19.6634 11.1425C19.7062 11.0831 19.7277 11.0188 19.7277 10.9505C19.7277 10.8811 19.7096 10.8255 19.671 10.7761C19.6417 10.7382 19.5771 10.6822 19.4368 10.6287C19.3559 10.5972 19.1822 10.5491 18.9213 10.4859C18.8919 10.4782 18.8636 10.4714 18.8345 10.4646C18.4933 10.3824 18.2576 10.3053 18.1126 10.2287C17.9182 10.1267 17.769 9.99508 17.6697 9.83794C17.569 9.67867 17.5179 9.49875 17.5179 9.30307C17.5179 9.09035 17.5786 8.88935 17.6985 8.70581C17.8194 8.52056 17.996 8.37939 18.2229 8.28528C18.3283 8.24184 18.4399 8.20905 18.5566 8.18669V7.8426C18.5566 7.61009 18.7448 7.42186 18.9773 7.42186C19.2098 7.42186 19.3981 7.61009 19.3981 7.8426V8.19862C19.503 8.2214 19.6027 8.2527 19.696 8.29188C19.9283 8.38983 20.1103 8.53738 20.237 8.73051C20.3041 8.83271 20.355 8.94365 20.389 9.06033C20.424 9.18042 20.4029 9.30839 20.3318 9.41081C20.2606 9.51344 20.1486 9.57753 20.0239 9.5869C20.013 9.58775 20.0019 9.58839 19.9911 9.58839C19.8088 9.58839 19.6506 9.46915 19.5974 9.29199C19.5676 9.19192 19.519 9.11548 19.4496 9.0582C19.3461 8.97324 19.1871 8.93172 18.9626 8.93066H18.956C18.6616 8.93066 18.5227 8.99241 18.4582 9.04393C18.373 9.11228 18.3349 9.18255 18.3349 9.27177C18.3349 9.34544 18.3579 9.39846 18.4099 9.44488C18.4405 9.47192 18.5596 9.54516 19.0059 9.64758L19.0255 9.65205C19.4189 9.74084 19.6847 9.81814 19.8378 9.88755C20.072 9.9955 20.2496 10.1369 20.3656 10.3081L20.3669 10.3096C20.4846 10.4852 20.5447 10.6882 20.5447 10.9124C20.5447 11.1342 20.4808 11.3455 20.3547 11.5401ZM18.9773 6.14941C18.9718 6.14941 18.9667 6.14941 18.9609 6.14941C16.7627 6.15814 14.9773 7.94928 14.9773 10.1494C14.9773 12.3552 16.7716 14.1497 18.9773 14.1497C21.1832 14.1497 22.9776 12.3552 22.9776 10.1494C22.9776 7.94374 21.1832 6.14941 18.9773 6.14941Z" fill="#F7F7F7"/>
<mask id="mask0_232_1518" style="mask-type:luminance" maskUnits="userSpaceOnUse" x="0" y="19" width="13" height="13">
<path d="M0 19.8252H12.1832V31.9997H0V19.8252Z" fill="white"/>
</mask>
<g mask="url(#mask0_232_1518)">
<path d="M0 23.6026L8.39739 31.9999L12.1611 28.2363L3.76369 19.8389L0 23.6026Z" fill="#F7F7F7"/>
</g>
</svg>
