<svg width="19" height="19" viewBox="0 0 19 19" fill="none" xmlns="http://www.w3.org/2000/svg">
<mask id="mask0_232_1304" style="mask-type:luminance" maskUnits="userSpaceOnUse" x="3" y="0" width="3" height="4">
<path d="M3.11426 0H5.49369V3.94997H3.11426V0Z" fill="white"/>
</mask>
<g mask="url(#mask0_232_1304)">
<path d="M4.30935 3.91777C4.95736 3.91777 5.48467 3.39046 5.48467 2.74245V1.17545C5.48467 0.527439 4.95736 0 4.30935 0C3.66134 0 3.13403 0.527439 3.13403 1.17545V2.74245C3.13403 3.39046 3.66134 3.91777 4.30935 3.91777Z" fill="#F2B80C"/>
</g>
<mask id="mask1_232_1304" style="mask-type:luminance" maskUnits="userSpaceOnUse" x="12" y="0" width="3" height="4">
<path d="M12.5315 0H14.9109V3.94997H12.5315V0Z" fill="white"/>
</mask>
<g mask="url(#mask1_232_1304)">
<path d="M13.7119 3.91777C14.3599 3.91777 14.8873 3.39046 14.8873 2.74245V1.17545C14.8873 0.527439 14.3599 0 13.7119 0C13.0639 0 12.5366 0.527439 12.5366 1.17545V2.74245C12.5366 3.39046 13.0639 3.91777 13.7119 3.91777Z" fill="#F2B80C"/>
</g>
<path d="M5.55057 14.0768C6.12658 14.1693 6.70717 14.0102 7.1452 13.6365C7.25713 13.5417 7.35754 13.4351 7.44367 13.3199C7.80172 13.7955 8.37065 14.1035 9.01081 14.1035C9.65096 14.1035 10.2198 13.7947 10.5779 13.3199C10.6641 13.4351 10.7644 13.5425 10.8764 13.6372C11.3152 14.011 11.8966 14.1693 12.4717 14.0776C13.4026 13.9256 14.1039 13.059 14.1039 12.0616V12.0585C14.1039 11.0257 13.2638 10.1858 12.2312 10.1858H9.40249V8.88976C9.63211 8.75256 9.79431 8.51287 9.79431 8.22683C9.79431 7.94707 9.54361 7.52475 9.33285 7.22078C9.18623 7.00844 8.83447 7.00844 8.68877 7.22078C8.478 7.52475 8.22718 7.94707 8.22718 8.22683C8.22718 8.51287 8.38937 8.75335 8.61899 8.88976V10.1858H5.7904C4.75765 10.1858 3.91772 11.0257 3.91772 12.0608C3.91772 13.059 4.6198 13.9248 5.55057 14.0768Z" fill="#F2B80C"/>
<mask id="mask2_232_1304" style="mask-type:luminance" maskUnits="userSpaceOnUse" x="0" y="1" width="19" height="18">
<path d="M0 1.53711H18.0217V18.0218H0V1.53711Z" fill="white"/>
</mask>
<g mask="url(#mask2_232_1304)">
<path d="M15.6711 1.60744V2.7427C15.6711 3.82245 14.7919 4.70165 13.7121 4.70165C12.6324 4.70165 11.7533 3.82245 11.7533 2.7427V1.56738H6.2684V2.7427C6.2684 3.82245 5.3892 4.70165 4.30945 4.70165C3.22983 4.70165 2.35063 3.82245 2.35063 2.7427V1.60744C1.0249 1.79936 0 2.93239 0 4.30983V15.2796C0 16.7918 1.23017 18.0219 2.74245 18.0219H15.2792C16.7915 18.0219 18.0217 16.7918 18.0217 15.2796V4.30983C18.0217 2.93239 16.9968 1.79936 15.6711 1.60744ZM17.2381 15.2796C17.2381 16.3593 16.359 17.2384 15.2792 17.2384H2.74245C1.6627 17.2384 0.783501 16.3593 0.783501 15.2796V6.26878H17.2381V15.2796Z" fill="#F2B80C"/>
</g>
<path d="M12.1512 14.8866C11.5847 14.8866 11.0346 14.7134 10.5763 14.3945C10.1202 14.7103 9.57328 14.8874 9.01075 14.8874C8.4481 14.8874 7.90037 14.7103 7.44519 14.3945C6.98753 14.7134 6.43757 14.8866 5.87099 14.8866C5.72372 14.8866 5.57487 14.8748 5.42602 14.8514C5.16892 14.809 4.92843 14.7189 4.70117 14.6069V15.2792C4.70117 15.9272 5.22848 16.4545 5.87649 16.4545H12.1449C12.7929 16.4545 13.3202 15.9272 13.3202 15.2792V14.6069C13.0939 14.7189 12.854 14.8082 12.5978 14.8506C12.4466 14.8748 12.2984 14.8866 12.1512 14.8866Z" fill="#F2B80C"/>
</svg>
