<svg width="18" height="19" viewBox="0 0 18 19" fill="none" xmlns="http://www.w3.org/2000/svg">
<mask id="mask0_232_3521" style="mask-type:luminance" maskUnits="userSpaceOnUse" x="0" y="0" width="18" height="19">
<path d="M0 0H17.2224V19H0V0Z" fill="white"/>
</mask>
<g mask="url(#mask0_232_3521)">
<path fill-rule="evenodd" clip-rule="evenodd" d="M11.2585 0.0112305H7.67629C6.0534 0.0112305 4.7679 0.0111102 3.76185 0.146381C2.72657 0.28562 1.88849 0.578768 1.22765 1.23949C0.566801 1.90022 0.273534 2.73806 0.134295 3.77321C-0.000976548 4.77903 -0.000976562 6.06428 -0.000976562 7.68681V13.0341C-0.000976562 14.6871 1.21069 16.0571 2.79451 16.305C2.91631 16.9795 3.14946 17.5554 3.61828 18.0239C4.14986 18.5554 4.81912 18.784 5.61392 18.8909C6.37961 18.9937 7.35308 18.9937 8.56078 18.9937H11.307C12.5147 18.9937 13.488 18.9937 14.2537 18.8909C15.0486 18.784 15.7179 18.5554 16.2494 18.0239C16.7809 17.4925 17.0095 16.8233 17.1164 16.0287C17.2193 15.2632 17.2193 14.29 17.2193 13.0825V8.57107C17.2193 7.36361 17.2193 6.39038 17.1164 5.62492C17.0095 4.83025 16.7809 4.16111 16.2494 3.62964C15.7807 3.16094 15.2047 2.9278 14.53 2.80599C14.2822 1.22254 12.9118 0.0112305 11.2585 0.0112305ZM13.1388 2.67854C12.8714 1.89733 12.1306 1.33556 11.2585 1.33556H7.72607C6.04222 1.33556 4.84594 1.33701 3.93836 1.45893C3.0499 1.57833 2.53803 1.80234 2.16432 2.17593C1.79061 2.54964 1.56661 3.06138 1.44709 3.94972C1.32516 4.85706 1.32372 6.0531 1.32372 7.73659V13.0341C1.32372 13.906 1.8856 14.6467 2.66705 14.9141C2.64829 14.3756 2.64841 13.7666 2.64841 13.0825V8.57107C2.64829 7.36361 2.64829 6.39038 2.75122 5.62492C2.85811 4.83025 3.08669 4.16111 3.61828 3.62964C4.14986 3.09818 4.81912 2.8696 5.61392 2.76283C6.37961 2.6599 7.35308 2.6599 8.56078 2.6599H11.307C11.9911 2.6599 12.6002 2.6599 13.1388 2.67854ZM4.55495 4.56608C4.7994 4.32175 5.14245 4.16243 5.79043 4.07538C6.45753 3.98568 7.34154 3.98423 8.60924 3.98423H11.2585C12.5261 3.98423 13.4101 3.98568 14.0772 4.07538C14.7252 4.16243 15.0683 4.32175 15.3127 4.56608C15.5571 4.81041 15.7164 5.15358 15.8036 5.80144C15.8933 6.46829 15.8946 7.35218 15.8946 8.61952V13.0341C15.8946 14.3014 15.8933 15.1853 15.8036 15.8523C15.7164 16.5 15.5571 16.8432 15.3127 17.0875C15.0683 17.3318 14.7252 17.4911 14.0772 17.5783C13.4101 17.6679 12.5261 17.6693 11.2585 17.6693H8.60924C7.34154 17.6693 6.45753 17.6679 5.79043 17.5783C5.14245 17.4911 4.7994 17.3318 4.55495 17.0875C4.3105 16.8432 4.15119 16.5 4.06413 15.8523C3.97443 15.1853 3.97299 14.3014 3.97299 13.0341V8.61952C3.97299 7.35218 3.97443 6.46829 4.06413 5.80144C4.15119 5.15358 4.3105 4.81041 4.55495 4.56608Z" fill="white"/>
</g>
</svg>
