<svg width="14" height="18" viewBox="0 0 14 18" fill="none" xmlns="http://www.w3.org/2000/svg">
<mask id="mask0_232_1290" style="mask-type:luminance" maskUnits="userSpaceOnUse" x="0" y="0" width="14" height="18">
<path d="M13.1152 0H-6.67572e-06V18H13.1152V0Z" fill="white"/>
</mask>
<g mask="url(#mask0_232_1290)">
<mask id="mask1_232_1290" style="mask-type:luminance" maskUnits="userSpaceOnUse" x="0" y="0" width="13" height="19">
<path d="M0.656006 0.931641H12.682V18.0007H0.656006V0.931641Z" fill="white"/>
</mask>
<g mask="url(#mask1_232_1290)">
<path d="M6.66773 0.952148C3.35234 0.952148 0.655029 3.64842 0.655029 6.96265C0.655029 9.30251 4.92596 15.244 6.34806 17.8093C6.41243 17.9256 6.53482 17.9976 6.66761 17.9976C6.66773 17.9976 6.66773 17.9976 6.66773 17.9976C6.80052 17.9976 6.92291 17.9256 6.98728 17.8096C8.49884 15.0857 12.6804 9.45818 12.6804 6.96265C12.6804 3.64842 9.98312 0.952148 6.66773 0.952148ZM6.66808 16.9007C5.11457 14.2795 1.38602 8.88229 1.38602 6.96265C1.38602 4.0513 3.75534 1.68267 6.66773 1.68267C9.58012 1.68267 11.9496 4.0513 11.9496 6.96265C11.9496 9.00537 8.2492 14.2424 6.66808 16.9007Z" fill="#F2B80C"/>
</g>
<path d="M6.66728 3.20508C4.88801 3.20508 3.44043 4.65227 3.44043 6.43115C3.44043 8.20977 4.88801 9.65684 6.66728 9.65684C8.44719 9.65684 9.89542 8.20977 9.89542 6.43115C9.89542 4.65227 8.44719 3.20508 6.66728 3.20508Z" fill="#F2B80C"/>
</g>
</svg>
