<svg width="20" height="20" viewBox="0 0 20 20" fill="none" xmlns="http://www.w3.org/2000/svg">
<path d="M16.3481 10.5408C16.3336 10.5996 16.3144 10.6568 16.2907 10.7123C16.2671 10.768 16.2391 10.8213 16.207 10.8724C16.1749 10.9235 16.1389 10.9717 16.099 11.0168C16.0593 11.0621 16.0162 11.1037 15.9698 11.142C15.9233 11.1802 15.8742 11.2143 15.8223 11.2445C15.7705 11.2748 15.7165 11.3006 15.6606 11.322C15.6047 11.3435 15.5474 11.3601 15.4888 11.3722C15.4301 11.3843 15.3709 11.3917 15.3112 11.3941C15.2513 11.3965 15.1918 11.3941 15.1324 11.3869C15.073 11.3797 15.0147 11.3676 14.9571 11.351C14.8997 11.3341 14.8439 11.3129 14.7898 11.287C14.7357 11.2613 14.6838 11.2312 14.6346 11.1969C14.5853 11.1626 14.5389 11.1247 14.4957 11.0829C14.4523 11.0411 14.4126 10.996 14.3764 10.9478C14.3403 10.8995 14.3083 10.8487 14.2802 10.7951C14.2521 10.7417 14.2285 10.6863 14.2091 10.629C14.2014 10.6065 14.1958 10.5835 14.1927 10.5601C14.1893 10.5365 14.1883 10.513 14.1896 10.4893C14.1909 10.4656 14.1945 10.4421 14.2002 10.4192C14.2061 10.3962 14.2141 10.3741 14.2243 10.3526C14.2344 10.3312 14.2465 10.311 14.2605 10.2921C14.2747 10.2731 14.2904 10.2556 14.3078 10.2397C14.3254 10.224 14.3441 10.21 14.3644 10.1978C14.3845 10.1857 14.4056 10.1758 14.4278 10.168C14.4499 10.16 14.4726 10.1544 14.4958 10.151C14.519 10.1476 14.5424 10.1467 14.5657 10.1479C14.5891 10.1492 14.6122 10.1528 14.6349 10.1586C14.6577 10.1645 14.6796 10.1726 14.7008 10.1828C14.7219 10.1931 14.7419 10.2053 14.7606 10.2195C14.7794 10.2338 14.7966 10.2497 14.8123 10.2674C14.828 10.285 14.8418 10.304 14.8537 10.3245C14.8658 10.3448 14.8756 10.3663 14.8835 10.3886C14.8894 10.4054 14.896 10.4218 14.9024 10.4383C14.9205 10.4666 14.938 10.4954 14.958 10.5231C14.9654 10.5304 14.9725 10.5379 14.9802 10.5453C15.0053 10.5636 15.0295 10.5835 15.0525 10.6046C15.0644 10.6117 15.0763 10.6186 15.0887 10.6248C15.106 10.6339 15.1233 10.6413 15.1397 10.6492C15.1672 10.6573 15.195 10.664 15.2232 10.6692H15.227C15.2309 10.67 15.2347 10.6706 15.2388 10.6707C15.2506 10.6707 15.2624 10.6723 15.274 10.6752C15.2674 10.6732 15.2642 10.6729 15.2589 10.671C15.2878 10.6698 15.3163 10.6654 15.3446 10.6631C15.3608 10.6583 15.3763 10.6533 15.3919 10.6475C15.4075 10.6418 15.419 10.6369 15.4323 10.6313C15.4557 10.6118 15.4876 10.5977 15.5117 10.5795L15.5231 10.5708C15.5309 10.5636 15.5394 10.5566 15.5458 10.5496C15.5677 10.5263 15.5864 10.5015 15.6061 10.4766C15.615 10.4602 15.624 10.444 15.6314 10.4272C15.6376 10.4145 15.6428 10.4013 15.6487 10.3884C15.6506 10.3822 15.6537 10.3765 15.6576 10.3713C15.6632 10.3487 15.671 10.3268 15.6809 10.3057C15.6908 10.2844 15.7026 10.2645 15.7164 10.2457C15.7301 10.2269 15.7457 10.2096 15.7628 10.1938C15.7799 10.1781 15.7983 10.1641 15.8181 10.1521C15.8379 10.14 15.8586 10.13 15.8804 10.1221C15.9021 10.1141 15.9245 10.1083 15.9473 10.1048C15.9701 10.1011 15.9931 10.0999 16.0162 10.1008C16.0393 10.1019 16.062 10.1051 16.0845 10.1106C16.1071 10.1161 16.1287 10.1238 16.1497 10.1335C16.1707 10.1433 16.1906 10.1551 16.2092 10.1689C16.228 10.1827 16.2452 10.1981 16.2609 10.2152C16.2766 10.2324 16.2907 10.2509 16.3028 10.2708C16.3149 10.2907 16.325 10.3116 16.3331 10.3335C16.3413 10.3554 16.3472 10.3779 16.351 10.401C16.3548 10.4241 16.3563 10.4473 16.3555 10.4708C16.3548 10.4942 16.3519 10.5173 16.3466 10.5401L16.3481 10.5408ZM19.9596 13.6155C19.9393 13.683 19.9126 13.7477 19.8795 13.8096C19.8464 13.8716 19.8074 13.9297 19.7628 13.9838C19.7181 14.0378 19.6685 14.0869 19.6141 14.1308C19.5597 14.1747 19.5013 14.2128 19.4394 14.2448C19.1985 14.3589 18.9489 14.4489 18.6911 14.5145C18.417 14.5993 18.1454 14.684 17.8715 14.7662C17.8065 14.9051 17.7352 15.0408 17.6577 15.173C17.5801 15.3052 17.4969 15.4336 17.4075 15.558C17.3182 15.6823 17.2235 15.8021 17.1231 15.9176C17.0229 16.0332 16.9174 16.1436 16.8071 16.2492C16.6966 16.3548 16.5816 16.455 16.4619 16.5497C16.3424 16.6444 16.2186 16.7333 16.0907 16.8164C15.963 16.8994 15.8317 16.9764 15.6969 17.0471C15.5619 17.1178 15.4241 17.182 15.2834 17.2399C15.307 17.6592 15.2866 18.0765 15.2222 18.4914C15.1378 19.0296 15.0299 19.6678 14.6214 19.8321C14.6086 19.8373 14.5957 19.8419 14.5826 19.8457C14.34 19.9485 14.0873 19.9969 13.8245 19.9908C13.6333 20.0093 13.4432 20 13.2546 19.9628C13.066 19.9256 12.8864 19.8621 12.716 19.7724C12.6223 19.7152 12.5394 19.6448 12.4673 19.5616V19.5579C12.3667 19.4259 12.2887 19.2813 12.2332 19.1242C12.1778 18.9672 12.1474 18.8053 12.1424 18.6387C12.1373 18.5717 12.1299 18.5026 12.1273 18.4355C10.9785 18.5061 9.83251 18.4735 8.68934 18.3379L8.64869 18.7926C8.64899 18.9201 8.63478 19.0459 8.60607 19.1699C8.57735 19.294 8.53489 19.4132 8.47882 19.5272C8.23776 19.9176 7.78603 19.9793 7.36754 19.9897C7.17636 20.0081 6.98639 19.9989 6.79777 19.9622C6.60916 19.9254 6.42947 19.8627 6.25854 19.774C5.85532 19.522 5.72595 19.0931 5.68544 18.6413C5.64993 18.2584 5.62695 17.8731 5.60172 17.4905C5.48595 17.4323 5.37215 17.3705 5.26016 17.305C5.14832 17.2397 5.03845 17.1709 4.93084 17.0985C4.82323 17.026 4.7179 16.9502 4.61497 16.8713C4.5119 16.7922 4.41155 16.7099 4.31377 16.6243C4.21583 16.539 4.12077 16.4505 4.02843 16.3589C3.93609 16.2674 3.84662 16.1732 3.76017 16.0758C3.67357 15.9787 3.59015 15.8789 3.5099 15.7764C3.42965 15.6739 3.35257 15.569 3.27866 15.4616C3.20491 15.3542 3.13448 15.2446 3.06753 15.1326C3.00058 15.0208 2.93711 14.9069 2.87711 14.791C2.81711 14.6751 2.76089 14.5575 2.70829 14.438C2.65555 14.3185 2.60673 14.1975 2.56154 14.0748C2.51651 13.9522 2.4751 13.8283 2.43777 13.7032C2.40029 13.5778 2.36673 13.4516 2.33711 13.3243C2.30749 13.1969 2.2818 13.0688 2.26019 12.9398C2.23857 12.8109 2.22089 12.6813 2.20729 12.5512C1.9818 12.5869 1.7551 12.5979 1.52735 12.5846C1.46039 12.67 1.38649 12.7487 1.30594 12.821C1.22538 12.8933 1.13909 12.9579 1.04735 13.015C0.955614 13.072 0.859645 13.1207 0.759595 13.1608C0.659395 13.2009 0.556625 13.2318 0.451135 13.2538C0.428616 13.2593 0.405644 13.2627 0.382521 13.2639C0.359247 13.2651 0.336123 13.2642 0.313151 13.261C0.290179 13.2578 0.267661 13.2523 0.245595 13.2448C0.223681 13.2373 0.202523 13.2276 0.182271 13.2162C0.162019 13.2045 0.143128 13.1911 0.125445 13.1759C0.107763 13.1606 0.0915917 13.1439 0.0769319 13.1256C0.0624232 13.1072 0.0497281 13.0876 0.0388466 13.067C0.027814 13.0462 0.0190483 13.0246 0.0120963 13.0021C0.00605098 12.9793 0.00227266 12.9562 0.000761355 12.9327C-0.000749985 12.9091 5.72401e-06 12.8857 0.0028772 12.8623C0.00589985 12.839 0.0110383 12.8161 0.0184438 12.7937C0.0258493 12.7714 0.0352195 12.75 0.0468566 12.7295C0.0583427 12.709 0.0716423 12.6898 0.0869066 12.6721C0.102171 12.6542 0.118947 12.638 0.137234 12.6234C0.155672 12.6091 0.175168 12.5964 0.195873 12.5858C0.216729 12.5751 0.238341 12.5667 0.260709 12.5603C0.350934 12.5422 0.438893 12.5163 0.524585 12.4827C0.536827 12.4786 0.548766 12.4734 0.560101 12.4672C0.577935 12.4594 0.593199 12.4492 0.611184 12.4414C0.654105 12.4181 0.695515 12.3923 0.735414 12.364C0.737984 12.364 0.743122 12.3588 0.750679 12.351C0.672543 12.3017 0.599849 12.2451 0.532595 12.1814C0.126957 11.7862 0.0275118 11.0416 0.484233 10.6409C0.537582 10.5932 0.595466 10.5523 0.658035 10.518C0.720603 10.4839 0.786195 10.4573 0.854809 10.4383C0.923423 10.4195 0.993246 10.4086 1.06428 10.406C1.13531 10.4033 1.20574 10.4088 1.27541 10.4226C1.34553 10.4402 1.41249 10.4663 1.47596 10.5012C1.53944 10.5361 1.59762 10.5785 1.65052 10.6283C1.70326 10.6782 1.74906 10.7341 1.7879 10.7957C1.82659 10.8575 1.85712 10.9232 1.87933 10.9928C1.92754 11.1351 1.95293 11.2815 1.9555 11.4319C1.95807 11.5824 1.93767 11.7296 1.89445 11.8734L1.96049 11.8658C1.97757 11.865 1.99465 11.8633 2.01157 11.8609C2.02654 11.8583 2.05722 11.8531 2.05978 11.8531C2.10029 11.8453 2.14094 11.8402 2.17888 11.8324C2.18946 11.274 2.27817 10.7287 2.44532 10.1964C2.51243 9.98636 2.58996 9.78043 2.67822 9.57862C2.76648 9.37682 2.86486 9.18022 2.97353 8.98881C3.08204 8.79741 3.20023 8.61229 3.32793 8.43343C3.45549 8.25458 3.59211 8.08291 3.7375 7.91844C3.88289 7.75412 4.03644 7.59775 4.198 7.4495C4.35956 7.3014 4.52838 7.16217 4.70429 7.03181C4.88021 6.90146 5.06233 6.78074 5.25079 6.66982C5.43925 6.55874 5.63285 6.45792 5.83159 6.36734C5.6927 6.06884 5.58766 5.75856 5.51663 5.4365C5.44545 5.11429 5.40993 4.78825 5.41008 4.45823V4.41983C5.40963 4.39657 5.41038 4.37347 5.4125 4.35036C5.42217 3.88479 5.50167 3.43192 5.65114 2.99159H5.65854C5.72217 2.80631 5.79834 2.62669 5.88705 2.45227C5.92756 2.37271 5.97078 2.29284 6.01642 2.21971H5.99708C6.10075 2.043 6.21501 1.87347 6.33984 1.7113C6.39803 1.63373 6.45894 1.55968 6.52483 1.48777H6.5478C6.57818 1.45196 6.61113 1.41861 6.64422 1.38235C6.66689 1.3594 6.68745 1.33614 6.70755 1.31319C6.89284 1.12899 7.09158 0.961146 7.30376 0.809525C7.35666 0.772193 7.41031 0.735932 7.46472 0.701049C7.51928 0.666012 7.57444 0.632199 7.63036 0.599611C7.68628 0.567022 7.7428 0.535658 7.80008 0.505517C7.85736 0.475529 7.91525 0.446613 7.97373 0.419073C8.03222 0.391533 8.09131 0.36537 8.15086 0.340432C8.21056 0.315493 8.27071 0.291931 8.33131 0.269594C8.39192 0.247409 8.45312 0.226448 8.51464 0.206864C8.57615 0.18728 8.63811 0.169074 8.70038 0.152244C8.76279 0.135414 8.82536 0.119808 8.88838 0.105732C8.95141 0.0916565 9.01473 0.0789576 9.07821 0.0677887C9.14183 0.0564669 9.20546 0.0465219 9.26954 0.0381071C9.33347 0.0295391 9.39755 0.0225012 9.46178 0.0168403C9.52616 0.0111794 9.59054 0.00689538 9.65493 0.00414143C9.71946 0.00138748 9.78384 -0.000142515 9.84838 1.04739e-05C9.91291 1.04739e-05 9.97744 0.00138749 10.0418 0.00429443C10.1064 0.0072014 10.1706 0.0114854 10.235 0.0171463C10.2992 0.0229602 10.3633 0.0299981 10.4272 0.038566C10.4911 0.047134 10.5549 0.0570788 10.6185 0.0684007C10.682 0.0797226 10.7453 0.0924214 10.8082 0.10665C10.8712 0.120726 10.934 0.136332 10.9962 0.153162C11.0585 0.170145 11.1205 0.188351 11.182 0.207935C11.2435 0.227672 11.3045 0.248633 11.3653 0.27097C11.4259 0.293308 11.4859 0.31687 11.5456 0.341962C11.6051 0.3669 11.6642 0.393216 11.7227 0.420756C11.7812 0.448296 11.8391 0.477212 11.8962 0.507353C11.9535 0.537494 12.01 0.568858 12.0659 0.601447C12.1219 0.634188 12.177 0.668001 12.2314 0.703038C12.2858 0.738074 12.3395 0.774335 12.3924 0.811819C12.4453 0.849304 12.4973 0.88786 12.5485 0.927486C12.5997 0.967266 12.6501 1.00812 12.6995 1.05004C12.7489 1.09196 12.7974 1.13495 12.845 1.17917C12.8926 1.22323 12.9392 1.26837 12.985 1.31442C13.1266 1.45655 13.2582 1.60787 13.3796 1.76806C13.5011 1.92825 13.6114 2.09609 13.7104 2.27142C13.8094 2.44676 13.8963 2.62791 13.9711 2.81518C14.0459 3.00245 14.1079 3.194 14.1572 3.38969C14.245 3.75076 14.2888 4.1172 14.2888 4.48898C14.2888 4.58154 14.2865 4.67396 14.2814 4.76392C14.2762 4.84868 14.2687 4.93344 14.2584 5.0156C14.2431 5.14473 14.2209 5.27187 14.1946 5.39794C14.8187 4.97781 15.5294 4.73959 16.2806 5.09287C17.4071 5.62438 17.2504 7.0823 17.0291 8.13386C17.1237 8.19888 17.2149 8.2688 17.3024 8.34347C17.39 8.41798 17.4734 8.49708 17.5529 8.58046C17.6324 8.66369 17.7074 8.75105 17.778 8.84224C17.8486 8.93358 17.9141 9.02814 17.975 9.12636C18.036 9.22443 18.0916 9.32541 18.1422 9.42945C18.1927 9.53334 18.2379 9.63967 18.2775 9.7483C18.3172 9.85693 18.3512 9.96739 18.3796 10.0797C18.4079 10.1918 18.4306 10.3054 18.4473 10.42C18.8888 10.4659 19.333 10.5895 19.5943 10.9883C19.6664 11.1137 19.723 11.2457 19.7642 11.3846C19.8053 11.5235 19.8299 11.6654 19.8377 11.8103C19.8784 12.1184 19.9144 12.4304 19.9519 12.7374C20.0134 13.0297 20.0159 13.3223 19.9596 13.6155ZM1.24276 11.442C1.24322 11.4172 1.24231 11.3924 1.2402 11.3676C1.2405 11.3589 1.23959 11.3503 1.23763 11.3418C1.23793 11.3312 1.23627 11.321 1.23264 11.311C1.2275 11.2881 1.21979 11.2648 1.21465 11.2393C1.21269 11.237 1.21178 11.2345 1.21224 11.2315V11.2289C1.20453 11.2108 1.19455 11.1929 1.18669 11.1771C1.17959 11.1674 1.17203 11.1579 1.16372 11.149L1.15118 11.1361C1.14906 11.1339 1.14649 11.132 1.14347 11.1309L1.13848 11.1257C1.12911 11.1247 1.11974 11.1231 1.11052 11.1208C1.09964 11.1187 1.08861 11.1179 1.07743 11.1182C1.07486 11.1208 1.07743 11.1208 1.07259 11.1208C1.05733 11.1257 1.03934 11.1309 1.02151 11.1361H1.0203C1.00745 11.1438 0.992188 11.1516 0.979644 11.1594C0.974505 11.162 0.969518 11.1669 0.96181 11.1721C0.951533 11.1824 0.93914 11.1928 0.93914 11.1954C0.937327 11.1954 0.936571 11.1961 0.936571 11.1978C0.926294 11.2131 0.918737 11.2286 0.91103 11.2416L0.90846 11.2442C0.905891 11.2468 0.905891 11.2492 0.905891 11.2543C0.901055 11.2723 0.895917 11.293 0.890929 11.3107C0.890929 11.3415 0.893347 11.3751 0.893347 11.4059C0.901962 11.4328 0.908612 11.4602 0.913599 11.488C0.915866 11.4939 0.917528 11.5 0.918737 11.5061C0.921156 11.5087 0.921156 11.5139 0.926294 11.5191C0.936571 11.5368 0.943977 11.5575 0.954102 11.5754C0.96181 11.5857 0.969518 11.5961 0.974505 11.6037C0.98312 11.6163 0.992339 11.6282 1.00231 11.6394C1.01773 11.655 1.03299 11.6704 1.04811 11.6834C1.05536 11.6906 1.06292 11.6975 1.07108 11.7038C1.08634 11.7128 1.1007 11.723 1.11415 11.7348C1.13183 11.7448 1.14967 11.7578 1.1672 11.768C1.17143 11.7682 1.17491 11.7699 1.17748 11.7732C1.19274 11.727 1.21042 11.6834 1.22055 11.6394C1.22569 11.6112 1.23083 11.5831 1.23596 11.5575C1.23763 11.5193 1.24276 11.4805 1.24276 11.442ZM6.08609 4.48638C6.08594 4.70042 6.10363 4.91279 6.13944 5.12362C6.17949 5.37484 6.24554 5.61872 6.33743 5.85556C6.43113 6.10373 6.54962 6.33904 6.69289 6.5615C6.83616 6.78411 7.00105 6.98882 7.18739 7.17578C7.21006 7.19889 7.2279 7.21694 7.2483 7.23469C7.37752 7.36275 7.51626 7.47918 7.66437 7.58398C8.29262 7.38096 8.93539 7.25075 9.59251 7.19369C9.56319 7.16156 9.54067 7.12499 9.5248 7.08429C9.50908 7.04359 9.50123 7.00121 9.50123 6.95746V6.56716C9.42959 6.56134 9.35916 6.54941 9.28964 6.53105C9.22027 6.51269 9.15287 6.48821 9.08773 6.45776C9.02259 6.42732 8.96063 6.39121 8.90184 6.34959C8.84289 6.30798 8.78818 6.26147 8.73755 6.21006C8.68058 6.1533 8.62965 6.09133 8.58491 6.02417C8.54018 5.957 8.50254 5.88601 8.47186 5.81135C8.44118 5.73653 8.41806 5.65942 8.40265 5.58001C8.38723 5.50045 8.37983 5.42028 8.38028 5.33935C8.37922 5.32695 8.38088 5.31502 8.38542 5.30339C8.38799 5.26438 8.39721 5.22689 8.41277 5.19109C8.42849 5.15529 8.4498 5.12331 8.4767 5.09516C8.50073 5.07037 8.52778 5.04957 8.55801 5.03289C8.58809 5.01621 8.61997 5.00443 8.65368 4.99739C8.68723 4.9902 8.72123 4.98837 8.75539 4.99143C8.78954 4.99464 8.82249 5.00275 8.85438 5.01575C8.88627 5.02891 8.91544 5.04635 8.94219 5.06823C8.96879 5.09011 8.99176 5.11551 9.01095 5.14427C9.03015 5.17304 9.04481 5.2041 9.05493 5.2373C9.06506 5.2705 9.0702 5.30462 9.07035 5.33935C9.06989 5.35663 9.07065 5.37377 9.07292 5.39106C9.07926 5.4518 9.09559 5.50979 9.12188 5.56502C9.14818 5.6201 9.18294 5.66906 9.22601 5.7119C9.27407 5.7633 9.33045 5.80293 9.39483 5.83062C9.45921 5.85832 9.52631 5.87193 9.59629 5.87132H10.099C10.1644 5.87147 10.2276 5.85939 10.2886 5.83506C10.3495 5.81058 10.4038 5.77554 10.4514 5.72995C10.4579 5.7246 10.4639 5.71863 10.4692 5.7119C10.5437 5.63662 10.591 5.54666 10.6113 5.44216C10.6166 5.41768 10.619 5.3929 10.6187 5.3678C10.621 5.35847 10.6219 5.34914 10.6213 5.33965C10.622 5.2708 10.6096 5.20471 10.5842 5.14091C10.5587 5.07726 10.5221 5.02096 10.4744 4.97215C10.4744 4.96955 10.4718 4.96695 10.4692 4.96465C10.4308 4.92533 10.3873 4.8929 10.3388 4.8675C10.2903 4.8421 10.2391 4.82481 10.1851 4.81563C10.1567 4.81043 10.1278 4.80783 10.099 4.80783H9.59553C9.54732 4.80798 9.49911 4.80538 9.4512 4.80018C9.31594 4.7832 9.18732 4.74434 9.06506 4.68359C8.94294 4.62285 8.83383 4.5436 8.73801 4.44568C8.68103 4.38877 8.6301 4.32696 8.58536 4.25979C8.54063 4.19262 8.503 4.12163 8.47232 4.04697C8.44164 3.97215 8.41852 3.89504 8.4031 3.81564C8.38768 3.73608 8.38028 3.65591 8.38073 3.57497V3.56717C8.38028 3.55768 8.38119 3.54835 8.3833 3.53901C8.38375 3.51408 8.38542 3.48929 8.38844 3.46466C8.38799 3.45502 8.38889 3.44553 8.39101 3.4362C8.40068 3.33599 8.4229 3.23868 8.45751 3.14413C8.49212 3.04973 8.53791 2.96129 8.59519 2.87883C8.63856 2.81732 8.68677 2.75995 8.73982 2.70686C8.79 2.65514 8.84425 2.60848 8.90259 2.56656C8.96093 2.52479 9.02244 2.48853 9.08727 2.45778C9.15196 2.42702 9.21891 2.40239 9.28798 2.38372C9.3572 2.36506 9.42732 2.35282 9.49866 2.34685H9.50123V1.95395C9.50017 1.93988 9.50183 1.92611 9.50621 1.9128C9.50621 1.91019 9.50878 1.90759 9.50878 1.90254C9.50878 1.89734 9.51135 1.89734 9.51135 1.89474C9.51468 1.87485 9.51966 1.85542 9.52631 1.8363C9.53296 1.81732 9.54128 1.79912 9.5511 1.78152C9.56092 1.76393 9.57226 1.7474 9.58495 1.73195C9.59765 1.71635 9.6117 1.70212 9.62682 1.68896C9.64208 1.67595 9.65825 1.66433 9.67548 1.65423C9.69271 1.64398 9.71069 1.63541 9.72943 1.62837C9.74802 1.62149 9.76722 1.61613 9.78686 1.61261C9.80651 1.60909 9.82631 1.60726 9.84626 1.6071C9.86878 1.6071 9.89115 1.6094 9.91321 1.61384C9.93543 1.61827 9.95689 1.6247 9.97774 1.63342C9.9986 1.64214 10.0184 1.65285 10.0371 1.6654C10.056 1.6781 10.0734 1.69248 10.0894 1.70854C10.1055 1.72461 10.1197 1.74205 10.1324 1.76102C10.1449 1.77999 10.1556 1.79988 10.1644 1.821C10.1732 1.84196 10.1797 1.86368 10.1842 1.88617C10.1887 1.90851 10.1911 1.931 10.1913 1.95395V2.34685C10.2289 2.35022 10.2664 2.35527 10.3036 2.362C10.3408 2.36888 10.3775 2.3773 10.4139 2.38755C10.4503 2.3978 10.4863 2.40973 10.5215 2.4232C10.5569 2.43681 10.5915 2.45211 10.6255 2.46879C10.6595 2.48562 10.6926 2.50398 10.7248 2.52387C10.7571 2.54391 10.7884 2.56518 10.8188 2.58798C10.849 2.61093 10.8783 2.6351 10.9065 2.66065C10.9346 2.6862 10.9615 2.71298 10.9872 2.74113C11.0128 2.76913 11.0372 2.79835 11.0602 2.8288C11.0831 2.85909 11.1047 2.89045 11.1248 2.92274C11.1451 2.95517 11.1637 2.98837 11.1809 3.02249C11.198 3.05661 11.2136 3.09149 11.2275 3.12699C11.2414 3.16249 11.2538 3.19875 11.2643 3.23547C11.2751 3.27203 11.284 3.30921 11.2912 3.3467C11.2986 3.38433 11.3041 3.42212 11.308 3.46022C11.3118 3.49832 11.3139 3.53641 11.3142 3.57466C11.3147 3.58262 11.3138 3.59027 11.3116 3.59792C11.3112 3.61521 11.3097 3.6325 11.3068 3.64963C11.2902 3.72093 11.2556 3.78182 11.2027 3.83201C11.1708 3.86245 11.1344 3.88586 11.0936 3.90239C11.0529 3.91876 11.0106 3.92702 10.9666 3.92702C10.9438 3.92687 10.9213 3.92457 10.899 3.91998C10.8767 3.91539 10.8549 3.90851 10.8339 3.89963C10.8129 3.89076 10.793 3.87989 10.7741 3.86704C10.7552 3.85419 10.7376 3.83966 10.7215 3.82329C10.7054 3.80707 10.6909 3.78932 10.6782 3.77019C10.6655 3.75092 10.6548 3.73072 10.6461 3.70945C10.6373 3.68819 10.6306 3.66631 10.6261 3.64367C10.6216 3.62102 10.6191 3.59822 10.619 3.57512C10.6191 3.54039 10.616 3.50597 10.6095 3.47185C10.6028 3.43758 10.593 3.40453 10.58 3.37225C10.567 3.34012 10.5508 3.30952 10.5318 3.2806C10.5128 3.25168 10.4911 3.22491 10.4668 3.20028C10.4426 3.17564 10.4162 3.15376 10.3875 3.13449C10.3589 3.11506 10.3287 3.09884 10.2969 3.08568C10.2652 3.07237 10.2324 3.06242 10.1987 3.05585C10.165 3.04911 10.131 3.0459 10.0965 3.04605H9.59553C9.52616 3.04575 9.45921 3.05906 9.39513 3.08599C9.3309 3.11276 9.27422 3.15116 9.22526 3.20104C9.18793 3.2373 9.15831 3.27938 9.13639 3.32696C9.09574 3.39382 9.07458 3.46665 9.07292 3.54513C9.0708 3.55539 9.06989 3.56564 9.07035 3.57589C9.06989 3.59394 9.0708 3.61199 9.07292 3.6299C9.07926 3.69079 9.09559 3.74893 9.12188 3.80401C9.14818 3.85924 9.18294 3.9082 9.22601 3.95104C9.22858 3.95364 9.22858 3.95609 9.23115 3.95609C9.27921 4.00566 9.33498 4.04391 9.3983 4.07068C9.46163 4.09761 9.52767 4.11107 9.59629 4.11107H10.099C10.1361 4.11107 10.1733 4.11291 10.2103 4.11643C10.2475 4.1201 10.2844 4.1253 10.321 4.13234C10.3575 4.13938 10.3938 4.14795 10.4296 4.15835C10.4654 4.16876 10.5007 4.18069 10.5354 4.19446C10.5702 4.20808 10.6042 4.22322 10.6376 4.24005C10.6708 4.25704 10.7033 4.27524 10.7351 4.29513C10.7668 4.31502 10.7975 4.33629 10.8273 4.35909C10.8569 4.38173 10.8856 4.4059 10.9131 4.4313C10.9406 4.4567 10.9671 4.48332 10.9921 4.51117C11.0172 4.53901 11.0411 4.56793 11.0635 4.59792C11.086 4.62806 11.1072 4.65912 11.1268 4.69109C11.1464 4.72322 11.1646 4.75612 11.1814 4.78978C11.198 4.82359 11.2131 4.85801 11.2265 4.89305C11.2402 4.92824 11.2521 4.96389 11.2624 5.00015C11.2726 5.03641 11.2813 5.07313 11.2882 5.11015C11.2952 5.14718 11.3005 5.18451 11.3041 5.222L11.3115 5.2757C11.3115 5.29895 11.3165 5.31946 11.3165 5.34011C11.3165 5.37607 11.3141 5.40942 11.3115 5.44522C11.3091 5.46327 11.3091 5.48118 11.3066 5.50183C11.2971 5.569 11.2828 5.63494 11.2634 5.69981C11.2028 5.89565 11.1008 6.06593 10.9572 6.21082C10.8271 6.34393 10.6748 6.44139 10.5004 6.50351C10.4009 6.53809 10.2989 6.55966 10.194 6.56792V6.95822C10.1936 7.03304 10.1716 7.10066 10.1283 7.1611C10.8631 7.13799 11.5903 7.2021 12.3102 7.35387C12.3765 7.29803 12.44 7.23897 12.5004 7.17655C12.6337 7.04359 12.7563 6.90115 12.8681 6.74938C12.98 6.59745 13.0797 6.43787 13.1675 6.27065C13.2552 6.10342 13.33 5.93038 13.3917 5.75152C13.4535 5.57267 13.5014 5.39014 13.5357 5.20394C13.5484 5.14473 13.5587 5.08323 13.5661 5.02157C13.5813 4.90866 13.594 4.79284 13.5992 4.67732C13.604 4.60526 13.6066 4.5309 13.6066 4.45655C13.6064 4.39428 13.6049 4.33216 13.6017 4.27004C13.5986 4.20792 13.594 4.14596 13.5878 4.08399C13.5816 4.02218 13.5741 3.96052 13.565 3.89902C13.5558 3.83751 13.5452 3.77631 13.5331 3.71527C13.521 3.65438 13.5076 3.59363 13.4925 3.53335C13.4775 3.47307 13.461 3.41325 13.4431 3.35373C13.4252 3.29422 13.4059 3.23531 13.385 3.17671C13.3643 3.11827 13.3421 3.06028 13.3185 3.00276C13.2949 2.94538 13.27 2.88862 13.2436 2.83247C13.2173 2.77616 13.1896 2.72078 13.1606 2.66601C13.1316 2.61108 13.1012 2.55707 13.0696 2.50383C13.0379 2.45043 13.0051 2.39795 12.9708 2.34639C12.9366 2.29468 12.9012 2.24388 12.8647 2.19401C12.8279 2.14398 12.7902 2.09502 12.7512 2.04697C12.712 1.99893 12.672 1.95196 12.6307 1.90591C12.5893 1.85986 12.547 1.81488 12.5035 1.77097C12.4601 1.72706 12.4155 1.68422 12.37 1.64245C12.3245 1.60068 12.278 1.56013 12.2304 1.52066C12.1829 1.48134 12.1344 1.44309 12.0851 1.40606C12.0357 1.36904 11.9855 1.33324 11.9345 1.29881C11.8834 1.26424 11.8314 1.23103 11.7788 1.19906C11.726 1.16708 11.6725 1.13648 11.6184 1.10726C11.5642 1.07788 11.5093 1.04988 11.4539 1.02342C11.3982 0.996794 11.3422 0.971703 11.2853 0.947835C11.2287 0.92412 11.1714 0.90163 11.1135 0.880822C11.0556 0.859861 10.9973 0.840277 10.9386 0.822223C10.8799 0.80417 10.8206 0.787646 10.7611 0.772499C10.7014 0.757352 10.6415 0.743735 10.5812 0.731648C10.5211 0.719562 10.4605 0.708852 10.3997 0.699672C10.339 0.690645 10.278 0.682995 10.217 0.676875C10.1558 0.670755 10.0946 0.666165 10.0332 0.663105C9.97185 0.660045 9.91049 0.658515 9.84898 0.658362C9.65765 0.657291 9.46752 0.671214 9.27831 0.699978C9.08909 0.728741 8.9032 0.77204 8.72063 0.830026C8.53806 0.888013 8.36108 0.959922 8.18955 1.0456C8.01801 1.13143 7.85404 1.23012 7.69746 1.3415C7.51762 1.46956 7.34941 1.61169 7.19268 1.76791C7.17485 1.78856 7.15717 1.80661 7.13933 1.82712C7.04669 1.9232 6.95964 2.02418 6.87803 2.13005C6.73249 2.31916 6.60569 2.52035 6.49748 2.73363C6.38518 2.9564 6.29602 3.18819 6.22982 3.42901C6.16362 3.66998 6.12176 3.91508 6.10423 4.16447C6.09652 4.24663 6.09138 4.33399 6.09138 4.41875C6.08836 4.44125 6.0867 4.46374 6.08609 4.48638ZM19.2518 12.8086C19.2186 12.544 19.1856 12.2769 19.1528 12.0096C19.1431 11.8185 19.1067 11.6328 19.0436 11.4524C18.9042 11.1441 18.493 11.1365 18.2039 11.1186C18.1407 11.1147 18.0819 11.0961 18.0278 11.063C17.9909 11.035 17.9572 11.0036 17.9268 10.9688C17.8963 10.9339 17.8697 10.8961 17.8469 10.8557C17.8241 10.8152 17.8055 10.7728 17.7914 10.7284C17.7772 10.6842 17.7675 10.6389 17.7626 10.5925C17.6287 9.94919 17.5605 9.24692 16.4485 8.61213C16.4152 8.59148 16.386 8.56623 16.361 8.53609C16.3357 8.50611 16.3158 8.47275 16.3013 8.43618C16.2866 8.39977 16.278 8.36183 16.2753 8.32251C16.2727 8.28319 16.2762 8.24432 16.2858 8.20623C16.4433 7.51529 16.8112 6.08996 15.9308 5.71985C15.1188 5.38096 14.35 6.12836 13.8126 6.64197C13.7764 6.67732 13.7349 6.70409 13.688 6.72214C13.4929 7.05752 13.2596 7.36305 12.988 7.6386C12.9142 7.71327 12.8406 7.78242 12.7646 7.84944C12.7551 7.88524 12.7401 7.91874 12.72 7.9498C12.6998 7.98101 12.6753 8.0081 12.6466 8.0312C12.6177 8.0543 12.5861 8.0722 12.5517 8.08505C12.5172 8.09791 12.4815 8.10494 12.4448 8.10617C12.4098 8.10999 12.3752 8.10739 12.341 8.09852C12.0396 8.02661 11.7351 7.9726 11.4276 7.93649C11.1103 7.89916 10.7919 7.87988 10.4726 7.87835C10.1532 7.87682 9.83462 7.89335 9.51709 7.92762C9.19957 7.96189 8.88476 8.01406 8.57297 8.08368C8.26103 8.15344 7.95394 8.2405 7.65152 8.34469C7.64139 8.34729 7.63399 8.34989 7.62613 8.35249C7.60422 8.35877 7.582 8.36275 7.55948 8.36412C7.53681 8.36565 7.51429 8.36473 7.49192 8.36122C7.46941 8.3577 7.44764 8.35188 7.42648 8.34362C7.40533 8.33536 7.38538 8.32495 7.36633 8.31226C7.34744 8.29971 7.33006 8.28518 7.31434 8.26865C7.29848 8.25213 7.28457 8.23423 7.27263 8.21464C7.26069 8.19521 7.25102 8.17456 7.24346 8.15298C7.23591 8.13126 7.23077 8.10907 7.2279 8.08628C7.07087 7.97046 6.92201 7.84469 6.7813 7.70883C6.75863 7.68818 6.73823 7.66783 6.71042 7.63937C6.51334 7.43986 6.33637 7.22367 6.17949 6.9905C5.97244 7.07985 5.77174 7.1819 5.57738 7.29665C5.38303 7.4114 5.19653 7.53808 5.01789 7.67655C4.83925 7.81516 4.66999 7.96449 4.50979 8.12453C4.34974 8.28456 4.20027 8.45424 4.06123 8.63325C3.93443 8.79206 3.817 8.9576 3.70894 9.13003C3.60103 9.30246 3.5031 9.48055 3.41529 9.6643C3.32763 9.84805 3.2504 10.0364 3.18406 10.2292C3.11771 10.4219 3.06239 10.6179 3.01811 10.817C2.97398 11.0162 2.94119 11.2174 2.91988 11.4204C2.89857 11.6233 2.88874 11.8269 2.89056 12.031C2.89222 12.2351 2.90552 12.4386 2.93046 12.6412C2.95524 12.8438 2.99151 13.0442 3.03897 13.2426C3.08884 13.4386 3.14899 13.6312 3.21942 13.8205C3.29 14.0098 3.3704 14.1947 3.46063 14.3751C3.551 14.5557 3.65075 14.7307 3.75987 14.9002C3.86899 15.0697 3.98672 15.2327 4.11337 15.3893C4.23986 15.5459 4.37452 15.695 4.51704 15.8367C4.65971 15.9785 4.80948 16.1121 4.96636 16.2374C5.12323 16.3627 5.2863 16.479 5.45572 16.5864C5.62514 16.6938 5.79985 16.7916 5.9797 16.8797C6.00101 16.8826 6.02186 16.8875 6.04242 16.8942C6.06297 16.9008 6.08262 16.9094 6.10166 16.9196C6.1207 16.9297 6.13869 16.9417 6.15577 16.955C6.17269 16.9684 6.18841 16.9833 6.20277 16.9995C6.21728 17.0157 6.23012 17.033 6.24146 17.0515C6.25294 17.07 6.26262 17.0895 6.27063 17.1097C6.27864 17.1299 6.28483 17.1507 6.28922 17.1721C6.29375 17.1933 6.29617 17.2149 6.29692 17.2368C6.31385 17.4961 6.33153 17.7556 6.34997 18.0149C6.3678 18.2536 6.37037 18.4978 6.40332 18.734C6.40589 18.7366 6.42372 18.8291 6.42629 18.8421C6.43702 18.8903 6.45138 18.9374 6.46936 18.9833C6.48674 19.0099 6.50277 19.0373 6.51742 19.0654L6.51999 19.068C6.53783 19.0833 6.55491 19.0997 6.57093 19.1168C6.57606 19.1168 6.63198 19.1632 6.64483 19.1707C6.66236 19.1783 6.67762 19.1888 6.69576 19.1966C6.7006 19.199 6.70574 19.2008 6.71118 19.2016C6.75425 19.2146 6.79475 19.2298 6.83873 19.2402C6.86956 19.2441 6.90009 19.2503 6.93002 19.2582C7.11077 19.277 7.29167 19.2804 7.47288 19.2683C7.52124 19.2657 7.56689 19.2631 7.6151 19.2582C7.62205 19.2587 7.62885 19.2578 7.6355 19.2556C7.65575 19.253 7.67615 19.248 7.69625 19.2454C7.70895 19.2428 7.78255 19.2169 7.79011 19.2169C7.80945 19.2077 7.82804 19.1975 7.84603 19.1862C7.8563 19.1757 7.86114 19.1681 7.86628 19.1658C7.87384 19.1528 7.88154 19.1373 7.88925 19.1243C7.88925 19.1168 7.91192 19.0347 7.91479 19.0211C7.91706 19.0117 7.91872 19.0022 7.91978 18.9926V19.003C7.92129 18.9972 7.9222 18.9912 7.92235 18.9851C7.9228 18.9654 7.92446 18.9456 7.92749 18.9259C7.93519 18.8668 7.93776 18.8053 7.94517 18.7435C7.96557 18.4894 7.98824 18.2325 8.01121 17.9756C8.01333 17.9548 8.01681 17.9343 8.02134 17.914C8.023 17.8916 8.02678 17.8698 8.03252 17.8482C8.03827 17.8266 8.04597 17.8058 8.0555 17.7858C8.06517 17.7657 8.0765 17.7467 8.08965 17.7288C8.1028 17.7108 8.11746 17.6943 8.13378 17.6793C8.14995 17.6641 8.16748 17.6507 8.18622 17.6389C8.20497 17.6271 8.22461 17.6172 8.24517 17.6092C8.26572 17.6011 8.28688 17.5951 8.30849 17.591C8.33025 17.587 8.35202 17.5852 8.37408 17.5853C9.73865 17.7694 11.1072 17.8069 12.4796 17.6976C12.4897 17.6976 12.5 17.7002 12.5101 17.7002C12.6017 17.7117 12.682 17.7484 12.7509 17.8105C12.9903 18.0374 12.795 18.5035 12.975 18.9475C13.0595 19.1542 13.1571 19.191 13.1792 19.1981C13.2105 19.2082 13.3055 19.229 13.3498 19.2376C13.3753 19.2425 13.4009 19.2464 13.4264 19.2507L13.4532 19.2538C13.5612 19.2648 13.6694 19.2683 13.7778 19.2645C13.8363 19.2627 13.8942 19.2567 13.9527 19.2518H13.9581C13.9827 19.2492 14.0071 19.2449 14.0313 19.2391C14.1984 19.1895 14.282 19.165 14.3307 19.1066C14.3619 19.0322 14.3857 18.9556 14.4021 18.8766C14.4233 18.7991 14.4419 18.721 14.4581 18.6422C14.4649 18.6087 14.4714 18.5749 14.4771 18.541C14.4789 18.5318 14.4878 18.4746 14.4915 18.4545C14.4915 18.4449 14.5007 18.3746 14.5019 18.3638C14.5052 18.3294 14.5081 18.2951 14.5106 18.2604C14.5182 18.1499 14.5193 18.0356 14.5196 18.0197C14.5215 17.7899 14.5007 17.4512 14.4999 17.4346C14.4933 17.3381 14.5013 17.2428 14.5243 17.1487C14.5472 17.0547 14.5838 16.9665 14.6341 16.8841C14.6996 16.7848 14.7816 16.7027 14.8802 16.6374C14.8853 16.6351 14.8879 16.6325 14.8929 16.6325C15.1587 16.5345 15.4122 16.4105 15.6531 16.2604C15.894 16.1103 16.1175 15.9372 16.3236 15.7411C16.5314 15.5456 16.7167 15.3303 16.8795 15.0951C17.0418 14.8607 17.1796 14.6124 17.293 14.3502C17.3051 14.3132 17.3225 14.2789 17.345 14.2472C17.3675 14.2155 17.3942 14.188 17.4251 14.1646C17.4559 14.1412 17.4895 14.123 17.5257 14.11C17.5622 14.097 17.5995 14.0898 17.638 14.0882C18.0821 13.9547 18.5388 13.8415 18.97 13.6748C19.0366 13.6585 19.0964 13.6283 19.1498 13.5849C19.203 13.5413 19.2447 13.4882 19.2745 13.4258C19.3092 13.2185 19.3017 13.0127 19.2518 12.8086Z" fill="#F7F7F7"/>
</svg>
