<svg width="20" height="19" viewBox="0 0 20 19" fill="none" xmlns="http://www.w3.org/2000/svg">
<path d="M6.72344 13.4473C6.70237 13.4473 6.68167 13.4493 6.66097 13.4535C6.64039 13.4576 6.6204 13.4637 6.60102 13.4717C6.58163 13.4797 6.5632 13.4895 6.54573 13.5012C6.52826 13.5128 6.5121 13.5261 6.49726 13.541C6.48243 13.5558 6.46914 13.572 6.45741 13.5894C6.44581 13.6069 6.43587 13.6253 6.42786 13.6447C6.41984 13.6641 6.41374 13.6841 6.40967 13.7047C6.4056 13.7253 6.40356 13.7461 6.40356 13.767V15.3658C6.40356 15.3868 6.4056 15.4077 6.40967 15.4282C6.41374 15.4488 6.41984 15.4688 6.42786 15.4882C6.43587 15.5076 6.44581 15.526 6.45741 15.5435C6.46914 15.561 6.48243 15.5771 6.49726 15.5919C6.5121 15.6068 6.52826 15.6201 6.54573 15.6317C6.5632 15.6434 6.58163 15.6532 6.60102 15.6612C6.6204 15.6692 6.64039 15.6754 6.66097 15.6794C6.68167 15.6835 6.70237 15.6856 6.72344 15.6856C6.74438 15.6856 6.7652 15.6835 6.78578 15.6794C6.80648 15.6754 6.82647 15.6692 6.84586 15.6612C6.86524 15.6532 6.88367 15.6434 6.90114 15.6317C6.91861 15.6201 6.93477 15.6068 6.94961 15.5919C6.96445 15.5771 6.97773 15.561 6.98946 15.5435C7.00106 15.526 7.01088 15.5076 7.01901 15.4882C7.02703 15.4688 7.03313 15.4488 7.0372 15.4282C7.04127 15.4077 7.04331 15.3868 7.04331 15.3658V13.767C7.04331 13.7461 7.04127 13.7253 7.0372 13.7047C7.03313 13.6841 7.02703 13.6641 7.01901 13.6447C7.01088 13.6253 7.00106 13.6069 6.98946 13.5894C6.97773 13.572 6.96445 13.5558 6.94961 13.541C6.93477 13.5261 6.91861 13.5128 6.90114 13.5012C6.88367 13.4895 6.86524 13.4797 6.84586 13.4717C6.82647 13.4637 6.80648 13.4576 6.78578 13.4535C6.7652 13.4493 6.74438 13.4473 6.72344 13.4473Z" fill="#F2B80C"/>
<path d="M6.72344 10.25C6.70237 10.25 6.68167 10.252 6.66097 10.2561C6.64039 10.2603 6.6204 10.2663 6.60102 10.2743C6.58163 10.2824 6.5632 10.2922 6.54573 10.3039C6.52826 10.3156 6.5121 10.3289 6.49726 10.3437C6.48243 10.3585 6.46914 10.3747 6.45741 10.3922C6.44581 10.4095 6.43587 10.4279 6.42786 10.4473C6.41984 10.4668 6.41374 10.4868 6.40967 10.5074C6.4056 10.528 6.40356 10.5488 6.40356 10.5698V12.1685C6.40356 12.1896 6.4056 12.2103 6.40967 12.2309C6.41374 12.2516 6.41984 12.2715 6.42786 12.2909C6.43587 12.3103 6.44581 12.3287 6.45741 12.3462C6.46914 12.3637 6.48243 12.3798 6.49726 12.3947C6.5121 12.4095 6.52826 12.4227 6.54573 12.4344C6.5632 12.446 6.58163 12.4559 6.60102 12.464C6.6204 12.472 6.64039 12.4781 6.66097 12.4822C6.68167 12.4862 6.70237 12.4883 6.72344 12.4883C6.74438 12.4883 6.7652 12.4862 6.78578 12.4822C6.80648 12.4781 6.82647 12.472 6.84586 12.464C6.86524 12.4559 6.88367 12.446 6.90114 12.4344C6.91861 12.4227 6.93477 12.4095 6.94961 12.3947C6.96445 12.3798 6.97773 12.3637 6.98946 12.3462C7.00106 12.3287 7.01088 12.3103 7.01901 12.2909C7.02703 12.2715 7.03313 12.2516 7.0372 12.2309C7.04127 12.2103 7.04331 12.1896 7.04331 12.1685V10.5698C7.04331 10.5488 7.04127 10.528 7.0372 10.5074C7.03313 10.4868 7.02703 10.4668 7.01901 10.4473C7.01088 10.4279 7.00106 10.4095 6.98946 10.3922C6.97773 10.3747 6.96445 10.3585 6.94961 10.3437C6.93477 10.3289 6.91861 10.3156 6.90114 10.3039C6.88367 10.2922 6.86524 10.2824 6.84586 10.2743C6.82647 10.2663 6.80648 10.2603 6.78578 10.2561C6.7652 10.252 6.74438 10.25 6.72344 10.25Z" fill="#F2B80C"/>
<mask id="mask0_232_1953" style="mask-type:luminance" maskUnits="userSpaceOnUse" x="0" y="0" width="20" height="19">
<path d="M0 0H19.208V18.2438H0V0Z" fill="white"/>
</mask>
<g mask="url(#mask0_232_1953)">
<path d="M18.8792 10.8896C18.9003 10.8896 18.9211 10.8875 18.9417 10.8835C18.9622 10.8793 18.9822 10.8733 19.0016 10.8653C19.0211 10.8571 19.0395 10.8473 19.0569 10.8357C19.0744 10.824 19.0905 10.8107 19.1055 10.7959C19.1203 10.781 19.1336 10.7649 19.1452 10.7474C19.1569 10.73 19.1668 10.7116 19.1748 10.6922C19.1828 10.6727 19.1889 10.6527 19.193 10.6322C19.197 10.6116 19.1992 10.5908 19.1992 10.5698V8.6513C19.1988 8.54755 19.1818 8.44655 19.1484 8.34843C19.1151 8.25018 19.0668 8.15983 19.0038 8.0775C19.0333 8.03262 19.0597 7.98595 19.0829 7.93749C19.106 7.88902 19.1256 7.83912 19.1419 7.78802C19.158 7.73681 19.1706 7.68475 19.1796 7.63174C19.1885 7.57884 19.1938 7.52547 19.1955 7.47186C19.197 7.41813 19.1949 7.36464 19.189 7.31115C19.1831 7.25778 19.1737 7.20512 19.1605 7.15307C19.1474 7.10101 19.1306 7.05003 19.1104 7.00025C19.0902 6.95059 19.0666 6.90248 19.0398 6.85593L18.3288 5.62528C18.3183 5.60709 18.3062 5.59009 18.2923 5.5743C18.2785 5.55862 18.2633 5.54426 18.2466 5.53146C18.2299 5.51865 18.2122 5.50764 18.1934 5.49843C18.1745 5.48909 18.155 5.48167 18.1346 5.47629C18.1144 5.4709 18.0937 5.46743 18.0728 5.46612C18.0518 5.46468 18.0309 5.4654 18.01 5.46815C17.9892 5.4709 17.9689 5.47557 17.949 5.48239C17.929 5.48909 17.91 5.49771 17.8918 5.50824C17.058 6.01264 15.8852 5.69863 15.4157 4.84504C14.9109 4.01156 15.2251 2.83942 16.0792 2.36996C16.0973 2.35943 16.1142 2.34723 16.1298 2.33323C16.1456 2.31934 16.1597 2.30415 16.1726 2.28739C16.1852 2.27076 16.1962 2.25305 16.2055 2.23426C16.2147 2.21535 16.222 2.19585 16.2275 2.17562C16.2329 2.1554 16.2363 2.13482 16.2377 2.11388C16.2391 2.09293 16.2385 2.07211 16.2359 2.05129C16.2331 2.03047 16.2284 2.01024 16.2219 1.99026C16.2152 1.97039 16.2067 1.95137 16.1964 1.93318L15.3433 0.456483C15.113 0.0375273 14.5384 -0.115527 14.1295 0.131107L1.02805 7.69205H0.965347C0.933875 7.69205 0.902522 7.69361 0.871289 7.69672C0.840056 7.69983 0.809062 7.7045 0.778188 7.7106C0.747433 7.71682 0.716918 7.72448 0.686881 7.73357C0.656845 7.74267 0.627287 7.75332 0.598208 7.76529C0.569248 7.77737 0.540887 7.79078 0.513124 7.80561C0.485481 7.82045 0.458556 7.83661 0.432469 7.85396C0.406262 7.87143 0.381131 7.89022 0.356839 7.91008C0.332546 7.93007 0.309331 7.95113 0.287073 7.97327C0.264815 7.99553 0.243753 8.01874 0.223888 8.04303C0.203904 8.06733 0.185236 8.09246 0.167764 8.11854C0.150293 8.14475 0.134138 8.17156 0.119299 8.19932C0.10446 8.22696 0.0910577 8.25532 0.0789713 8.2844C0.0670046 8.31336 0.0563542 8.34292 0.0472595 8.37296C0.0380451 8.40299 0.0303864 8.43339 0.0242833 8.46426C0.0181803 8.49502 0.0135133 8.52601 0.0104019 8.55725C0.00729056 8.5886 0.00573489 8.61983 0.00561523 8.6513V10.5698C0.00561523 10.5908 0.00776923 10.6116 0.0118379 10.6322C0.0159066 10.6527 0.0220097 10.6727 0.0300274 10.6922C0.0380451 10.7116 0.0478578 10.73 0.0595852 10.7475C0.071193 10.7649 0.084476 10.781 0.0993148 10.7959C0.114153 10.8107 0.130428 10.824 0.14778 10.8357C0.165251 10.8473 0.18368 10.8571 0.203186 10.8653C0.222572 10.8733 0.242557 10.8793 0.263139 10.8835C0.283722 10.8875 0.304544 10.8896 0.325606 10.8896C0.359591 10.8896 0.393577 10.8904 0.427562 10.8921C0.461548 10.8938 0.495533 10.8963 0.529399 10.8996C0.563265 10.903 0.597011 10.907 0.630638 10.9121C0.664264 10.9171 0.697891 10.9228 0.731158 10.9295C0.764546 10.9361 0.797813 10.9435 0.830841 10.9519C0.86375 10.9602 0.896539 10.9691 0.929088 10.9791C0.961757 10.9889 0.994068 10.9997 1.02602 11.011C1.05809 11.0225 1.0898 11.0347 1.12127 11.0478C1.15275 11.0608 1.18386 11.0746 1.21461 11.0892C1.24537 11.1036 1.27576 11.119 1.30568 11.135C1.33572 11.151 1.3654 11.1678 1.39447 11.1853C1.42367 11.2027 1.45251 11.2209 1.48075 11.2398C1.509 11.2587 1.53688 11.2784 1.56416 11.2986C1.59157 11.3188 1.61837 11.3398 1.6447 11.3613C1.67091 11.383 1.69675 11.4051 1.72188 11.4279C1.74713 11.4508 1.77179 11.4743 1.79584 11.4983C1.81989 11.5224 1.84335 11.547 1.8662 11.5721C1.88906 11.5974 1.91132 11.6231 1.93286 11.6494C1.95452 11.6758 1.97534 11.7026 1.99568 11.7299C2.01591 11.7572 2.03553 11.785 2.05444 11.8133C2.07335 11.8415 2.09154 11.8702 2.10901 11.8994C2.12648 11.9286 2.14323 11.9582 2.15939 11.9882C2.17542 12.0183 2.19062 12.0485 2.20522 12.0793C2.21982 12.11 2.23358 12.1412 2.24663 12.1726C2.25955 12.204 2.27188 12.2357 2.28324 12.2678C2.29473 12.2998 2.30538 12.3322 2.31531 12.3647C2.32525 12.3973 2.33422 12.4299 2.34248 12.4629C2.35086 12.496 2.35828 12.5291 2.36486 12.5625C2.37156 12.5959 2.3773 12.6294 2.38233 12.663C2.38735 12.6967 2.39154 12.7304 2.39489 12.7643C2.39812 12.7981 2.40064 12.832 2.40231 12.866C2.40399 12.9 2.40483 12.934 2.40483 12.9679C2.40483 13.0019 2.40399 13.036 2.40231 13.0699C2.40064 13.1039 2.39812 13.1379 2.39489 13.1717C2.39154 13.2056 2.38735 13.2394 2.38233 13.273C2.3773 13.3066 2.37156 13.3401 2.36486 13.3735C2.35828 13.4068 2.35086 13.44 2.34248 13.4729C2.33422 13.506 2.32525 13.5388 2.31531 13.5713C2.30538 13.6039 2.29473 13.6362 2.28324 13.6681C2.27188 13.7002 2.25955 13.7319 2.24663 13.7634C2.23358 13.7947 2.21982 13.8258 2.20522 13.8566C2.19062 13.8873 2.17542 13.9177 2.15939 13.9478C2.14323 13.9777 2.12648 14.0073 2.10901 14.0365C2.09154 14.0657 2.07335 14.0944 2.05444 14.1227C2.03553 14.151 2.01591 14.1787 1.99568 14.206C1.97534 14.2334 1.95452 14.2602 1.93286 14.2866C1.91132 14.3128 1.88906 14.3385 1.8662 14.3637C1.84335 14.389 1.81989 14.4135 1.79584 14.4376C1.77179 14.4616 1.74713 14.4851 1.72188 14.5079C1.69675 14.5308 1.67091 14.5531 1.6447 14.5746C1.61837 14.5961 1.59157 14.6171 1.56416 14.6374C1.53688 14.6576 1.509 14.6772 1.48075 14.6961C1.45251 14.715 1.42367 14.7332 1.39447 14.7506C1.3654 14.7682 1.33572 14.785 1.30568 14.801C1.27576 14.817 1.24537 14.8322 1.21461 14.8468C1.18386 14.8613 1.15275 14.8752 1.12127 14.8881C1.0898 14.9012 1.05809 14.9134 1.02602 14.9249C0.994068 14.9364 0.961757 14.947 0.929088 14.9569C0.896539 14.9667 0.86375 14.9758 0.830841 14.9841C0.797813 14.9924 0.764546 14.9998 0.731158 15.0065C0.697891 15.0131 0.664264 15.0189 0.630638 15.0238C0.597011 15.0289 0.563265 15.033 0.529399 15.0364C0.495533 15.0397 0.461548 15.0423 0.427562 15.0439C0.393577 15.0455 0.359591 15.0463 0.325606 15.0463C0.304544 15.0463 0.283722 15.0485 0.263139 15.0526C0.242557 15.0566 0.222572 15.0627 0.203186 15.0707C0.18368 15.0788 0.165251 15.0886 0.14778 15.1003C0.130428 15.1119 0.114153 15.1252 0.0993148 15.14C0.084476 15.1549 0.071193 15.171 0.0595852 15.1885C0.0478578 15.206 0.0380451 15.2244 0.0300274 15.2438C0.0220097 15.2632 0.0159066 15.2831 0.0118379 15.3037C0.00776923 15.3243 0.00561523 15.3451 0.00561523 15.3661V16.965C0.00573489 17.0068 0.00776924 17.0486 0.0119576 17.0902C0.016146 17.1319 0.022249 17.1733 0.030506 17.2143C0.0386434 17.2554 0.0489348 17.296 0.0610212 17.336C0.0732273 17.3761 0.087348 17.4155 0.103383 17.4542C0.119539 17.4928 0.137369 17.5306 0.157114 17.5676C0.176979 17.6045 0.198399 17.6404 0.221734 17.6752C0.24507 17.71 0.26996 17.7436 0.296527 17.7759C0.323093 17.8084 0.351215 17.8394 0.380892 17.8689C0.41045 17.8985 0.441444 17.9266 0.473874 17.9532C0.506184 17.9797 0.53981 18.0046 0.574633 18.028C0.609457 18.0512 0.645357 18.0727 0.682334 18.0925C0.719311 18.1122 0.757126 18.1302 0.795779 18.1462C0.834431 18.1622 0.873802 18.1763 0.91389 18.1886C0.953979 18.2008 0.994666 18.2109 1.03571 18.2192C1.07676 18.2273 1.11816 18.2335 1.15981 18.2376C1.20157 18.2418 1.24333 18.2438 1.28522 18.244H17.9196C17.9615 18.2438 18.0032 18.2418 18.045 18.2376C18.0866 18.2335 18.128 18.2273 18.1691 18.2192C18.2101 18.2109 18.2508 18.2008 18.2908 18.1886C18.3309 18.1763 18.3704 18.1622 18.409 18.1462C18.4477 18.1302 18.4855 18.1122 18.5225 18.0925C18.5594 18.0727 18.5953 18.0512 18.6302 18.028C18.665 18.0046 18.6986 17.9797 18.7309 17.9532C18.7634 17.9266 18.7943 17.8985 18.8239 17.8689C18.8536 17.8394 18.8817 17.8084 18.9083 17.7759C18.9348 17.7436 18.9597 17.71 18.9831 17.6752C19.0064 17.6404 19.0278 17.6045 19.0477 17.5676C19.0674 17.5306 19.0853 17.4928 19.1014 17.4542C19.1174 17.4155 19.1316 17.3761 19.1438 17.336C19.1559 17.296 19.1662 17.2554 19.1743 17.2143C19.1825 17.1733 19.1887 17.1319 19.1928 17.0902C19.197 17.0486 19.1991 17.0068 19.1992 16.965V15.3661C19.1992 15.3451 19.197 15.3243 19.193 15.3037C19.1889 15.2831 19.1828 15.2632 19.1748 15.2438C19.1668 15.2244 19.1569 15.206 19.1452 15.1885C19.1336 15.171 19.1203 15.1549 19.1055 15.14C19.0905 15.1252 19.0744 15.1119 19.0569 15.1003C19.0395 15.0886 19.0211 15.0788 19.0016 15.0707C18.9822 15.0627 18.9622 15.0566 18.9417 15.0526C18.9211 15.0485 18.9003 15.0463 18.8792 15.0463C18.8452 15.0463 18.8112 15.0455 18.7772 15.0439C18.7432 15.0423 18.7093 15.0397 18.6754 15.0364C18.6415 15.033 18.6078 15.0289 18.5742 15.0238C18.5405 15.0189 18.5069 15.0131 18.4736 15.0065C18.4403 14.9998 18.407 14.9924 18.374 14.9841C18.341 14.9758 18.3083 14.9667 18.2757 14.9569C18.243 14.947 18.2107 14.9364 18.1788 14.9249C18.1467 14.9134 18.115 14.9012 18.0835 14.8881C18.0521 14.8752 18.0209 14.8613 17.9902 14.8468C17.9594 14.8322 17.929 14.817 17.8991 14.801C17.8691 14.785 17.8394 14.7682 17.8103 14.7506C17.7811 14.7332 17.7523 14.715 17.724 14.6961C17.6958 14.6772 17.6679 14.6576 17.6406 14.6374C17.6132 14.6171 17.5864 14.5961 17.5601 14.5746C17.5339 14.5531 17.508 14.5308 17.4829 14.5079C17.4577 14.4851 17.433 14.4616 17.409 14.4376C17.3849 14.4135 17.3615 14.389 17.3386 14.3637C17.3157 14.3385 17.2935 14.3128 17.2719 14.2866C17.2503 14.2602 17.2295 14.2334 17.2091 14.206C17.1889 14.1787 17.1693 14.151 17.1504 14.1227C17.1315 14.0944 17.1133 14.0657 17.0958 14.0365C17.0783 14.0073 17.0616 13.9777 17.0454 13.9478C17.0294 13.9177 17.0142 13.8873 16.9996 13.8566C16.985 13.8258 16.9712 13.7947 16.9582 13.7634C16.9452 13.7319 16.9329 13.7002 16.9214 13.6681C16.9101 13.6362 16.8994 13.6039 16.8895 13.5713C16.8795 13.5388 16.8706 13.506 16.8623 13.4729C16.8539 13.44 16.8465 13.4068 16.8399 13.3735C16.8332 13.3401 16.8275 13.3066 16.8225 13.273C16.8174 13.2394 16.8133 13.2056 16.8099 13.1717C16.8067 13.1379 16.8042 13.1039 16.8025 13.0699C16.8008 13.036 16.8 13.0019 16.8 12.9679C16.8 12.934 16.8008 12.9 16.8025 12.866C16.8042 12.832 16.8067 12.7981 16.8099 12.7643C16.8133 12.7304 16.8174 12.6967 16.8225 12.663C16.8275 12.6294 16.8332 12.5959 16.8399 12.5625C16.8465 12.5291 16.8539 12.496 16.8623 12.4629C16.8706 12.4299 16.8795 12.3973 16.8895 12.3647C16.8994 12.3322 16.9101 12.2998 16.9214 12.2678C16.9329 12.2357 16.9452 12.204 16.9582 12.1726C16.9712 12.1412 16.985 12.11 16.9996 12.0793C17.0142 12.0485 17.0294 12.0183 17.0454 11.9882C17.0616 11.9582 17.0783 11.9286 17.0958 11.8994C17.1133 11.8702 17.1315 11.8415 17.1504 11.8133C17.1693 11.785 17.1889 11.7572 17.2091 11.7299C17.2295 11.7026 17.2503 11.6758 17.2719 11.6494C17.2935 11.6231 17.3157 11.5974 17.3386 11.5721C17.3615 11.547 17.3849 11.5224 17.409 11.4983C17.433 11.4743 17.4577 11.4508 17.4829 11.4279C17.508 11.4051 17.5339 11.383 17.5601 11.3613C17.5864 11.3398 17.6132 11.3188 17.6406 11.2986C17.6679 11.2784 17.6958 11.2587 17.724 11.2398C17.7523 11.2209 17.7811 11.2027 17.8103 11.1853C17.8394 11.1678 17.8691 11.151 17.8991 11.135C17.929 11.119 17.9594 11.1036 17.9902 11.0892C18.0209 11.0746 18.0521 11.0608 18.0835 11.0478C18.115 11.0347 18.1467 11.0225 18.1788 11.011C18.2107 10.9997 18.243 10.9889 18.2757 10.9791C18.3083 10.9691 18.341 10.9602 18.374 10.9519C18.407 10.9435 18.4403 10.9361 18.4736 10.9295C18.5069 10.9228 18.5405 10.9171 18.5742 10.9121C18.6078 10.907 18.6415 10.903 18.6754 10.8996C18.7093 10.8963 18.7432 10.8938 18.7772 10.8921C18.8112 10.8904 18.8452 10.8896 18.8792 10.8896ZM14.4493 0.685047C14.4635 0.67691 14.4783 0.670209 14.4937 0.665063C14.5093 0.659797 14.5251 0.656207 14.5413 0.654053C14.5574 0.652019 14.5737 0.651421 14.59 0.652498C14.6062 0.653575 14.6223 0.656207 14.6381 0.660515C14.6539 0.664704 14.6691 0.670448 14.6837 0.677628C14.6984 0.684808 14.7121 0.693424 14.7251 0.703356C14.7381 0.713169 14.7499 0.724298 14.7607 0.736504C14.7715 0.74883 14.7811 0.761993 14.7892 0.776114L15.4927 1.99373C14.5314 2.70228 14.2417 4.13817 14.8617 5.16479C15.441 6.21476 16.8304 6.68254 17.9246 6.20423L18.4857 7.17545C18.5099 7.21745 18.5278 7.26185 18.5397 7.30864C18.5515 7.35555 18.5569 7.40317 18.5556 7.45152C18.5543 7.49986 18.5465 7.54713 18.5322 7.59332C18.5178 7.63952 18.4975 7.68284 18.471 7.7234C18.3951 7.70342 18.318 7.69289 18.2395 7.69205H2.3079L14.4493 0.685047ZM16.1601 12.9679C16.1602 13.0503 16.1641 13.1324 16.1716 13.2143C16.1793 13.2963 16.1905 13.3777 16.2055 13.4587C16.2203 13.5396 16.239 13.6197 16.2611 13.699C16.2834 13.7782 16.3091 13.8562 16.3384 13.9332C16.3677 14.0101 16.4004 14.0855 16.4365 14.1595C16.4727 14.2334 16.5122 14.3056 16.5549 14.376C16.5975 14.4463 16.6433 14.5146 16.6922 14.5808C16.7411 14.647 16.7929 14.7109 16.8476 14.7724C16.9023 14.8339 16.9596 14.8929 17.0197 14.9492C17.0796 15.0055 17.1421 15.059 17.2071 15.1096C17.2719 15.1604 17.339 15.208 17.4081 15.2525C17.4774 15.2972 17.5485 15.3384 17.6214 15.3766C17.6944 15.4148 17.7689 15.4495 17.845 15.4808C17.9211 15.5123 17.9986 15.5401 18.0772 15.5645C18.1558 15.5889 18.2354 15.6096 18.3159 15.6267C18.3965 15.6439 18.4776 15.6573 18.5593 15.6672V16.965C18.5593 16.9859 18.5582 17.0067 18.5562 17.0275C18.5542 17.0484 18.5511 17.0691 18.5469 17.0896C18.5428 17.1101 18.5378 17.1305 18.5317 17.1504C18.5256 17.1705 18.5185 17.1902 18.5105 17.2096C18.5024 17.2288 18.4935 17.2477 18.4836 17.2663C18.4736 17.2847 18.463 17.3027 18.4513 17.32C18.4397 17.3375 18.4272 17.3542 18.4139 17.3704C18.4006 17.3865 18.3865 17.4021 18.3717 17.4169C18.357 17.4317 18.3414 17.4458 18.3253 17.4591C18.3091 17.4723 18.2922 17.4848 18.2749 17.4964C18.2574 17.508 18.2395 17.5188 18.221 17.5287C18.2026 17.5385 18.1837 17.5475 18.1643 17.5555C18.1449 17.5635 18.1253 17.5706 18.1052 17.5767C18.0852 17.5828 18.0649 17.5879 18.0443 17.592C18.0238 17.5961 18.0031 17.5992 17.9823 17.6012C17.9615 17.6034 17.9405 17.6043 17.9196 17.6045H7.04325V16.965C7.04325 16.9439 7.04122 16.9231 7.03715 16.9025C7.03308 16.8819 7.02698 16.8619 7.01896 16.8425C7.01082 16.8231 7.00101 16.8047 6.9894 16.7872C6.97767 16.7698 6.96439 16.7536 6.94955 16.7388C6.93471 16.7239 6.91856 16.7107 6.90109 16.6991C6.88362 16.6873 6.86519 16.6775 6.8458 16.6695C6.82642 16.6615 6.80643 16.6554 6.78573 16.6513C6.76515 16.6472 6.74432 16.6452 6.72338 16.6452C6.70232 16.6452 6.68162 16.6472 6.66092 16.6513C6.64033 16.6554 6.62035 16.6615 6.60096 16.6695C6.58158 16.6775 6.56315 16.6873 6.54568 16.6991C6.5282 16.7107 6.51205 16.7239 6.49721 16.7388C6.48237 16.7536 6.46909 16.7698 6.45736 16.7872C6.44575 16.8047 6.43582 16.8231 6.4278 16.8425C6.41979 16.8619 6.41368 16.8819 6.40961 16.9025C6.40555 16.9231 6.40351 16.9439 6.40351 16.965V17.6045H1.28522C1.26428 17.6045 1.24333 17.6034 1.22251 17.6012C1.20169 17.5992 1.18099 17.5961 1.16052 17.592C1.13994 17.5879 1.1196 17.5828 1.09961 17.5767C1.07951 17.5706 1.05988 17.5635 1.0405 17.5555C1.02111 17.5475 1.0022 17.5385 0.983776 17.5287C0.965347 17.5188 0.947397 17.508 0.929926 17.4964C0.912574 17.4848 0.895701 17.4723 0.879546 17.4591C0.863391 17.4458 0.847834 17.4317 0.833115 17.4169C0.818276 17.4021 0.804156 17.3865 0.790872 17.3704C0.777589 17.3542 0.765144 17.3375 0.753536 17.32C0.741809 17.3027 0.731158 17.2847 0.721226 17.2663C0.711294 17.2477 0.702438 17.2288 0.694301 17.2096C0.686283 17.1902 0.679223 17.1705 0.67312 17.1504C0.667017 17.1305 0.661991 17.1101 0.657922 17.0896C0.653734 17.0691 0.650622 17.0484 0.648588 17.0275C0.646554 17.0067 0.645477 16.9859 0.645477 16.965V15.6672C0.727209 15.6575 0.808464 15.6442 0.889119 15.6271C0.969655 15.6101 1.04935 15.5894 1.1281 15.5652C1.20672 15.5409 1.28426 15.5132 1.36037 15.4818C1.4366 15.4504 1.51127 15.4157 1.58427 15.3777C1.65726 15.3396 1.72847 15.2983 1.79775 15.2537C1.86704 15.2092 1.93417 15.1616 1.99915 15.1109C2.06401 15.0603 2.1266 15.0068 2.18667 14.9505C2.24675 14.8941 2.30419 14.8352 2.35887 14.7736C2.41368 14.7121 2.4655 14.6482 2.51444 14.5819C2.56327 14.5157 2.6091 14.4474 2.65182 14.3769C2.69454 14.3065 2.73391 14.2343 2.77005 14.1603C2.80619 14.0864 2.83898 14.0108 2.86818 13.9339C2.8975 13.857 2.92322 13.7788 2.94536 13.6995C2.96762 13.6201 2.98605 13.54 3.00101 13.4591C3.01585 13.378 3.0271 13.2966 3.03452 13.2145C3.04193 13.1325 3.04576 13.0503 3.04576 12.9679C3.04576 12.8856 3.04193 12.8034 3.03452 12.7214C3.0271 12.6395 3.01585 12.558 3.00101 12.4769C2.98605 12.3959 2.96762 12.3158 2.94536 12.2365C2.92322 12.1572 2.8975 12.0791 2.86818 12.0021C2.83898 11.9252 2.80619 11.8497 2.77005 11.7756C2.73391 11.7016 2.69454 11.6295 2.65182 11.559C2.6091 11.4886 2.56327 11.4203 2.51444 11.354C2.4655 11.2877 2.41368 11.2238 2.35887 11.1623C2.30419 11.1008 2.24675 11.0418 2.18667 10.9855C2.1266 10.9292 2.06401 10.8757 1.99915 10.8251C1.93417 10.7743 1.86704 10.7268 1.79775 10.6822C1.72847 10.6377 1.65726 10.5964 1.58427 10.5582C1.51127 10.5201 1.4366 10.4854 1.36037 10.4542C1.28426 10.4229 1.20672 10.3951 1.1281 10.3708C1.04935 10.3465 0.969655 10.3259 0.889119 10.3088C0.808464 10.2918 0.727209 10.2784 0.645477 10.2688V8.6513C0.645477 8.63024 0.647511 8.60954 0.651699 8.58896C0.655768 8.56837 0.661871 8.54839 0.669889 8.529C0.677906 8.50962 0.687839 8.49119 0.699447 8.47372C0.711174 8.45625 0.724457 8.44021 0.739296 8.42525C0.754135 8.41041 0.77029 8.39725 0.787761 8.38552C0.805232 8.37391 0.823542 8.36398 0.843047 8.35596C0.862433 8.34795 0.882418 8.34184 0.903001 8.33778C0.923584 8.33359 0.944286 8.33155 0.965347 8.33155H6.40351V8.97106C6.40351 8.992 6.40555 9.01282 6.40961 9.0334C6.41368 9.05398 6.41979 9.07397 6.4278 9.09336C6.43582 9.11274 6.44575 9.13117 6.45736 9.14864C6.46909 9.16611 6.48237 9.18227 6.49721 9.19711C6.51205 9.21195 6.5282 9.22523 6.54568 9.23696C6.56315 9.24856 6.58158 9.25838 6.60096 9.26639C6.62035 9.27453 6.64033 9.28051 6.66092 9.2847C6.68162 9.28877 6.70232 9.29081 6.72338 9.29081C6.74432 9.29081 6.76515 9.28877 6.78573 9.2847C6.80643 9.28051 6.82642 9.27453 6.8458 9.26639C6.86519 9.25838 6.88362 9.24856 6.90109 9.23696C6.91856 9.22523 6.93471 9.21195 6.94955 9.19711C6.96439 9.18227 6.97767 9.16611 6.9894 9.14864C7.00101 9.13117 7.01082 9.11274 7.01896 9.09336C7.02698 9.07397 7.03308 9.05398 7.03715 9.0334C7.04122 9.01282 7.04325 8.992 7.04325 8.97106V8.33155H18.2395C18.2604 8.33155 18.2812 8.33359 18.3018 8.33778C18.3224 8.34184 18.3424 8.34795 18.3617 8.35596C18.3813 8.36398 18.3996 8.37391 18.417 8.38552C18.4345 8.39725 18.4507 8.41041 18.4655 8.42525C18.4803 8.44021 18.4936 8.45625 18.5054 8.47372C18.517 8.49119 18.5268 8.50962 18.5349 8.529C18.5429 8.54839 18.549 8.56837 18.5531 8.58896C18.5573 8.60954 18.5593 8.63024 18.5593 8.6513V10.2688C18.4776 10.2785 18.3965 10.2921 18.3159 10.3092C18.2354 10.3264 18.1558 10.3471 18.0772 10.3715C17.9986 10.3958 17.9211 10.4237 17.845 10.455C17.7689 10.4864 17.6944 10.5212 17.6214 10.5594C17.5485 10.5975 17.4774 10.6389 17.4081 10.6834C17.339 10.728 17.2719 10.7756 17.2071 10.8263C17.1421 10.8769 17.0796 10.9304 17.0197 10.9867C16.9596 11.0431 16.9023 11.102 16.8476 11.1635C16.7929 11.225 16.7411 11.2889 16.6922 11.3552C16.6433 11.4214 16.5975 11.4897 16.5549 11.5601C16.5122 11.6304 16.4727 11.7026 16.4365 11.7765C16.4004 11.8504 16.3677 11.9259 16.3384 12.0028C16.3091 12.0797 16.2834 12.1578 16.2611 12.237C16.239 12.3162 16.2203 12.3963 16.2055 12.4773C16.1905 12.5582 16.1793 12.6397 16.1716 12.7215C16.1641 12.8035 16.1602 12.8857 16.1601 12.9679Z" fill="#F2B80C"/>
</g>
<path d="M10.2422 12.4882C10.2841 12.4882 10.3259 12.4862 10.3677 12.4821C10.4093 12.4779 10.4507 12.4718 10.4919 12.4637C10.5329 12.4555 10.5736 12.4453 10.6137 12.4331C10.6538 12.4209 10.6932 12.4069 10.7319 12.3909C10.7706 12.3749 10.8084 12.3569 10.8454 12.3372C10.8824 12.3174 10.9183 12.2959 10.9531 12.2727C10.988 12.2493 11.0215 12.2244 11.054 12.1979C11.0864 12.1713 11.1174 12.1432 11.1471 12.1136C11.1766 12.0839 11.2047 12.053 11.2313 12.0206C11.258 11.9882 11.2829 11.9546 11.3061 11.9198C11.3294 11.8849 11.351 11.849 11.3707 11.8121C11.3905 11.7752 11.4084 11.7374 11.4244 11.6986C11.4405 11.66 11.4545 11.6206 11.4667 11.5805C11.4789 11.5404 11.4891 11.4999 11.4972 11.4587C11.5053 11.4176 11.5116 11.3762 11.5156 11.3346C11.5197 11.2928 11.5219 11.2511 11.5219 11.2092C11.5219 11.1673 11.5197 11.1255 11.5156 11.0838C11.5116 11.0421 11.5053 11.0007 11.4972 10.9597C11.4891 10.9186 11.4789 10.8779 11.4667 10.8379C11.4545 10.7979 11.4405 10.7584 11.4244 10.7197C11.4084 10.6811 11.3905 10.6432 11.3707 10.6063C11.351 10.5693 11.3294 10.5334 11.3061 10.4986C11.2829 10.4638 11.258 10.4301 11.2313 10.3978C11.2047 10.3654 11.1766 10.3344 11.1471 10.3047C11.1174 10.2752 11.0864 10.2471 11.054 10.2205C11.0215 10.1939 10.988 10.169 10.9531 10.1457C10.9183 10.1225 10.8824 10.1009 10.8454 10.0812C10.8084 10.0615 10.7706 10.0435 10.7319 10.0276C10.6932 10.0115 10.6538 9.99743 10.6137 9.98522C10.5736 9.97314 10.5329 9.96296 10.4919 9.95471C10.4507 9.94657 10.4093 9.94047 10.3677 9.93628C10.3259 9.93221 10.2841 9.93018 10.2422 9.93018C10.2004 9.93018 10.1585 9.93221 10.1168 9.93628C10.0751 9.94047 10.0337 9.94657 9.99262 9.95471C9.95146 9.96296 9.91089 9.97314 9.8708 9.98522C9.83071 9.99743 9.79122 10.0115 9.75257 10.0276C9.7138 10.0435 9.67598 10.0615 9.63901 10.0812C9.60203 10.1009 9.56613 10.1225 9.53131 10.1457C9.49648 10.169 9.46286 10.1939 9.43043 10.2205C9.39812 10.2471 9.36712 10.2752 9.33744 10.3047C9.30777 10.3344 9.27965 10.3654 9.25308 10.3978C9.22651 10.4301 9.20162 10.4638 9.17829 10.4986C9.15507 10.5334 9.13353 10.5693 9.11379 10.6063C9.09404 10.6432 9.07609 10.6811 9.06006 10.7197C9.04402 10.7584 9.0299 10.7979 9.01781 10.8379C9.00561 10.8779 8.99544 10.9186 8.9873 10.9597C8.97904 11.0007 8.97294 11.0421 8.96887 11.0838C8.96468 11.1255 8.96265 11.1673 8.96265 11.2092C8.96277 11.2511 8.9648 11.2928 8.96899 11.3345C8.97306 11.3762 8.97928 11.4175 8.98742 11.4586C8.99567 11.4997 9.00585 11.5403 9.01805 11.5803C9.03026 11.6204 9.04438 11.6597 9.06041 11.6984C9.07645 11.7372 9.0944 11.775 9.11415 11.8118C9.13389 11.8488 9.15543 11.8846 9.17877 11.9194C9.20198 11.9542 9.22699 11.9879 9.25356 12.0202C9.28012 12.0526 9.30825 12.0836 9.3378 12.1131C9.36748 12.1428 9.39848 12.1709 9.4309 12.1975C9.46322 12.2241 9.49684 12.249 9.53166 12.2722C9.56649 12.2955 9.60239 12.3171 9.63937 12.3368C9.67622 12.3566 9.71404 12.3744 9.75281 12.3905C9.79146 12.4066 9.83083 12.4207 9.87092 12.4328C9.91101 12.445 9.95158 12.4552 9.99274 12.4634C10.0338 12.4716 10.0752 12.4778 10.1168 12.482C10.1585 12.486 10.2004 12.4882 10.2422 12.4882ZM10.2422 10.5697C10.2632 10.5697 10.2841 10.5708 10.305 10.5728C10.3258 10.5748 10.3465 10.5779 10.3671 10.582C10.3876 10.5861 10.4079 10.5911 10.428 10.5972C10.448 10.6033 10.4677 10.6104 10.4871 10.6184C10.5065 10.6264 10.5254 10.6354 10.5438 10.6452C10.5622 10.6551 10.5802 10.6658 10.5977 10.6775C10.6151 10.6891 10.6319 10.7016 10.6482 10.7148C10.6643 10.7281 10.6798 10.7421 10.6946 10.757C10.7094 10.7718 10.7236 10.7874 10.7368 10.8035C10.7501 10.8197 10.7626 10.8365 10.7742 10.8539C10.7858 10.8714 10.7965 10.8893 10.8065 10.9077C10.8163 10.9262 10.8253 10.9451 10.8333 10.9645C10.8413 10.9838 10.8484 11.0035 10.8545 11.0236C10.8606 11.0436 10.8656 11.0639 10.8697 11.0845C10.8739 11.105 10.8768 11.1257 10.8789 11.1465C10.881 11.1673 10.882 11.1882 10.882 11.2092C10.882 11.2301 10.881 11.2511 10.8789 11.2719C10.8768 11.2927 10.8739 11.3134 10.8697 11.334C10.8656 11.3545 10.8606 11.3748 10.8545 11.3948C10.8484 11.4149 10.8413 11.4345 10.8333 11.4539C10.8253 11.4733 10.8163 11.4922 10.8065 11.5106C10.7965 11.5292 10.7858 11.5471 10.7742 11.5645C10.7626 11.5819 10.7501 11.5987 10.7368 11.6149C10.7236 11.6311 10.7094 11.6466 10.6946 11.6614C10.6798 11.6762 10.6643 11.6902 10.6482 11.7035C10.6319 11.7168 10.6151 11.7293 10.5977 11.7409C10.5802 11.7526 10.5622 11.7634 10.5438 11.7732C10.5254 11.7831 10.5065 11.792 10.4871 11.8C10.4677 11.808 10.448 11.8151 10.428 11.8212C10.4079 11.8273 10.3876 11.8323 10.3671 11.8364C10.3465 11.8405 10.3258 11.8435 10.305 11.8456C10.2841 11.8477 10.2632 11.8487 10.2422 11.8487C10.2213 11.8487 10.2004 11.8477 10.1795 11.8456C10.1587 11.8435 10.138 11.8405 10.1174 11.8364C10.0969 11.8323 10.0765 11.8273 10.0565 11.8212C10.0364 11.8151 10.0168 11.808 9.99741 11.8C9.97802 11.792 9.95912 11.7831 9.94069 11.7732C9.92214 11.7634 9.90419 11.7526 9.88684 11.7409C9.86937 11.7293 9.85249 11.7168 9.83634 11.7035C9.82018 11.6902 9.80463 11.6762 9.78979 11.6614C9.77507 11.6466 9.76095 11.6311 9.74766 11.6149C9.73438 11.5987 9.72194 11.5819 9.71021 11.5645C9.6986 11.5471 9.68783 11.5292 9.67802 11.5106C9.66809 11.4922 9.65911 11.4733 9.65109 11.4539C9.64308 11.4345 9.63613 11.4149 9.63003 11.3948C9.62393 11.3748 9.61878 11.3545 9.61471 11.334C9.61065 11.3134 9.60753 11.2927 9.6055 11.2719C9.60347 11.2511 9.60239 11.2301 9.60239 11.2092C9.60251 11.1882 9.60347 11.1674 9.60562 11.1465C9.60765 11.1257 9.61076 11.1051 9.61483 11.0845C9.61902 11.0639 9.62405 11.0437 9.63015 11.0236C9.63625 11.0036 9.64331 10.984 9.65133 10.9646C9.65935 10.9452 9.66832 10.9263 9.67826 10.9079C9.68807 10.8894 9.69884 10.8715 9.71045 10.8541C9.72218 10.8367 9.73462 10.8199 9.7479 10.8037C9.76119 10.7875 9.77519 10.772 9.79003 10.7572C9.80487 10.7424 9.82042 10.7284 9.83658 10.7151C9.85273 10.7018 9.86961 10.6893 9.88696 10.6777C9.90443 10.666 9.92226 10.6552 9.94081 10.6454C9.95924 10.6355 9.97814 10.6266 9.99753 10.6186C10.0169 10.6105 10.0365 10.6034 10.0566 10.5974C10.0766 10.5913 10.097 10.5862 10.1174 10.5821C10.138 10.5779 10.1587 10.5749 10.1795 10.5728C10.2004 10.5708 10.2213 10.5697 10.2422 10.5697Z" fill="#F2B80C"/>
<path d="M14.0809 13.7671C14.039 13.7671 13.9971 13.7691 13.9555 13.7733C13.9137 13.7774 13.8723 13.7835 13.8312 13.7917C13.7901 13.7999 13.7495 13.8101 13.7094 13.8223C13.6693 13.8343 13.6298 13.8485 13.5912 13.8645C13.5524 13.8805 13.5146 13.8984 13.4776 13.9181C13.4407 13.9379 13.4048 13.9594 13.3699 13.9827C13.3351 14.0059 13.3015 14.0308 13.269 14.0574C13.2367 14.084 13.2057 14.1121 13.1761 14.1418C13.1464 14.1713 13.1183 14.2023 13.0917 14.2347C13.0651 14.2672 13.0402 14.3007 13.0169 14.3355C12.9937 14.3705 12.9722 14.4062 12.9524 14.4432C12.9327 14.4802 12.9147 14.518 12.8987 14.5567C12.8826 14.5954 12.8685 14.6348 12.8564 14.6749C12.8442 14.715 12.8341 14.7555 12.8259 14.7966C12.8177 14.8378 12.8116 14.879 12.8075 14.9208C12.8033 14.9624 12.8013 15.0042 12.8013 15.0461C12.8013 15.0881 12.8033 15.1299 12.8075 15.1715C12.8116 15.2132 12.8177 15.2546 12.8259 15.2957C12.8341 15.3368 12.8442 15.3773 12.8564 15.4174C12.8685 15.4575 12.8826 15.4969 12.8987 15.5357C12.9147 15.5743 12.9327 15.6121 12.9524 15.6491C12.9722 15.6861 12.9937 15.7219 13.0169 15.7567C13.0402 15.7916 13.0651 15.8251 13.0917 15.8576C13.1183 15.89 13.1464 15.921 13.1761 15.9505C13.2057 15.9802 13.2367 16.0082 13.269 16.0348C13.3015 16.0615 13.3351 16.0864 13.3699 16.1096C13.4048 16.1329 13.4408 16.1545 13.4776 16.1742C13.5146 16.1939 13.5524 16.2118 13.5912 16.2278C13.6298 16.2438 13.6693 16.258 13.7094 16.2701C13.7495 16.2823 13.7901 16.2924 13.8312 16.3006C13.8723 16.3087 13.9137 16.3149 13.9555 16.319C13.9971 16.3231 14.039 16.3252 14.0809 16.3252C14.1228 16.3252 14.1645 16.3231 14.2063 16.319C14.2479 16.3149 14.2893 16.3088 14.3305 16.3006C14.3715 16.2924 14.4122 16.2823 14.4523 16.2701C14.4924 16.258 14.5318 16.2438 14.5706 16.2278C14.6092 16.2118 14.647 16.1939 14.684 16.1742C14.721 16.1545 14.7569 16.1329 14.7917 16.1096C14.8266 16.0864 14.8601 16.0615 14.8926 16.0348C14.925 16.0082 14.956 15.9802 14.9857 15.9505C15.0152 15.921 15.0434 15.89 15.0699 15.8576C15.0966 15.8251 15.1215 15.7916 15.1447 15.7567C15.1681 15.7219 15.1896 15.6861 15.2093 15.6491C15.2291 15.6121 15.247 15.5743 15.2631 15.5357C15.2791 15.4969 15.2931 15.4575 15.3053 15.4174C15.3175 15.3773 15.3277 15.3368 15.3358 15.2957C15.344 15.2546 15.3502 15.2132 15.3543 15.1715C15.3583 15.1299 15.3605 15.0881 15.3605 15.0461C15.3604 15.0042 15.3583 14.9624 15.3541 14.9208C15.3499 14.8792 15.3438 14.8378 15.3356 14.7967C15.3274 14.7557 15.3172 14.7151 15.3051 14.675C15.2929 14.6349 15.2787 14.5955 15.2627 14.5569C15.2466 14.5182 15.2287 14.4804 15.209 14.4434C15.1891 14.4066 15.1677 14.3707 15.1444 14.3359C15.121 14.301 15.0961 14.2674 15.0696 14.2351C15.043 14.2028 15.0149 14.1718 14.9852 14.1421C14.9556 14.1126 14.9246 14.0844 14.8922 14.0579C14.8599 14.0313 14.8263 14.0064 14.7915 13.9831C14.7566 13.9599 14.7207 13.9383 14.6838 13.9186C14.6468 13.8988 14.609 13.8809 14.5703 13.8649C14.5317 13.8488 14.4922 13.8347 14.4521 13.8225C14.4121 13.8103 14.3714 13.8001 14.3304 13.792C14.2893 13.7837 14.2479 13.7775 14.2063 13.7734C14.1645 13.7692 14.1228 13.7672 14.0809 13.7671ZM14.0809 15.6857C14.0599 15.6857 14.039 15.6846 14.0182 15.6826C13.9973 15.6806 13.9766 15.6775 13.9561 15.6734C13.9355 15.6693 13.9151 15.6642 13.8951 15.6581C13.875 15.6521 13.8554 15.645 13.836 15.637C13.8166 15.629 13.7977 15.62 13.7793 15.6101C13.7608 15.6003 13.7428 15.5895 13.7255 15.5779C13.708 15.5663 13.6912 15.5537 13.675 15.5404C13.6588 15.5272 13.6432 15.5132 13.6284 15.4983C13.6137 15.4836 13.5996 15.468 13.5863 15.4519C13.573 15.4356 13.5606 15.4189 13.549 15.4014C13.5372 15.384 13.5265 15.3661 13.5166 15.3477C13.5067 15.3291 13.4977 15.3102 13.4897 15.2909C13.4817 15.2715 13.4748 15.2518 13.4687 15.2318C13.4626 15.2117 13.4574 15.1915 13.4533 15.1709C13.4493 15.1503 13.4462 15.1296 13.4441 15.1088C13.4421 15.088 13.4411 15.067 13.4411 15.0461C13.4411 15.0252 13.4421 15.0043 13.4441 14.9835C13.4462 14.9626 13.4493 14.942 13.4533 14.9214C13.4574 14.9008 13.4626 14.8806 13.4687 14.8605C13.4748 14.8405 13.4817 14.8208 13.4897 14.8014C13.4977 14.7821 13.5067 14.7632 13.5166 14.7447C13.5265 14.7262 13.5372 14.7083 13.549 14.6908C13.5606 14.6735 13.573 14.6567 13.5863 14.6404C13.5996 14.6243 13.6137 14.6087 13.6284 14.594C13.6432 14.5792 13.6588 14.565 13.675 14.5517C13.6912 14.5385 13.708 14.526 13.7255 14.5144C13.7428 14.5028 13.7608 14.492 13.7793 14.4821C13.7977 14.4723 13.8166 14.4633 13.836 14.4553C13.8554 14.4473 13.875 14.4402 13.8951 14.4342C13.9151 14.4281 13.9355 14.423 13.9561 14.4189C13.9766 14.4148 13.9973 14.4117 14.0182 14.4097C14.039 14.4077 14.0599 14.4066 14.0809 14.4066C14.1018 14.4066 14.1228 14.4077 14.1436 14.4097C14.1644 14.4117 14.1851 14.4148 14.2057 14.4189C14.2263 14.423 14.2465 14.4281 14.2666 14.4342C14.2866 14.4402 14.3063 14.4473 14.3257 14.4553C14.3451 14.4633 14.364 14.4723 14.3824 14.4821C14.401 14.492 14.4189 14.5028 14.4363 14.5144C14.4538 14.526 14.4705 14.5385 14.4868 14.5517C14.5029 14.565 14.5184 14.5792 14.5332 14.594C14.5481 14.6087 14.5622 14.6243 14.5755 14.6404C14.5887 14.6567 14.6012 14.6735 14.6128 14.6908C14.6244 14.7083 14.6352 14.7262 14.6451 14.7447C14.6549 14.7632 14.6639 14.7821 14.6719 14.8014C14.6799 14.8208 14.687 14.8405 14.6931 14.8605C14.6992 14.8806 14.7042 14.9008 14.7083 14.9214C14.7125 14.942 14.7155 14.9626 14.7175 14.9835C14.7197 15.0043 14.7206 15.0252 14.7206 15.0461C14.7206 15.067 14.7195 15.088 14.7175 15.1088C14.7155 15.1296 14.7124 15.1503 14.7082 15.1709C14.7041 15.1914 14.699 15.2117 14.693 15.2317C14.6869 15.2517 14.6798 15.2714 14.6718 15.2908C14.6637 15.3101 14.6548 15.329 14.6449 15.3474C14.6349 15.366 14.6243 15.3839 14.6126 15.4013C14.6009 15.4186 14.5885 15.4355 14.5752 15.4516C14.5619 15.4678 14.5478 15.4834 14.533 15.4981C14.5183 15.5129 14.5027 15.527 14.4865 15.5403C14.4704 15.5536 14.4535 15.566 14.4362 15.5777C14.4187 15.5893 14.4007 15.6 14.3823 15.61C14.3639 15.6198 14.345 15.6288 14.3256 15.6368C14.3062 15.6448 14.2866 15.6519 14.2665 15.658C14.2465 15.6641 14.2261 15.6692 14.2056 15.6733C14.1851 15.6773 14.1644 15.6805 14.1436 15.6825C14.1228 15.6846 14.1018 15.6856 14.0809 15.6857Z" fill="#F2B80C"/>
<path d="M9.24487 15.0459C9.24476 15.1115 9.2511 15.1764 9.2639 15.2406C9.27659 15.3049 9.29537 15.3672 9.32038 15.4278C9.3454 15.4883 9.37615 15.5459 9.41241 15.6005C9.44879 15.6549 9.49007 15.7054 9.53626 15.7518C9.91214 16.1355 10.5774 16.1371 10.947 15.7477L14.7595 11.8874C15.1318 11.5305 15.128 10.8918 14.7599 10.531C14.3937 10.1721 13.7627 10.1697 13.404 10.5294L9.54033 14.3418C9.49354 14.3878 9.45178 14.4379 9.41504 14.4922C9.37818 14.5464 9.34719 14.6038 9.32182 14.6642C9.29645 14.7247 9.2773 14.7871 9.26426 14.8512C9.25134 14.9155 9.24487 14.9805 9.24487 15.0459ZM9.98992 14.7968L13.8552 10.9829C13.8699 10.9673 13.8859 10.9533 13.9035 10.941C13.921 10.9288 13.9397 10.9182 13.9593 10.9096C13.9789 10.9011 13.9991 10.8945 14.0201 10.89C14.041 10.8856 14.0622 10.8832 14.0836 10.8828C14.1052 10.8826 14.1263 10.8845 14.1474 10.8886C14.1685 10.8925 14.1889 10.8986 14.2087 10.9068C14.2285 10.9148 14.2473 10.9248 14.2652 10.9367C14.283 10.9486 14.2995 10.9622 14.3146 10.9774C14.3297 10.9926 14.3431 11.0091 14.3549 11.027C14.3666 11.045 14.3765 11.0639 14.3845 11.0837C14.3924 11.1036 14.3983 11.1241 14.4022 11.1451C14.406 11.1662 14.4078 11.1875 14.4073 11.2089C14.407 11.2303 14.4043 11.2514 14.3997 11.2723C14.395 11.2933 14.3883 11.3135 14.3796 11.333C14.3708 11.3526 14.3603 11.3711 14.3477 11.3885C14.3353 11.4059 14.3213 11.4219 14.3056 11.4365L10.4919 15.2982C10.4754 15.3146 10.4575 15.3293 10.4381 15.3422C10.4188 15.3553 10.3983 15.3662 10.3768 15.3751C10.3553 15.384 10.3331 15.3907 10.3103 15.3952C10.2874 15.3998 10.2643 15.4022 10.241 15.4022C10.2178 15.4022 10.1947 15.3999 10.1718 15.3954C10.149 15.3908 10.1268 15.3841 10.1053 15.3753C10.0837 15.3663 10.0633 15.3554 10.0439 15.3425C10.0245 15.3295 10.0066 15.3148 9.99016 15.2984C9.97365 15.2819 9.95893 15.264 9.94601 15.2447C9.93296 15.2253 9.92207 15.2048 9.9131 15.1833C9.90424 15.1619 9.89754 15.1396 9.89287 15.1168C9.88833 15.094 9.88605 15.0709 9.88605 15.0476C9.88605 15.0244 9.88833 15.0013 9.89287 14.9784C9.89742 14.9556 9.90412 14.9334 9.91298 14.9119C9.92195 14.8904 9.93284 14.8699 9.94577 14.8506C9.95869 14.8312 9.97341 14.8133 9.98992 14.7968Z" fill="#F2B80C"/>
</svg>
