<svg width="21" height="22" viewBox="0 0 21 22" fill="none" xmlns="http://www.w3.org/2000/svg">
<path d="M0.0390625 10.9942C0.0390625 11.7381 0.642473 12.3461 1.3903 12.3461H10.4709L8.77549 14.0424C8.24865 14.5696 8.24865 15.4242 8.77549 15.9513C9.03898 16.2149 9.38319 16.3466 9.73156 16.3466C10.0758 16.3466 10.4241 16.2149 10.6876 15.9513L14.6862 11.9507C14.9411 11.6956 15.0814 11.3556 15.0814 10.9942C15.0814 10.6369 14.9368 10.2926 14.6862 10.0375L10.6876 6.03695C10.1608 5.50982 9.30662 5.50982 8.77978 6.03695C8.2528 6.56421 8.2528 7.41866 8.77978 7.94593L10.4752 9.64224H1.3903C0.642473 9.64224 0.0390625 10.2501 0.0390625 10.9942Z" fill="#3D992B"/>
<mask id="mask0_232_3901" style="mask-type:luminance" maskUnits="userSpaceOnUse" x="0" y="0" width="21" height="22">
<path d="M0 0H20.5927V22H0V0Z" fill="white"/>
</mask>
<g mask="url(#mask0_232_3901)">
<path d="M19.2413 0.0126953H1.39019C0.646523 0.0126953 0.0389617 0.616392 0.0389617 1.36464V5.86689C0.0389617 6.61085 0.642372 7.21884 1.39019 7.21884C2.13387 7.21884 2.74143 6.61514 2.74143 5.86689V2.71659H17.8942V19.2802H2.73728V16.1299C2.73728 15.3858 2.13387 14.7779 1.3859 14.7779C0.642372 14.7779 0.034668 15.3816 0.034668 16.1299V20.6321C0.034668 21.3761 0.638078 21.9841 1.3859 21.9841H19.2413C19.9848 21.9841 20.5926 21.3804 20.5926 20.6321V1.36464C20.5926 0.616392 19.9891 0.0126953 19.2413 0.0126953Z" fill="#3D992B"/>
</g>
</svg>
