<svg width="19" height="17" viewBox="0 0 19 17" fill="none" xmlns="http://www.w3.org/2000/svg">
<path d="M15.2318 5.13446C15.2097 5.13474 15.1879 5.13722 15.1662 5.14178C15.1446 5.14633 15.1237 5.15295 15.1033 5.16165C15.083 5.17034 15.0637 5.18083 15.0455 5.19324C15.0273 5.20566 15.0105 5.21974 14.9949 5.23547C14.9794 5.2512 14.9656 5.26817 14.9533 5.28666C14.9412 5.30501 14.931 5.32447 14.9226 5.34489C14.9141 5.36531 14.9079 5.38628 14.9037 5.40794C14.8994 5.42961 14.8972 5.45155 14.8972 5.47362C14.8972 5.49556 14.8994 5.5175 14.9037 5.53917C14.9079 5.56083 14.9141 5.5818 14.9226 5.60222C14.931 5.62265 14.9412 5.6421 14.9533 5.66045C14.9656 5.67894 14.9794 5.69591 14.9949 5.71164C15.0105 5.72737 15.0273 5.74145 15.0455 5.75387C15.0637 5.76628 15.083 5.77677 15.1033 5.78546C15.1237 5.79416 15.1446 5.80078 15.1662 5.80533C15.1879 5.80989 15.2097 5.81237 15.2318 5.81265H16.5185C16.5407 5.81237 16.5625 5.80989 16.584 5.80533C16.6057 5.80078 16.6266 5.79416 16.6469 5.78546C16.6672 5.77677 16.6865 5.76628 16.7047 5.75387C16.723 5.74145 16.7399 5.72737 16.7554 5.71164C16.7708 5.69591 16.7848 5.67894 16.7969 5.66045C16.8091 5.6421 16.8194 5.62265 16.8277 5.60222C16.8361 5.5818 16.8425 5.56083 16.8467 5.53917C16.851 5.5175 16.8531 5.49556 16.8531 5.47362C16.8531 5.45155 16.851 5.42961 16.8467 5.40794C16.8425 5.38628 16.8361 5.36531 16.8277 5.34489C16.8194 5.32447 16.8091 5.30501 16.7969 5.28666C16.7848 5.26817 16.7708 5.2512 16.7554 5.23547C16.7399 5.21974 16.723 5.20566 16.7047 5.19324C16.6865 5.18083 16.6672 5.17034 16.6469 5.16165C16.6266 5.15295 16.6057 5.14633 16.584 5.14178C16.5625 5.13722 16.5407 5.13474 16.5185 5.13446H16.2144V3.47495C16.2141 3.45577 16.2127 3.43673 16.2099 3.41782C16.2073 3.39892 16.2033 3.38015 16.1982 3.3618C16.1931 3.34331 16.1868 3.32524 16.1793 3.30771C16.1719 3.29005 16.1632 3.27308 16.1535 3.25652C16.1438 3.23996 16.1331 3.22423 16.1214 3.20906C16.1095 3.19402 16.0968 3.1798 16.0833 3.16628C16.0696 3.1529 16.0551 3.14034 16.0399 3.12875C16.0246 3.11716 16.0088 3.10667 15.9921 3.09715C15.9755 3.08763 15.9583 3.07922 15.9406 3.07204C15.9229 3.06473 15.9047 3.05866 15.8862 3.05383C15.8677 3.04886 15.849 3.04513 15.8299 3.04265C15.811 3.04017 15.792 3.03906 15.7728 3.03906C15.7536 3.03906 15.7346 3.0403 15.7156 3.04279C15.6966 3.04527 15.6779 3.049 15.6594 3.05396C15.6409 3.05879 15.6227 3.065 15.605 3.07218C15.5874 3.07949 15.5701 3.08791 15.5536 3.09743L15.067 3.38429C14.6309 3.71311 15.1208 4.24972 15.5356 3.89552V5.13446H15.2318Z" fill="#F7F7F7"/>
<path d="M15.8751 2.74544C15.8976 2.74516 15.9198 2.74268 15.9417 2.73799C15.9638 2.73343 15.985 2.72667 16.0057 2.71784C16.0264 2.70915 16.046 2.69839 16.0647 2.68569C16.0831 2.67314 16.1004 2.65879 16.1161 2.64278C16.1319 2.62677 16.1459 2.60953 16.1583 2.59076C16.1708 2.57199 16.1813 2.55226 16.1897 2.53143C16.1982 2.51073 16.2047 2.48934 16.209 2.46727C16.2134 2.44519 16.2156 2.42297 16.2156 2.40062C16.2156 2.37813 16.2134 2.35591 16.209 2.33384C16.2047 2.31176 16.1982 2.29037 16.1897 2.26967C16.1813 2.24884 16.1708 2.22911 16.1583 2.21034C16.1459 2.19171 16.1319 2.17433 16.1161 2.15832C16.1004 2.14232 16.0831 2.12797 16.0647 2.11541C16.046 2.10272 16.0264 2.09209 16.0057 2.08326C15.985 2.07443 15.9638 2.06767 15.9417 2.06312C15.9198 2.05842 15.8976 2.05594 15.8751 2.05566C15.8526 2.05594 15.8304 2.05842 15.8084 2.06312C15.7865 2.06767 15.7651 2.07443 15.7444 2.08326C15.7238 2.09209 15.7041 2.10272 15.6856 2.11541C15.667 2.12797 15.6499 2.14232 15.634 2.15832C15.6183 2.17433 15.6042 2.19171 15.5918 2.21034C15.5794 2.22911 15.569 2.24884 15.5605 2.26967C15.5519 2.29037 15.5454 2.31176 15.5412 2.33384C15.5369 2.35591 15.5347 2.37813 15.5347 2.40062C15.5347 2.42297 15.5369 2.44519 15.5412 2.46727C15.5454 2.48934 15.5519 2.51073 15.5605 2.53143C15.569 2.55226 15.5794 2.57199 15.5918 2.59076C15.6042 2.60953 15.6183 2.62677 15.634 2.64278C15.6499 2.65879 15.667 2.67314 15.6856 2.68569C15.7041 2.69839 15.7238 2.70915 15.7444 2.71784C15.7651 2.72667 15.7865 2.73343 15.8084 2.73799C15.8304 2.74268 15.8526 2.74516 15.8751 2.74544Z" fill="#F7F7F7"/>
<path d="M12.2922 6.25452C12.2733 6.27107 12.2559 6.28874 12.2396 6.30792C12.2235 6.32696 12.2088 6.3471 12.1957 6.36835C12.1826 6.38974 12.1712 6.41182 12.1614 6.43486C12.1516 6.4579 12.1436 6.4815 12.1374 6.50564C12.1312 6.52993 12.1269 6.55449 12.1243 6.57933C12.1218 6.60416 12.1212 6.62914 12.1225 6.65411C12.1237 6.67909 12.1269 6.70379 12.1318 6.72835C12.1368 6.75277 12.1436 6.77678 12.1523 6.80024C12.1608 6.82369 12.1712 6.84646 12.1832 6.8684C12.1952 6.8902 12.2088 6.91118 12.224 6.93104C12.2392 6.95091 12.2559 6.96954 12.2738 6.98679C12.2919 7.00418 12.3111 7.02018 12.3315 7.03453C12.3518 7.04902 12.3732 7.06185 12.3955 7.07317C12.4179 7.08434 12.4409 7.09386 12.4648 7.10159C12.4885 7.10946 12.5128 7.11539 12.5375 7.11953C12.5621 7.12353 12.5869 7.12588 12.612 7.12615H15.7757C15.8259 7.12698 15.8763 7.12657 15.9265 7.12505C15.9767 7.12353 16.027 7.12077 16.077 7.11677C16.1271 7.11277 16.1772 7.10766 16.227 7.10132C16.277 7.09511 16.3267 7.08752 16.3762 7.07882C16.4257 7.07027 16.475 7.06033 16.5241 7.0493C16.5731 7.03839 16.6219 7.02611 16.6704 7.01287C16.7189 6.99948 16.767 6.985 16.8148 6.9694C16.8626 6.95381 16.91 6.93712 16.957 6.91918C17.004 6.90138 17.0505 6.88234 17.0966 6.86233C17.1427 6.84232 17.1884 6.82107 17.2335 6.79886C17.2786 6.77664 17.323 6.75332 17.367 6.72904C17.4111 6.70475 17.4544 6.67936 17.4973 6.65287C17.5401 6.62652 17.5822 6.5992 17.6237 6.57077C17.6651 6.54235 17.7059 6.51296 17.7459 6.4826C17.7861 6.45238 17.8254 6.42106 17.8641 6.38891C17.9027 6.35662 17.9405 6.32365 17.9775 6.28956C18.0146 6.25562 18.0507 6.22071 18.0861 6.18511C18.1215 6.14937 18.156 6.11281 18.1897 6.07542C18.2234 6.03816 18.2561 6.00008 18.2879 5.96117C18.3197 5.92226 18.3506 5.88265 18.3805 5.84223C18.4106 5.80193 18.4396 5.76082 18.4676 5.71915C18.4955 5.67734 18.5225 5.63498 18.5486 5.59193C18.5745 5.54901 18.5995 5.50541 18.6234 5.46112C18.6474 5.41696 18.6701 5.37226 18.6919 5.32686C18.7137 5.2816 18.7344 5.23593 18.7542 5.18957C18.7738 5.14334 18.7923 5.09671 18.8096 5.04952C18.827 5.00233 18.8433 4.95486 18.8585 4.90684C18.8737 4.85896 18.8876 4.81081 18.9006 4.76224C18.9134 4.71353 18.9251 4.66468 18.9356 4.61556C18.9461 4.56644 18.9555 4.51718 18.9638 4.46751C18.9719 4.41797 18.9789 4.36816 18.9847 4.31835C18.9905 4.2684 18.9952 4.21831 18.9987 4.16822C19.002 4.10792 19.0034 4.04763 19.0031 3.98719C19.003 3.92675 19.0009 3.86646 18.9972 3.80616C18.9933 3.74586 18.9879 3.68584 18.9806 3.62581C18.9734 3.56593 18.9645 3.50618 18.9537 3.44671C18.9429 3.38724 18.9305 3.32819 18.9164 3.26954C18.9022 3.21076 18.8865 3.15253 18.869 3.09472C18.8515 3.03691 18.8323 2.97964 18.8114 2.92293C18.7906 2.86636 18.7681 2.8102 18.7441 2.75487C18.72 2.69954 18.6943 2.64476 18.6671 2.59095C18.6398 2.537 18.6111 2.48401 18.5807 2.43171C18.5504 2.37942 18.5186 2.32809 18.4852 2.27773C18.452 2.22736 18.4172 2.17797 18.3811 2.12953C18.3449 2.08124 18.3074 2.03391 18.2685 1.98769C18.2296 1.94146 18.1893 1.89648 18.1479 1.8526C18.1063 1.80872 18.0636 1.76609 18.0196 1.72455C17.9755 1.68316 17.9304 1.64315 17.8841 1.60437C17.8378 1.56546 17.7904 1.52807 17.7419 1.49205C17.6934 1.45604 17.644 1.42141 17.5935 1.38815C17.543 1.35504 17.4915 1.3233 17.4392 1.29308C17.3868 1.263 17.3336 1.2343 17.2797 1.20712C17.2257 1.18008 17.171 1.15455 17.1155 1.13054C17.06 1.10653 17.0039 1.08418 16.9472 1.06348C16.8903 1.04278 16.833 1.02374 16.7751 1.00636C16.7173 0.988971 16.6589 0.973241 16.6001 0.959305C16.5414 0.94523 16.4823 0.93295 16.4227 0.922463C16.3632 0.911839 16.3035 0.903008 16.2434 0.895833C16.1834 0.888658 16.1233 0.883276 16.063 0.879689C16.0027 0.876101 15.9422 0.874169 15.8818 0.874031C15.8214 0.873893 15.7611 0.875549 15.7006 0.878861C15.6403 0.882172 15.5802 0.887278 15.5201 0.894177C15.4601 0.900938 15.4002 0.909493 15.3408 0.919842C15.2812 0.93019 15.222 0.942195 15.1632 0.955855C15.1043 0.969653 15.0459 0.984969 14.9879 1.00208C14.93 1.01919 14.8726 1.03809 14.8156 1.05851C14.7588 1.07894 14.7026 1.10101 14.647 1.12461C14.5914 1.14834 14.5366 1.17359 14.4824 1.2005C14.4283 1.2274 14.375 1.25583 14.3225 1.28577C14.27 1.31571 14.2184 1.34717 14.1678 1.38001C14.1171 1.41299 14.0675 1.44735 14.0189 1.48322C13.9702 1.51896 13.9226 1.55622 13.8761 1.59485C13.8296 1.63335 13.7843 1.67323 13.74 1.71448C13.6959 1.7556 13.653 1.7981 13.6112 1.8417C13.5695 1.88544 13.5291 1.93029 13.4899 1.97637C13.4508 2.02232 13.413 2.06951 13.3766 2.11767C13.3403 2.16596 13.3053 2.21508 13.2717 2.26531C13.2382 2.31553 13.2062 2.36672 13.1755 2.41888C13.1451 2.4709 13.1159 2.52389 13.0885 2.5777C13.0609 2.63138 13.0351 2.68602 13.0107 2.74121C12.9864 2.79654 12.9636 2.85242 12.9425 2.909C12.9214 2.96557 12.9019 3.02283 12.8841 3.08051C12.8663 3.13818 12.8503 3.19641 12.8358 3.25506C12.8215 3.3137 12.8088 3.37275 12.7978 3.43209C12.7867 3.49156 12.7775 3.55117 12.77 3.61105C12.7624 3.67093 12.7566 3.7311 12.7526 3.79139C12.7486 3.85155 12.7463 3.91185 12.7457 3.97229C12.7452 4.03272 12.7464 4.09302 12.7493 4.15332C12.7522 4.21376 12.7569 4.27392 12.7634 4.33394C12.7699 4.39396 12.778 4.45385 12.788 4.51332C12.7979 4.57293 12.8095 4.63212 12.8229 4.69104C12.8361 4.74996 12.8512 4.80846 12.8678 4.86655C12.8847 4.9245 12.903 4.98204 12.923 5.03903C12.9432 5.09602 12.9648 5.15231 12.9882 5.20806C13.0115 5.26367 13.0365 5.31872 13.063 5.37295C13.0894 5.42717 13.1176 5.48071 13.1473 5.53328L12.2922 6.25452ZM13.4427 3.71054C13.9147 0.602482 18.3932 0.993248 18.3206 4.13249C18.315 4.21141 18.3055 4.28979 18.2922 4.36775C18.279 4.44571 18.262 4.52298 18.2414 4.59928C18.2209 4.67572 18.1967 4.75092 18.169 4.82502C18.1413 4.89912 18.1101 4.97169 18.0754 5.04276C18.0409 5.11395 18.003 5.18322 17.9617 5.2507C17.9206 5.31831 17.8762 5.38371 17.8289 5.44704C17.7814 5.51038 17.731 5.57123 17.6779 5.62973C17.6247 5.68838 17.5688 5.74426 17.5103 5.79752C17.4518 5.85078 17.3909 5.90101 17.3276 5.94847C17.2642 5.99594 17.1988 6.04037 17.1314 6.08162C17.0638 6.12288 16.9945 6.16083 16.9233 6.19546C16.8522 6.23023 16.7796 6.26142 16.7056 6.28915C16.6315 6.31702 16.5561 6.34117 16.4798 6.36187C16.4034 6.38256 16.3261 6.39954 16.2481 6.41278C16.1702 6.42617 16.0917 6.43569 16.0127 6.44162C15.9338 6.44742 15.8548 6.44962 15.7757 6.44797H13.115L13.5849 6.05155C13.615 6.02629 13.6428 5.9987 13.668 5.96862C13.6933 5.93854 13.7159 5.90653 13.7356 5.87258C13.7553 5.83864 13.772 5.80318 13.7857 5.76634C13.7994 5.72949 13.8097 5.69182 13.8168 5.65319C13.8238 5.61455 13.8275 5.57551 13.8279 5.53632C13.8282 5.49699 13.8252 5.45794 13.8187 5.41931C13.8123 5.38054 13.8025 5.34259 13.7896 5.30547C13.7766 5.2685 13.7605 5.23276 13.7413 5.19854C13.6778 5.08636 13.6236 4.96976 13.5786 4.84903C13.5336 4.72829 13.4986 4.60466 13.4732 4.47841C13.4478 4.35202 13.4326 4.22438 13.4275 4.09564C13.4224 3.96691 13.4275 3.83858 13.4427 3.71054Z" fill="#F7F7F7"/>
<path d="M2.10543 13.9322C6.6405 13.2791 8.80296 15.3156 9.16061 15.3471C9.51053 15.3194 11.6835 13.2772 16.2173 13.9324C16.241 13.9358 16.2648 13.9379 16.2886 13.9388C16.3125 13.9398 16.3362 13.9394 16.3601 13.9377C16.384 13.9361 16.4076 13.9333 16.4312 13.9292C16.4546 13.925 16.4778 13.9197 16.5009 13.913C16.5238 13.9064 16.5463 13.8985 16.5685 13.8896C16.5905 13.8806 16.6121 13.8704 16.6332 13.8592C16.6542 13.8479 16.6746 13.8355 16.6943 13.8221C16.714 13.8086 16.7329 13.7941 16.7512 13.7786C16.7694 13.7632 16.7866 13.7468 16.803 13.7295C16.8196 13.7121 16.8351 13.6941 16.8495 13.6752C16.864 13.6561 16.8776 13.6365 16.89 13.6161C16.9024 13.5957 16.9137 13.5747 16.9238 13.5532C16.934 13.5315 16.9431 13.5096 16.9508 13.4869C16.9587 13.4645 16.9653 13.4416 16.9707 13.4182C16.9761 13.3951 16.9803 13.3716 16.9832 13.3479C16.9861 13.3243 16.9878 13.3004 16.9881 13.2765V8.0038C16.9878 7.98173 16.9855 7.95992 16.9809 7.93826C16.9763 7.9166 16.9697 7.89576 16.961 7.87534C16.9523 7.85506 16.9419 7.83574 16.9294 7.81753C16.917 7.79931 16.9029 7.78234 16.8872 7.76689C16.8715 7.75143 16.8544 7.7375 16.8359 7.72535C16.8175 7.71321 16.7981 7.703 16.7777 7.69458C16.7572 7.68617 16.7361 7.67982 16.7145 7.67554C16.6928 7.67126 16.6709 7.6692 16.6488 7.6692C16.6267 7.6692 16.6048 7.67126 16.5831 7.67554C16.5614 7.67982 16.5405 7.68617 16.52 7.69458C16.4995 7.703 16.4802 7.71321 16.4617 7.72535C16.4432 7.7375 16.4262 7.75143 16.4105 7.76689C16.3948 7.78234 16.3807 7.79931 16.3683 7.81753C16.3558 7.83574 16.3452 7.85506 16.3365 7.87534C16.328 7.89576 16.3213 7.9166 16.3168 7.93826C16.3122 7.95992 16.3098 7.98173 16.3095 8.0038L16.3171 13.2613C12.8784 12.7438 10.5121 13.7891 9.49991 14.379V3.72483C9.91965 3.45383 10.3605 3.22285 10.8223 3.03188C11.284 2.84091 11.7594 2.69314 12.2481 2.58855C12.2698 2.58358 12.2909 2.57668 12.3112 2.56757C12.3316 2.55847 12.3509 2.54756 12.3691 2.53459C12.3873 2.52176 12.404 2.50727 12.4193 2.49113C12.4347 2.47485 12.4483 2.45732 12.4602 2.43856C12.4721 2.41965 12.482 2.39979 12.49 2.37909C12.498 2.35825 12.5038 2.33687 12.5077 2.31493C12.5114 2.29285 12.5129 2.27077 12.5123 2.24856C12.5118 2.2262 12.509 2.20426 12.5041 2.18246C12.4991 2.1608 12.4921 2.13969 12.483 2.11941C12.4738 2.09898 12.4629 2.0798 12.45 2.06159C12.4371 2.04338 12.4227 2.02668 12.4064 2.01136C12.3902 1.99605 12.3727 1.98239 12.3538 1.97052C12.3349 1.95866 12.315 1.94872 12.2942 1.94086C12.2735 1.93285 12.252 1.92706 12.23 1.92319C12.2081 1.91947 12.1859 1.91795 12.1637 1.9185C12.1413 1.91919 12.1194 1.92195 12.0976 1.92692C11.576 2.03869 11.0686 2.19612 10.5752 2.39882C10.0819 2.60165 9.61057 2.84671 9.16116 3.13399C8.43124 2.64291 5.86656 1.18513 1.89791 1.82095C1.859 1.82688 1.82078 1.8364 1.78338 1.84924C1.74599 1.86193 1.71011 1.87794 1.67562 1.89712C1.64112 1.91629 1.60856 1.93837 1.57793 1.96335C1.54729 1.98832 1.51915 2.01578 1.49348 2.04586C1.46782 2.0758 1.44491 2.10781 1.4249 2.14176C1.4049 2.17584 1.38806 2.2113 1.3744 2.24828C1.3606 2.2854 1.35039 2.32334 1.34336 2.36212C1.33646 2.40103 1.33301 2.44008 1.33301 2.47968V13.2765C1.33328 13.3004 1.33508 13.3243 1.33798 13.348C1.34087 13.3717 1.34501 13.3952 1.35053 13.4185C1.35591 13.4417 1.36254 13.4646 1.3704 13.4872C1.37827 13.5099 1.38737 13.5319 1.39758 13.5535C1.40779 13.5751 1.41911 13.5961 1.43153 13.6165C1.44408 13.6369 1.45761 13.6565 1.47209 13.6756C1.48658 13.6945 1.50217 13.7127 1.51859 13.7299C1.53515 13.7473 1.5524 13.7636 1.57075 13.7791C1.58897 13.7946 1.60787 13.809 1.62774 13.8225C1.64747 13.8359 1.66789 13.8483 1.689 13.8596C1.70998 13.8708 1.73164 13.881 1.75385 13.89C1.77593 13.899 1.79856 13.9068 1.82147 13.9133C1.84451 13.9199 1.86783 13.9253 1.89128 13.9295C1.91488 13.9335 1.93861 13.9364 1.96248 13.9379C1.98635 13.9395 2.01023 13.9398 2.0341 13.9388C2.05797 13.938 2.0817 13.9358 2.10543 13.9322ZM8.82117 3.72497V14.379C7.80935 13.7897 5.44475 12.7471 2.01161 13.2765L2.0007 2.49127C5.79039 1.88511 8.24951 3.33917 8.82117 3.72497Z" fill="#F7F7F7"/>
<path d="M3.00402 4.94288C3.41631 4.9117 3.82916 4.9048 4.24228 4.92219C4.6554 4.93943 5.06617 4.98097 5.47446 5.04651C5.88275 5.11205 6.2858 5.20119 6.6836 5.31406C7.0814 5.42679 7.47134 5.56256 7.85314 5.7211C7.87232 5.72083 7.89136 5.7189 7.91012 5.71545C7.92903 5.71186 7.94752 5.70689 7.96546 5.70027C7.98339 5.69364 8.00078 5.6855 8.01734 5.67598C8.03403 5.66646 8.04976 5.65556 8.06453 5.64328C8.07929 5.63114 8.09295 5.61775 8.10551 5.60327C8.11806 5.58878 8.12924 5.57332 8.13918 5.5569C8.14911 5.54048 8.15767 5.52337 8.1647 5.50557C8.17174 5.48777 8.17712 5.46942 8.18112 5.45066C8.18512 5.43203 8.18733 5.41299 8.18816 5.39381C8.18885 5.37477 8.18802 5.35559 8.18554 5.33668C8.18305 5.31764 8.17891 5.29902 8.17326 5.28066C8.16774 5.26231 8.16056 5.24465 8.15187 5.22754C8.14332 5.21043 8.13324 5.19415 8.12193 5.17869C8.11048 5.16324 8.09792 5.14889 8.08412 5.13564C8.07032 5.12226 8.05542 5.11026 8.03955 5.09949C8.02368 5.08873 8.00713 5.07935 7.9896 5.07134C7.59428 4.90328 7.18999 4.75992 6.77715 4.64111C6.36417 4.52231 5.94553 4.42904 5.52124 4.36115C5.09694 4.2934 4.67002 4.25159 4.24062 4.23572C3.81122 4.21985 3.38251 4.2302 2.95435 4.26663C2.93241 4.26856 2.91075 4.27256 2.88964 4.27877C2.86839 4.28484 2.84796 4.29299 2.82837 4.3032C2.80878 4.31327 2.79043 4.32527 2.77318 4.33893C2.75579 4.35273 2.74006 4.36791 2.72585 4.38474C2.7115 4.40158 2.69894 4.41952 2.68818 4.43883C2.67742 4.45801 2.66859 4.47816 2.66183 4.49913C2.65493 4.5201 2.65024 4.54149 2.64748 4.56343C2.64485 4.58523 2.6443 4.60717 2.64596 4.62911C2.64761 4.65119 2.65134 4.67285 2.65713 4.6941C2.66293 4.71535 2.6708 4.73577 2.68059 4.7555C2.69053 4.77523 2.70212 4.79386 2.71564 4.81139C2.72902 4.82877 2.74406 4.84478 2.76062 4.85927C2.77732 4.87389 2.79512 4.88659 2.81416 4.89776C2.83334 4.9088 2.85321 4.91791 2.87418 4.92508C2.89502 4.93212 2.9164 4.93723 2.93821 4.94026C2.96001 4.9433 2.98195 4.94412 3.00402 4.94288Z" fill="#F7F7F7"/>
<path d="M3.00402 7.04323C3.41631 7.01218 3.82916 7.00528 4.24228 7.02267C4.6554 7.04005 5.06617 7.08145 5.47446 7.14699C5.88275 7.21239 6.2858 7.30153 6.6836 7.4144C7.0814 7.52713 7.4712 7.66277 7.85314 7.82117C7.87232 7.8209 7.89136 7.81896 7.91012 7.81551C7.92903 7.81193 7.94752 7.80696 7.96546 7.80034C7.98339 7.79371 8.00078 7.78557 8.01734 7.77605C8.03403 7.76653 8.04976 7.75563 8.06453 7.74349C8.07929 7.73121 8.09295 7.71782 8.10551 7.70333C8.11806 7.68885 8.12924 7.67339 8.13918 7.65697C8.14911 7.64069 8.15767 7.62344 8.1647 7.60564C8.17174 7.58784 8.17712 7.56949 8.18112 7.55086C8.18512 7.5321 8.18733 7.51306 8.18816 7.49388C8.18885 7.47484 8.18802 7.45566 8.18554 7.43675C8.18305 7.41771 8.17891 7.39908 8.17326 7.38073C8.16774 7.36238 8.16056 7.34472 8.15187 7.32761C8.14332 7.3105 8.13324 7.29422 8.12193 7.27876C8.11048 7.26331 8.09792 7.24896 8.08412 7.23571C8.07032 7.22247 8.05542 7.21032 8.03955 7.19956C8.02368 7.1888 8.00713 7.17942 7.9896 7.17141C7.59415 7.00349 7.18999 6.86026 6.77701 6.74146C6.36403 6.62279 5.94553 6.52952 5.52124 6.46177C5.09694 6.39388 4.67002 6.35207 4.24062 6.33634C3.81122 6.32047 3.38251 6.33069 2.95435 6.36698C2.93241 6.36891 2.91075 6.37305 2.88964 6.37912C2.86839 6.38533 2.84796 6.39347 2.82837 6.40354C2.80878 6.41375 2.79043 6.42562 2.77318 6.43942C2.75579 6.45308 2.74006 6.46839 2.72571 6.48509C2.7115 6.50192 2.69894 6.52 2.68818 6.53918C2.67742 6.55849 2.66859 6.5785 2.66169 6.59948C2.65493 6.62045 2.6501 6.64184 2.64748 6.66378C2.64485 6.68571 2.6443 6.70765 2.64596 6.72959C2.64748 6.75153 2.6512 6.7732 2.65713 6.79444C2.66293 6.81569 2.6708 6.83625 2.68059 6.85598C2.69039 6.87572 2.70212 6.89434 2.7155 6.91173C2.72902 6.92925 2.74406 6.94526 2.76062 6.95975C2.77732 6.97424 2.79512 6.98707 2.81416 6.99811C2.83334 7.00915 2.85321 7.01825 2.87418 7.02543C2.89502 7.0326 2.9164 7.03771 2.93821 7.04074C2.96001 7.04364 2.98195 7.04447 3.00402 7.04323Z" fill="#F7F7F7"/>
<path d="M3.00405 9.1441C3.41635 9.11306 3.82919 9.10616 4.24231 9.12354C4.65543 9.14093 5.0662 9.18232 5.47449 9.24786C5.88278 9.31341 6.28583 9.40254 6.68363 9.51541C7.08143 9.62828 7.47124 9.76392 7.85317 9.92246C7.87235 9.92218 7.89139 9.92025 7.91016 9.91666C7.92906 9.91322 7.94755 9.90811 7.96549 9.90149C7.98343 9.89486 8.00081 9.88686 8.01737 9.8772C8.03407 9.86768 8.0498 9.85678 8.06456 9.84464C8.07932 9.8325 8.09298 9.81911 8.10554 9.80462C8.1181 9.79013 8.12927 9.77468 8.13921 9.75826C8.14914 9.74184 8.1577 9.72473 8.16473 9.70693C8.17177 9.68913 8.17715 9.67078 8.18115 9.65201C8.18516 9.63325 8.18736 9.61435 8.18819 9.59517C8.18888 9.57599 8.18805 9.55694 8.18557 9.5379C8.18309 9.51886 8.17895 9.50023 8.17329 9.48202C8.16777 9.46367 8.1606 9.44587 8.1519 9.42876C8.14335 9.41165 8.13327 9.39537 8.12196 9.38005C8.11051 9.3646 8.09795 9.35025 8.08415 9.33686C8.07035 9.32362 8.05545 9.31161 8.03958 9.30085C8.02372 9.28995 8.00716 9.28057 7.98963 9.27256C7.59432 9.1045 7.19016 8.96114 6.77718 8.8422C6.3642 8.72339 5.94556 8.63012 5.52127 8.56223C5.09697 8.49448 4.67019 8.45267 4.24065 8.4368C3.81125 8.42107 3.38254 8.43142 2.95438 8.46785C2.9323 8.46978 2.91078 8.47392 2.88953 8.47999C2.86842 8.4862 2.848 8.49434 2.8284 8.50441C2.80881 8.51449 2.79032 8.52649 2.77307 8.54015C2.75569 8.55395 2.73996 8.56913 2.72561 8.58596C2.71139 8.6028 2.69884 8.62073 2.68807 8.64005C2.67717 8.65923 2.66848 8.67938 2.66158 8.70035C2.65468 8.72132 2.64999 8.74271 2.64723 8.76465C2.64461 8.78659 2.64406 8.80853 2.64571 8.83047C2.64737 8.85254 2.6511 8.87407 2.65689 8.89546C2.66269 8.91671 2.67055 8.93713 2.68049 8.95686C2.69028 8.97673 2.70187 8.99522 2.7154 9.01274C2.72892 9.03027 2.74396 9.04613 2.76052 9.06076C2.77721 9.07525 2.79501 9.08808 2.81405 9.09912C2.83323 9.11016 2.85324 9.11926 2.87408 9.12644C2.89491 9.13361 2.9163 9.13858 2.93824 9.14162C2.96004 9.14465 2.98198 9.14548 3.00405 9.1441Z" fill="#F7F7F7"/>
<path d="M7.98826 11.3722C7.50988 11.1656 7.01852 10.9971 6.51392 10.867C6.00946 10.7368 5.49782 10.6462 4.97928 10.5956C4.95706 10.5933 4.93485 10.5931 4.91277 10.5953C4.89056 10.5974 4.86875 10.6015 4.84737 10.6079C4.82598 10.6144 4.80542 10.6226 4.78583 10.6331C4.7661 10.6435 4.74761 10.6558 4.73022 10.6698C4.71297 10.6839 4.69724 10.6995 4.68303 10.7166C4.66882 10.7337 4.6564 10.7522 4.64578 10.7718C4.63515 10.7914 4.6266 10.8118 4.62011 10.8331C4.61349 10.8543 4.60907 10.8761 4.60673 10.8982C4.60452 10.9204 4.60438 10.9426 4.60645 10.9647C4.60852 10.9869 4.6128 11.0087 4.61914 11.03C4.62549 11.0514 4.63391 11.0719 4.6444 11.0916C4.65474 11.1112 4.66702 11.1297 4.6811 11.1471C4.69517 11.1644 4.71076 11.1801 4.72787 11.1943C4.74512 11.2085 4.76347 11.2209 4.78307 11.2314C4.80266 11.242 4.82322 11.2506 4.84447 11.2572C4.86572 11.2637 4.88752 11.2681 4.90974 11.2705C5.92473 11.3869 6.90551 11.6374 7.85193 12.0219C7.87111 12.0216 7.89016 12.0197 7.90906 12.0163C7.92796 12.0127 7.94631 12.0077 7.96439 12.0011C7.98233 11.9945 7.99971 11.9863 8.01627 11.9768C8.03297 11.9673 8.0487 11.9564 8.06346 11.9441C8.07823 11.932 8.09189 11.9186 8.10444 11.9041C8.117 11.8896 8.12818 11.8741 8.13811 11.8577C8.14804 11.8413 8.15646 11.8242 8.1635 11.8064C8.17054 11.7885 8.17605 11.7702 8.17992 11.7515C8.18392 11.7327 8.18627 11.7137 8.18696 11.6946C8.18765 11.6754 8.18682 11.6563 8.18433 11.6374C8.18185 11.6183 8.17771 11.5997 8.17205 11.5813C8.1664 11.563 8.15922 11.5453 8.15067 11.5282C8.14197 11.5111 8.1319 11.4948 8.12059 11.4794C8.10913 11.4641 8.09658 11.4497 8.08264 11.4363C8.06884 11.4231 8.05408 11.4111 8.03821 11.4003C8.02234 11.3894 8.00565 11.3802 7.98826 11.3722Z" fill="#F7F7F7"/>
<path d="M2.97939 11.2454C3.31234 11.1894 3.90442 11.3587 3.9265 10.8734C3.892 10.388 3.29302 10.5722 2.95745 10.5678C2.93592 10.5696 2.91481 10.5733 2.89397 10.579C2.87314 10.5848 2.85299 10.5925 2.83368 10.602C2.81422 10.6117 2.79601 10.623 2.77876 10.6361C2.76165 10.6492 2.74578 10.6638 2.73143 10.68C2.71694 10.696 2.70425 10.7134 2.69307 10.7319C2.68203 10.7505 2.67279 10.7698 2.66548 10.7902C2.65803 10.8105 2.65264 10.8314 2.64919 10.8526C2.64588 10.874 2.6445 10.8954 2.64519 10.917C2.64588 10.9386 2.64864 10.96 2.65333 10.9811C2.65816 11.002 2.66492 11.0225 2.67348 11.0423C2.68217 11.0621 2.69266 11.0808 2.70494 11.0986C2.71722 11.1164 2.73102 11.133 2.74647 11.148C2.76193 11.1632 2.77862 11.1767 2.79656 11.1887C2.81464 11.2007 2.83354 11.2108 2.85355 11.2192C2.87355 11.2275 2.89411 11.2338 2.91522 11.2383C2.93634 11.2427 2.95772 11.245 2.97939 11.2454Z" fill="#F7F7F7"/>
<mask id="mask0_232_4586" style="mask-type:luminance" maskUnits="userSpaceOnUse" x="0" y="3" width="19" height="14">
<path d="M0 3.1875H18.3301V16.7517H0V3.1875Z" fill="white"/>
</mask>
<g mask="url(#mask0_232_4586)">
<path d="M17.9818 7.14509C17.9595 7.14509 17.9374 7.1473 17.9156 7.15158C17.8937 7.15599 17.8724 7.16234 17.8519 7.17089C17.8313 7.17945 17.8117 7.1898 17.7932 7.20222C17.7747 7.21463 17.7575 7.22857 17.7417 7.24444C17.726 7.26017 17.7119 7.27728 17.6995 7.29577C17.6872 7.31426 17.6768 7.33385 17.6682 7.35441C17.6596 7.37497 17.6533 7.39622 17.6489 7.41802C17.6446 7.43996 17.6424 7.4619 17.6424 7.48425L17.657 14.8527L16.4711 14.6371C15.8202 14.5175 15.164 14.4569 14.5023 14.4553C14.1509 14.4499 13.8004 14.4656 13.4509 14.5025C13.1014 14.5393 12.7553 14.5968 12.4129 14.6753C12.0703 14.7537 11.7336 14.8524 11.403 14.9713C11.0722 15.0903 10.7499 15.2285 10.4359 15.3862C10.3818 15.4144 10.3325 15.4491 10.2881 15.4908C10.2435 15.5324 10.2054 15.5791 10.1737 15.6311C10.1421 15.6832 10.1178 15.7385 10.1012 15.7971C10.0847 15.8556 10.0763 15.9154 10.076 15.9762L10.0886 16.0614L8.24538 16.0743C8.24952 16.04 8.25118 16.0056 8.25007 15.971C8.24897 15.9365 8.24538 15.9021 8.23904 15.8682C8.23283 15.8341 8.224 15.8009 8.21282 15.7682C8.2015 15.7355 8.18771 15.7039 8.1717 15.6732C8.15556 15.6426 8.13734 15.6133 8.11678 15.5856C8.09636 15.5577 8.07387 15.5315 8.04945 15.5071C8.02489 15.4827 7.99881 15.4602 7.97094 15.4398C7.94306 15.4192 7.91381 15.4009 7.88318 15.3848C7.56927 15.2274 7.24708 15.0893 6.91661 14.9705C6.58614 14.8517 6.24961 14.7532 5.90727 14.6749C5.56494 14.5966 5.21915 14.539 4.86978 14.5023C4.52055 14.4656 4.17035 14.4499 3.81918 14.4553C2.75796 14.4819 1.71123 14.6189 0.67898 14.8663V3.54996C0.67898 3.52775 0.676772 3.50567 0.672356 3.48387C0.668079 3.46193 0.661594 3.44082 0.653177 3.42026C0.644622 3.3997 0.634135 3.3801 0.621717 3.36161C0.609437 3.34312 0.595362 3.32601 0.579494 3.31015C0.563764 3.29442 0.546654 3.28034 0.528165 3.26806C0.509537 3.25564 0.490082 3.24516 0.469522 3.23674C0.448825 3.22819 0.427714 3.2217 0.405774 3.21742C0.383973 3.21301 0.361896 3.21094 0.339543 3.21094C0.317328 3.21094 0.295251 3.21301 0.273449 3.21742C0.25151 3.2217 0.230399 3.22819 0.209701 3.23674C0.189142 3.24516 0.169549 3.25564 0.151059 3.26806C0.132569 3.28034 0.115459 3.29442 0.0995915 3.31015C0.0838615 3.32601 0.0697873 3.34312 0.0575068 3.36161C0.0450884 3.3801 0.0346018 3.3997 0.0260469 3.42026C0.0176299 3.44082 0.0111448 3.46193 0.00672931 3.48387C0.00245185 3.50567 0.000244141 3.52775 0.000244141 3.54996V14.8662C0.000520123 14.8905 0.00203789 14.9146 0.00493554 14.9386C0.00783316 14.9626 0.0119726 14.9865 0.017354 15.0101C0.0228733 15.0337 0.0296344 15.0569 0.0374994 15.0798C0.0455024 15.1027 0.0547472 15.125 0.0650959 15.1468C0.0754446 15.1688 0.087035 15.19 0.0997295 15.2106C0.112424 15.2313 0.126222 15.2511 0.141124 15.2702C0.155888 15.2894 0.171756 15.3076 0.18859 15.325C0.205424 15.3425 0.223224 15.3589 0.241851 15.3744C0.260479 15.3898 0.279797 15.4043 0.30008 15.4177C0.320225 15.4311 0.341061 15.4434 0.362586 15.4545C0.384111 15.4656 0.406188 15.4755 0.42868 15.4843C0.451309 15.493 0.474352 15.5005 0.497809 15.5068C0.521128 15.513 0.544861 15.518 0.568732 15.5217C0.592741 15.5253 0.61675 15.5278 0.641034 15.5288C0.665181 15.5299 0.689466 15.5297 0.713613 15.5281C0.73776 15.5266 0.761769 15.5238 0.78564 15.5197L1.97174 15.304C2.58231 15.1918 3.19826 15.135 3.81918 15.1334C4.14261 15.1286 4.46522 15.1428 4.78699 15.1762C5.10877 15.2095 5.42737 15.2616 5.74293 15.3326C6.05864 15.4036 6.36882 15.4929 6.6739 15.6005C6.97898 15.7081 7.27661 15.8334 7.56679 15.9762C7.56375 16 7.56209 16.0237 7.56168 16.0474C7.56127 16.0713 7.56209 16.095 7.56416 16.1188C7.56623 16.1426 7.56941 16.1661 7.57396 16.1896C7.57851 16.2129 7.58431 16.2361 7.59135 16.2588C7.59825 16.2816 7.60639 16.3039 7.61577 16.3259C7.62501 16.3478 7.6355 16.3692 7.64709 16.39C7.65868 16.4109 7.67138 16.431 7.68504 16.4505C7.6987 16.4701 7.71346 16.4887 7.72905 16.5068C7.74478 16.5247 7.76134 16.5418 7.77873 16.558C7.79625 16.5743 7.81446 16.5894 7.83364 16.6038C7.85268 16.618 7.87242 16.6312 7.89298 16.6435C7.9134 16.6558 7.93451 16.6668 7.95603 16.6769C7.9777 16.6869 7.99977 16.6957 8.0224 16.7034C8.04503 16.7111 8.06794 16.7175 8.09112 16.7229C8.11444 16.7281 8.13789 16.7321 8.16149 16.735C8.18522 16.7378 8.20896 16.7393 8.23283 16.7396H10.0886C10.1121 16.7394 10.1357 16.738 10.1592 16.7354C10.1828 16.7328 10.206 16.7289 10.229 16.7238C10.2522 16.7187 10.275 16.7124 10.2973 16.7049C10.3197 16.6973 10.3418 16.6888 10.3631 16.679C10.3847 16.6692 10.4056 16.6583 10.4259 16.6461C10.4463 16.6341 10.4659 16.6212 10.485 16.6071C10.5039 16.593 10.5221 16.578 10.5395 16.562C10.5569 16.546 10.5734 16.5291 10.589 16.5113C10.6046 16.4937 10.6192 16.4752 10.6329 16.4559C10.6466 16.4366 10.6591 16.4167 10.6707 16.396C10.6823 16.3754 10.6926 16.3543 10.702 16.3325C10.7114 16.3108 10.7195 16.2888 10.7264 16.2661C10.7335 16.2437 10.7393 16.2207 10.7438 16.1976C10.7484 16.1744 10.7517 16.1511 10.7539 16.1275C10.756 16.104 10.7568 16.0804 10.7565 16.0568C10.7561 16.0332 10.7545 16.0096 10.7517 15.9862C11.0415 15.8413 11.3388 15.7142 11.6439 15.6051C11.949 15.4959 12.2594 15.4054 12.5754 15.3337C12.8914 15.2618 13.2105 15.2091 13.5329 15.1757C13.8551 15.1421 14.1782 15.1281 14.5022 15.1334C15.1231 15.135 15.7391 15.1918 16.3498 15.304L17.5364 15.5199C17.5603 15.5241 17.5843 15.5268 17.6085 15.5282C17.6326 15.5297 17.6567 15.5299 17.6809 15.5288C17.7052 15.5277 17.7292 15.5252 17.7531 15.5215C17.7771 15.5177 17.8007 15.5128 17.824 15.5064C17.8474 15.5002 17.8703 15.4926 17.893 15.4839C17.9155 15.4751 17.9375 15.4652 17.9589 15.454C17.9805 15.4429 18.0013 15.4307 18.0214 15.4173C18.0416 15.4038 18.061 15.3894 18.0795 15.3739C18.0982 15.3584 18.1158 15.3419 18.1327 15.3245C18.1495 15.3072 18.1654 15.289 18.1801 15.2698C18.195 15.2506 18.2088 15.2309 18.2215 15.2102C18.2342 15.1896 18.2457 15.1684 18.2561 15.1466C18.2665 15.1248 18.2756 15.1024 18.2836 15.0795C18.2916 15.0567 18.2984 15.0334 18.3037 15.0099C18.3093 14.9864 18.3134 14.9625 18.3163 14.9385C18.3192 14.9145 18.3209 14.8905 18.3211 14.8662V7.48425C18.3211 7.4619 18.3189 7.43982 18.3146 7.41802C18.3102 7.39622 18.3039 7.37497 18.2953 7.35441C18.2868 7.33385 18.2763 7.31426 18.264 7.29577C18.2516 7.27728 18.2375 7.26017 18.2218 7.24444C18.2061 7.22857 18.1888 7.21463 18.1703 7.20222C18.1518 7.1898 18.1322 7.17945 18.1117 7.17089C18.0911 7.16234 18.0699 7.15599 18.0479 7.15158C18.0261 7.1473 18.0041 7.14509 17.9818 7.14509Z" fill="#F7F7F7"/>
</g>
</svg>
