<svg width="28" height="26" viewBox="0 0 28 26" fill="none" xmlns="http://www.w3.org/2000/svg">
<rect y="0.646973" width="28" height="24.7059" rx="6" fill="#263775"/>
<mask id="mask0_232_3487" style="mask-type:luminance" maskUnits="userSpaceOnUse" x="7" y="7" width="13" height="13">
<path d="M7.01758 7.18408H19.816V19.9741H7.01758V7.18408Z" fill="white"/>
</mask>
<g mask="url(#mask0_232_3487)">
<path d="M18.7374 18.9088H8.083V8.25439H14.4757V7.18896H8.083C7.4949 7.18896 7.01758 7.66628 7.01758 8.25439V18.9088C7.01758 19.4969 7.4949 19.9742 8.083 19.9742H18.7374C19.3255 19.9742 19.8029 19.4969 19.8029 18.9088V12.5162H18.7374V18.9088Z" fill="#F7F7F7"/>
</g>
<path d="M11.2793 15.7293H13.5221L18.9579 10.2935L16.6982 8.03369L11.2793 13.4525V15.7293Z" fill="#F7F7F7"/>
<path d="M20.5559 7.18876L19.8026 6.43543C19.386 6.01892 18.7116 6.01892 18.2961 6.43543L17.4512 7.28032L19.711 9.54014L20.5559 8.69524C20.9725 8.27865 20.9725 7.60421 20.5559 7.18876Z" fill="#F7F7F7"/>
</svg>
