<svg width="20" height="22" viewBox="0 0 20 22" fill="none" xmlns="http://www.w3.org/2000/svg">
<mask id="mask0_232_559" style="mask-type:luminance" maskUnits="userSpaceOnUse" x="0" y="0" width="20" height="22">
<path d="M0 0H19.7489V22H0V0Z" fill="white"/>
</mask>
<g mask="url(#mask0_232_559)">
<path d="M13.2346 9.06636C9.65535 9.06636 6.74426 11.9808 6.74426 15.5614C6.74426 19.1422 9.65535 22.0566 13.2346 22.0566C16.8139 22.0566 19.7249 19.1422 19.7249 15.5614C19.7249 11.9808 16.8139 9.06636 13.2346 9.06636ZM15.4412 16.4086H13.2346C12.7673 16.4086 12.388 16.029 12.388 15.5614V13.2628C12.388 12.7951 12.7673 12.4155 13.2346 12.4155C13.7019 12.4155 14.0812 12.7951 14.0812 13.2628V14.7143H15.4412C15.9086 14.7143 16.2878 15.0938 16.2878 15.5614C16.2878 16.029 15.9086 16.4086 15.4412 16.4086ZM14.3633 0.0297852H3.07579C1.36016 0.0297852 -0.0283203 1.41915 -0.0283203 3.13606V17.8206C-0.0283203 19.5376 1.36016 20.927 3.07579 20.927H7.07155C5.80744 19.4924 5.05108 17.6173 5.05108 15.5614C5.05108 11.0432 8.71955 7.37204 13.2346 7.37204C14.7922 7.37204 16.2371 7.80124 17.4674 8.5694V3.13606C17.4674 1.41915 16.0791 0.0297852 14.3633 0.0297852ZM5.33332 11.8903H4.20449C3.7418 11.8903 3.35803 11.5063 3.35803 11.0432C3.35803 10.58 3.7418 10.196 4.20449 10.196H5.33332C5.79615 10.196 6.17991 10.58 6.17991 11.0432C6.17991 11.5063 5.79615 11.8903 5.33332 11.8903ZM8.71955 8.50163H4.20449C3.7418 8.50163 3.35803 8.11749 3.35803 7.65441C3.35803 7.19133 3.7418 6.80719 4.20449 6.80719H8.71955C9.18237 6.80719 9.56614 7.19133 9.56614 7.65441C9.56614 8.11749 9.18237 8.50163 8.71955 8.50163ZM13.2346 5.11287H4.20449C3.7418 5.11287 3.35803 4.72885 3.35803 4.26565C3.35803 3.80257 3.7418 3.41855 4.20449 3.41855H13.2346C13.6974 3.41855 14.0812 3.80257 14.0812 4.26565C14.0812 4.72885 13.6974 5.11287 13.2346 5.11287Z" fill="white"/>
</g>
</svg>
