<svg width="21" height="20" viewBox="0 0 21 20" fill="none" xmlns="http://www.w3.org/2000/svg">
<path fill-rule="evenodd" clip-rule="evenodd" d="M2.25232 8.87207H14.8209C15.4331 8.87207 15.9299 9.36889 15.9299 9.98108C15.9299 10.5931 15.4331 11.0899 14.8209 11.0899H2.25232C1.64013 11.0899 1.14331 10.5931 1.14331 9.98108C1.14331 9.36889 1.64013 8.87207 2.25232 8.87207Z" fill="#F7F7F7"/>
<path fill-rule="evenodd" clip-rule="evenodd" d="M4.42611 14.4613L0.729457 10.7646C0.296236 10.3314 0.296236 9.63057 0.729457 9.19735L4.42611 5.5007C4.85781 5.06748 5.56169 5.06748 5.99354 5.5007C6.42676 5.9324 6.42676 6.63627 5.99354 7.06798L3.08197 9.98107L5.99354 12.894C6.42676 13.3257 6.42676 14.0296 5.99354 14.4613C5.56169 14.8947 4.85781 14.8947 4.42611 14.4613Z" fill="#F7F7F7"/>
<mask id="mask0_232_828" style="mask-type:luminance" maskUnits="userSpaceOnUse" x="9" y="0" width="12" height="20">
<path d="M9.2688 0H20.2921V20H9.2688V0Z" fill="white"/>
</mask>
<g mask="url(#mask0_232_828)">
<path fill-rule="evenodd" clip-rule="evenodd" d="M10.3854 17.7439H17.7787C17.8763 17.7439 17.9709 17.7055 18.0404 17.636C18.1099 17.5664 18.1483 17.4717 18.1483 17.3741V2.58764C18.1483 2.49004 18.1099 2.39532 18.0404 2.32595C17.9709 2.25643 17.8763 2.21787 17.7787 2.21787H10.3854C9.77319 2.21787 9.27637 1.72105 9.27637 1.10901C9.27637 0.496824 9.77319 0 10.3854 0C12.658 0 15.5059 0 17.7787 0C18.4648 0 19.1227 0.272016 19.6078 0.758518C20.0942 1.2435 20.3663 1.90153 20.3663 2.58764C20.3663 5.9294 20.3663 14.0323 20.3663 17.3741C20.3663 18.0602 20.0942 18.7182 19.6078 19.2032C19.1227 19.6897 18.4648 19.9619 17.7787 19.9619H10.3854C9.77319 19.9619 9.27637 19.4651 9.27637 18.8529C9.27637 18.2407 9.77319 17.7439 10.3854 17.7439Z" fill="#F7F7F7"/>
</g>
</svg>
