<svg width="32" height="32" viewBox="0 0 32 32" fill="none" xmlns="http://www.w3.org/2000/svg">
<mask id="mask0_232_1495" style="mask-type:luminance" maskUnits="userSpaceOnUse" x="11" y="22" width="10" height="10">
<path d="M11.6931 22.3896H20.268V32.0003H11.6931V22.3896Z" fill="white"/>
</mask>
<g mask="url(#mask0_232_1495)">
<path d="M16.8501 31.9945L20.2628 27.7288H18.5564C18.5564 24.7836 16.3739 22.3965 13.681 22.3965C13.3434 22.3969 13.0101 22.4346 12.6808 22.5102C12.3517 22.5855 12.0353 22.6965 11.731 22.8433C11.8424 22.9001 11.9518 22.9608 12.059 23.0254C12.1662 23.0899 12.2709 23.1582 12.3733 23.23C12.4758 23.3019 12.5755 23.3772 12.6727 23.456C12.7697 23.5347 12.8639 23.6169 12.9555 23.7024C13.0468 23.7879 13.1351 23.8764 13.2204 23.9679C13.3055 24.0595 13.3875 24.1539 13.466 24.2513C13.5446 24.3486 13.6197 24.4487 13.6914 24.5512C13.7628 24.6537 13.8308 24.7586 13.8952 24.866C13.9593 24.9734 14.0198 25.0828 14.0765 25.1943C14.1331 25.3059 14.1857 25.4192 14.2344 25.5345C14.2831 25.6498 14.3276 25.7666 14.3682 25.8849C14.4088 26.0033 14.4449 26.1228 14.4772 26.2438C14.5093 26.3646 14.5373 26.4866 14.5608 26.6094C14.5844 26.7323 14.6037 26.8559 14.6187 26.9799C14.6337 27.1042 14.6443 27.2288 14.6506 27.3537C14.6569 27.4787 14.6589 27.6038 14.6563 27.7288H13.4374L16.8501 31.9945Z" fill="#F7F7F7"/>
</g>
<mask id="mask1_232_1495" style="mask-type:luminance" maskUnits="userSpaceOnUse" x="7" y="0" width="18" height="16">
<path d="M7.95117 0H24.0096V15.9972H7.95117V0Z" fill="white"/>
</mask>
<g mask="url(#mask1_232_1495)">
<path d="M15.9969 0C15.8659 0 15.7352 0.00324807 15.6045 0.00974421C15.4737 0.0160373 15.3432 0.0257816 15.2129 0.0385708C15.0825 0.0513601 14.9528 0.0673975 14.8233 0.0866829C14.6938 0.105765 14.5649 0.128299 14.4364 0.153674C14.3081 0.179253 14.1804 0.207877 14.0533 0.239748C13.9264 0.27162 13.8004 0.306537 13.6751 0.344499C13.5499 0.38246 13.4254 0.423467 13.3022 0.467519C13.179 0.511774 13.057 0.558871 12.936 0.60881C12.815 0.658952 12.6954 0.711937 12.5771 0.767966C12.4587 0.823995 12.3418 0.882866 12.2265 0.94458C12.111 1.00629 11.9971 1.07065 11.8848 1.13804C11.7725 1.20524 11.6619 1.27527 11.5531 1.34795C11.4443 1.42083 11.3373 1.49614 11.2322 1.5741C11.127 1.65205 11.0239 1.73264 10.9228 1.81567C10.8215 1.8987 10.7224 1.98417 10.6254 2.07207C10.5283 2.15997 10.4337 2.2501 10.3412 2.34267C10.2486 2.43524 10.1583 2.53004 10.0704 2.62708C9.98246 2.72412 9.89699 2.82318 9.81396 2.92428C9.73093 3.02558 9.65034 3.1287 9.57239 3.23386C9.49443 3.33902 9.41912 3.446 9.34644 3.55481C9.27357 3.66362 9.20373 3.77426 9.13633 3.88652C9.06914 3.99878 9.00458 4.11267 8.94287 4.22797C8.88116 4.34348 8.82229 4.46041 8.76626 4.57877C8.71043 4.69712 8.65724 4.81669 8.6073 4.93768C8.55716 5.05867 8.51007 5.18067 8.46601 5.3039C8.42176 5.42712 8.38075 5.55136 8.34279 5.67661C8.30483 5.80187 8.26991 5.92814 8.23804 6.05501C8.20637 6.18209 8.17754 6.30978 8.15217 6.43808C8.12659 6.56659 8.10426 6.69549 8.08497 6.82501C8.06569 6.95432 8.04965 7.08425 8.03686 7.21458C8.02407 7.3449 8.01453 7.47523 8.00804 7.60597C8.00154 7.73691 7.99829 7.86764 7.99829 7.99858C7.99829 8.12952 8.00154 8.26025 8.00804 8.39099C8.01453 8.52172 8.02407 8.65225 8.03686 8.78258C8.04965 8.91271 8.06569 9.04263 8.08497 9.17215C8.10426 9.30166 8.12659 9.43057 8.15217 9.55887C8.17754 9.68737 8.20637 9.81506 8.23804 9.94194C8.26991 10.069 8.30483 10.1951 8.34279 10.3203C8.38075 10.4456 8.42176 10.5698 8.46601 10.6931C8.51007 10.8165 8.55716 10.9385 8.6073 11.0595C8.65724 11.1803 8.71043 11.3 8.76626 11.4184C8.82229 11.5367 8.88116 11.6535 8.94287 11.769C9.00458 11.8845 9.06914 11.9984 9.13633 12.1106C9.20373 12.2229 9.27357 12.3333 9.34644 12.4421C9.41912 12.5512 9.49443 12.6581 9.57239 12.7633C9.65034 12.8685 9.73093 12.9716 9.81396 13.0727C9.89699 13.174 9.98246 13.273 10.0704 13.3701C10.1583 13.4669 10.2486 13.5617 10.3412 13.6543C10.4337 13.7469 10.5283 13.8372 10.6254 13.9251C10.7224 14.013 10.8215 14.0985 10.9228 14.1815C11.0239 14.2645 11.127 14.3449 11.2322 14.4231C11.3373 14.501 11.4443 14.5763 11.5531 14.649C11.6619 14.7217 11.7725 14.7917 11.8848 14.8591C11.9971 14.9263 12.111 14.9909 12.2265 15.0526C12.3418 15.1143 12.4587 15.1732 12.5771 15.229C12.6954 15.285 12.815 15.338 12.936 15.3881C13.057 15.4383 13.179 15.4854 13.3022 15.5294C13.4254 15.5735 13.5499 15.6145 13.6751 15.6527C13.8004 15.6906 13.9264 15.7255 14.0533 15.7572C14.1804 15.7891 14.3081 15.8177 14.4364 15.8433C14.5649 15.8689 14.6938 15.8912 14.8233 15.9105C14.9528 15.9296 15.0825 15.9456 15.2129 15.9586C15.3432 15.9714 15.4737 15.9809 15.6045 15.9874C15.7352 15.9937 15.8659 15.997 15.9969 15.997C16.1278 15.997 16.2585 15.9937 16.3893 15.9874C16.52 15.9809 16.6505 15.9714 16.7809 15.9586C16.9112 15.9456 17.0409 15.9296 17.1704 15.9105C17.3 15.8912 17.4289 15.8689 17.5574 15.8433C17.6857 15.8177 17.8134 15.7891 17.9404 15.7572C18.0673 15.7255 18.1934 15.6906 18.3186 15.6527C18.4439 15.6145 18.5681 15.5735 18.6916 15.5294C18.8148 15.4854 18.9368 15.4383 19.0578 15.3881C19.1788 15.338 19.2983 15.285 19.4167 15.229C19.535 15.1732 19.652 15.1143 19.7673 15.0526C19.8828 14.9909 19.9967 14.9263 20.1089 14.8591C20.2212 14.7917 20.3318 14.7217 20.4406 14.649C20.5494 14.5763 20.6564 14.501 20.7616 14.4231C20.8667 14.3449 20.9699 14.2645 21.071 14.1815C21.1723 14.0985 21.2713 14.013 21.3684 13.9251C21.4654 13.8372 21.56 13.7469 21.6526 13.6543C21.7451 13.5617 21.8355 13.4669 21.9234 13.3701C22.0113 13.273 22.0967 13.174 22.1798 13.0727C22.2628 12.9716 22.3434 12.8685 22.4214 12.7633C22.4993 12.6581 22.5746 12.5512 22.6473 12.4421C22.7202 12.3333 22.79 12.2229 22.8574 12.1106C22.9246 11.9984 22.9892 11.8845 23.0509 11.769C23.1126 11.6535 23.1715 11.5367 23.2275 11.4184C23.2833 11.3 23.3365 11.1803 23.3864 11.0595C23.4366 10.9385 23.4837 10.8165 23.5277 10.6931C23.572 10.5698 23.613 10.4456 23.6509 10.3203C23.6889 10.1951 23.7238 10.069 23.7557 9.94194C23.7874 9.81506 23.8162 9.68737 23.8416 9.55887C23.8671 9.43057 23.8895 9.30166 23.9088 9.17215C23.9281 9.04263 23.9441 8.91271 23.9569 8.78258C23.9697 8.65225 23.9792 8.52172 23.9857 8.39099C23.9922 8.26025 23.9952 8.12952 23.9952 7.99858C23.9952 7.86764 23.9922 7.73691 23.9857 7.60597C23.9792 7.47523 23.9697 7.3449 23.9569 7.21458C23.9441 7.08425 23.9281 6.95432 23.9088 6.82481C23.8895 6.69549 23.8671 6.56659 23.8416 6.43808C23.8162 6.30978 23.7874 6.18209 23.7557 6.05501C23.7238 5.92814 23.6889 5.80187 23.6509 5.67661C23.613 5.55136 23.572 5.42712 23.5277 5.3039C23.4837 5.18067 23.4366 5.05867 23.3864 4.93768C23.3365 4.81669 23.2833 4.69712 23.2275 4.57877C23.1715 4.46041 23.1126 4.34348 23.0509 4.22797C22.9892 4.11267 22.9246 3.99878 22.8574 3.88652C22.79 3.77426 22.7202 3.66362 22.6473 3.55481C22.5746 3.446 22.4993 3.33902 22.4214 3.23386C22.3434 3.1287 22.2628 3.02558 22.1798 2.92428C22.0967 2.82318 22.0113 2.72412 21.9234 2.62708C21.8355 2.53004 21.7451 2.43524 21.6526 2.34267C21.56 2.2501 21.4654 2.15997 21.3684 2.07207C21.2713 1.98417 21.1723 1.8987 21.071 1.81567C20.9699 1.73264 20.8667 1.65205 20.7616 1.5741C20.6564 1.49614 20.5494 1.42083 20.4406 1.34795C20.3318 1.27527 20.2212 1.20524 20.1089 1.13804C19.9967 1.07065 19.8828 1.00629 19.7673 0.94458C19.652 0.882866 19.535 0.823995 19.4167 0.767966C19.2983 0.711937 19.1788 0.658952 19.0578 0.60881C18.9368 0.558871 18.8148 0.511774 18.6916 0.467519C18.5683 0.423467 18.4439 0.38246 18.3186 0.344499C18.1934 0.306537 18.0673 0.27162 17.9404 0.239748C17.8134 0.207877 17.6857 0.179253 17.5574 0.153674C17.4289 0.128299 17.3 0.105765 17.1704 0.0866829C17.0409 0.0673975 16.9112 0.0513601 16.7809 0.0385708C16.6505 0.0257816 16.52 0.0160373 16.3893 0.00974421C16.2585 0.00324807 16.1278 0 15.9969 0ZM18.6629 10.1315C18.6629 10.2075 18.6597 10.2836 18.653 10.3593C18.6465 10.435 18.6365 10.5106 18.6235 10.5855C18.6106 10.6604 18.5943 10.7347 18.575 10.8084C18.5555 10.8819 18.533 10.9545 18.5074 11.0262C18.4818 11.0978 18.4532 11.1683 18.4218 11.2375C18.3901 11.3067 18.3556 11.3745 18.3182 11.4407C18.2809 11.5071 18.2407 11.5717 18.1976 11.6344C18.1548 11.6973 18.1093 11.7582 18.0612 11.8171C18.0131 11.8762 17.9626 11.9328 17.9096 11.9874C17.8566 12.0422 17.8014 12.0944 17.7439 12.1443C17.6865 12.1943 17.627 12.2416 17.5655 12.2864C17.504 12.3313 17.4406 12.3733 17.3757 12.4127C17.3105 12.4523 17.2439 12.4888 17.1757 12.5225C17.1075 12.5562 17.0379 12.5869 16.967 12.6147C16.8962 12.6425 16.8243 12.6673 16.7514 12.6888C16.6784 12.7105 16.6047 12.729 16.5302 12.7442V13.864H15.4636V12.7442C15.3891 12.729 15.3154 12.7105 15.2423 12.6888C15.1694 12.6673 15.0976 12.6425 15.0267 12.6147C14.9559 12.5869 14.8862 12.5562 14.818 12.5225C14.7498 12.4888 14.6832 12.4523 14.6181 12.4127C14.5531 12.3733 14.4898 12.3313 14.4283 12.2864C14.3667 12.2416 14.3073 12.1943 14.2498 12.1443C14.1924 12.0944 14.1371 12.0422 14.0842 11.9874C14.0312 11.9328 13.9806 11.8762 13.9325 11.8171C13.8844 11.7582 13.8389 11.6973 13.7961 11.6344C13.7531 11.5717 13.7129 11.5071 13.6755 11.4407C13.6382 11.3745 13.6037 11.3067 13.572 11.2375C13.5405 11.1683 13.5119 11.0978 13.4863 11.0262C13.4607 10.9545 13.4382 10.8819 13.4187 10.8084C13.3994 10.7347 13.3832 10.6604 13.3702 10.5855C13.3572 10.5106 13.3473 10.435 13.3408 10.3593C13.3341 10.2836 13.3308 10.2075 13.3306 10.1315H14.3972C14.3976 10.2134 14.4041 10.2948 14.4169 10.3758C14.4299 10.4566 14.4488 10.5361 14.4737 10.6141C14.4989 10.692 14.5298 10.7678 14.5665 10.841C14.603 10.9143 14.6453 10.9844 14.6926 11.0512C14.7401 11.1179 14.7922 11.1807 14.8495 11.2395C14.9065 11.2982 14.9678 11.3522 15.0332 11.4017C15.0986 11.4511 15.1674 11.4951 15.2395 11.5339C15.3117 11.5727 15.3864 11.6058 15.4636 11.633V8.47848C15.3891 8.46326 15.3152 8.44499 15.2421 8.42347C15.169 8.40195 15.097 8.37739 15.0259 8.34978C14.9551 8.32217 14.8854 8.29151 14.817 8.25782C14.7486 8.22412 14.6818 8.18778 14.6166 8.1484C14.5515 8.10901 14.4881 8.06699 14.4264 8.02213C14.3649 7.97726 14.3052 7.92996 14.2478 7.88002C14.1901 7.83029 14.1349 7.77791 14.0817 7.7233C14.0287 7.6687 13.978 7.61186 13.9299 7.55298C13.8816 7.49391 13.8361 7.43301 13.7931 7.37008C13.75 7.30715 13.7098 7.24259 13.6725 7.17621C13.6349 7.11003 13.6004 7.04222 13.5687 6.9728C13.5373 6.90357 13.5086 6.83313 13.4831 6.76127C13.4575 6.68961 13.435 6.61693 13.4157 6.54324C13.3962 6.46955 13.3801 6.39525 13.3671 6.32014C13.3542 6.24503 13.3444 6.16951 13.3377 6.09379C13.3312 6.01786 13.328 5.94174 13.328 5.86561C13.328 5.78948 13.3312 5.71336 13.3377 5.63743C13.3444 5.56171 13.3542 5.4862 13.3671 5.41108C13.3801 5.33597 13.3962 5.26167 13.4157 5.18798C13.435 5.11429 13.4575 5.04162 13.4831 4.96995C13.5086 4.89809 13.5373 4.82765 13.5687 4.75842C13.6004 4.689 13.6349 4.62119 13.6725 4.55501C13.7098 4.48863 13.75 4.42408 13.7931 4.36114C13.8361 4.29821 13.8816 4.23731 13.9299 4.17824C13.978 4.11937 14.0287 4.06253 14.0817 4.00792C14.1349 3.95331 14.1901 3.90093 14.2478 3.8512C14.3052 3.80126 14.3649 3.75396 14.4264 3.70909C14.4881 3.66423 14.5515 3.62221 14.6166 3.58283C14.6818 3.54344 14.7486 3.5071 14.817 3.47341C14.8854 3.43971 14.9551 3.40905 15.0259 3.38145C15.097 3.35384 15.169 3.32927 15.2421 3.30775C15.3152 3.28624 15.3891 3.26797 15.4636 3.25274V2.13297H16.5302V3.25274C16.6047 3.26817 16.6784 3.28664 16.7514 3.30816C16.8243 3.32988 16.8962 3.35445 16.967 3.38226C17.0379 3.41007 17.1075 3.44093 17.1757 3.47462C17.2439 3.50832 17.3105 3.54486 17.3757 3.58425C17.4406 3.62363 17.504 3.66585 17.5655 3.71072C17.627 3.75538 17.6865 3.80288 17.7439 3.85282C17.8014 3.90256 17.8566 3.95493 17.9096 4.00954C17.9626 4.06415 18.0131 4.12099 18.0612 4.17986C18.1093 4.23894 18.1548 4.29984 18.1976 4.36257C18.2407 4.4255 18.2809 4.49005 18.3182 4.55623C18.3556 4.62261 18.3901 4.69022 18.4218 4.75944C18.4532 4.82866 18.4818 4.89911 18.5074 4.97077C18.533 5.04243 18.5555 5.1151 18.575 5.18879C18.5943 5.26228 18.6106 5.33658 18.6235 5.41149C18.6365 5.4866 18.6465 5.56192 18.653 5.63784C18.6597 5.71356 18.6629 5.78948 18.6629 5.86561H17.5965C17.5961 5.7836 17.5896 5.70219 17.5769 5.6214C17.5639 5.5404 17.545 5.46102 17.52 5.38287C17.4948 5.30491 17.464 5.22939 17.4272 5.15611C17.3907 5.08283 17.3485 5.01279 17.3012 4.946C17.2537 4.87921 17.2013 4.81628 17.1443 4.75761C17.0872 4.69874 17.0259 4.64474 16.9605 4.59541C16.8952 4.54608 16.8263 4.50203 16.7543 4.46326C16.682 4.42448 16.6073 4.39139 16.5302 4.36399V7.51868C16.6047 7.5339 16.6784 7.55237 16.7514 7.5741C16.8243 7.59561 16.8962 7.62038 16.967 7.64819C17.0379 7.676 17.1075 7.70666 17.1757 7.74036C17.2439 7.77406 17.3105 7.8108 17.3757 7.85018C17.4406 7.88956 17.504 7.93159 17.5655 7.97645C17.627 8.02132 17.6865 8.06861 17.7439 8.11855C17.8014 8.16849 17.8566 8.22087 17.9096 8.27548C17.9626 8.33008 18.0131 8.38693 18.0612 8.4458C18.1093 8.50467 18.1548 8.56557 18.1976 8.6285C18.2407 8.69123 18.2809 8.75578 18.3182 8.82217C18.3556 8.88835 18.3901 8.95615 18.4218 9.02538C18.4532 9.0946 18.4818 9.16504 18.5074 9.2367C18.533 9.30836 18.5555 9.38104 18.575 9.45453C18.5943 9.52822 18.6106 9.60252 18.6235 9.67743C18.6365 9.75233 18.6465 9.82785 18.653 9.90357C18.6597 9.9795 18.6629 10.0554 18.6629 10.1315Z" fill="#F7F7F7"/>
</g>
<path d="M16.5303 11.6329C16.6076 11.6059 16.6825 11.5732 16.755 11.5347C16.8273 11.4961 16.8963 11.4523 16.9619 11.4029C17.0274 11.3536 17.0889 11.2996 17.1462 11.2409C17.2034 11.1821 17.2558 11.1193 17.3033 11.0525C17.3508 10.9855 17.3928 10.9155 17.4296 10.842C17.4661 10.7687 17.497 10.693 17.522 10.6149C17.5469 10.5367 17.5656 10.4571 17.5782 10.3759C17.591 10.2949 17.5973 10.2135 17.5973 10.1315C17.5973 10.0495 17.591 9.96789 17.5782 9.88689C17.5656 9.80568 17.5469 9.72611 17.522 9.64795C17.497 9.56979 17.4661 9.49407 17.4296 9.42079C17.3928 9.3473 17.3508 9.27726 17.3033 9.21048C17.2558 9.14348 17.2034 9.08076 17.1462 9.02188C17.0889 8.96322 17.0274 8.90922 16.9619 8.85989C16.8963 8.81076 16.8273 8.76671 16.755 8.72814C16.6825 8.68957 16.6076 8.65688 16.5303 8.62988V11.6329Z" fill="#F7F7F7"/>
<path d="M14.3972 5.86588C14.3976 5.9479 14.4041 6.0293 14.4169 6.1101C14.4299 6.19109 14.4488 6.27047 14.4737 6.34863C14.4989 6.42658 14.5298 6.5021 14.5665 6.57538C14.6031 6.64867 14.6453 6.7187 14.6926 6.78549C14.7401 6.85228 14.7923 6.91521 14.8495 6.97388C14.9066 7.03275 14.9679 7.08675 15.0332 7.13608C15.0986 7.18541 15.1674 7.22946 15.2395 7.26824C15.3118 7.30701 15.3865 7.3401 15.4636 7.36751V4.36426C15.3865 4.39166 15.3118 4.42475 15.2395 4.46353C15.1674 4.5023 15.0986 4.54635 15.0332 4.59568C14.9679 4.64501 14.9066 4.69901 14.8495 4.75788C14.7923 4.81655 14.7401 4.87948 14.6926 4.94627C14.6453 5.01306 14.6031 5.0831 14.5665 5.15638C14.5298 5.22967 14.4989 5.30518 14.4737 5.38314C14.4488 5.46129 14.4299 5.54067 14.4169 5.62167C14.4041 5.70246 14.3976 5.78387 14.3972 5.86588Z" fill="#F7F7F7"/>
<path d="M6.3987 19.1968H4.79903V7.46582H1.59968V19.1968H0L3.19935 22.3964L6.3987 19.1968Z" fill="#F7F7F7"/>
<mask id="mask2_232_1495" style="mask-type:luminance" maskUnits="userSpaceOnUse" x="25" y="7" width="7" height="16">
<path d="M25.5688 7.42188H32V22.441H25.5688V7.42188Z" fill="white"/>
</mask>
<g mask="url(#mask2_232_1495)">
<path d="M30.3942 7.46484H27.1949V19.1959H25.5952L28.7946 22.3954L31.9939 19.1959H30.3942V7.46484Z" fill="#F7F7F7"/>
</g>
</svg>
