<svg width="24" height="19" viewBox="0 0 24 19" fill="none" xmlns="http://www.w3.org/2000/svg">
<mask id="mask0_232_784" style="mask-type:luminance" maskUnits="userSpaceOnUse" x="9" y="17" width="5" height="2">
<path d="M9.73315 17.3154H13.6972V19.0001H9.73315V17.3154Z" fill="white"/>
</mask>
<g mask="url(#mask0_232_784)">
<path d="M12.9868 17.3252H9.73364C9.89402 18.2743 10.7211 18.9996 11.7147 18.9996C12.7085 18.9996 13.5356 18.2743 13.6959 17.3252H12.9868Z" fill="#F7F7F7"/>
</g>
<mask id="mask1_232_784" style="mask-type:luminance" maskUnits="userSpaceOnUse" x="9" y="0" width="5" height="2">
<path d="M9.80396 0H13.6264V1.95478H9.80396V0Z" fill="white"/>
</mask>
<g mask="url(#mask1_232_784)">
<path d="M10.5487 1.75753C10.9266 1.67997 11.3163 1.63877 11.7147 1.63877C12.1136 1.63877 12.5032 1.67997 12.8808 1.75753C13.0023 1.78269 13.1226 1.81104 13.2415 1.84366C13.3605 1.87602 13.478 1.91293 13.5942 1.95261C13.5727 0.874779 12.7382 0.00488281 11.7147 0.00488281C10.6914 0.00488281 9.85688 0.874779 9.83545 1.95261C9.95158 1.91293 10.0691 1.87602 10.1883 1.84366C10.307 1.81104 10.4273 1.78269 10.5487 1.75753Z" fill="#F7F7F7"/>
</g>
<path d="M18.694 14.7052C18.2342 14.2711 17.7589 13.8225 17.3767 13.2048C16.7569 12.2033 17.1403 8.51477 17.1512 8.41067L17.1472 8.38232L17.1482 8.35149C17.1504 8.28416 17.1515 8.22153 17.1515 8.16056C17.1515 5.64074 15.6517 3.48964 13.5588 2.67823C13.4459 2.63454 13.3313 2.59458 13.215 2.55878C13.1012 2.5238 12.9859 2.49269 12.8692 2.46559C12.4971 2.37905 12.1108 2.33301 11.7147 2.33301C11.3187 2.33301 10.9326 2.37905 10.5602 2.46559C10.4436 2.49269 10.3283 2.5238 10.2145 2.55878C10.0982 2.59458 9.98359 2.63454 9.87077 2.67823C7.77774 3.48964 6.27796 5.64074 6.27796 8.16056C6.27796 8.22153 6.27907 8.28416 6.28128 8.35149L6.28224 8.38232L6.27824 8.41067C6.28985 8.52058 6.67198 12.2042 6.05274 13.2048C5.67061 13.8225 5.19529 14.2711 4.73546 14.7052C4.50692 14.9211 4.24452 15.3488 4.06713 15.7948C3.89224 16.2348 3.86625 16.5178 3.88215 16.6314H19.5834C19.6033 16.5309 19.5801 16.2483 19.3878 15.7943C19.2017 15.3549 18.9293 14.9276 18.694 14.7052Z" fill="#F7F7F7"/>
<path d="M4.23861 11.5191C4.49604 11.3356 4.55618 10.9778 4.37271 10.7201C3.9061 10.0652 3.65932 9.29206 3.65932 8.48438C3.65932 7.71417 3.88537 6.97077 4.31285 6.33467C4.48926 6.07226 4.41972 5.71639 4.15717 5.53984C3.89477 5.36343 3.5389 5.43311 3.36249 5.69552C2.8074 6.52117 2.51416 7.48563 2.51416 8.48438C2.51416 9.53166 2.83422 10.5347 3.43991 11.385C3.55176 11.5419 3.72789 11.6254 3.9068 11.6254C4.02182 11.6254 4.13782 11.5908 4.23861 11.5191Z" fill="#F7F7F7"/>
<path d="M1.38821 8.48462C1.38821 7.29702 1.72776 6.14536 2.37023 5.15407C2.57886 4.83236 2.48706 4.40252 2.16534 4.1939C1.84376 3.98513 1.41393 4.07707 1.20544 4.39879C0.416837 5.61543 0 7.02839 0 8.48462C0 10.0873 0.497024 11.617 1.43743 12.9085C1.57347 13.095 1.78472 13.194 1.99916 13.194C2.14087 13.194 2.28396 13.1507 2.40714 13.0608C2.71697 12.8351 2.78527 12.4008 2.5595 12.091C1.7933 11.0385 1.38821 9.7914 1.38821 8.48462Z" fill="#F7F7F7"/>
<path d="M19.1877 5.48879C18.9278 5.66921 18.8634 6.02618 19.0435 6.2861C19.4919 6.9323 19.7288 7.69187 19.7288 8.48213C19.7288 9.24986 19.5043 9.99104 19.0795 10.6258C18.9035 10.8886 18.9738 11.2442 19.2367 11.4202C19.3344 11.4857 19.4452 11.5171 19.5546 11.5171C19.7394 11.5171 19.9205 11.4281 20.0311 11.263C20.5826 10.4393 20.8741 9.47756 20.8741 8.48213C20.8741 7.45739 20.5665 6.47205 19.9845 5.63313C19.8043 5.37321 19.4475 5.30864 19.1877 5.48879Z" fill="#F7F7F7"/>
<mask id="mask2_232_784" style="mask-type:luminance" maskUnits="userSpaceOnUse" x="20" y="4" width="4" height="9">
<path d="M20.9526 4.15527H23.3859V12.6435H20.9526V4.15527Z" fill="white"/>
</mask>
<g mask="url(#mask2_232_784)">
<path d="M22.2482 4.49901C22.045 4.17411 21.6167 4.07526 21.2917 4.27849C20.9666 4.482 20.8681 4.91032 21.0713 5.23549C21.6788 6.20686 21.9998 7.32949 21.9998 8.48184C21.9998 9.5775 21.7077 10.6526 21.1552 11.5906C20.9605 11.9208 21.0703 12.3465 21.4008 12.541C21.5115 12.6064 21.6327 12.6372 21.7525 12.6372C21.9903 12.6372 22.2216 12.5151 22.3511 12.2954C23.0295 11.1441 23.388 9.82539 23.388 8.48184C23.388 7.06874 22.9939 5.69159 22.2482 4.49901Z" fill="#F7F7F7"/>
</g>
</svg>
