<svg width="21" height="23" viewBox="0 0 21 23" fill="none" xmlns="http://www.w3.org/2000/svg">
<mask id="mask0_232_5587" style="mask-type:luminance" maskUnits="userSpaceOnUse" x="0" y="0" width="21" height="23">
<path d="M0 0H21V22.1781H0V0Z" fill="white"/>
</mask>
<g mask="url(#mask0_232_5587)">
<path fill-rule="evenodd" clip-rule="evenodd" d="M19.414 4.99887C16.3929 0.0744518 9.9516 -1.46867 5.02675 1.55271C0.102122 4.57388 -1.44079 11.0151 1.58059 15.94C4.24247 20.2792 9.55988 21.9921 14.1553 20.2713L17.6852 22.1858L17.5782 18.1716C21.1941 14.8545 22.0763 9.33805 19.414 4.99887ZM9.53635 3.37859C9.7869 3.10685 10.1072 2.97119 10.4972 2.97119C10.887 2.97119 11.2075 3.10516 11.458 3.3733C11.7088 3.64143 11.8341 3.9774 11.8341 4.3812C11.8341 4.72946 11.7194 5.89931 11.4894 7.89074C11.2596 9.88238 11.0576 11.8077 10.8836 13.6671H10.0688C9.91577 11.8077 9.72585 9.88238 9.49968 7.89074C9.2733 5.89931 9.16032 4.72946 9.16032 4.3812C9.16032 3.98418 9.28538 3.65012 9.53635 3.37859ZM11.5051 17.9755C11.2232 18.2504 10.887 18.3882 10.4972 18.3882C10.1072 18.3882 9.77121 18.2504 9.48908 17.9755C9.20717 17.7006 9.06621 17.368 9.06621 16.978C9.06621 16.5882 9.20717 16.252 9.48908 15.9701C9.77121 15.6879 10.1072 15.547 10.4972 15.547C10.887 15.547 11.2232 15.6879 11.5051 15.9701C11.7872 16.252 11.9282 16.5882 11.9282 16.978C11.9282 17.368 11.7872 17.7006 11.5051 17.9755Z" fill="#F4B414"/>
</g>
</svg>
