<svg width="32" height="33" viewBox="0 0 32 33" fill="none" xmlns="http://www.w3.org/2000/svg">
<mask id="mask0_232_1457" style="mask-type:luminance" maskUnits="userSpaceOnUse" x="0" y="0" width="32" height="33">
<path d="M0 0H31.6421V32.1483H0V0Z" fill="white"/>
</mask>
<g mask="url(#mask0_232_1457)">
<path fill-rule="evenodd" clip-rule="evenodd" d="M6.46396 10.6113V0.490242C6.46396 0.21966 6.68362 0 6.95444 0H21.0578C21.0573 0.0143508 21.0569 0.028933 21.0569 0.0435153V2.78753C21.0569 3.51895 21.6598 4.12169 22.391 4.12169H25.135C25.1496 4.12169 25.1642 4.12122 25.1786 4.12076V11.3931L24.83 11.5288C24.0622 11.8244 23.6798 12.6905 23.9745 13.459C23.9747 13.4597 23.9749 13.4604 23.9752 13.461L24.2721 14.2263L23.1926 14.8035C22.8236 14.9947 22.4565 14.9709 22.0753 14.8725C21.7543 14.7897 21.4251 14.6552 21.0798 14.514C19.6204 13.9177 17.9224 13.2203 15.5978 14.6635C14.1328 13.7994 12.8734 13.939 11.7212 14.1918C11.1902 14.3082 10.6866 14.4522 10.1968 14.4975C9.79427 14.535 9.40217 14.501 9.01285 14.2818C8.99989 14.2746 8.98693 14.2679 8.97373 14.2617L7.73679 13.6911L8.06361 12.9514C8.39854 12.1986 8.05112 11.3135 7.30441 10.9835L6.46396 10.6113ZM11.3435 1.2094C9.58596 1.2094 8.15898 2.63638 8.15898 4.39389C8.15898 6.1514 9.58596 7.57815 11.3435 7.57815C13.101 7.57815 14.5277 6.1514 14.5277 4.39389C14.5277 2.63638 13.101 1.2094 11.3435 1.2094ZM10.1829 6.13844L11.209 5.11236C11.4215 4.89987 11.4215 4.55499 11.209 4.3425C10.9965 4.13002 10.6516 4.13002 10.4391 4.3425L9.46282 5.31859C9.3251 5.03968 9.24779 4.72558 9.24779 4.39389C9.24779 3.23726 10.1868 2.29821 11.3435 2.29821C12.5001 2.29821 13.4389 3.23726 13.4389 4.39389C13.4389 5.55052 12.5001 6.48934 11.3435 6.48934C10.9143 6.48934 10.5153 6.36018 10.1829 6.13844ZM9.40217 9.34144H10.9326C11.2333 9.34144 11.477 9.09748 11.477 8.79681C11.477 8.49637 11.2333 8.2524 10.9326 8.2524H9.40217C9.10173 8.2524 8.85777 8.49637 8.85777 8.79681C8.85777 9.09748 9.10173 9.34144 9.40217 9.34144ZM20.3287 12.8676H21.767C22.0674 12.8676 22.3114 12.6236 22.3114 12.3232C22.3114 12.0227 22.0674 11.7788 21.767 11.7788H20.3287C20.0282 11.7788 19.7843 12.0227 19.7843 12.3232C19.7843 12.6236 20.0282 12.8676 20.3287 12.8676ZM9.40217 12.8676H18.3964C18.6969 12.8676 18.9408 12.6236 18.9408 12.3232C18.9408 12.0227 18.6969 11.7788 18.3964 11.7788H9.40217C9.10173 11.7788 8.85777 12.0227 8.85777 12.3232C8.85777 12.6236 9.10173 12.8676 9.40217 12.8676ZM16.2653 11.1045H20.1486C20.4493 11.1045 20.6932 10.8605 20.6932 10.5601C20.6932 10.2597 20.4493 10.0157 20.1486 10.0157H16.2653C15.9649 10.0157 15.7209 10.2597 15.7209 10.5601C15.7209 10.8605 15.9649 11.1045 16.2653 11.1045ZM9.40217 11.1045H14.4766C14.777 11.1045 15.021 10.8605 15.021 10.5601C15.021 10.2597 14.777 10.0157 14.4766 10.0157H9.40217C9.10173 10.0157 8.85777 10.2597 8.85777 10.5601C8.85777 10.8605 9.10173 11.1045 9.40217 11.1045ZM12.6286 9.34144H18.7587C19.0591 9.34144 19.3031 9.09748 19.3031 8.79681C19.3031 8.49637 19.0591 8.2524 18.7587 8.2524H12.6286C12.3281 8.2524 12.0842 8.49637 12.0842 8.79681C12.0842 9.09748 12.3281 9.34144 12.6286 9.34144ZM22.1457 0.0435153C22.1985 0.0671247 22.2457 0.0997612 22.2892 0.143276L25.0353 2.88937C25.0788 2.93289 25.1114 2.9801 25.135 3.03265H22.391C22.2566 3.03265 22.1457 2.92201 22.1457 2.78753V0.0435153ZM7.06785 12.5111L2.70544 22.3826C2.70521 22.3831 2.70498 22.3835 2.70475 22.384C2.6161 22.5863 2.37792 22.677 2.17562 22.587C2.17493 22.5865 2.17423 22.5863 2.17354 22.5861L0.273447 21.7482L0.272289 21.7477C0.0688322 21.6584 -0.0219019 21.4167 0.0665176 21.213C0.0669804 21.2119 4.42847 11.3464 4.42847 11.3464C4.51989 11.1422 4.75969 11.0492 4.96431 11.1378C4.96523 11.1383 6.86393 11.9792 6.86393 11.9792L6.8644 11.9794C7.06531 12.0683 7.15905 12.3067 7.06855 12.5093C7.06832 12.51 7.06809 12.5104 7.06785 12.5111ZM5.38164 12.0047C4.91199 11.9804 4.51503 12.3435 4.49073 12.8132C4.47152 13.2828 4.83445 13.6798 5.29947 13.7039C5.76911 13.7233 6.16607 13.3601 6.19014 12.8905C6.20958 12.4208 5.85128 12.0239 5.38164 12.0047ZM14.6131 15.3822C14.349 15.6044 14.096 15.8407 13.8569 16.0819L13.8567 16.0822C12.8445 17.105 11.6064 18.016 10.2093 18.8322C10.0343 18.9343 9.91093 19.1051 9.86719 19.3095C9.82437 19.5092 9.86557 19.6979 9.97945 19.8689C9.98685 19.88 9.99472 19.8907 10.0028 19.9013C10.688 20.7823 11.4111 21.2429 12.1406 21.4475C13.2037 21.7454 14.3023 21.4859 15.3807 21.0836C16.1704 20.789 16.9488 20.421 17.6928 20.2214C18.3066 20.0569 18.8929 20.0032 19.4281 20.3082L24.577 23.2446C24.5774 23.2451 24.5781 23.2453 24.5786 23.2455C24.7568 23.3464 24.8911 23.4936 24.9733 23.6649C24.9739 23.6665 24.9746 23.6682 24.9756 23.6696V23.6698C25.1052 23.9339 25.1114 24.2535 24.9587 24.529C24.9582 24.5297 24.9577 24.5304 24.9575 24.5313C24.7085 24.9847 24.1326 25.1595 23.6789 24.9058C22.497 24.2452 21.3115 23.5809 20.137 22.9092C19.8762 22.7601 19.5433 22.8506 19.3943 23.1115C19.245 23.3724 19.3357 23.7052 19.5966 23.8545C20.7738 24.5276 21.9621 25.1935 23.1465 25.8557L23.1477 25.8564C23.6004 26.1115 23.774 26.6848 23.5243 27.1401C23.2729 27.5959 22.6973 27.7653 22.2434 27.516C22.2422 27.5153 22.2413 27.5149 22.2401 27.5142L22.2392 27.5137L17.5796 24.8919C17.3176 24.7447 16.9854 24.8375 16.838 25.0995C16.6908 25.3613 16.7836 25.6935 17.0456 25.8409C17.0456 25.8409 20.8516 27.9922 20.8534 27.9933C21.3034 28.2523 21.4765 28.8238 21.2277 29.2786C20.9761 29.7314 20.4018 29.9038 19.9479 29.6559C19.9463 29.655 19.9449 29.6543 19.9433 29.6534L17.2333 28.1167C17.062 27.9081 16.8537 27.7375 16.6176 27.6065C16.6148 27.6049 16.6118 27.6033 16.6088 27.6017C16.0931 27.3274 15.5128 27.2924 14.9957 27.4584C14.846 26.9362 14.4951 26.4728 13.9824 26.1985C13.469 25.9238 12.8876 25.8888 12.3702 26.0539C12.2196 25.5326 11.8675 25.0688 11.3546 24.7945C11.3541 24.7942 11.3537 24.794 11.3532 24.7938C10.9224 24.5649 10.4452 24.5024 9.99773 24.5852C9.90954 23.9466 9.52878 23.3559 8.92189 23.0307C8.92142 23.0303 8.92096 23.03 8.9205 23.0298C8.10019 22.5935 7.11276 22.7645 6.48248 23.3823C6.45378 23.2383 6.4223 23.0962 6.38203 22.9615C6.22787 22.4437 5.9522 22.0255 5.43325 21.8234L5.43256 21.8232C5.28697 21.7667 4.85853 21.5783 4.35139 21.3519L7.29654 14.6871L8.49854 15.2417C9.40889 15.7456 10.3236 15.6294 11.3071 15.4044C12.2892 15.1799 13.3593 14.8366 14.6131 15.3822ZM24.6691 15.2489L27.3147 22.0676L25.669 22.7541C25.5174 22.5761 25.3323 22.421 25.1161 22.2986L19.9674 19.3622C18.7682 18.6787 17.384 19.109 15.9475 19.6884C14.352 20.3318 12.654 21.1748 11.1321 19.5497C12.4635 18.7401 13.6465 17.8427 14.6307 16.8481C15.0189 16.4564 15.4476 16.0775 15.9045 15.7637C15.9079 15.7613 15.9114 15.759 15.9149 15.7567C17.952 14.3619 19.4179 15.0112 20.6678 15.522C21.7536 15.9655 22.7216 16.2764 23.6977 15.7683C23.6995 15.7674 23.7014 15.7664 23.7032 15.7655L24.6691 15.2489ZM28.8933 23.1261L24.9908 13.0685C24.9115 12.8602 25.0133 12.6248 25.2216 12.5447C25.2225 12.5444 25.2232 12.5442 25.2242 12.544L27.1599 11.7908C27.3671 11.7109 27.6013 11.8158 27.6835 12.0239L27.6839 12.0248L31.5823 22.0815C31.6619 22.2898 31.5607 22.5259 31.354 22.6057L31.3529 22.6062L29.4176 23.3589C29.2095 23.4383 28.9741 23.3362 28.8943 23.1282C28.894 23.1275 28.8938 23.1268 28.8933 23.1261ZM26.7032 14.3369C27.1733 14.3369 27.5515 13.9541 27.5515 13.4888C27.5515 13.0187 27.1733 12.6356 26.7032 12.6356C26.2331 12.6356 25.85 13.0187 25.85 13.4888C25.85 13.9541 26.2331 14.3369 26.7032 14.3369ZM16.9433 31.3857L17.4615 30.4161C17.5944 30.1691 17.6724 29.902 17.6969 29.6312C17.6969 29.6312 18.3617 30.0182 18.3909 30.0344C18.3916 30.0348 18.392 30.0351 18.3925 30.0353C18.8452 30.2908 19.0147 30.8674 18.7647 31.3229C18.5168 31.775 17.9393 31.9583 17.4921 31.7009L16.9433 31.3857ZM6.12394 26.1634L7.06832 24.3957C7.32432 23.9165 7.92682 23.7351 8.40827 23.9906C8.86078 24.2339 9.04919 24.7866 8.85129 25.2516L7.60161 27.4116C7.30233 27.6431 6.88222 27.6919 6.52877 27.5031L6.52785 27.5026C6.0471 27.2468 5.86517 26.645 6.12325 26.1643L6.12394 26.1634ZM8.22309 28.5546L9.76233 25.8513C10.0618 25.6146 10.4852 25.5659 10.8417 25.7551C11.2321 25.9641 11.4268 26.4036 11.3467 26.8175L9.96949 29.4858C9.70933 29.9656 9.11076 30.1538 8.62723 29.8955L8.62654 29.895C8.14602 29.6395 7.96339 29.0361 8.22147 28.5579C8.22194 28.5567 8.22263 28.5555 8.22309 28.5546ZM10.9803 29.9013L12.3103 27.3246C12.61 27.0316 13.0804 26.9508 13.4688 27.1584C13.8597 27.3677 14.0511 27.8081 13.9708 28.2245L12.748 30.5748C12.4587 30.9487 11.93 31.0723 11.4997 30.8447C11.1467 30.6531 10.9537 30.2786 10.9803 29.9013ZM13.7373 31.0324L14.9337 28.7326C15.2344 28.4377 15.7006 28.3556 16.0913 28.5597C16.2211 28.6326 16.3329 28.7266 16.4209 28.8446C16.4218 28.8463 16.423 28.8474 16.4239 28.8488C16.426 28.8516 16.4278 28.8544 16.4299 28.8571C16.6472 29.1652 16.6801 29.5707 16.5026 29.9006C16.5021 29.9013 16.5019 29.9017 16.5017 29.9022L15.5938 31.6002C15.3376 32.0794 14.7349 32.2608 14.2534 32.0048C13.8903 31.8109 13.7 31.4194 13.7373 31.0324Z" fill="#F7F7F7"/>
</g>
</svg>
