<svg width="22" height="22" viewBox="0 0 22 22" fill="none" xmlns="http://www.w3.org/2000/svg">
<path d="M14.6657 7.79183H16.499C16.499 5.19125 13.9736 4.00508 11.9157 3.73191V1.8335H10.0824V3.73191C8.02444 4.00508 5.49902 5.19125 5.49902 7.79183C5.49902 10.2723 7.94286 11.5621 10.0824 11.8527V16.4085C8.75502 16.1784 7.33236 15.4698 7.33236 14.2085H5.49902C5.49902 16.5817 7.72194 17.9842 10.0824 18.2748V20.1668H11.9157V18.2693C13.9736 17.9962 16.499 16.8091 16.499 14.2085C16.499 11.6079 13.9736 10.4217 11.9157 10.1486V5.59183C13.1349 5.81091 14.6657 6.45441 14.6657 7.79183ZM7.33236 7.79183C7.33236 6.45441 8.86319 5.81091 10.0824 5.59183V9.99091C8.82561 9.759 7.33236 9.07241 7.33236 7.79183ZM14.6657 14.2085C14.6657 15.5459 13.1349 16.1894 11.9157 16.4085V12.0085C13.1349 12.2276 14.6657 12.8711 14.6657 14.2085Z" fill="white"/>
</svg>
