<svg width="20" height="21" viewBox="0 0 20 21" fill="none" xmlns="http://www.w3.org/2000/svg">
<path d="M3.00409 4.79174C5.75722 4.78082 8.27014 4.02757 10.2831 2.6084C12.2787 4.04512 14.6649 4.77868 17.3788 4.79174C17.4639 8.19344 16.8941 15.9879 10.2372 18.7084C10.206 18.7197 10.1747 18.7197 10.1434 18.7084C3.48664 15.9879 2.91899 8.19344 3.00409 4.79174ZM9.10635 10.3986V13.036C9.10635 13.0716 9.10804 13.1071 9.11153 13.1424C9.11502 13.1779 9.1202 13.2129 9.12717 13.2478C9.13415 13.2827 9.14271 13.3171 9.15306 13.3511C9.16342 13.3851 9.17535 13.4185 9.18897 13.4514C9.20248 13.4841 9.21767 13.5162 9.23444 13.5476C9.25122 13.5789 9.26945 13.6094 9.28915 13.6389C9.30896 13.6685 9.33012 13.697 9.35263 13.7245C9.37514 13.7519 9.39901 13.7783 9.42411 13.8034C9.44932 13.8285 9.47555 13.8523 9.50301 13.8748C9.53048 13.8975 9.55907 13.9186 9.58856 13.9383C9.61816 13.958 9.64856 13.9764 9.67996 13.993C9.71125 14.0098 9.74333 14.025 9.7762 14.0386C9.80895 14.0522 9.84239 14.0642 9.87638 14.0745C9.91048 14.0848 9.94482 14.0934 9.97971 14.1003C10.0146 14.1073 10.0497 14.1125 10.0851 14.1159C10.1204 14.1194 10.1559 14.1212 10.1914 14.1212C10.227 14.1212 10.2623 14.1194 10.2978 14.1159C10.3332 14.1125 10.3683 14.1073 10.4031 14.1003C10.4379 14.0934 10.4724 14.0848 10.5064 14.0745C10.5404 14.0642 10.5738 14.0522 10.6067 14.0386C10.6395 14.025 10.6716 14.0098 10.7029 13.993C10.7343 13.9764 10.7647 13.958 10.7943 13.9383C10.8238 13.9186 10.8523 13.8975 10.8797 13.8748C10.9072 13.8523 10.9335 13.8285 10.9587 13.8034C10.9839 13.7783 11.0076 13.7519 11.0302 13.7245C11.0528 13.697 11.0739 13.6685 11.0936 13.6389C11.1134 13.6094 11.1317 13.5789 11.1484 13.5476C11.1651 13.5162 11.1803 13.4841 11.1939 13.4514C11.2075 13.4185 11.2195 13.3851 11.2298 13.3511C11.2401 13.3171 11.2487 13.2827 11.2557 13.2478C11.2626 13.2129 11.2677 13.1779 11.2712 13.1424C11.2747 13.1071 11.2765 13.0716 11.2765 13.036V10.3986C11.3047 10.3795 11.3322 10.3596 11.3594 10.3389C11.3865 10.3183 11.4131 10.2969 11.4389 10.2749C11.4649 10.2529 11.4903 10.2301 11.515 10.2067C11.5398 10.1833 11.564 10.1593 11.5874 10.1347C11.6109 10.11 11.6338 10.0847 11.656 10.0588C11.6781 10.0329 11.6995 10.0065 11.7202 9.97944C11.7411 9.95243 11.7611 9.92496 11.7803 9.89682C11.7996 9.8688 11.8182 9.84021 11.836 9.81117C11.8537 9.78212 11.8707 9.75252 11.8869 9.72258C11.9031 9.69264 11.9186 9.66225 11.9331 9.63152C11.9477 9.60068 11.9616 9.56961 11.9745 9.53809C11.9875 9.50658 11.9995 9.47472 12.0108 9.44264C12.022 9.41045 12.0325 9.37803 12.042 9.34528C12.0515 9.31263 12.0602 9.27965 12.0681 9.24656C12.0758 9.21336 12.0827 9.18004 12.0888 9.14649C12.0948 9.11295 12.0999 9.0793 12.1042 9.04553C12.1085 9.01176 12.1118 8.97788 12.1142 8.94388C12.1167 8.90989 12.1183 8.8759 12.1189 8.84179C12.1195 8.8078 12.1193 8.77369 12.1181 8.7397C12.117 8.70559 12.1149 8.6716 12.1119 8.63772C12.109 8.60373 12.1052 8.56996 12.1004 8.53619C12.0956 8.50242 12.09 8.46888 12.0835 8.43545C12.0769 8.40202 12.0695 8.36881 12.0612 8.33572C12.053 8.30274 12.0437 8.26987 12.0337 8.23734C12.0237 8.20481 12.0128 8.17251 12.0011 8.14054C11.9894 8.10857 11.9768 8.07694 11.9634 8.04565C11.95 8.01436 11.9357 7.9834 11.9206 7.95279C11.9056 7.92228 11.8898 7.89212 11.8731 7.8624C11.8564 7.83268 11.839 7.80342 11.8208 7.77472C11.8025 7.7459 11.7836 7.71765 11.7639 7.68984C11.7442 7.66204 11.7237 7.6348 11.7027 7.60813C11.6815 7.58134 11.6597 7.55522 11.6371 7.52967C11.6145 7.50412 11.5914 7.47924 11.5675 7.45493C11.5436 7.43062 11.5192 7.40698 11.4941 7.3839C11.469 7.36094 11.4432 7.33854 11.417 7.31693C11.3907 7.29521 11.3639 7.27427 11.3364 7.25412C11.3091 7.23386 11.2811 7.21439 11.2527 7.19559C11.2242 7.1769 11.1953 7.1589 11.1659 7.14167C11.1365 7.12445 11.1067 7.10802 11.0764 7.09237C11.0462 7.07673 11.0155 7.06187 10.9844 7.04791C10.9535 7.03384 10.9221 7.02067 10.8903 7.00829C10.8586 6.99602 10.8265 6.98454 10.7941 6.97385C10.7618 6.96315 10.7291 6.95336 10.6963 6.94447C10.6634 6.93557 10.6303 6.92747 10.597 6.92038C10.5637 6.91317 10.5302 6.90687 10.4966 6.90147C10.4629 6.89607 10.4293 6.89168 10.3954 6.88807C10.3615 6.88436 10.3275 6.88166 10.2935 6.87986C10.2595 6.87806 10.2254 6.87716 10.1914 6.87716C10.1573 6.87716 10.1233 6.87806 10.0893 6.87986C10.0552 6.88166 10.0214 6.88436 9.98748 6.88807C9.9536 6.89168 9.91983 6.89607 9.88617 6.90147C9.85263 6.90687 9.81909 6.91317 9.78577 6.92038C9.75256 6.92747 9.71947 6.93557 9.6866 6.94447C9.65362 6.95336 9.62109 6.96315 9.58867 6.97385C9.55637 6.98454 9.52429 6.99602 9.49255 7.00829C9.4608 7.02067 9.4294 7.03384 9.39833 7.04791C9.36727 7.06187 9.33665 7.07673 9.30637 7.09237C9.27609 7.10802 9.24626 7.12445 9.21688 7.14167C9.18751 7.1589 9.15858 7.1769 9.13021 7.19559C9.10174 7.21439 9.07382 7.23386 9.04647 7.25412C9.019 7.27427 8.99221 7.29521 8.96587 7.31693C8.93954 7.33854 8.91387 7.36094 8.88877 7.3839C8.86367 7.40698 8.83913 7.43062 8.81527 7.45493C8.7914 7.47924 8.76822 7.50412 8.74571 7.52967C8.72319 7.55522 8.70136 7.58134 8.68019 7.60813C8.65903 7.6348 8.63866 7.66204 8.61896 7.68984C8.59926 7.71765 8.58024 7.7459 8.56201 7.77472C8.54388 7.80342 8.52644 7.83268 8.50978 7.8624C8.49312 7.89212 8.47725 7.92228 8.46216 7.95279C8.44708 7.9834 8.4329 8.01436 8.4195 8.04565C8.40611 8.07694 8.3935 8.10857 8.38168 8.14054C8.36998 8.17251 8.35906 8.20481 8.34904 8.23734C8.33902 8.26987 8.32991 8.30274 8.32158 8.33572C8.31325 8.36881 8.30593 8.40202 8.2994 8.43545C8.29287 8.46888 8.28713 8.50242 8.2824 8.53619C8.27768 8.56996 8.27385 8.60373 8.27092 8.63772C8.26788 8.6716 8.26586 8.70559 8.26473 8.7397C8.26349 8.77369 8.26327 8.8078 8.26394 8.84179C8.26462 8.8759 8.26608 8.90989 8.26856 8.94388C8.27104 8.97788 8.27441 9.01176 8.27869 9.04553C8.28286 9.0793 8.28803 9.11295 8.29411 9.14649C8.30008 9.18004 8.30706 9.21336 8.31482 9.24656C8.32259 9.27965 8.33126 9.31263 8.34082 9.34528C8.35039 9.37803 8.36075 9.41045 8.372 9.44264C8.38326 9.47472 8.39542 9.50658 8.40836 9.53809C8.4213 9.56961 8.43504 9.60068 8.44967 9.63152C8.4643 9.66225 8.47972 9.69264 8.49593 9.72258C8.51214 9.75252 8.52914 9.78212 8.54692 9.81117C8.56471 9.84021 8.58317 9.8688 8.60253 9.89682C8.62178 9.92496 8.64181 9.95243 8.66252 9.97944C8.68335 10.0065 8.70473 10.0329 8.72691 10.0588C8.74908 10.0847 8.77182 10.11 8.79534 10.1347C8.81887 10.1593 8.84296 10.1833 8.86772 10.2067C8.89248 10.2301 8.91792 10.2529 8.94381 10.2749C8.96981 10.2969 8.99638 10.3183 9.02339 10.3389C9.05052 10.3596 9.07821 10.3795 9.10635 10.3986Z" fill="#F7F7F7"/>
<mask id="mask0_232_806" style="mask-type:luminance" maskUnits="userSpaceOnUse" x="0" y="0" width="20" height="21">
<path d="M19.6453 0H0.713434V20.9777H19.6453V0Z" fill="white"/>
</mask>
<g mask="url(#mask0_232_806)">
<path d="M0.810049 3.44465C0.812975 3.41111 0.817591 3.37768 0.823782 3.34447C0.829971 3.31126 0.837738 3.2784 0.847082 3.24598C0.856424 3.21356 0.867342 3.18171 0.879725 3.1503C0.892218 3.1189 0.906176 3.08817 0.921597 3.05812C0.937017 3.02806 0.953789 2.99891 0.972025 2.97043C0.990259 2.94206 1.00984 2.9146 1.03078 2.88804C1.05161 2.86147 1.07378 2.83603 1.09708 2.81172C1.12049 2.78729 1.14492 2.76411 1.17047 2.74204C1.19613 2.72009 1.2227 2.69927 1.25027 2.67991C1.27796 2.66044 1.30633 2.64232 1.33571 2.62566C1.36509 2.609 1.39514 2.59369 1.42598 2.57996C1.45682 2.56611 1.48823 2.55384 1.5202 2.54315C1.55227 2.53234 1.58469 2.52323 1.61756 2.51557C1.65043 2.50792 1.68363 2.50195 1.71706 2.49756C1.75061 2.49306 1.78415 2.49036 1.81792 2.48912C1.85169 2.48799 1.88545 2.48844 1.91911 2.49058C4.98876 2.71323 7.64801 1.94478 9.61737 0.265706C9.64067 0.245782 9.66476 0.226872 9.68975 0.208975C9.71474 0.19119 9.74051 0.174419 9.76696 0.158885C9.79342 0.143352 9.82054 0.129057 9.84835 0.115887C9.87604 0.10283 9.9044 0.0908988 9.93322 0.080318C9.96203 0.0697373 9.99119 0.0603948 10.0209 0.0524029C10.0505 0.0444111 10.0804 0.0376574 10.1107 0.0323671C10.1409 0.0269642 10.1713 0.0230246 10.2019 0.0204357C10.2325 0.0177342 10.2631 0.016496 10.2939 0.0166086C10.3246 0.0167211 10.3552 0.0181844 10.3858 0.0209985C10.4163 0.0238125 10.4467 0.0279772 10.4769 0.0334927C10.5072 0.0390082 10.537 0.0458744 10.5666 0.0540913C10.5962 0.0623083 10.6254 0.071876 10.6542 0.0825692C10.6829 0.0933751 10.7111 0.105419 10.7387 0.118814C10.7664 0.132096 10.7934 0.146616 10.8199 0.162375C10.8462 0.178021 10.8719 0.194905 10.8967 0.212915C10.9216 0.230924 10.9456 0.249947 10.9688 0.270096C12.9338 1.96222 15.4576 2.71109 18.464 2.49272C18.4976 2.49036 18.5314 2.48968 18.5652 2.49058C18.5989 2.49148 18.6326 2.49407 18.6661 2.49824C18.6997 2.5024 18.7329 2.50826 18.7659 2.51568C18.7988 2.52311 18.8314 2.53212 18.8635 2.54281C18.8955 2.55339 18.9271 2.56555 18.958 2.57917C18.9888 2.5929 19.019 2.6081 19.0484 2.62464C19.0779 2.6413 19.1064 2.65931 19.1341 2.67879C19.1617 2.69815 19.1884 2.71886 19.2141 2.74092C19.2396 2.76287 19.2642 2.78606 19.2876 2.81048C19.311 2.83491 19.3331 2.86035 19.354 2.88691C19.3749 2.91347 19.3944 2.94105 19.4126 2.96953C19.4309 2.99801 19.4476 3.02727 19.4631 3.05733C19.4784 3.08749 19.4922 3.11822 19.5046 3.14974C19.517 3.18114 19.5277 3.21311 19.5369 3.24564C19.5462 3.27817 19.5538 3.31104 19.5599 3.34424C19.5658 3.37756 19.5702 3.41099 19.573 3.44465C19.6123 3.93159 19.6472 4.59536 19.6472 5.38137C19.6472 9.69999 18.5818 17.7434 11.0933 20.8023C10.9499 20.8599 10.8024 20.9035 10.6508 20.9329C10.4991 20.9623 10.346 20.9769 10.1915 20.9769C10.037 20.9769 9.88391 20.9623 9.7323 20.9329C9.58068 20.9035 9.43311 20.8599 9.28982 20.8023C0.434433 17.1825 0.561064 6.60198 0.810049 3.44465ZM10.0212 19.0119C10.0758 19.0338 10.1327 19.0447 10.1915 19.0447C10.2504 19.0447 10.3071 19.0338 10.3618 19.0119C17.3155 16.1692 17.8111 8.00134 17.6998 4.62147C17.6995 4.611 17.6981 4.60065 17.6957 4.59041C17.6935 4.58016 17.6901 4.57026 17.6858 4.56058C17.6816 4.55101 17.6765 4.54189 17.6704 4.53334C17.6643 4.52467 17.6576 4.51679 17.6499 4.50947C17.6424 4.50227 17.6342 4.49574 17.6254 4.49011C17.6165 4.48437 17.6072 4.47965 17.5975 4.47571C17.5877 4.47188 17.5777 4.46895 17.5673 4.46704C17.557 4.46513 17.5466 4.46423 17.536 4.46434H17.4465C14.7327 4.46434 12.3552 3.72639 10.3814 2.27447C10.3675 2.26434 10.3523 2.25657 10.3358 2.25128C10.3195 2.24599 10.3026 2.24329 10.2854 2.24329C10.2682 2.24329 10.2513 2.24599 10.2349 2.25128C10.2186 2.25657 10.2034 2.26434 10.1893 2.27447C8.20259 3.70669 5.70048 4.46434 2.95174 4.46434H2.84695C2.83648 4.46423 2.82613 4.46513 2.81577 4.46704C2.80541 4.46895 2.7954 4.47188 2.7856 4.47571C2.77581 4.47965 2.76647 4.48437 2.75769 4.49011C2.7488 4.49574 2.74058 4.50227 2.73304 4.50947C2.7255 4.51679 2.71863 4.52467 2.71267 4.53334C2.70659 4.54189 2.70141 4.55101 2.69713 4.56058C2.69285 4.57026 2.68959 4.58016 2.68723 4.59041C2.68486 4.60065 2.68362 4.611 2.68329 4.62147C2.57208 8.00156 3.06746 16.1694 10.0212 19.0119Z" fill="#F7F7F7"/>
</g>
</svg>
