<svg width="22" height="22" viewBox="0 0 22 22" fill="none" xmlns="http://www.w3.org/2000/svg">
<mask id="mask0_232_593" style="mask-type:luminance" maskUnits="userSpaceOnUse" x="0" y="0" width="22" height="22">
<path d="M0 0H21.9124V22H0V0Z" fill="white"/>
</mask>
<g mask="url(#mask0_232_593)">
<path d="M21.9124 10.9994C21.9124 11.1787 21.9078 11.3577 21.899 11.5367C21.8903 11.7157 21.8771 11.8944 21.8596 12.0728C21.8421 12.2513 21.8199 12.4292 21.7936 12.6065C21.7674 12.7839 21.7367 12.9604 21.7017 13.1361C21.6667 13.3118 21.6275 13.4867 21.584 13.6607C21.5405 13.8345 21.4926 14.0072 21.4406 14.1788C21.3886 14.3502 21.3322 14.5204 21.2717 14.6893C21.2115 14.8581 21.1469 15.0251 21.0782 15.1909C21.0098 15.3565 20.937 15.5202 20.8604 15.6822C20.7837 15.8442 20.703 16.0043 20.6187 16.1625C20.5341 16.3204 20.4457 16.4764 20.3535 16.6302C20.2613 16.7841 20.1655 16.9354 20.0659 17.0843C19.9662 17.2334 19.8631 17.3799 19.7563 17.5238C19.6493 17.6681 19.539 17.8093 19.4254 17.9478C19.3116 18.0863 19.1944 18.222 19.074 18.3547C18.9536 18.4878 18.8302 18.6175 18.7032 18.7442C18.5765 18.8709 18.4467 18.9946 18.3137 19.1148C18.181 19.2352 18.0452 19.3523 17.9067 19.4659C17.768 19.5798 17.6268 19.6901 17.4828 19.7968C17.3386 19.9035 17.1922 20.0067 17.043 20.1063C16.8938 20.206 16.7425 20.3017 16.5887 20.394C16.4349 20.4862 16.2789 20.5743 16.1207 20.6589C15.9628 20.7435 15.8026 20.8239 15.6404 20.9006C15.4783 20.9772 15.3144 21.05 15.1488 21.1184C14.9832 21.1871 14.816 21.2514 14.6471 21.3119C14.4783 21.3724 14.308 21.4285 14.1364 21.4805C13.9648 21.5325 13.7921 21.5804 13.6184 21.6239C13.4443 21.6674 13.2694 21.7069 13.0934 21.7419C12.9177 21.7766 12.7409 21.8073 12.5636 21.8336C12.3862 21.8598 12.2083 21.882 12.0299 21.8995C11.8514 21.917 11.6727 21.9302 11.4937 21.9389C11.3145 21.9477 11.1355 21.9523 10.9562 21.9523C10.7767 21.9523 10.5977 21.9477 10.4184 21.9389C10.2394 21.9302 10.0607 21.917 9.88227 21.8995C9.70382 21.882 9.52593 21.8598 9.34858 21.8336C9.17123 21.8073 8.99443 21.7766 8.81872 21.7419C8.64274 21.7069 8.46785 21.6674 8.29406 21.6239C8.12 21.5804 7.9473 21.5325 7.7757 21.4805C7.6041 21.4285 7.43387 21.3724 7.265 21.3119C7.09614 21.2514 6.92892 21.1871 6.76334 21.1184C6.59776 21.05 6.43382 20.9772 6.2718 20.9006C6.1095 20.8239 5.94939 20.7435 5.79148 20.6589C5.63329 20.5743 5.47728 20.4862 5.32347 20.394C5.16966 20.3017 5.01831 20.206 4.86915 20.1063C4.71999 20.0067 4.57357 19.9035 4.42934 19.7968C4.28538 19.6901 4.14416 19.5798 4.0054 19.4659C3.86691 19.3523 3.73117 19.2352 3.59843 19.1148C3.46542 18.9946 3.33569 18.8709 3.20897 18.7442C3.08198 18.6175 2.95855 18.4878 2.83813 18.3547C2.71771 18.222 2.60057 18.0863 2.48671 17.9478C2.37313 17.8093 2.26284 17.6681 2.1561 17.5238C2.04909 17.3799 1.94591 17.2334 1.84629 17.0843C1.74667 16.9354 1.65088 16.7841 1.55864 16.6302C1.46641 16.4764 1.37801 16.3204 1.29344 16.1625C1.20915 16.0043 1.12841 15.8442 1.05178 15.6822C0.975144 15.5202 0.902344 15.3565 0.833922 15.1909C0.765227 15.0251 0.700637 14.8581 0.640426 14.6893C0.579941 14.5204 0.523562 14.3502 0.471562 14.1788C0.419561 14.0072 0.371666 13.8345 0.32815 13.6607C0.284634 13.4867 0.245497 13.3118 0.210465 13.1361C0.175433 12.9604 0.14478 12.7839 0.118506 12.6065C0.0922323 12.4292 0.0700637 12.2513 0.0525478 12.0728C0.0350318 11.8944 0.0218949 11.7157 0.0131369 11.5367C0.00437898 11.3577 0 11.1787 0 10.9994C0 10.948 0.00492642 10.8971 0.0147791 10.8467C0.0249055 10.7963 0.0396845 10.7474 0.0593899 10.7C0.0790953 10.6524 0.10318 10.6072 0.131643 10.5645C0.16038 10.5218 0.192675 10.4824 0.229075 10.446C0.265476 10.4099 0.304887 10.3773 0.347582 10.3489C0.390277 10.3201 0.435435 10.296 0.483056 10.2766C0.530404 10.2569 0.579394 10.2421 0.629752 10.232C0.68011 10.2219 0.731016 10.2169 0.782469 10.2169C0.833922 10.2169 0.884828 10.2219 0.935186 10.232C0.985544 10.2421 1.03453 10.2569 1.08188 10.2766C1.1295 10.296 1.17439 10.3201 1.21736 10.3489C1.26005 10.3773 1.29946 10.4099 1.33586 10.446C1.37226 10.4824 1.40456 10.5218 1.43302 10.5645C1.46176 10.6072 1.48584 10.6524 1.50555 10.7C1.52525 10.7474 1.54003 10.7963 1.54989 10.8467C1.56001 10.8971 1.56494 10.948 1.56494 10.9994C1.56466 11.1724 1.56932 11.3454 1.57862 11.5181C1.58793 11.6908 1.60189 11.8632 1.62077 12.0353C1.63965 12.2072 1.66319 12.3788 1.69138 12.5493C1.71957 12.7201 1.75269 12.89 1.79018 13.0589C1.82795 13.2278 1.8701 13.3955 1.91717 13.5619C1.96397 13.7286 2.01543 13.8937 2.07153 14.0573C2.12764 14.2213 2.18812 14.3833 2.25326 14.5437C2.31812 14.704 2.38764 14.8625 2.46126 15.019C2.53488 15.1756 2.61288 15.33 2.69526 15.4821C2.77764 15.6346 2.86385 15.7843 2.95444 15.9318C3.04503 16.0793 3.13973 16.2241 3.23826 16.3664C3.33678 16.5087 3.43914 16.648 3.54533 16.7846C3.65152 16.9214 3.76154 17.055 3.87512 17.1856C3.9887 17.3161 4.10584 17.4434 4.22654 17.5673C4.34723 17.6913 4.47121 17.812 4.59848 17.9294C4.72602 18.0466 4.85629 18.1601 4.98985 18.2702C5.12341 18.3802 5.25998 18.4864 5.39956 18.589C5.53914 18.6914 5.68118 18.7902 5.82623 18.8846C5.97101 18.9793 6.11853 19.0699 6.26824 19.1564C6.41822 19.2429 6.57039 19.3252 6.72502 19.4032C6.87938 19.4815 7.03593 19.5551 7.19439 19.6246C7.35286 19.6942 7.51324 19.7593 7.67526 19.8198C7.83755 19.8805 8.00122 19.9366 8.16653 19.9881C8.33156 20.0398 8.49823 20.0866 8.666 20.129C8.83377 20.1715 9.00264 20.2092 9.1726 20.2424C9.34256 20.2755 9.51306 20.3037 9.68466 20.3275C9.85599 20.351 10.0281 20.3699 10.2006 20.3841C10.3733 20.3984 10.546 20.4077 10.7189 20.4123C10.8919 20.417 11.0649 20.4167 11.2381 20.4118C11.4111 20.4068 11.5838 20.3973 11.7562 20.3828C11.9289 20.3682 12.1008 20.3491 12.2721 20.325C12.4437 20.3012 12.6142 20.2725 12.7842 20.2391C12.9538 20.2057 13.1227 20.1676 13.2905 20.1249C13.4583 20.0822 13.6247 20.0352 13.7897 19.9832C13.955 19.9312 14.1184 19.8748 14.2804 19.814C14.4424 19.753 14.6028 19.6879 14.7613 19.6181C14.9195 19.5483 15.076 19.4741 15.2304 19.3958C15.3845 19.3176 15.5366 19.2349 15.6863 19.1482C15.836 19.0614 15.9833 18.9705 16.1281 18.8756C16.2728 18.7806 16.4149 18.6818 16.5542 18.5792C16.6935 18.4763 16.8298 18.3698 16.9634 18.2595C17.0966 18.1495 17.2269 18.0353 17.3539 17.9179C17.4812 17.8005 17.6049 17.6798 17.7253 17.5553C17.8457 17.431 17.9626 17.3035 18.0762 17.173C18.1895 17.0421 18.2992 16.9083 18.4051 16.7715C18.5113 16.6349 18.6134 16.495 18.7117 16.3527C18.8099 16.2104 18.9043 16.0654 18.9947 15.9176C19.0847 15.77 19.1709 15.6201 19.253 15.4676C19.3348 15.3152 19.4126 15.1605 19.4862 15.004C19.5595 14.8472 19.6288 14.6887 19.6934 14.5281C19.7582 14.3677 19.8184 14.2054 19.874 14.0417C19.9298 13.8778 19.981 13.7127 20.0275 13.5461C20.0743 13.3794 20.1162 13.2116 20.1537 13.0425C20.1909 12.8736 20.2238 12.7037 20.2517 12.5329C20.2796 12.3621 20.3029 12.1908 20.3215 12.0186C20.3398 11.8468 20.3535 11.6743 20.3625 11.5014C20.3716 11.3287 20.3757 11.1557 20.3751 10.9827C20.3746 10.8095 20.3694 10.6368 20.3593 10.4641C20.3491 10.2911 20.3343 10.119 20.3146 9.94682C20.2949 9.77495 20.2706 9.60389 20.2416 9.43311C20.2123 9.26261 20.1786 9.09292 20.1403 8.92433C20.1017 8.75546 20.0587 8.58797 20.0108 8.42157C19.9632 8.25544 19.911 8.09041 19.854 7.92702C19.7974 7.76363 19.7361 7.6016 19.6704 7.44177C19.6044 7.28166 19.5344 7.12347 19.4599 6.9672C19.3855 6.81092 19.3067 6.65711 19.2237 6.50522C19.1408 6.35332 19.0535 6.20389 18.9624 6.05692C18.8709 5.90967 18.7757 5.76544 18.6766 5.62367C18.5773 5.4819 18.4744 5.34287 18.3674 5.20685C18.2606 5.07055 18.1501 4.93754 18.0357 4.80754C17.9215 4.67754 17.8036 4.55082 17.6823 4.42739C17.5611 4.30396 17.4366 4.18381 17.3087 4.06722C17.1809 3.95063 17.0498 3.8376 16.9157 3.72812C16.7816 3.61865 16.6445 3.513 16.5047 3.41119C16.3648 3.30938 16.2219 3.21167 16.0766 3.11753C15.9313 3.02365 15.7835 2.93388 15.6332 2.84795C15.4827 2.76228 15.3303 2.68072 15.1754 2.60327C15.0205 2.52582 14.8636 2.45274 14.7049 2.38405C14.5459 2.31535 14.3852 2.25104 14.2229 2.19137C14.0606 2.13143 13.8967 2.07615 13.7311 2.02524C13.5655 1.97461 13.3989 1.92836 13.2308 1.88676C13.0628 1.84516 12.8939 1.80821 12.7237 1.77592C12.5537 1.74362 12.3829 1.71625 12.2113 1.69326C12.0397 1.67055 11.8676 1.65248 11.6952 1.63907C11.5225 1.62566 11.3498 1.61718 11.1765 1.61335C11.0036 1.60952 10.8306 1.61061 10.6576 1.61636C10.4846 1.6221 10.312 1.6325 10.1395 1.64783C9.96711 1.66316 9.79523 1.68314 9.62391 1.70777C9.45258 1.73267 9.28207 1.76223 9.11239 1.79644C8.9427 1.83038 8.77411 1.86924 8.60634 1.91276C8.43884 1.95628 8.27272 2.00444 8.10796 2.05699C7.94292 2.10981 7.77953 2.16701 7.61778 2.22859C7.45631 2.29017 7.2962 2.35641 7.13829 2.42674C6.9801 2.49735 6.82409 2.57207 6.67028 2.65117C6.5162 2.73026 6.36458 2.81373 6.21514 2.90104C6.06598 2.98862 5.91901 3.08031 5.77478 3.17582H6.26057C6.31203 3.17582 6.36293 3.18075 6.41329 3.19087C6.46365 3.20073 6.51264 3.21578 6.55999 3.23521C6.60761 3.25492 6.65249 3.279 6.69546 3.30774C6.73816 3.3362 6.77757 3.3685 6.81397 3.4049C6.85037 3.4413 6.88266 3.48071 6.91113 3.5234C6.93986 3.5661 6.96395 3.61126 6.98365 3.6586C7.00336 3.70623 7.01814 3.75522 7.02799 3.80557C7.03812 3.85593 7.04304 3.90684 7.04304 3.95802C7.04304 4.00947 7.03812 4.06038 7.02799 4.11073C7.01814 4.16109 7.00336 4.21008 6.98365 4.25743C6.96395 4.30505 6.93986 4.34994 6.91113 4.3929C6.88266 4.4356 6.85037 4.47501 6.81397 4.51141C6.77757 4.54754 6.73816 4.58011 6.69546 4.60857C6.65249 4.63731 6.60761 4.66139 6.55999 4.68082C6.51264 4.70053 6.46365 4.71531 6.41329 4.72543C6.36293 4.73556 6.31203 4.74049 6.26057 4.74049H3.91289C3.86144 4.74049 3.81053 4.73556 3.76018 4.72543C3.70982 4.71558 3.66083 4.7008 3.61321 4.6811C3.56586 4.66139 3.5207 4.63731 3.47801 4.60884C3.43531 4.58011 3.39563 4.54781 3.35923 4.51141C3.32283 4.47501 3.29053 4.4356 3.26207 4.3929C3.23333 4.35021 3.20925 4.30505 3.18954 4.2577C3.17011 4.21008 3.15506 4.16109 3.1452 4.11073C3.13508 4.06038 3.13015 4.00947 3.13015 3.95802V1.61116C3.13015 1.5597 3.13535 1.5088 3.1452 1.45844C3.15533 1.40808 3.17011 1.35909 3.18981 1.31174C3.20952 1.26412 3.2336 1.21924 3.26207 1.17654C3.29053 1.13357 3.3231 1.09416 3.3595 1.05776C3.39563 1.02164 3.43531 0.989068 3.47801 0.960605C3.5207 0.932142 3.56586 0.908057 3.61321 0.888352C3.66083 0.868646 3.70982 0.853867 3.76018 0.843741C3.81053 0.833615 3.86144 0.828688 3.91289 0.828688C3.96407 0.828688 4.01498 0.833615 4.06561 0.843741C4.11597 0.853867 4.16468 0.868646 4.21231 0.888352C4.25965 0.908057 4.30481 0.932142 4.34751 0.960605C4.3902 0.989068 4.42989 1.02164 4.46629 1.05776C4.50241 1.09416 4.53498 1.13357 4.56345 1.17654C4.59191 1.21924 4.61627 1.26412 4.6357 1.31174C4.6554 1.35909 4.67046 1.40808 4.68031 1.45844C4.69044 1.5088 4.69536 1.5597 4.69536 1.61116V2.0132C4.89953 1.87089 5.10836 1.73568 5.32156 1.60787C5.53476 1.47979 5.75234 1.35909 5.97375 1.24606C6.19544 1.13275 6.42068 1.02738 6.64921 0.929405C6.87801 0.831699 7.10982 0.741656 7.34465 0.65955C7.57947 0.577444 7.81703 0.503549 8.05678 0.43759C8.2968 0.371632 8.53874 0.314158 8.78259 0.264621C9.02645 0.215357 9.27167 0.174304 9.51826 0.141462C9.76485 0.108619 10.0123 0.0845351 10.2608 0.0686613C10.509 0.0527875 10.7575 0.0453979 11.0063 0.0464927C11.2551 0.0475874 11.5036 0.0571665 11.7518 0.0752297C11.9998 0.0930193 12.2472 0.119567 12.4935 0.154325C12.7398 0.189357 12.9848 0.232326 13.2281 0.284052C13.4717 0.335505 13.7131 0.395169 13.9523 0.463317C14.1915 0.531191 14.4282 0.607276 14.6625 0.691298C14.8967 0.775593 15.1277 0.867552 15.3554 0.967173C15.5834 1.06707 15.8076 1.17463 16.0282 1.28985C16.2488 1.4048 16.465 1.52741 16.6773 1.65714C16.8895 1.78714 17.0969 1.92398 17.3 2.06794C17.5028 2.2119 17.7004 2.3627 17.8931 2.52007C18.0857 2.67771 18.2727 2.84138 18.4541 3.01161C18.6356 3.18184 18.811 3.3581 18.9804 3.5401C19.1498 3.72237 19.3129 3.91012 19.4695 4.10334C19.626 4.29657 19.776 4.49499 19.9192 4.69834C20.0623 4.90196 20.1983 5.10996 20.3272 5.32262C20.4561 5.53555 20.5777 5.7523 20.6918 5.97344C20.8059 6.19431 20.9124 6.419 21.0112 6.64726C21.11 6.87551 21.2008 7.10678 21.284 7.34133C21.367 7.57588 21.442 7.81289 21.509 8.05236C21.5758 8.29184 21.6344 8.53351 21.685 8.77709C21.7353 9.02067 21.7775 9.26562 21.8112 9.51221C21.8448 9.75852 21.8703 10.0059 21.887 10.2539C21.9039 10.5021 21.9124 10.7506 21.9124 10.9994ZM17.9993 10.9994C17.9993 11.1146 17.9965 11.2296 17.9908 11.3448C17.9853 11.4598 17.9768 11.5747 17.9653 11.6894C17.9541 11.8041 17.9401 11.9185 17.9232 12.0326C17.9062 12.1464 17.8865 12.26 17.8641 12.3731C17.8416 12.4861 17.8162 12.5983 17.7882 12.7102C17.7603 12.8219 17.7294 12.933 17.696 13.0433C17.6626 13.1536 17.6265 13.2628 17.5876 13.3715C17.5488 13.4798 17.5074 13.5874 17.4631 13.6939C17.419 13.8003 17.3725 13.9057 17.3232 14.0097C17.2737 14.114 17.222 14.2169 17.1678 14.3184C17.1133 14.4202 17.0567 14.5204 16.9973 14.6192C16.9382 14.718 16.8763 14.8154 16.8123 14.9112C16.7482 15.007 16.682 15.1012 16.6133 15.1937C16.5446 15.2862 16.4737 15.377 16.4007 15.4663C16.3276 15.5552 16.2523 15.6425 16.1749 15.7279C16.0974 15.8133 16.018 15.8968 15.9365 15.978C15.8549 16.0596 15.7714 16.139 15.6861 16.2164C15.6007 16.2939 15.5134 16.3691 15.4244 16.4422C15.3352 16.5153 15.2443 16.5862 15.1518 16.6549C15.059 16.7236 14.9649 16.7898 14.8691 16.8538C14.7733 16.9179 14.6759 16.9795 14.5771 17.0386C14.4783 17.098 14.3778 17.1546 14.2763 17.2091C14.1745 17.2633 14.0716 17.3153 13.9676 17.3645C13.8633 17.4138 13.7579 17.4603 13.6515 17.5044C13.545 17.5485 13.4375 17.5901 13.3288 17.6289C13.2204 17.6678 13.1109 17.7039 13.0006 17.7373C12.8904 17.7707 12.7792 17.8013 12.6676 17.8295C12.5556 17.8575 12.4431 17.8826 12.3301 17.9051C12.2171 17.9275 12.1035 17.9472 11.9896 17.9642C11.8755 17.9812 11.7611 17.9954 11.6464 18.0066C11.5318 18.0178 11.4168 18.0263 11.3016 18.0321C11.1867 18.0375 11.0714 18.0405 10.9562 18.0405C10.8407 18.0405 10.7255 18.0375 10.6105 18.0321C10.4953 18.0263 10.3804 18.0178 10.2657 18.0066C10.151 17.9954 10.0366 17.9812 9.9225 17.9642C9.80864 17.9472 9.69506 17.9275 9.58203 17.9051C9.469 17.8826 9.35651 17.8575 9.24458 17.8295C9.13291 17.8013 9.0218 17.7707 8.9115 17.7373C8.8012 17.7039 8.69173 17.6678 8.58335 17.6289C8.4747 17.5901 8.36714 17.5485 8.26067 17.5044C8.15421 17.4603 8.04884 17.4138 7.94457 17.3645C7.84057 17.3153 7.73766 17.2633 7.63585 17.2091C7.53431 17.1546 7.43387 17.098 7.33507 17.0386C7.23627 16.9795 7.13883 16.9179 7.04304 16.8538C6.94725 16.7898 6.85311 16.7236 6.76033 16.6549C6.66782 16.5862 6.57696 16.5153 6.48773 16.4422C6.39879 16.3691 6.31148 16.2939 6.22609 16.2164C6.1407 16.139 6.05723 16.0596 5.97567 15.978C5.89411 15.8968 5.81474 15.8133 5.73729 15.7279C5.65983 15.6425 5.58457 15.5552 5.5115 15.4663C5.43842 15.377 5.36754 15.2862 5.29884 15.1937C5.23015 15.1012 5.16391 15.007 5.09987 14.9112C5.03583 14.8154 4.97425 14.718 4.91486 14.6192C4.85547 14.5204 4.79882 14.4202 4.74435 14.3184C4.69016 14.2169 4.63844 14.114 4.5889 14.0097C4.53963 13.9057 4.49311 13.8003 4.44904 13.6939C4.40471 13.5874 4.36338 13.4798 4.32452 13.3715C4.28565 13.2628 4.24953 13.1536 4.21614 13.0433C4.18275 12.933 4.15182 12.8219 4.12391 12.7102C4.09599 12.5983 4.07054 12.4861 4.04809 12.3731C4.02565 12.26 4.00595 12.1464 3.98898 12.0326C3.97201 11.9185 3.95805 11.8041 3.94683 11.6894C3.93534 11.5747 3.92685 11.4598 3.92138 11.3448C3.91563 11.2296 3.91289 11.1146 3.91289 10.9994C3.91289 10.8842 3.91563 10.769 3.92138 10.6538C3.92685 10.5388 3.93534 10.4239 3.94683 10.3092C3.95805 10.1945 3.97201 10.0801 3.98898 9.96625C4.00595 9.85213 4.02565 9.73855 4.04809 9.62551C4.07054 9.51248 4.09599 9.40027 4.12391 9.28833C4.15182 9.17667 4.18275 9.06555 4.21614 8.95526C4.24953 8.84496 4.28565 8.73576 4.32452 8.62711C4.36338 8.51873 4.40471 8.41117 4.44904 8.3047C4.49311 8.19824 4.53963 8.09287 4.5889 7.98887C4.63844 7.88459 4.69016 7.78169 4.74435 7.68015C4.79882 7.57861 4.85547 7.47817 4.91486 7.37937C4.97425 7.28057 5.03583 7.18314 5.09987 7.08735C5.16391 6.99156 5.23015 6.89741 5.29884 6.8049C5.36754 6.7124 5.43842 6.62153 5.5115 6.53231C5.58457 6.44336 5.65983 6.35606 5.73729 6.27067C5.81474 6.18528 5.89411 6.1018 5.97567 6.02052C6.05723 5.93896 6.1407 5.85959 6.22609 5.78214C6.31148 5.70468 6.39879 5.62942 6.48773 5.55635C6.57696 5.48327 6.66782 5.41239 6.76033 5.34369C6.85311 5.27527 6.94725 5.20876 7.04304 5.14472C7.13883 5.08068 7.23627 5.0191 7.33507 4.95998C7.43387 4.90059 7.53431 4.84394 7.63585 4.78948C7.73766 4.73529 7.84057 4.68356 7.94457 4.63402C8.04884 4.58476 8.15421 4.53823 8.26067 4.49417C8.36714 4.45011 8.4747 4.4085 8.58335 4.36964C8.69173 4.33078 8.8012 4.29465 8.9115 4.26126C9.0218 4.22787 9.13291 4.19722 9.24458 4.16903C9.35651 4.14111 9.469 4.11593 9.58203 4.09349C9.69506 4.07105 9.80864 4.05134 9.9225 4.03438C10.0366 4.01741 10.151 4.00345 10.2657 3.99195C10.3804 3.98073 10.4953 3.97225 10.6105 3.9665C10.7255 3.96103 10.8407 3.95802 10.9562 3.95802C11.0714 3.95829 11.1864 3.9613 11.3016 3.96705C11.4166 3.9728 11.5315 3.98128 11.6462 3.99278C11.7608 4.004 11.8752 4.01823 11.9891 4.03547C12.1032 4.05244 12.2165 4.07214 12.3296 4.09459C12.4426 4.1173 12.5551 4.14248 12.6667 4.17067C12.7784 4.19886 12.8895 4.22951 12.9998 4.26318C13.1101 4.29657 13.2193 4.33269 13.328 4.37156C13.4364 4.41042 13.5439 4.45202 13.6501 4.49608C13.7566 4.54042 13.8619 4.58695 13.9662 4.63621C14.0702 4.68575 14.1731 4.73748 14.2747 4.79194C14.3765 4.84613 14.4766 4.90306 14.5754 4.96217C14.6742 5.02156 14.7714 5.08314 14.8672 5.14718C14.963 5.21123 15.0571 5.27746 15.1499 5.34615C15.2424 5.41485 15.3333 5.48573 15.4222 5.55881C15.5112 5.63188 15.5985 5.70715 15.6839 5.78433C15.7693 5.86178 15.8527 5.94115 15.9343 6.02271C16.0156 6.10427 16.0952 6.18747 16.1724 6.27286C16.2499 6.35825 16.3251 6.44555 16.3982 6.5345C16.4713 6.62345 16.5421 6.71431 16.6108 6.80682C16.6795 6.89932 16.746 6.99347 16.8101 7.08926C16.8741 7.18505 16.9357 7.28221 16.9951 7.38101C17.0542 7.47981 17.1111 7.57998 17.1653 7.68152C17.2198 7.78333 17.2715 7.88596 17.3211 7.99024C17.3703 8.09424 17.4171 8.19961 17.4612 8.30607C17.5053 8.41226 17.5469 8.51982 17.5857 8.6282C17.6246 8.73658 17.6607 8.84606 17.6944 8.95608C17.7278 9.06637 17.7587 9.17749 17.7869 9.28915C17.8148 9.40082 17.8402 9.5133 17.8627 9.62606C17.8854 9.73909 17.9051 9.85267 17.9221 9.96653C17.939 10.0804 17.9533 10.1948 17.9648 10.3095C17.9763 10.4241 17.9847 10.5388 17.9905 10.654C17.9962 10.769 17.9993 10.8842 17.9993 10.9994ZM13.738 11.913L11.7387 10.5807V7.08762C11.7387 7.03617 11.7338 6.98526 11.7236 6.9349C11.7135 6.88454 11.6987 6.83556 11.679 6.78821C11.6593 6.74059 11.6352 6.6957 11.6068 6.65301C11.5783 6.61004 11.5457 6.57063 11.5093 6.53423C11.4732 6.4981 11.4335 6.46553 11.3908 6.43707C11.3481 6.4086 11.303 6.38452 11.2556 6.36481C11.208 6.34511 11.1593 6.33033 11.1087 6.3202C11.0583 6.31008 11.0074 6.30515 10.9562 6.30515C10.9048 6.30515 10.8539 6.31008 10.8035 6.3202C10.7531 6.33033 10.7041 6.34511 10.6565 6.36481C10.6092 6.38452 10.564 6.4086 10.5213 6.43707C10.4786 6.46553 10.4389 6.4981 10.4028 6.53423C10.3664 6.57063 10.3338 6.61004 10.3054 6.65301C10.2769 6.6957 10.2528 6.74059 10.2331 6.78821C10.2134 6.83556 10.1986 6.88454 10.1885 6.9349C10.1784 6.98526 10.1735 7.03617 10.1735 7.08762V10.9994C10.1735 11.0637 10.1814 11.1272 10.197 11.1896C10.2126 11.252 10.2359 11.3117 10.2662 11.3683C10.2966 11.4253 10.3333 11.4775 10.3765 11.5252C10.4201 11.5728 10.4685 11.6144 10.5219 11.6502L12.8698 13.2149C12.9125 13.2428 12.9577 13.2664 13.005 13.2855C13.0524 13.3044 13.1011 13.3189 13.1512 13.3285C13.2013 13.3378 13.2519 13.3424 13.3031 13.3422C13.3542 13.3419 13.4046 13.3364 13.4547 13.3263C13.5048 13.3159 13.5532 13.3008 13.6003 13.2811C13.6474 13.2614 13.6923 13.2374 13.7347 13.2089C13.7768 13.1804 13.8162 13.1479 13.8521 13.1117C13.8882 13.0756 13.9202 13.0362 13.9487 12.9938C13.9769 12.9513 14.001 12.9065 14.0204 12.8594C14.0401 12.812 14.0549 12.7636 14.065 12.7135C14.0749 12.6634 14.0801 12.6128 14.0801 12.5619C14.0803 12.5107 14.0754 12.4601 14.0656 12.41C14.056 12.3599 14.0415 12.3112 14.022 12.2641C14.0026 12.2168 13.9791 12.1719 13.9509 12.1292C13.9227 12.0865 13.8909 12.0471 13.8551 12.0107C13.8192 11.9743 13.7801 11.9417 13.738 11.913Z" fill="white"/>
</g>
</svg>
