<svg width="14" height="16" viewBox="0 0 14 16" fill="none" xmlns="http://www.w3.org/2000/svg">
<path d="M13.8756 15.0381L10.49 10.43C10.5765 10.3332 10.66 10.2337 10.7404 10.1314C10.8207 10.029 10.8979 9.92432 10.9718 9.81695C11.0458 9.70958 11.1163 9.59996 11.1835 9.48811C11.2506 9.37616 11.3143 9.26218 11.3744 9.14607C11.4346 9.02996 11.4911 8.91204 11.5439 8.7922C11.5969 8.67247 11.646 8.55103 11.6913 8.42811C11.7367 8.30507 11.7783 8.18076 11.816 8.05507C11.8536 7.92937 11.8875 7.8025 11.9175 7.67467C11.9473 7.54674 11.9732 7.41795 11.9952 7.28842C12.0171 7.15878 12.0351 7.02861 12.049 6.8978C12.063 6.76699 12.0729 6.63597 12.0788 6.50452C12.0846 6.37307 12.0864 6.24162 12.0842 6.11007C12.0819 5.97851 12.0756 5.84717 12.0652 5.71604C12.0549 5.58491 12.0405 5.45431 12.0221 5.32404C12.0037 5.19386 11.9813 5.06444 11.9549 4.93565C11.9285 4.80697 11.8982 4.67925 11.864 4.55249C11.8296 4.42573 11.7916 4.30025 11.7496 4.17604C11.7076 4.05173 11.6618 3.92901 11.6123 3.80768C11.5626 3.68646 11.5094 3.56694 11.4525 3.44913C11.3955 3.33132 11.335 3.21553 11.271 3.10165C11.2069 2.98789 11.1393 2.87625 11.0684 2.76685C10.9975 2.65735 10.9232 2.5504 10.8456 2.44579C10.7681 2.34119 10.6874 2.23924 10.6035 2.13997C10.5197 2.04069 10.4329 1.94418 10.3431 1.85054C10.2534 1.75691 10.1607 1.66637 10.0654 1.5787C9.97001 1.49114 9.87207 1.40677 9.77145 1.3256C9.67093 1.24443 9.56792 1.16656 9.46254 1.0921C9.35716 1.01764 9.24961 0.946698 9.13988 0.87927C9.03016 0.811841 8.91836 0.748034 8.80471 0.687848C8.69105 0.62777 8.57564 0.571419 8.45847 0.518797C8.3413 0.466175 8.22268 0.417494 8.10251 0.372648C7.98234 0.327802 7.86093 0.286897 7.73827 0.249933C7.61562 0.213077 7.49194 0.180161 7.36721 0.151293C7.24249 0.122426 7.11705 0.0977125 6.99078 0.0770472C6.86451 0.0564883 6.73782 0.0399773 6.61051 0.0275141C6.48331 0.0151575 6.3558 0.00695521 6.22808 0.00290736C6.10026 -0.00114052 5.97254 -0.00092746 5.84482 0.00333345C5.7171 0.00770087 5.58958 0.0161162 5.46238 0.0287924C5.33507 0.041362 5.20839 0.0581926 5.08222 0.0790711C4.95605 0.0999495 4.83061 0.124982 4.70599 0.154063C4.58127 0.183144 4.45769 0.216272 4.33503 0.253449C4.21248 0.290625 4.09118 0.331849 3.97111 0.376909C3.85104 0.421968 3.73242 0.470968 3.61536 0.523803C3.49829 0.576639 3.38298 0.633309 3.26943 0.693707C3.15588 0.753999 3.04429 0.818019 2.93467 0.885767C2.82505 0.953409 2.7177 1.02457 2.61242 1.09924C2.50725 1.17391 2.40445 1.25199 2.30403 1.33338C2.20361 1.41476 2.10578 1.49934 2.01053 1.58711C1.91539 1.67489 1.82294 1.76575 1.73338 1.85949C1.64371 1.95334 1.55716 2.04995 1.47349 2.14945C1.38983 2.24894 1.30937 2.35109 1.23201 2.45581C1.15466 2.56052 1.08061 2.66768 1.00987 2.77729C0.939136 2.8868 0.871812 2.99865 0.808004 3.11262C0.744092 3.2265 0.683903 3.3425 0.627128 3.46042C0.570455 3.57834 0.517402 3.69797 0.468073 3.8193C0.418743 3.94063 0.373239 4.06355 0.331459 4.18786C0.289782 4.31218 0.251828 4.43777 0.217804 4.56464C0.18378 4.6914 0.153789 4.81922 0.127624 4.94801C0.10146 5.0768 0.0793289 5.20633 0.0612309 5.3365C0.0430295 5.46678 0.0289648 5.59748 0.01883 5.72861C0.00879856 5.85974 0.002697 5.99108 0.00073207 6.12264C-0.00123286 6.25419 0.00073207 6.38564 0.00693708 6.51709C0.0130387 6.64843 0.0231735 6.77956 0.0373416 6.91026C0.0515097 7.04107 0.0697111 7.17125 0.0919457 7.30078C0.11418 7.43031 0.140345 7.55899 0.170542 7.68682C0.200637 7.81475 0.234764 7.94141 0.272718 8.0671C0.310672 8.19269 0.352453 8.3169 0.398059 8.43983C0.443666 8.56275 0.493099 8.68398 0.546152 8.80371C0.599309 8.92333 0.655981 9.04115 0.716376 9.15715C0.776772 9.27305 0.84058 9.38692 0.908008 9.49877C0.975435 9.61051 1.04617 9.72001 1.12032 9.82718C1.19447 9.93434 1.27183 10.0391 1.35239 10.1411C1.43295 10.2433 1.51662 10.3426 1.60338 10.4393C1.69005 10.536 1.7796 10.6296 1.87216 10.7205C1.96462 10.8112 2.05986 10.8989 2.1577 10.9835C2.25563 11.0681 2.35605 11.1494 2.45895 11.2274C2.56185 11.3055 2.66702 11.3801 2.77458 11.4512C2.88213 11.5224 2.99165 11.5899 3.10334 11.6539C3.21503 11.7178 3.32858 11.7781 3.44399 11.8348C3.5593 11.8914 3.67637 11.9441 3.79499 11.993C3.91361 12.042 4.03368 12.0869 4.15509 12.1281C4.2765 12.1692 4.39905 12.2063 4.52284 12.2394C4.64653 12.2724 4.77114 12.3015 4.89659 12.3264C5.02214 12.3513 5.1482 12.3722 5.27499 12.3888C5.40178 12.4056 5.52898 12.4181 5.65649 12.4265C5.78411 12.435 5.91173 12.4392 6.03955 12.4392C6.16737 12.4393 6.29509 12.4352 6.42261 12.427C6.55022 12.4187 6.67742 12.4062 6.80421 12.3897C6.931 12.3731 7.05717 12.3524 7.18262 12.3276C7.30816 12.3028 7.43278 12.2738 7.55657 12.2409C7.68026 12.2079 7.80291 12.1709 7.92432 12.13C8.04573 12.089 8.1659 12.0441 8.28452 11.9953C8.40324 11.9464 8.52031 11.8938 8.63573 11.8374C8.75124 11.7809 8.86479 11.7207 8.97648 11.6569C9.08828 11.593 9.1979 11.5256 9.30545 11.4545C9.41311 11.3835 9.51839 11.3089 9.62139 11.231L12.9488 15.7607C12.9603 15.7765 12.9726 15.7916 12.9855 15.8061C12.9986 15.8206 13.0122 15.8343 13.0265 15.8474C13.0408 15.8605 13.0557 15.8729 13.0711 15.8845C13.0866 15.8961 13.1026 15.907 13.1191 15.917C13.1356 15.9269 13.1526 15.936 13.1699 15.9443C13.1873 15.9527 13.205 15.96 13.2231 15.9665C13.2412 15.973 13.2595 15.9785 13.2781 15.9831C13.2967 15.9878 13.3155 15.9914 13.3345 15.9942C13.3534 15.9969 13.3725 15.9987 13.3916 15.9995C13.4107 16.0003 13.4298 16.0002 13.449 15.999C13.4681 15.9978 13.4871 15.9958 13.506 15.9927C13.525 15.9896 13.5437 15.9857 13.5622 15.9807C13.5807 15.9758 13.599 15.9699 13.6169 15.9631C13.6349 15.9563 13.6525 15.9486 13.6697 15.9401C13.687 15.9315 13.7038 15.9221 13.7201 15.9118C13.7364 15.9015 13.7523 15.8904 13.7676 15.8786C13.7829 15.8667 13.7976 15.8541 13.8116 15.8407C13.8257 15.8274 13.8391 15.8133 13.8519 15.7986C13.8646 15.7839 13.8766 15.7686 13.8879 15.7527C13.8991 15.7367 13.9097 15.7203 13.9193 15.7033C13.929 15.6864 13.9379 15.6689 13.946 15.651C13.954 15.6331 13.9612 15.6149 13.9675 15.5962C13.9738 15.5777 13.9792 15.5587 13.9836 15.5396C13.9882 15.5205 13.9918 15.5011 13.9944 15.4816C13.9971 15.4621 13.9987 15.4425 13.9995 15.4228C14.0003 15.4031 14.0002 15.3834 13.999 15.3637C13.998 15.3441 13.9959 15.3245 13.9929 15.305C13.99 15.2856 13.9861 15.2663 13.9813 15.2473C13.9765 15.2281 13.9708 15.2093 13.9642 15.1908C13.9576 15.1724 13.9501 15.1543 13.9418 15.1365C13.9335 15.1187 13.9244 15.1014 13.9143 15.0846C13.9044 15.0678 13.8936 15.0516 13.8821 15.0358L13.8756 15.0381ZM0.979262 6.21883C0.979262 6.1335 0.98133 6.04828 0.985364 5.96307C0.989397 5.87785 0.995498 5.79274 1.00356 5.70784C1.01173 5.62294 1.02187 5.53825 1.03397 5.45389C1.04617 5.36941 1.06034 5.28537 1.07647 5.20175C1.09261 5.11802 1.11081 5.03483 1.13087 4.95206C1.15104 4.86929 1.17317 4.78705 1.19716 4.70546C1.22126 4.62376 1.24721 4.5428 1.27514 4.46237C1.30306 4.38206 1.33284 4.30248 1.36459 4.22366C1.39634 4.14483 1.42985 4.06685 1.46532 3.98973C1.50079 3.91261 1.53802 3.83634 1.57701 3.76113C1.6161 3.68593 1.65695 3.61168 1.69956 3.5385C1.74217 3.46532 1.78653 3.39321 1.83255 3.32226C1.87857 3.25132 1.92635 3.18154 1.97568 3.11305C2.02501 3.04445 2.076 2.97723 2.12864 2.9113C2.18117 2.84536 2.23536 2.7807 2.291 2.71753C2.34664 2.65426 2.40372 2.59247 2.46236 2.53218C2.521 2.47178 2.58098 2.41298 2.64241 2.35567C2.70384 2.29836 2.76661 2.24265 2.83063 2.18854C2.89475 2.13443 2.96 2.08191 3.0266 2.0311C3.0932 1.98029 3.16094 1.93118 3.22992 1.88378C3.2988 1.83627 3.36881 1.79068 3.43986 1.74679C3.51101 1.7029 3.58309 1.66093 3.65621 1.62067C3.72932 1.5804 3.80337 1.54205 3.87824 1.50562C3.95322 1.46909 4.02892 1.43457 4.10555 1.40187C4.18208 1.36927 4.25944 1.33849 4.33741 1.30973C4.41549 1.28097 4.49419 1.25423 4.57351 1.22952C4.65283 1.2047 4.73267 1.18201 4.81313 1.16124C4.89348 1.14046 4.97436 1.12182 5.05564 1.1051C5.13693 1.08848 5.21863 1.07389 5.30064 1.06142C5.38265 1.04885 5.46486 1.03841 5.54739 1.03C5.62981 1.02169 5.71244 1.01541 5.79528 1.01125C5.87812 1.00699 5.96095 1.00486 6.04379 1.00486C6.12673 1.00486 6.20957 1.00699 6.2923 1.01114C6.37514 1.01541 6.45777 1.02158 6.54029 1.03C6.62282 1.03831 6.70504 1.04875 6.78705 1.06132C6.86906 1.07378 6.95065 1.08837 7.03194 1.10499C7.11322 1.12172 7.1941 1.14036 7.27455 1.16113C7.35491 1.18179 7.43485 1.20459 7.51417 1.2293C7.59349 1.25412 7.67219 1.28086 7.75017 1.30962C7.82825 1.33838 7.9056 1.36906 7.98213 1.40166C8.05876 1.43436 8.13446 1.46887 8.20944 1.50541C8.28442 1.54184 8.35836 1.58019 8.43148 1.62045C8.50459 1.66061 8.57667 1.70269 8.64783 1.74658C8.71887 1.79046 8.78889 1.83606 8.85786 1.88346C8.92674 1.93086 8.99448 1.97997 9.06108 2.03078C9.12768 2.08159 9.19304 2.13411 9.25705 2.18822C9.32117 2.24233 9.38395 2.29805 9.44538 2.35535C9.50681 2.41266 9.56679 2.47146 9.62542 2.53186C9.68396 2.59215 9.74115 2.65394 9.79679 2.71711C9.85253 2.78038 9.90661 2.84493 9.95915 2.91087C10.0118 2.97691 10.0628 3.04413 10.1121 3.11262C10.1615 3.18123 10.2092 3.25089 10.2553 3.32184C10.3014 3.39278 10.3457 3.4649 10.3883 3.53808C10.4309 3.61126 10.4718 3.6854 10.5109 3.76071C10.5499 3.83591 10.5872 3.91218 10.6226 3.98931C10.658 4.06643 10.6917 4.1444 10.7233 4.22323C10.755 4.30206 10.7849 4.38163 10.8129 4.46195C10.8408 4.54227 10.8667 4.62333 10.8908 4.70493C10.9148 4.78663 10.937 4.86876 10.9571 4.95153C10.9772 5.03429 10.9954 5.11759 11.0115 5.20121C11.0278 5.28494 11.0419 5.36899 11.054 5.45335C11.0662 5.53772 11.0764 5.62241 11.0844 5.7073C11.0926 5.7922 11.0987 5.87731 11.1027 5.96253C11.1068 6.04775 11.1088 6.13297 11.1088 6.21829C11.1088 6.30362 11.1068 6.38894 11.1027 6.47416C11.0986 6.55938 11.0925 6.64449 11.0844 6.72939C11.0763 6.81429 11.0661 6.89897 11.0539 6.98334C11.0418 7.06771 11.0277 7.15175 11.0114 7.23548C10.9953 7.3191 10.9771 7.4024 10.9569 7.48506C10.9369 7.56783 10.9147 7.65007 10.8906 7.73177C10.8665 7.81336 10.8406 7.89432 10.8126 7.97475C10.7847 8.05507 10.7548 8.13464 10.7232 8.21346C10.6914 8.29229 10.6578 8.37027 10.6224 8.44739C10.587 8.52451 10.5497 8.60067 10.5106 8.67599C10.4715 8.75119 10.4306 8.82544 10.388 8.89862C10.3454 8.9718 10.301 9.04381 10.255 9.11475C10.209 9.1857 10.1612 9.25547 10.1119 9.32396C10.0625 9.39246 10.0115 9.45967 9.95894 9.52572C9.9063 9.59165 9.85222 9.65621 9.79648 9.71938C9.74084 9.78265 9.68365 9.84443 9.62501 9.90473C9.56648 9.96502 9.50639 10.0238 9.44496 10.0811C9.38353 10.1384 9.32076 10.1941 9.25674 10.2483C9.19263 10.3024 9.12726 10.3549 9.06077 10.4057C8.99417 10.4565 8.92633 10.5056 8.85745 10.553C8.78847 10.6004 8.71846 10.646 8.64741 10.6899C8.57626 10.7338 8.50418 10.7758 8.43106 10.816C8.35795 10.8562 8.2839 10.8945 8.20903 10.9311C8.13405 10.9675 8.05825 11.002 7.98172 11.0347C7.90509 11.0673 7.82783 11.098 7.74975 11.1268C7.67167 11.1555 7.59297 11.1823 7.51365 11.207C7.43433 11.2318 7.35449 11.2545 7.27404 11.2752C7.19368 11.2959 7.11281 11.3147 7.03152 11.3313C6.95024 11.3479 6.86854 11.3625 6.78653 11.375C6.70452 11.3875 6.6223 11.3979 6.53978 11.4063C6.45735 11.4146 6.37462 11.4209 6.29189 11.425C6.20905 11.4292 6.12621 11.4313 6.04338 11.4313C5.96044 11.4313 5.8776 11.4292 5.79487 11.425C5.71213 11.4208 5.6295 11.4145 5.54698 11.4062C5.46455 11.3977 5.38234 11.3873 5.30033 11.3747C5.21832 11.3623 5.13672 11.3477 5.05544 11.331C4.97415 11.3143 4.89328 11.2957 4.81292 11.2749C4.73257 11.2542 4.65273 11.2315 4.57341 11.2066C4.49409 11.1819 4.41539 11.1552 4.33741 11.1264C4.25933 11.0977 4.18208 11.067 4.10555 11.0343C4.02892 11.0017 3.95322 10.9671 3.87835 10.9306C3.80337 10.8941 3.72942 10.8558 3.65631 10.8156C3.58319 10.7753 3.51111 10.7334 3.44006 10.6895C3.36902 10.6456 3.299 10.6 3.23003 10.5526C3.16115 10.5052 3.09341 10.4561 3.02691 10.4053C2.96031 10.3545 2.89495 10.3021 2.83094 10.2479C2.76682 10.1937 2.70415 10.1381 2.64272 10.0808C2.58129 10.0235 2.52131 9.9647 2.46267 9.90441C2.40414 9.84411 2.34695 9.78233 2.29131 9.71906C2.23567 9.65589 2.18159 9.59134 2.12895 9.5254C2.07641 9.45946 2.02543 9.39224 1.9761 9.32375C1.92666 9.25515 1.87899 9.18548 1.83297 9.11454C1.78695 9.0436 1.74258 8.97159 1.69997 8.89841C1.65737 8.82522 1.61652 8.75108 1.57742 8.67577C1.53844 8.60057 1.5011 8.5244 1.46573 8.44728C1.43026 8.37016 1.39665 8.29229 1.36501 8.21346C1.33326 8.13464 1.30337 8.05507 1.27545 7.97475C1.24753 7.89443 1.22157 7.81347 1.19747 7.73187C1.17348 7.65017 1.15135 7.56804 1.13118 7.48527C1.11101 7.40251 1.09292 7.31931 1.07668 7.23569C1.06055 7.15207 1.04638 7.06803 1.03418 6.98366C1.02197 6.89929 1.01184 6.81461 1.00377 6.72971C0.995602 6.64481 0.9895 6.55981 0.985467 6.47459C0.98133 6.38937 0.979262 6.30415 0.979262 6.21883Z" fill="#F7F7F7"/>
</svg>
