<svg width="29" height="22" viewBox="0 0 29 22" fill="none" xmlns="http://www.w3.org/2000/svg">
<path d="M23.571 21.5216C23.2128 21.5216 22.9216 21.2306 22.9216 20.8727V1.08279C22.9216 0.725246 23.2128 0.434082 23.571 0.434082H27.4918C27.85 0.434082 28.1412 0.725246 28.1412 1.08279V20.8727C28.1412 21.2306 27.85 21.5216 27.4918 21.5216H23.571Z" fill="white"/>
<mask id="mask0_232_1106" style="mask-type:luminance" maskUnits="userSpaceOnUse" x="22" y="0" width="7" height="22">
<path d="M22.4778 0H28.5854V22H22.4778V0Z" fill="white"/>
</mask>
<g mask="url(#mask0_232_1106)">
<path d="M27.4917 0.872829C27.6073 0.872829 27.7016 0.9668 27.7016 1.08252V20.8724C27.7016 20.988 27.6076 21.0821 27.4917 21.0821H23.5709C23.4552 21.0821 23.361 20.9882 23.361 20.8724V1.08252C23.361 0.967125 23.455 0.872829 23.5709 0.872829H27.4917ZM27.4917 -0.00537109H23.5709C22.9697 -0.00537109 22.4822 0.481688 22.4822 1.08252V20.8724C22.4822 21.4731 22.9694 21.9603 23.5709 21.9603H27.4917C28.0929 21.9603 28.5804 21.4734 28.5804 20.8724V1.08252C28.5804 0.481688 28.093 -0.00537109 27.4917 -0.00537109Z" fill="white"/>
</g>
<path d="M16.0745 21.5661C15.7165 21.5661 15.4253 21.2753 15.4253 20.9174V6.14822C15.4253 5.79051 15.7165 5.49951 16.0745 5.49951H20.0203C20.3785 5.49951 20.6695 5.79051 20.6695 6.14822V20.9174C20.6695 21.2753 20.3785 21.5661 20.0203 21.5661H16.0745Z" fill="white"/>
<mask id="mask1_232_1106" style="mask-type:luminance" maskUnits="userSpaceOnUse" x="14" y="5" width="8" height="17">
<path d="M14.9575 5.04834H21.1483V22H14.9575V5.04834Z" fill="white"/>
</mask>
<g mask="url(#mask1_232_1106)">
<path d="M20.0203 5.93826C20.1358 5.93826 20.2301 6.03223 20.2301 6.14795V20.9172C20.2301 21.0327 20.1362 21.1269 20.0203 21.1269H16.0743C15.9587 21.1269 15.8644 21.0329 15.8644 20.9172V6.14795C15.8644 6.03255 15.9586 5.93826 16.0743 5.93826H20.0203ZM20.0203 5.06006H16.0743C15.4731 5.06006 14.9856 5.54712 14.9856 6.14795V20.9172C14.9856 21.5178 15.473 22.0051 16.0743 22.0051H20.0203C20.6214 22.0051 21.109 21.5182 21.109 20.9172V6.14795C21.109 5.54728 20.6216 5.06006 20.0203 5.06006Z" fill="white"/>
</g>
<path d="M8.5906 21.5663C8.23273 21.5663 7.94141 21.2755 7.94141 20.9176V11.5276C7.94141 11.1699 8.23257 10.8789 8.5906 10.8789H12.5366C12.8944 10.8789 13.1859 11.1697 13.1859 11.5276V20.9176C13.1859 21.2755 12.8948 21.5663 12.5366 21.5663H8.5906Z" fill="white"/>
<mask id="mask2_232_1106" style="mask-type:luminance" maskUnits="userSpaceOnUse" x="7" y="10" width="7" height="12">
<path d="M7.47876 10.4082H13.6279V22.0001H7.47876V10.4082Z" fill="white"/>
</mask>
<g mask="url(#mask2_232_1106)">
<path d="M12.5366 11.3183C12.6522 11.3183 12.7465 11.4123 12.7465 11.5278V20.9176C12.7465 21.0332 12.6525 21.1273 12.5366 21.1273H8.59066C8.4751 21.1273 8.3808 21.0334 8.3808 20.9176V11.5278C8.3808 11.4124 8.47494 11.3183 8.59066 11.3183H12.5366ZM12.5366 10.4399H8.59066C7.9895 10.4399 7.50195 10.927 7.50195 11.5278V20.9176C7.50195 21.5183 7.98934 22.0055 8.59066 22.0055H12.5366C13.1378 22.0055 13.6253 21.5186 13.6253 20.9176V11.5278C13.6253 10.927 13.1378 10.4399 12.5366 10.4399Z" fill="white"/>
</g>
<path d="M1.10672 21.5214C0.748846 21.5214 0.45752 21.2304 0.45752 20.8725V16.5706C0.45752 16.2127 0.748684 15.9219 1.10672 15.9219H5.05269C5.41072 15.9219 5.70205 16.2127 5.70205 16.5706V20.8725C5.70205 21.2304 5.41089 21.5214 5.05269 21.5214H1.10672Z" fill="white"/>
<mask id="mask3_232_1106" style="mask-type:luminance" maskUnits="userSpaceOnUse" x="0" y="15" width="7" height="7">
<path d="M0 15.4771H6.14919V22H0V15.4771Z" fill="white"/>
</mask>
<g mask="url(#mask3_232_1106)">
<path d="M5.0525 16.3611C5.16806 16.3611 5.26235 16.4551 5.26235 16.5708V20.8727C5.26235 20.9883 5.16822 21.0824 5.0525 21.0824H1.10652C0.990967 21.0824 0.896672 20.9884 0.896672 20.8727V16.5708C0.896672 16.4554 0.990643 16.3611 1.10652 16.3611H5.0525ZM5.0525 15.4829H1.10652C0.505369 15.4829 0.0178223 15.97 0.0178223 16.5708V20.8727C0.0178223 21.4734 0.505206 21.9606 1.10652 21.9606H5.0525C5.65366 21.9606 6.1412 21.4737 6.1412 20.8727V16.5708C6.1412 15.97 5.65382 15.4829 5.0525 15.4829Z" fill="white"/>
</g>
</svg>
