<svg width="281" height="126" viewBox="0 0 281 126" fill="none" xmlns="http://www.w3.org/2000/svg">
<path d="M278 3C278 3 253.5 84.0838 244.5 77.5838C239.298 71.2195 226.859 13.5583 218.5 24.5C210.141 35.4417 195.758 91.9846 190 77.5838C184.242 63.1829 183.961 48.4361 174 49.5C164.039 50.5639 158.934 90.3086 147.495 88.4355C136.055 86.5624 129.027 57.6191 122.5 67.5C115.973 77.3809 109.347 106.938 103.743 95.6776C98.1394 84.4176 89.6305 88.5084 83.5 88.4355C77.3695 88.3627 75.5734 104.643 66.936 107.664C58.2986 110.685 52.5219 105.523 52.5219 105.523C52.5219 105.523 41.0579 91.2804 36.1519 92.2509C31.246 93.2214 20.4643 102.304 17.612 107.664C14.7597 113.024 6.10532 123.541 2.5 123.5" stroke="#00A7FF" stroke-width="5" stroke-linecap="round" stroke-linejoin="round"/>
</svg>
