<svg width="22" height="22" viewBox="0 0 22 22" fill="none" xmlns="http://www.w3.org/2000/svg">
<mask id="mask0_232_549" style="mask-type:luminance" maskUnits="userSpaceOnUse" x="0" y="0" width="22" height="22">
<path d="M0 0H22V22H0V0Z" fill="white"/>
</mask>
<g mask="url(#mask0_232_549)">
<path d="M11 21.2857C5.32878 21.2857 0.714461 16.6713 0.714461 11C0.714461 5.32818 5.32878 0.714461 11 0.714461C16.6713 0.714461 21.2857 5.32818 21.2857 11C21.2857 16.6713 16.6713 21.2857 11 21.2857ZM11 0C4.93453 0 0 4.93453 0 11C0 17.0655 4.93453 22 11 22C17.0655 22 22 17.0655 22 11C22 4.93453 17.0655 0 11 0Z" fill="white"/>
</g>
<path d="M13.5646 7.43318C13.5646 6.0175 12.4176 4.87061 11.0019 4.87061C9.58682 4.87061 8.43921 6.0175 8.43921 7.43318C8.43921 8.84839 9.58682 9.99587 11.0019 9.99587C12.4176 9.99587 13.5646 8.84839 13.5646 7.43318Z" fill="white"/>
<path d="M14.4233 12.1194C14.3947 12.1481 14.3673 12.1784 14.3379 12.2059C14.145 12.3841 13.9277 12.5428 13.6923 12.6763C13.5072 12.7828 13.3079 12.8372 13.1033 12.8372C13.0873 12.8372 13.0707 12.8372 13.0541 12.8361C12.9899 12.8338 12.924 12.8332 12.8588 12.8332C12.8077 12.8561 12.7408 12.8871 12.6903 12.9106C12.468 13.1844 12.1598 13.3695 11.781 13.4542C11.6332 13.4875 11.4872 13.5035 11.3457 13.5035C10.9234 13.5035 10.5442 13.362 10.2181 13.0819C9.90703 12.8166 9.72777 12.4391 9.72718 12.0484C9.72658 11.6565 9.90479 11.2777 10.2159 11.0068C7.72191 11.3665 5.64794 13.4359 4.8241 16.2088C4.64649 16.8059 5.10316 17.4046 5.72586 17.4046H16.2773C16.9081 17.4046 17.3555 16.795 17.1745 16.1911C16.6646 14.489 15.6831 13.0549 14.4233 12.1194Z" fill="white"/>
<path d="M7.6433 9.65512C7.89872 9.666 8.05753 9.51535 8.05753 9.25875C8.05753 8.43597 8.05292 7.61272 8.06096 6.79053C8.06143 6.58998 7.99155 6.45542 7.81169 6.37867L7.79856 6.37347L7.78875 6.36945L7.79454 6.35739C8.31354 5.05748 9.64041 4.02966 11.2401 4.14258C12.768 4.25137 13.8393 5.36339 14.2135 6.37347C14.0181 6.4417 13.943 6.58147 13.9442 6.78427C13.9482 7.61615 13.9454 8.44803 13.9464 9.27991C13.9464 9.50104 14.1057 9.6563 14.3286 9.65512C14.4008 9.65512 14.4724 9.6466 14.5532 9.64199C14.4712 10.1066 14.3075 10.5305 14.0519 10.9173C13.8943 11.1545 13.7092 11.3648 13.4921 11.5434C13.4211 11.6024 13.3472 11.6575 13.2682 11.7108C13.1874 11.7647 13.1026 11.7955 13.0012 11.7909C12.8298 11.7841 12.6586 11.7881 12.4878 11.7905C12.4449 11.7905 12.423 11.7784 12.4071 11.7371C12.3566 11.6157 12.2798 11.512 12.1819 11.4238C11.7425 11.0313 11.0188 11.0238 10.5738 11.4089C10.1664 11.7589 10.1612 12.3249 10.5685 12.6727C10.8865 12.9454 11.2595 13.0176 11.6634 12.9283C12.0009 12.8532 12.2603 12.6699 12.4093 12.3485C12.43 12.3032 12.4524 12.2946 12.4953 12.2957C12.6895 12.2969 12.8837 12.2899 13.0763 12.298C13.2057 12.3032 13.318 12.27 13.4269 12.2075C13.6285 12.0929 13.8089 11.9606 13.9722 11.8093C14.2381 11.5641 14.4557 11.2719 14.6357 10.9465C14.8913 10.4858 15.0327 9.98917 15.0929 9.46899C15.0975 9.42772 15.1136 9.40301 15.1444 9.38066C15.357 9.22836 15.5123 9.02899 15.6211 8.79296C15.7827 8.44283 15.8216 8.07448 15.7643 7.69691C15.6944 7.23231 15.4882 6.84209 15.0842 6.57745C15.0596 6.56078 15.0465 6.54197 15.0391 6.51324C14.8764 5.9713 14.6254 5.47348 14.2696 5.0317C13.5237 4.10699 12.5686 3.55642 11.3769 3.44184C10.4489 3.35244 9.58779 3.56387 8.80344 4.06407C7.89364 4.64609 7.29317 5.46603 6.97413 6.49491C6.96148 6.53736 6.93972 6.56657 6.90306 6.58998C6.71859 6.71095 6.57019 6.8668 6.46365 7.05931C6.17548 7.57204 6.14627 8.11114 6.32778 8.6623C6.5249 9.26501 7.01303 9.62934 7.6433 9.65512Z" fill="white"/>
</svg>
