<svg width="23" height="23" viewBox="0 0 23 23" fill="none" xmlns="http://www.w3.org/2000/svg">
<path d="M20.8899 5.9227C20.8775 5.90033 20.8629 5.87916 20.8463 5.8595C20.8299 5.83985 20.8116 5.82206 20.7916 5.80597C20.7715 5.78987 20.7501 5.77581 20.7274 5.76395C20.7045 5.75192 20.6808 5.74227 20.6562 5.73498C20.6317 5.7277 20.6064 5.72278 20.5809 5.72041C20.5553 5.71804 20.5299 5.71804 20.5043 5.72058C20.4787 5.72312 20.4536 5.7282 20.4291 5.73566C20.4043 5.74311 20.3808 5.75277 20.3581 5.7648C20.3354 5.777 20.314 5.79106 20.294 5.80732C20.2742 5.82342 20.2559 5.84137 20.2395 5.8612C20.223 5.88102 20.2086 5.90203 20.1963 5.92473C20.1841 5.94726 20.1739 5.97081 20.1663 5.99521C20.1585 6.01977 20.1531 6.04484 20.1502 6.07026C20.1473 6.09584 20.147 6.12142 20.149 6.147C20.1512 6.17275 20.1558 6.19783 20.1627 6.22256C20.1697 6.2473 20.179 6.27118 20.1907 6.29406C23.8316 12.9913 18.7159 21.4858 11.0835 21.3889C10.9151 21.3887 10.7467 21.3845 10.5787 21.376C10.4104 21.3676 10.2425 21.355 10.075 21.3382C9.90744 21.3216 9.7404 21.3008 9.57386 21.2759C9.40732 21.2512 9.24163 21.2222 9.07645 21.1892C8.91127 21.1561 8.74711 21.119 8.58379 21.078C8.42047 21.037 8.25834 20.992 8.09723 20.9428C7.93611 20.8939 7.77635 20.841 7.61778 20.7841C7.45937 20.7272 7.30232 20.6665 7.1468 20.602C6.99127 20.5374 6.83744 20.469 6.68531 20.397C6.533 20.3248 6.38273 20.2491 6.23432 20.1696C6.08574 20.09 5.93937 20.007 5.79502 19.9204C5.65051 19.8337 5.50837 19.7435 5.36843 19.6498C5.22849 19.5562 5.09093 19.4592 4.95556 19.3588C4.82037 19.2585 4.68772 19.1548 4.5576 19.0479C4.42749 18.941 4.29992 18.8309 4.17523 18.7177C4.05054 18.6047 3.92856 18.4885 3.80946 18.3694C3.69036 18.2503 3.57431 18.1283 3.46131 18.0035C3.34814 17.8786 3.23819 17.751 3.13145 17.6209C3.02455 17.4906 2.92104 17.3578 2.82058 17.2226C2.72028 17.0872 2.62337 16.9495 2.52969 16.8096C2.43617 16.6695 2.34604 16.5272 2.25947 16.3826C2.1729 16.2383 2.08988 16.0918 2.01043 15.9432C1.93097 15.7946 1.85524 15.6442 1.78307 15.4919C1.71107 15.3397 1.64279 15.1857 1.57824 15.03C1.5137 14.8745 1.45304 14.7173 1.39629 14.5587C1.33937 14.4001 1.28651 14.2402 1.23755 14.0791C1.18842 13.918 1.14352 13.7557 1.10252 13.5922C1.06135 13.4289 1.02442 13.2645 0.991385 13.0994C0.958348 12.934 0.929548 12.7681 0.904643 12.6014C0.879739 12.4349 0.85907 12.2677 0.842298 12.1001C0.825695 11.9324 0.813158 11.7645 0.804688 11.5961C0.796217 11.4279 0.791981 11.2595 0.791812 11.0911C0.69643 3.45396 9.18369 -1.6648 15.8779 1.97885C15.9007 1.99104 15.9248 2.00087 15.9497 2.00832C15.9746 2.01578 15.9998 2.02069 16.0258 2.02323C16.0517 2.02561 16.0776 2.02561 16.1033 2.02289C16.1293 2.02035 16.1547 2.0151 16.1794 2.00748C16.2043 1.99985 16.2282 1.98986 16.2511 1.97766C16.2739 1.96529 16.2955 1.95089 16.3155 1.93429C16.3354 1.91769 16.3537 1.89939 16.3702 1.87923C16.3866 1.85907 16.4008 1.83738 16.413 1.81451C16.4252 1.79147 16.4351 1.76758 16.4425 1.74268C16.45 1.71778 16.4549 1.69236 16.4574 1.66644C16.46 1.64052 16.4598 1.6146 16.4573 1.58885C16.4545 1.56293 16.4495 1.53752 16.4418 1.51261C16.4342 1.48788 16.4242 1.46399 16.4119 1.44095C16.3995 1.41808 16.3851 1.39656 16.3685 1.37657C16.352 1.35658 16.3336 1.33828 16.3136 1.32185C16.2934 1.30542 16.2717 1.29118 16.2489 1.27899C16.0635 1.18123 15.8756 1.0889 15.6852 1.00199C15.4946 0.91491 15.3018 0.833421 15.1068 0.757353C14.9117 0.681285 14.7146 0.610807 14.5154 0.54609C14.3163 0.481204 14.1156 0.421908 13.9131 0.368542C13.7107 0.315006 13.5069 0.26723 13.3017 0.225385C13.0965 0.183369 12.8904 0.147283 12.6832 0.117127C12.476 0.0868018 12.2681 0.0625752 12.0595 0.0441088C11.8508 0.0256424 11.6419 0.0131056 11.4327 0.00649832C11.2233 -0.000108934 11.0141 -0.000786557 10.8047 0.00446532C10.5954 0.00971725 10.3864 0.0208987 10.1777 0.0380098C9.96894 0.0552903 9.7609 0.0781615 9.55353 0.107132C9.34616 0.136102 9.13982 0.170832 8.93431 0.211492C8.72898 0.252152 8.52483 0.298573 8.32204 0.350753C8.11925 0.402933 7.91798 0.460874 7.71858 0.524405C7.51901 0.588105 7.32147 0.657227 7.12596 0.73211C6.93028 0.806822 6.73698 0.887126 6.54588 0.97302C6.35495 1.05874 6.16638 1.14989 5.98053 1.24629C5.79468 1.34286 5.61171 1.44451 5.43162 1.55124C5.25136 1.65814 5.07449 1.76996 4.90067 1.88685C4.72685 2.00375 4.55659 2.12556 4.38971 2.25195C4.22284 2.3785 4.05952 2.5098 3.9001 2.6455C3.74068 2.78137 3.58515 2.92148 3.43369 3.06616C3.28207 3.21067 3.13484 3.35959 2.99169 3.51257C2.8487 3.66539 2.70995 3.82244 2.57577 3.98321C2.44159 4.14399 2.31199 4.30849 2.18713 4.47672C2.06227 4.64496 1.94215 4.8164 1.82712 4.99141C1.71191 5.16642 1.60179 5.34448 1.49658 5.52575C1.39155 5.70703 1.29176 5.89101 1.19706 6.07788C1.10235 6.26475 1.01307 6.45432 0.929209 6.64627C0.845347 6.83822 0.766908 7.03237 0.693889 7.22873C0.62104 7.42508 0.553612 7.62347 0.491944 7.82372C0.430277 8.02397 0.374369 8.22574 0.324053 8.42904C0.273736 8.63251 0.229349 8.83717 0.190722 9.04301C0.151925 9.24902 0.119228 9.45588 0.0922907 9.66358C0.065184 9.87146 0.0441764 10.0797 0.0290983 10.2887C0.0138508 10.4976 0.00470231 10.7069 0.00131397 10.9164C-0.00190495 11.126 0.000805703 11.3354 0.00927655 11.5446C0.0179168 11.754 0.0323172 11.9629 0.0528166 12.1715C0.0731466 12.38 0.0994062 12.5877 0.131595 12.7947C0.163785 13.0018 0.201734 13.2078 0.245613 13.4126C0.289492 13.6176 0.338961 13.8211 0.39436 14.023C0.44976 14.2251 0.51075 14.4255 0.5775 14.6241C0.64425 14.8227 0.716421 15.0192 0.794353 15.2137C0.872115 15.4083 0.955468 15.6004 1.04424 15.7902C1.13285 15.9799 1.22687 16.1671 1.32632 16.3515C1.4256 16.536 1.52996 16.7174 1.63957 16.896C1.74919 17.0745 1.86388 17.2497 1.98332 17.4218C2.10293 17.5938 2.22711 17.7624 2.3562 17.9274C2.4853 18.0922 2.61897 18.2535 2.75721 18.4109C2.89546 18.5683 3.03794 18.7216 3.18482 18.871C3.33171 19.0203 3.48283 19.1653 3.63784 19.3061C3.79303 19.4469 3.95194 19.5831 4.11475 19.7147C4.27756 19.8465 4.44409 19.9736 4.61402 20.0959C4.78411 20.2181 4.95743 20.3355 5.13413 20.448C5.31083 20.5605 5.49041 20.6679 5.67321 20.7702C5.85601 20.8724 6.04152 20.9694 6.22975 21.0611C6.41797 21.1529 6.60873 21.2393 6.80187 21.3201C6.995 21.4011 7.19017 21.4765 7.38771 21.5465C7.58508 21.6163 7.78431 21.6805 7.98524 21.7391C8.18634 21.7977 8.38896 21.8504 8.59294 21.8975C8.79692 21.9446 9.00225 21.9859 9.2086 22.0213C9.41495 22.0567 9.62214 22.0864 9.83019 22.1101C10.0382 22.1337 10.2468 22.1514 10.4558 22.1633C10.6649 22.1752 10.8741 22.1811 11.0835 22.1811C19.3045 22.2838 24.8134 13.137 20.8899 5.9227Z" fill="#F7F7F7"/>
<path d="M11.0834 7.92256C11.4287 7.92239 11.7643 7.97847 12.0906 8.09096C12.1151 8.09943 12.1404 8.10553 12.1661 8.10892C12.1919 8.11248 12.2176 8.1135 12.2437 8.1118C12.2696 8.11028 12.2951 8.10621 12.3203 8.0996C12.3454 8.093 12.3696 8.08385 12.393 8.0725C12.4164 8.06115 12.4384 8.04759 12.459 8.03184C12.4797 8.01608 12.4987 7.99846 12.516 7.97898C12.5331 7.9595 12.5483 7.93866 12.5614 7.91613C12.5744 7.89376 12.5853 7.87021 12.5937 7.84565C12.7677 7.14494 11.5347 7.17289 11.0836 7.13037C5.83266 7.34756 5.833 14.8349 11.0836 15.052C11.1483 15.0518 11.213 15.0503 11.2777 15.0469C11.3423 15.0437 11.4068 15.0389 11.4713 15.0325C11.5357 15.026 11.5999 15.0181 11.6641 15.0084C11.7282 14.9989 11.7919 14.9877 11.8554 14.975C11.9189 14.9623 11.9821 14.9481 12.0448 14.9323C12.1077 14.9166 12.17 14.8991 12.232 14.8803C12.294 14.8615 12.3555 14.8412 12.4164 14.8193C12.4773 14.7975 12.5378 14.7741 12.5976 14.7492C12.6574 14.7245 12.7166 14.698 12.7752 14.6704C12.8336 14.6426 12.8914 14.6135 12.9485 14.5828C13.0058 14.5523 13.062 14.5203 13.1176 14.4871C13.1731 14.4537 13.2277 14.419 13.2816 14.3831C13.3354 14.347 13.3883 14.3097 13.4403 14.2711C13.4923 14.2325 13.5435 14.1927 13.5935 14.1515C13.6434 14.1103 13.6926 14.068 13.7405 14.0246C13.7885 13.9811 13.8354 13.9363 13.8811 13.8906C13.927 13.8447 13.9716 13.7978 14.0151 13.7498C14.0587 13.7017 14.1009 13.6527 14.142 13.6026C14.183 13.5526 14.2228 13.5015 14.2615 13.4494C14.3001 13.3974 14.3374 13.3444 14.3735 13.2905C14.4094 13.2367 14.4441 13.1819 14.4773 13.1264C14.5107 13.0708 14.5425 13.0145 14.5732 12.9573C14.6037 12.9002 14.6328 12.8424 14.6606 12.7838C14.6882 12.7252 14.7145 12.6661 14.7394 12.6063C14.7641 12.5463 14.7875 12.486 14.8094 12.425C14.8312 12.3638 14.8515 12.3023 14.8704 12.2405C14.8893 12.1785 14.9066 12.116 14.9224 12.0531C14.9381 11.9903 14.9524 11.9271 14.9651 11.8635C14.9778 11.8 14.9889 11.7361 14.9984 11.6721C15.0079 11.6081 15.0161 11.5437 15.0223 11.4793C15.0288 11.4147 15.0337 11.3502 15.0369 11.2855C15.0401 11.2208 15.0418 11.1559 15.0418 11.0912C15.0015 10.6314 15.0282 9.41072 14.3309 9.58403C14.3064 9.5925 14.283 9.60318 14.2605 9.61639C14.2379 9.62944 14.2171 9.64451 14.1976 9.66179C14.1781 9.67907 14.1605 9.69805 14.1447 9.71872C14.129 9.73939 14.1154 9.76141 14.1041 9.78479C14.0927 9.80817 14.0836 9.8324 14.077 9.85764C14.0704 9.88271 14.0663 9.90829 14.0648 9.93422C14.0633 9.96031 14.0641 9.98606 14.0677 10.012C14.0712 10.0377 14.0771 10.0628 14.0856 10.0874C14.1966 10.4128 14.2515 10.7474 14.2501 11.0912C14.0914 15.2883 8.07539 15.2885 7.91665 11.0912C7.91682 11.0393 7.91817 10.9875 7.92072 10.9356C7.92326 10.884 7.92715 10.8323 7.93224 10.7806C7.93749 10.7291 7.94376 10.6776 7.95155 10.6265C7.95917 10.5751 7.96798 10.5241 7.97815 10.4731C7.98831 10.4223 7.99966 10.3718 8.01237 10.3215C8.02491 10.2712 8.0388 10.2214 8.05388 10.1717C8.06896 10.1221 8.08522 10.073 8.10267 10.0242C8.12029 9.97538 8.13892 9.92693 8.15875 9.87916C8.17857 9.83121 8.19958 9.78394 8.22177 9.73701C8.24396 9.69009 8.26734 9.64384 8.29174 9.59809C8.31613 9.55252 8.34172 9.50746 8.36831 9.4629C8.39508 9.41851 8.4227 9.37463 8.4515 9.3316C8.4803 9.28857 8.51012 9.24621 8.54112 9.20454C8.57195 9.16286 8.6038 9.12203 8.63667 9.08205C8.66954 9.0419 8.70342 9.00259 8.73815 8.96431C8.77288 8.92585 8.80863 8.88824 8.84522 8.85164C8.88199 8.81505 8.91943 8.7793 8.95788 8.7444C8.99617 8.70967 9.03548 8.67579 9.07546 8.64292C9.11544 8.61006 9.15627 8.57804 9.19795 8.5472C9.23962 8.51637 9.28198 8.48655 9.32501 8.45758C9.36804 8.42878 9.41175 8.40116 9.45631 8.3744C9.50069 8.3478 9.54576 8.32222 9.59133 8.29782C9.63708 8.27326 9.68333 8.25005 9.73008 8.22785C9.77701 8.20566 9.82428 8.18465 9.87223 8.16466C9.92 8.14484 9.96828 8.1262 10.0171 8.10875C10.0659 8.09113 10.115 8.07487 10.1646 8.05979C10.2141 8.04471 10.2641 8.03082 10.3144 8.01828C10.3645 8.00558 10.415 7.99423 10.4659 7.98406C10.5167 7.9739 10.5677 7.96492 10.619 7.95729C10.6702 7.94967 10.7217 7.94323 10.7732 7.93815C10.8247 7.93307 10.8764 7.92917 10.928 7.92646C10.9799 7.92392 11.0317 7.92256 11.0834 7.92256Z" fill="#F7F7F7"/>
<path d="M14.8737 5.04478C14.8863 5.02207 14.8966 4.99819 14.9044 4.97345C14.9124 4.94872 14.9178 4.92347 14.9208 4.89755C14.9237 4.8718 14.9241 4.84588 14.922 4.81996C14.9198 4.79404 14.9152 4.76863 14.908 4.74355C14.9008 4.71865 14.8914 4.69459 14.8795 4.67138C14.8675 4.64834 14.8536 4.62649 14.8373 4.60616C14.821 4.58583 14.8031 4.56719 14.7833 4.55042C14.7634 4.53365 14.7421 4.51891 14.7194 4.50637C14.4424 4.35288 14.1566 4.21751 13.8625 4.10011C13.5682 3.9827 13.2678 3.88444 12.9612 3.80515C12.6545 3.7257 12.3442 3.66606 12.0299 3.62591C11.7158 3.58576 11.4004 3.5656 11.0835 3.56543C1.10745 3.97813 1.10762 18.204 11.0837 18.6164C11.2464 18.6164 11.4088 18.6113 11.5711 18.6008C11.7336 18.5903 11.8954 18.5746 12.0567 18.5535C12.218 18.5327 12.3784 18.5064 12.5382 18.4751C12.6978 18.4436 12.8562 18.4072 13.0134 18.3655C13.1706 18.3236 13.3263 18.2769 13.4806 18.2252C13.6348 18.1734 13.7871 18.1166 13.9377 18.055C14.0883 17.9931 14.2366 17.9267 14.3828 17.8552C14.529 17.7839 14.6728 17.708 14.8141 17.6272C14.9554 17.5465 15.0938 17.4613 15.2297 17.3717C15.3654 17.2819 15.498 17.188 15.6278 17.0896C15.7574 16.9914 15.8838 16.889 16.0068 16.7825C16.1298 16.6759 16.2492 16.5656 16.3649 16.4513C16.4808 16.3369 16.5928 16.219 16.7011 16.0975C16.8093 15.976 16.9133 15.851 17.0135 15.7228C17.1136 15.5943 17.2095 15.4629 17.301 15.3284C17.3926 15.1938 17.4797 15.0564 17.5622 14.9163C17.6449 14.7761 17.723 14.6334 17.7963 14.4881C17.8697 14.3429 17.9383 14.1953 18.0022 14.0455C18.0659 13.8959 18.1248 13.7443 18.1789 13.5907C18.2328 13.4372 18.2817 13.282 18.3256 13.1253C18.3695 12.9686 18.4083 12.8105 18.442 12.6512C18.4757 12.492 18.5042 12.3319 18.5274 12.1708C18.5506 12.0097 18.5685 11.848 18.5814 11.6857C18.5941 11.5234 18.6016 11.361 18.604 11.1982C18.6062 11.0353 18.6031 10.8727 18.5946 10.7102C18.5863 10.5476 18.5728 10.3855 18.554 10.2238C18.5352 10.0622 18.5109 9.90127 18.4818 9.74117C18.4525 9.58107 18.4179 9.42199 18.3785 9.2641C18.3388 9.10637 18.2941 8.94983 18.2443 8.79498C18.1946 8.63997 18.1399 8.48681 18.0801 8.33535C18.0205 8.1839 17.9559 8.03464 17.8865 7.88742C17.8172 7.74019 17.743 7.59534 17.6642 7.45286C17.6517 7.42999 17.6371 7.40865 17.6203 7.38865C17.6035 7.36883 17.5849 7.3507 17.5646 7.33444C17.5443 7.31801 17.5226 7.30395 17.4994 7.29192C17.4763 7.27989 17.4523 7.2704 17.4272 7.26312C17.4021 7.25583 17.3767 7.25109 17.3506 7.24905C17.3247 7.24685 17.2988 7.24719 17.2728 7.25007C17.2469 7.25295 17.2217 7.25837 17.1968 7.26634C17.172 7.2743 17.1482 7.28463 17.1255 7.29717C17.1026 7.30988 17.0812 7.32461 17.0614 7.34156C17.0416 7.35833 17.0235 7.37696 17.0074 7.39746C16.9911 7.41779 16.977 7.43965 16.9652 7.46286C16.9533 7.48607 16.9438 7.51013 16.9367 7.5352C16.9296 7.56027 16.9249 7.58586 16.9228 7.61178C16.9208 7.63787 16.9211 7.66379 16.9242 7.68971C16.9272 7.71546 16.9328 7.74087 16.9408 7.76561C16.9489 7.79051 16.9593 7.81423 16.972 7.83693C19.481 12.1909 16.1105 17.9115 11.0835 17.824C10.9734 17.824 10.8633 17.8212 10.7534 17.8156C10.6434 17.8101 10.5338 17.8018 10.4242 17.791C10.3146 17.7802 10.2055 17.7664 10.0965 17.7502C9.98759 17.7339 9.87917 17.7151 9.77125 17.6934C9.66333 17.6719 9.55592 17.6477 9.44919 17.6209C9.34229 17.594 9.23623 17.5645 9.13102 17.5325C9.02565 17.5005 8.92112 17.4659 8.81743 17.4286C8.71392 17.3915 8.61125 17.3517 8.50943 17.3095C8.40778 17.2673 8.30715 17.2226 8.2077 17.1755C8.10826 17.1284 8.00999 17.0788 7.91292 17.0269C7.81584 16.9749 7.72012 16.9205 7.62559 16.864C7.53122 16.8072 7.43821 16.7482 7.34673 16.6871C7.25524 16.6258 7.16528 16.5624 7.07685 16.4968C6.98841 16.4311 6.90167 16.3633 6.81662 16.2934C6.73141 16.2236 6.64805 16.1516 6.56656 16.0777C6.48491 16.0037 6.40528 15.9278 6.32735 15.8498C6.24959 15.7719 6.17369 15.6921 6.09982 15.6106C6.02579 15.529 5.95395 15.4456 5.88399 15.3604C5.81419 15.2752 5.74642 15.1884 5.68085 15.1C5.61529 15.0116 5.55193 14.9214 5.4906 14.8299C5.42944 14.7383 5.37065 14.6453 5.3139 14.5509C5.25731 14.4564 5.2031 14.3605 5.15109 14.2634C5.09908 14.1663 5.04961 14.0679 5.00251 13.9685C4.95541 13.8688 4.91069 13.7682 4.8685 13.6664C4.82632 13.5647 4.78667 13.4619 4.74957 13.3582C4.7123 13.2545 4.67774 13.15 4.64572 13.0446C4.6137 12.9392 4.58422 12.833 4.55745 12.7263C4.53069 12.6194 4.50646 12.512 4.48477 12.4039C4.46326 12.296 4.44445 12.1874 4.42819 12.0784C4.41192 11.9695 4.39837 11.8602 4.38736 11.7506C4.37652 11.641 4.36821 11.5312 4.36279 11.4211C4.3572 11.3112 4.35449 11.201 4.35432 11.0909C4.26809 6.06111 9.98353 2.68819 14.3357 5.19928C14.3584 5.21182 14.3821 5.22215 14.4068 5.23012C14.4316 5.23808 14.457 5.2435 14.4827 5.24655C14.5085 5.24943 14.5344 5.24994 14.5603 5.24774C14.5862 5.24553 14.6116 5.24096 14.6367 5.23384C14.6616 5.22656 14.6857 5.21707 14.7089 5.20521C14.7319 5.19318 14.7536 5.17912 14.774 5.16286C14.7943 5.14676 14.8129 5.12864 14.8297 5.10881C14.8465 5.08882 14.861 5.06748 14.8737 5.04478Z" fill="#F7F7F7"/>
<path d="M21.4388 3.53004L18.5571 6.41351C18.5201 6.44993 18.4778 6.47806 18.4298 6.49788C18.3819 6.5177 18.3319 6.52786 18.2801 6.52837H18.2484L16.3523 6.38183L11.3647 11.3723C11.346 11.3901 11.326 11.4059 11.3043 11.4198C11.2827 11.4337 11.2598 11.4454 11.2359 11.4548C11.212 11.4643 11.1873 11.4713 11.162 11.476C11.1368 11.4806 11.1112 11.4828 11.0855 11.4825C11.0597 11.4823 11.0343 11.4794 11.0091 11.4742C10.984 11.4691 10.9594 11.4614 10.9357 11.4514C10.912 11.4415 10.8894 11.4293 10.8681 11.4149C10.8468 11.4005 10.8271 11.3842 10.8088 11.3661C10.7907 11.3478 10.7744 11.3281 10.76 11.3066C10.7456 11.2853 10.7336 11.2627 10.7236 11.239C10.7136 11.2153 10.706 11.1909 10.7007 11.1656C10.6955 11.1404 10.6928 11.115 10.6924 11.0892C10.6921 11.0635 10.6943 11.0379 10.699 11.0127C10.7036 10.9872 10.7107 10.9627 10.7202 10.9388C10.7297 10.9147 10.7412 10.892 10.7551 10.8704C10.769 10.8487 10.7847 10.8285 10.8025 10.8099L15.7902 5.81936L15.6438 3.92207C15.6399 3.8648 15.648 3.80924 15.668 3.75536C15.688 3.70149 15.7182 3.65405 15.7585 3.61322L18.6403 0.72975C18.6672 0.70349 18.6974 0.681297 18.7307 0.663508C18.7639 0.645719 18.799 0.632844 18.8359 0.625051C18.8729 0.617088 18.9101 0.614547 18.9477 0.617257C18.9854 0.619968 19.022 0.627931 19.0574 0.640976C19.0928 0.654021 19.1256 0.67164 19.1561 0.694003C19.1865 0.716366 19.2131 0.742626 19.2361 0.772612C19.2591 0.80243 19.2774 0.834958 19.2913 0.870196C19.305 0.905266 19.3137 0.94169 19.3171 0.979301L19.4477 2.72209L21.1895 2.85271C21.2271 2.85627 21.2633 2.86491 21.2986 2.87863C21.3336 2.89235 21.3662 2.91082 21.3962 2.93386C21.426 2.95673 21.4522 2.9835 21.4746 3.01399C21.497 3.04432 21.5146 3.07719 21.5276 3.11276C21.5407 3.14817 21.5485 3.1846 21.5512 3.22238C21.5539 3.25999 21.5513 3.29726 21.5435 3.33419C21.5356 3.37112 21.5229 3.40619 21.5051 3.43957C21.4873 3.47277 21.4651 3.50293 21.4388 3.53004Z" fill="#F7F7F7"/>
</svg>
