<svg width="22" height="24" viewBox="0 0 22 24" fill="none" xmlns="http://www.w3.org/2000/svg">
<mask id="mask0_232_815" style="mask-type:luminance" maskUnits="userSpaceOnUse" x="10" y="11" width="12" height="13">
<path d="M10.1653 11.6035H21.7134V23.2107H10.1653V11.6035Z" fill="white"/>
</mask>
<g mask="url(#mask0_232_815)">
<path d="M21.4919 13.5784C21.4587 13.5449 21.4224 13.5151 21.3832 13.4889C21.3441 13.4626 21.3027 13.4404 21.259 13.4224C21.2154 13.4043 21.1706 13.3908 21.1243 13.3816C21.078 13.3725 21.0313 13.3679 20.9841 13.368H20.9768C20.908 13.3652 20.8428 13.3485 20.7809 13.3183C20.7191 13.2879 20.6659 13.2465 20.6214 13.194C20.5729 13.138 20.5303 13.0779 20.4938 13.0134C20.4573 12.9489 20.4276 12.8816 20.4045 12.8112C20.3814 12.7408 20.3656 12.6689 20.357 12.5954C20.3482 12.5218 20.3469 12.4481 20.353 12.3744C20.3542 12.3497 20.3543 12.3251 20.353 12.3006C20.3518 12.276 20.3494 12.2514 20.3457 12.2272C20.342 12.2028 20.3371 12.1786 20.331 12.1548C20.3248 12.131 20.3176 12.1075 20.3091 12.0844C20.3004 12.0612 20.2909 12.0386 20.28 12.0165C20.2693 11.9943 20.2574 11.9727 20.2445 11.9518C20.2315 11.9309 20.2175 11.9107 20.2025 11.8912C20.1874 11.8715 20.1715 11.8529 20.1545 11.8349C20.1377 11.817 20.1198 11.8001 20.1012 11.7838C20.0826 11.7677 20.0633 11.7526 20.043 11.7384C20.0229 11.7243 20.0021 11.7112 19.9806 11.6991C19.9592 11.6871 19.9372 11.676 19.9145 11.6662C19.8919 11.6564 19.869 11.6477 19.8455 11.6403C19.8219 11.6327 19.7983 11.6265 19.7742 11.6214C19.75 11.6162 19.7258 11.6123 19.7012 11.6098C19.6768 11.6071 19.6522 11.6056 19.6275 11.6055H12.2715C12.2468 11.6056 12.2222 11.6071 12.1978 11.6098C12.1732 11.6123 12.149 11.6162 12.1249 11.6214C12.1007 11.6265 12.0771 11.6327 12.0535 11.6403C12.03 11.6477 12.0071 11.6564 11.9845 11.6662C11.9618 11.676 11.9398 11.6871 11.9184 11.6991C11.8969 11.7112 11.8761 11.7243 11.8558 11.7384C11.8357 11.7526 11.8164 11.7677 11.7978 11.7838C11.7792 11.8001 11.7613 11.817 11.7445 11.8349C11.7275 11.8529 11.7116 11.8715 11.6965 11.8912C11.6815 11.9107 11.6675 11.9309 11.6546 11.9518C11.6416 11.9727 11.6297 11.9943 11.619 12.0165C11.6081 12.0386 11.5984 12.0612 11.5899 12.0844C11.5815 12.1075 11.5742 12.131 11.5681 12.1548C11.5619 12.1786 11.557 12.2028 11.5533 12.2272C11.5496 12.2514 11.5472 12.276 11.5459 12.3006C11.5447 12.3251 11.5447 12.3497 11.546 12.3744C11.552 12.4481 11.5508 12.5218 11.542 12.5954C11.5334 12.6689 11.5174 12.7408 11.4945 12.8112C11.4714 12.8816 11.4417 12.9489 11.4052 13.0134C11.3686 13.0779 11.3261 13.138 11.2776 13.194C11.2331 13.2465 11.1799 13.2879 11.1181 13.3183C11.0562 13.3485 10.991 13.3652 10.9221 13.368H10.893C10.8012 13.3689 10.7131 13.3875 10.6288 13.424C10.5445 13.4606 10.4705 13.512 10.4071 13.5784C10.3727 13.612 10.3422 13.6487 10.3151 13.6883C10.2882 13.728 10.2652 13.7698 10.2466 13.8141C10.2279 13.8583 10.2137 13.9038 10.2042 13.9509C10.1945 13.9979 10.1896 14.0454 10.1895 14.0934C10.1895 21.5643 15.7028 23.1673 15.7536 23.1817C15.8174 23.201 15.8828 23.2107 15.9495 23.2107C16.0162 23.2107 16.0816 23.201 16.1454 23.1817C16.1962 23.1673 21.7096 21.5643 21.7096 14.0934C21.7094 14.0454 21.7045 13.9979 21.6948 13.9509C21.6853 13.9038 21.6711 13.8583 21.6524 13.8141C21.6338 13.7698 21.6108 13.7279 21.5839 13.6883C21.5568 13.6487 21.5261 13.612 21.4919 13.5784ZM18.4596 15.9647L16.2831 18.1407C16.2495 18.1747 16.2129 18.2049 16.1731 18.2314C16.1334 18.2579 16.0912 18.2802 16.047 18.2982C16.0028 18.3162 15.9572 18.3298 15.9102 18.3387C15.8633 18.3475 15.816 18.3517 15.7682 18.3511C15.7208 18.3517 15.6741 18.3475 15.6276 18.3386C15.5813 18.3296 15.5362 18.3162 15.4926 18.2981C15.449 18.2801 15.4076 18.2577 15.3684 18.2312C15.3293 18.2047 15.2933 18.1745 15.2604 18.1407L14.0851 16.9656C14.0683 16.949 14.0525 16.9314 14.0375 16.9131C14.0224 16.8948 14.0084 16.8757 13.9952 16.8561C13.9821 16.8364 13.97 16.8162 13.9589 16.7952C13.9477 16.7743 13.9376 16.7529 13.9285 16.731C13.9194 16.7093 13.9115 16.6869 13.9047 16.6643C13.8978 16.6417 13.892 16.6188 13.8874 16.5955C13.8828 16.5723 13.8794 16.5488 13.8771 16.5253C13.8748 16.5017 13.8736 16.4781 13.8736 16.4544C13.8737 16.4307 13.8748 16.4072 13.8771 16.3835C13.8795 16.36 13.8829 16.3366 13.8876 16.3134C13.8922 16.2902 13.898 16.2673 13.9048 16.2446C13.9117 16.222 13.9197 16.1997 13.9288 16.1778C13.9379 16.156 13.9479 16.1346 13.959 16.1138C13.9702 16.0929 13.9824 16.0725 13.9955 16.0529C14.0087 16.0332 14.0229 16.0142 14.0378 15.9959C14.0528 15.9777 14.0687 15.9601 14.0854 15.9433C14.1022 15.9266 14.1198 15.9107 14.1381 15.8957C14.1563 15.8808 14.1753 15.8666 14.195 15.8535C14.2146 15.8403 14.235 15.8282 14.2559 15.817C14.2767 15.8059 14.2982 15.7958 14.32 15.7867C14.3419 15.7776 14.3641 15.7696 14.3867 15.7627C14.4095 15.7559 14.4324 15.7501 14.4557 15.7454C14.4789 15.7408 14.5023 15.7374 14.5258 15.735C14.5493 15.7328 14.573 15.7316 14.5967 15.7316C14.6203 15.7316 14.644 15.7326 14.6675 15.735C14.691 15.7373 14.7144 15.7408 14.7376 15.7454C14.7609 15.7501 14.7838 15.7557 14.8066 15.7626C14.8292 15.7694 14.8514 15.7774 14.8733 15.7864C14.8952 15.7955 14.9166 15.8056 14.9374 15.8168C14.9584 15.8279 14.9787 15.84 14.9983 15.8532C15.018 15.8663 15.037 15.8803 15.0553 15.8954C15.0737 15.9104 15.0912 15.9262 15.1079 15.943L15.7682 16.603L17.4366 14.942C17.4535 14.9253 17.4709 14.9093 17.4892 14.8943C17.5075 14.8793 17.5266 14.8653 17.5462 14.852C17.566 14.8389 17.5863 14.8267 17.6071 14.8156C17.6281 14.8044 17.6494 14.7943 17.6713 14.7852C17.6931 14.7763 17.7155 14.7682 17.7381 14.7614C17.7607 14.7545 17.7838 14.7487 17.807 14.7441C17.8303 14.7395 17.8536 14.7361 17.8772 14.7337C17.9008 14.7314 17.9244 14.7302 17.948 14.7302C17.9718 14.7302 17.9954 14.7314 18.019 14.7337C18.0426 14.7361 18.0659 14.7395 18.0892 14.7441C18.1124 14.7487 18.1355 14.7545 18.1581 14.7614C18.1807 14.7682 18.2031 14.7763 18.2249 14.7852C18.2468 14.7943 18.2681 14.8044 18.2891 14.8156C18.3099 14.8267 18.3302 14.8389 18.35 14.852C18.3696 14.8653 18.3887 14.8793 18.407 14.8943C18.4253 14.9093 18.4427 14.9253 18.4596 14.942C18.4762 14.9588 18.4922 14.9763 18.5072 14.9947C18.5222 15.013 18.5364 15.0319 18.5495 15.0517C18.5626 15.0713 18.5748 15.0916 18.586 15.1124C18.5971 15.1334 18.6073 15.1547 18.6163 15.1766C18.6254 15.1985 18.6333 15.2208 18.6403 15.2434C18.6472 15.2661 18.6528 15.2891 18.6574 15.3124C18.662 15.3356 18.6656 15.359 18.6678 15.3825C18.6702 15.406 18.6714 15.4297 18.6714 15.4533C18.6714 15.477 18.6702 15.5007 18.6678 15.5242C18.6656 15.5479 18.662 15.5713 18.6574 15.5945C18.6528 15.6177 18.6472 15.6406 18.6403 15.6633C18.6333 15.6859 18.6254 15.7082 18.6163 15.7301C18.6073 15.752 18.5971 15.7734 18.586 15.7943C18.5748 15.8151 18.5626 15.8355 18.5495 15.8552C18.5364 15.8748 18.5222 15.8939 18.5072 15.9122C18.4922 15.9305 18.4762 15.9479 18.4596 15.9647Z" fill="#F7F7F7"/>
</g>
<mask id="mask1_232_815" style="mask-type:luminance" maskUnits="userSpaceOnUse" x="0" y="0" width="17" height="22">
<path d="M0.713379 0H16.6825V21.7794H0.713379V0Z" fill="white"/>
</mask>
<g mask="url(#mask1_232_815)">
<path d="M14.4986 0H2.89137C2.82021 0.000297773 2.74919 0.00387081 2.67833 0.0111658C2.60746 0.0183119 2.53704 0.0288821 2.46722 0.0428766C2.3974 0.0570199 2.32847 0.0744385 2.26043 0.0951324C2.19225 0.115975 2.12525 0.140093 2.0596 0.167338C1.99379 0.194731 1.92948 0.225251 1.8668 0.258897C1.80397 0.292543 1.74293 0.329167 1.68383 0.368768C1.62458 0.408369 1.56756 0.450651 1.51247 0.495909C1.45739 0.541168 1.40469 0.588808 1.35437 0.639278C1.30405 0.689598 1.25626 0.7423 1.211 0.797236C1.16589 0.85232 1.12346 0.909489 1.08386 0.968593C1.04425 1.02785 1.00763 1.08874 0.973985 1.15156C0.940339 1.21424 0.909819 1.27856 0.882426 1.34436C0.855032 1.41001 0.831063 1.47701 0.81022 1.54505C0.789377 1.61323 0.771959 1.68216 0.757964 1.75198C0.743821 1.82181 0.733251 1.89208 0.726105 1.96294C0.718959 2.03381 0.715237 2.10482 0.715088 2.17599V19.5839C0.715237 19.6552 0.718959 19.7262 0.726105 19.7971C0.733251 19.8678 0.743821 19.9382 0.757964 20.008C0.771959 20.0778 0.789377 20.1468 0.81022 20.2148C0.831063 20.283 0.855032 20.3498 0.882426 20.4156C0.909819 20.4814 0.940339 20.5456 0.973985 20.6084C1.00763 20.6711 1.04425 20.7322 1.08386 20.7913C1.12346 20.8505 1.16589 20.9075 1.211 20.9626C1.25626 21.0177 1.30405 21.0704 1.35437 21.1207C1.40469 21.171 1.45739 21.2188 1.51247 21.2639C1.56756 21.3092 1.62458 21.3516 1.68383 21.3912C1.74293 21.4308 1.80397 21.4675 1.8668 21.5011C1.92948 21.5348 1.99379 21.5653 2.0596 21.5925C2.12525 21.6199 2.19225 21.644 2.26043 21.6647C2.32847 21.6856 2.3974 21.703 2.46722 21.717C2.53704 21.7311 2.60746 21.7417 2.67833 21.7488C2.74919 21.756 2.82021 21.7597 2.89137 21.7599H11.2776C10.8527 21.2549 10.4807 20.7134 10.1616 20.1358C9.84258 19.558 9.58265 18.9547 9.38151 18.3262C9.37154 18.3638 9.35859 18.4004 9.34251 18.436C9.32658 18.4716 9.30782 18.5056 9.28638 18.538C9.26479 18.5706 9.24082 18.6011 9.21418 18.6297C9.18768 18.6583 9.15909 18.6845 9.12827 18.7083C9.09746 18.7323 9.06485 18.7534 9.03061 18.772C8.99637 18.7907 8.96079 18.8063 8.92401 18.8191C8.88709 18.8319 8.84958 18.8416 8.81116 18.8481C8.77275 18.8548 8.73405 18.8582 8.69504 18.8585H4.34233C4.31851 18.8585 4.29483 18.8573 4.27116 18.8551C4.24749 18.8527 4.22412 18.8493 4.20074 18.8447C4.17752 18.8399 4.15444 18.8343 4.13166 18.8273C4.10904 18.8204 4.0867 18.8124 4.06467 18.8033C4.04279 18.7942 4.02135 18.7841 4.00036 18.7729C3.97936 18.7618 3.95897 18.7496 3.93932 18.7363C3.91952 18.7231 3.90046 18.7091 3.88215 18.6939C3.86369 18.6788 3.84612 18.6629 3.8293 18.6461C3.81247 18.6293 3.79654 18.6117 3.78151 18.5934C3.76647 18.5751 3.75233 18.556 3.73908 18.5362C3.72598 18.5164 3.71377 18.4962 3.70245 18.4752C3.69129 18.4542 3.68116 18.4328 3.67208 18.4109C3.663 18.3888 3.65496 18.3665 3.64811 18.3437C3.64126 18.3211 3.63546 18.298 3.63084 18.2748C3.62623 18.2514 3.62265 18.228 3.62042 18.2044C3.61804 18.1807 3.61685 18.157 3.61685 18.1332C3.61685 18.1095 3.61804 18.0859 3.62042 18.0622C3.62265 18.0385 3.62623 18.015 3.63084 17.9918C3.63546 17.9684 3.64126 17.9455 3.64811 17.9227C3.65496 17.8999 3.663 17.8776 3.67208 17.8557C3.68116 17.8337 3.69129 17.8122 3.70245 17.7914C3.71377 17.7704 3.72598 17.75 3.73908 17.7302C3.75233 17.7106 3.76647 17.6915 3.78151 17.673C3.79654 17.6547 3.81247 17.6372 3.8293 17.6203C3.84612 17.6035 3.86369 17.5876 3.88215 17.5725C3.90046 17.5575 3.91952 17.5434 3.93932 17.5301C3.95897 17.517 3.97936 17.5048 4.00036 17.4936C4.02135 17.4823 4.04279 17.4722 4.06467 17.4631C4.0867 17.454 4.10904 17.446 4.13166 17.4391C4.15444 17.4323 4.17752 17.4265 4.20074 17.4219C4.22412 17.4173 4.24749 17.4137 4.27116 17.4115C4.29483 17.4091 4.31851 17.4079 4.34233 17.4079H8.69504C8.7805 17.4091 8.86327 17.425 8.94292 17.456C9.02272 17.4868 9.09463 17.5306 9.15879 17.5873C8.87072 16.4403 8.73062 15.2757 8.73851 14.0931C8.7406 13.9114 8.76516 13.7327 8.81221 13.557C8.8594 13.3814 8.92744 13.2145 9.01662 13.0559H4.34233C4.31851 13.0559 4.29483 13.0547 4.27116 13.0525C4.24749 13.0501 4.22412 13.0467 4.20074 13.0421C4.17752 13.0373 4.15444 13.0316 4.13166 13.0246C4.10904 13.0178 4.0867 13.0098 4.06467 13.0007C4.04279 12.9916 4.02135 12.9815 4.00036 12.9703C3.97936 12.9591 3.95897 12.9469 3.93932 12.9337C3.91952 12.9206 3.90046 12.9064 3.88215 12.8913C3.86369 12.8762 3.84612 12.8603 3.8293 12.8435C3.81247 12.8266 3.79654 12.8091 3.78151 12.7908C3.76647 12.7725 3.75233 12.7534 3.73908 12.7336C3.72598 12.7138 3.71377 12.6935 3.70245 12.6726C3.69129 12.6516 3.68116 12.6301 3.67208 12.6082C3.663 12.5862 3.65496 12.5639 3.64811 12.5412C3.64126 12.5185 3.63546 12.4954 3.63084 12.4722C3.62623 12.4488 3.62265 12.4254 3.62042 12.4017C3.61804 12.3781 3.61685 12.3544 3.61685 12.3306C3.61685 12.3069 3.61804 12.2832 3.62042 12.2596C3.62265 12.2359 3.62623 12.2124 3.63084 12.1892C3.63546 12.1658 3.64126 12.1429 3.64811 12.1201C3.65496 12.0973 3.663 12.075 3.67208 12.0531C3.68116 12.031 3.69129 12.0096 3.70245 11.9888C3.71377 11.9678 3.72598 11.9474 3.73908 11.9277C3.75233 11.9079 3.76647 11.8889 3.78151 11.8704C3.79654 11.8521 3.81247 11.8345 3.8293 11.8177C3.84612 11.8009 3.86369 11.785 3.88215 11.7699C3.90046 11.7549 3.91952 11.7407 3.93932 11.7275C3.95897 11.7144 3.97936 11.7022 4.00036 11.691C4.02135 11.6797 4.04279 11.6696 4.06467 11.6605C4.0867 11.6514 4.10904 11.6434 4.13166 11.6365C4.15444 11.6297 4.17752 11.6239 4.20074 11.6193C4.22412 11.6146 4.24749 11.6111 4.27116 11.6088C4.29483 11.6064 4.31851 11.6053 4.34233 11.6053H9.42052C9.45699 11.6054 9.49332 11.6082 9.5295 11.6139C9.56567 11.6195 9.60111 11.628 9.63594 11.6391C9.67093 11.6501 9.70472 11.6638 9.73748 11.6798C9.77023 11.6961 9.80164 11.7147 9.83157 11.7357C9.86149 11.7567 9.88978 11.7797 9.91613 11.805C9.94263 11.8302 9.96705 11.8573 9.98923 11.8863C10.0116 11.9154 10.0317 11.9457 10.0492 11.9777C10.0669 12.0099 10.0821 12.043 10.0948 12.0773L10.1097 12.0695C10.1176 12.0042 10.1286 11.9393 10.1424 11.875C10.1563 11.8107 10.1729 11.7471 10.1926 11.6843C10.2122 11.6215 10.2346 11.5597 10.2599 11.499C10.285 11.4381 10.313 11.3787 10.3436 11.3203C10.3742 11.2621 10.4074 11.2054 10.4432 11.1501C10.4789 11.0949 10.517 11.0413 10.5576 10.9895C10.5983 10.9377 10.6412 10.8878 10.6863 10.84C10.7314 10.7921 10.7786 10.7462 10.8279 10.7026C10.8771 10.659 10.9282 10.6178 10.9812 10.5787C11.0342 10.5397 11.0888 10.5031 11.1453 10.4692C11.2015 10.4351 11.2593 10.4037 11.3184 10.3748C11.3777 10.3459 11.438 10.3199 11.4994 10.2965C11.5611 10.2731 11.6235 10.2527 11.6869 10.235C11.7503 10.2173 11.8143 10.2024 11.8791 10.1905C11.9438 10.1787 12.0089 10.1696 12.0744 10.1637C12.1401 10.1577 12.2057 10.1547 12.2715 10.1546H4.34233C4.31851 10.1546 4.29483 10.1534 4.27116 10.1512C4.24749 10.1488 4.22412 10.1454 4.20074 10.1408C4.17752 10.136 4.15444 10.1303 4.13166 10.1233C4.10904 10.1165 4.0867 10.1084 4.06467 10.0994C4.04279 10.0903 4.02135 10.0802 4.00036 10.069C3.97936 10.0578 3.95897 10.0456 3.93932 10.0324C3.91952 10.0193 3.90046 10.0051 3.88215 9.98994C3.86369 9.9749 3.84612 9.95897 3.8293 9.94215C3.81247 9.92533 3.79654 9.90776 3.78151 9.88945C3.76647 9.87114 3.75233 9.85208 3.73908 9.83228C3.72598 9.81248 3.71377 9.79223 3.70245 9.77124C3.69129 9.75025 3.68116 9.72881 3.67208 9.70693C3.663 9.68489 3.65496 9.66256 3.64811 9.63993C3.64126 9.61715 3.63546 9.59408 3.63084 9.57085C3.62623 9.54748 3.62265 9.52411 3.62042 9.50043C3.61804 9.47676 3.61685 9.45309 3.61685 9.42927C3.61685 9.4056 3.61804 9.38193 3.62042 9.35826C3.62265 9.33458 3.62623 9.31106 3.63084 9.28784C3.63546 9.26446 3.64126 9.24154 3.64811 9.21876C3.65496 9.19598 3.663 9.17365 3.67208 9.15176C3.68116 9.12973 3.69129 9.10829 3.70245 9.08745C3.71377 9.06646 3.72598 9.04606 3.73908 9.02641C3.75233 9.00661 3.76647 8.98755 3.78151 8.96909C3.79654 8.95078 3.81247 8.93321 3.8293 8.91639C3.84612 8.89957 3.86369 8.88364 3.88215 8.8686C3.90046 8.85356 3.91952 8.83942 3.93932 8.82617C3.95897 8.81307 3.97936 8.80086 4.00036 8.78969C4.02135 8.77838 4.04279 8.76826 4.06467 8.75918C4.0867 8.75009 4.10904 8.74205 4.13166 8.73521C4.15444 8.72836 4.17752 8.72255 4.20074 8.71794C4.22412 8.71332 4.24749 8.70975 4.27116 8.70751C4.29483 8.70513 4.31851 8.70394 4.34233 8.70394H13.0478C13.0714 8.70394 13.0951 8.70513 13.1188 8.70751C13.1424 8.70975 13.166 8.71332 13.1892 8.71794C13.2126 8.72255 13.2355 8.72836 13.2583 8.73521C13.281 8.74205 13.3034 8.75009 13.3253 8.75918C13.3473 8.76826 13.3687 8.77838 13.3897 8.78969C13.4106 8.80086 13.431 8.81307 13.4508 8.82617C13.4706 8.83942 13.4896 8.85356 13.5079 8.8686C13.5262 8.88364 13.5438 8.89957 13.5606 8.91639C13.5775 8.93321 13.5934 8.95078 13.6084 8.96909C13.6236 8.98755 13.6378 9.00661 13.6509 9.02641C13.6641 9.04606 13.6763 9.06646 13.6875 9.08745C13.6986 9.10829 13.7088 9.12973 13.718 9.15176C13.7271 9.17365 13.735 9.19598 13.742 9.21876C13.7488 9.24154 13.7546 9.26446 13.7592 9.28784C13.7639 9.31106 13.7673 9.33458 13.7697 9.35826C13.772 9.38193 13.7731 9.4056 13.7731 9.42927C13.7731 9.45309 13.772 9.47676 13.7697 9.50043C13.7673 9.52411 13.7639 9.54748 13.7592 9.57085C13.7546 9.59408 13.7488 9.61715 13.742 9.63993C13.735 9.66256 13.7271 9.68489 13.718 9.70693C13.7088 9.72881 13.6986 9.75025 13.6875 9.77124C13.6763 9.79223 13.6641 9.81248 13.6509 9.83228C13.6378 9.85208 13.6236 9.87114 13.6084 9.88945C13.5934 9.90776 13.5775 9.92533 13.5606 9.94215C13.5438 9.95897 13.5262 9.9749 13.5079 9.98994C13.4896 10.0051 13.4706 10.0193 13.4508 10.0324C13.431 10.0456 13.4106 10.0578 13.3897 10.069C13.3687 10.0802 13.3473 10.0903 13.3253 10.0994C13.3034 10.1084 13.281 10.1165 13.2583 10.1233C13.2355 10.1303 13.2126 10.136 13.1892 10.1408C13.166 10.1454 13.1424 10.1488 13.1188 10.1512C13.0951 10.1534 13.0714 10.1546 13.0478 10.1546H16.675V2.17599C16.6747 2.10482 16.6711 2.03381 16.6638 1.96294C16.6567 1.89208 16.6461 1.82181 16.6321 1.75198C16.618 1.68216 16.6006 1.61323 16.5799 1.54505C16.559 1.47701 16.5349 1.41001 16.5077 1.34436C16.4803 1.27856 16.4497 1.21424 16.4161 1.15156C16.3825 1.08874 16.3458 1.02785 16.3062 0.968593C16.2666 0.909489 16.2242 0.85232 16.1789 0.797236C16.1338 0.7423 16.086 0.689598 16.0357 0.639278C15.9852 0.588808 15.9325 0.541168 15.8776 0.495909C15.8225 0.450651 15.7654 0.408369 15.7063 0.368768C15.647 0.329167 15.5861 0.292543 15.5233 0.258897C15.4605 0.225251 15.3963 0.194731 15.3305 0.167338C15.2647 0.140093 15.1978 0.115975 15.1297 0.0951324C15.0616 0.0742896 14.9925 0.056871 14.9227 0.0428766C14.8529 0.0288821 14.7826 0.0183119 14.7118 0.0110169C14.6409 0.0038708 14.5699 0.000297773 14.4986 0ZM4.34233 14.5066H7.96956C7.99338 14.5066 8.01706 14.5078 8.04073 14.5101C8.06425 14.5124 8.08777 14.5159 8.11115 14.5206C8.13437 14.5252 8.15745 14.531 8.18008 14.5378C8.20285 14.5447 8.22519 14.5527 8.24722 14.5618C8.2691 14.5709 8.29054 14.581 8.31153 14.5923C8.33253 14.6035 8.35277 14.6157 8.37257 14.6288C8.39237 14.642 8.41143 14.6562 8.42974 14.6712C8.4482 14.6863 8.46577 14.7022 8.48259 14.719C8.49927 14.7358 8.5152 14.7534 8.53038 14.7717C8.54542 14.7902 8.55956 14.8092 8.57281 14.8289C8.58591 14.8487 8.59812 14.8691 8.60929 14.8901C8.6206 14.9109 8.63073 14.9324 8.63981 14.9544C8.64889 14.9763 8.65693 14.9986 8.66378 15.0214C8.67063 15.0442 8.67643 15.0671 8.68105 15.0905C8.68566 15.1137 8.68924 15.1372 8.69147 15.1609C8.69385 15.1844 8.69504 15.2082 8.69504 15.2319C8.69504 15.2557 8.69385 15.2794 8.69147 15.3031C8.68924 15.3267 8.68566 15.3501 8.68105 15.3735C8.67643 15.3967 8.67063 15.4198 8.66378 15.4426C8.65693 15.4652 8.64889 15.4875 8.63981 15.5096C8.63073 15.5314 8.6206 15.5529 8.60929 15.5739C8.59812 15.5949 8.58591 15.6151 8.57281 15.6349C8.55956 15.6547 8.54542 15.6738 8.53038 15.6921C8.5152 15.7104 8.49927 15.728 8.48259 15.7448C8.46577 15.7616 8.4482 15.7775 8.42974 15.7926C8.41143 15.8078 8.39237 15.8219 8.37257 15.835C8.35277 15.8482 8.33253 15.8605 8.31153 15.8716C8.29054 15.8828 8.2691 15.8929 8.24722 15.902C8.22519 15.9111 8.20285 15.9191 8.18008 15.926C8.15745 15.933 8.13437 15.9386 8.11115 15.9434C8.08777 15.948 8.06425 15.9514 8.04073 15.9538C8.01706 15.956 7.99338 15.9572 7.96956 15.9572H4.34233C4.31851 15.9572 4.29483 15.956 4.27116 15.9538C4.24749 15.9514 4.22412 15.948 4.20074 15.9434C4.17752 15.9386 4.15444 15.933 4.13166 15.926C4.10904 15.9191 4.0867 15.9111 4.06467 15.902C4.04279 15.8929 4.02135 15.8828 4.00036 15.8716C3.97936 15.8605 3.95897 15.8482 3.93932 15.835C3.91952 15.8219 3.90046 15.8078 3.88215 15.7926C3.86369 15.7775 3.84612 15.7616 3.8293 15.7448C3.81247 15.728 3.79654 15.7104 3.78151 15.6921C3.76647 15.6738 3.75233 15.6547 3.73908 15.6349C3.72598 15.6151 3.71377 15.5949 3.70245 15.5739C3.69129 15.5529 3.68116 15.5314 3.67208 15.5096C3.663 15.4875 3.65496 15.4652 3.64811 15.4426C3.64126 15.4198 3.63546 15.3967 3.63084 15.3735C3.62623 15.3501 3.62265 15.3267 3.62042 15.3031C3.61804 15.2794 3.61685 15.2557 3.61685 15.2319C3.61685 15.2082 3.61804 15.1844 3.62042 15.1609C3.62265 15.1372 3.62623 15.1137 3.63084 15.0905C3.63546 15.0671 3.64126 15.0442 3.64811 15.0214C3.65496 14.9986 3.663 14.9763 3.67208 14.9544C3.68116 14.9324 3.69129 14.9109 3.70245 14.8901C3.71377 14.8691 3.72598 14.8487 3.73908 14.8289C3.75233 14.8092 3.76647 14.7902 3.78151 14.7717C3.79654 14.7534 3.81247 14.7358 3.8293 14.719C3.84612 14.7022 3.86369 14.6863 3.88215 14.6712C3.90046 14.6562 3.91952 14.642 3.93932 14.6288C3.95897 14.6157 3.97936 14.6035 4.00036 14.5923C4.02135 14.581 4.04279 14.5709 4.06467 14.5618C4.0867 14.5527 4.10904 14.5447 4.13166 14.5378C4.15444 14.531 4.17752 14.5252 4.20074 14.5206C4.22412 14.5159 4.24749 14.5124 4.27116 14.5101C4.29483 14.5078 4.31851 14.5066 4.34233 14.5066ZM6.51861 2.90131H10.8713C10.8951 2.90131 10.9188 2.9025 10.9425 2.90489C10.9662 2.90712 10.9895 2.91069 11.0129 2.91531C11.0361 2.91992 11.0592 2.92573 11.082 2.93258C11.1046 2.93943 11.1271 2.94747 11.149 2.95655C11.1709 2.96563 11.1925 2.97575 11.2133 2.98707C11.2343 2.99823 11.2547 3.01044 11.2743 3.02354C11.2941 3.03679 11.3132 3.05094 11.3317 3.06597C11.35 3.08101 11.3675 3.09694 11.3844 3.11376C11.4012 3.13058 11.4171 3.14815 11.4321 3.16646C11.4472 3.18492 11.4613 3.20398 11.4746 3.22378C11.4878 3.24343 11.4999 3.26383 11.5112 3.28482C11.5224 3.30566 11.5325 3.3271 11.5416 3.34914C11.5506 3.37102 11.5587 3.39335 11.5655 3.41613C11.5725 3.43891 11.5782 3.46184 11.5828 3.48521C11.5876 3.50843 11.591 3.53196 11.5934 3.55563C11.5956 3.5793 11.5968 3.60297 11.5968 3.62664C11.5968 3.65046 11.5956 3.67413 11.5934 3.69781C11.591 3.72148 11.5876 3.74485 11.5828 3.76822C11.5782 3.79145 11.5725 3.81453 11.5655 3.8373C11.5587 3.85993 11.5506 3.88226 11.5416 3.9043C11.5325 3.92618 11.5224 3.94762 11.5112 3.96861C11.4999 3.9896 11.4877 4.00985 11.4746 4.02965C11.4613 4.04945 11.4472 4.06851 11.4321 4.08682C11.4171 4.10513 11.4012 4.1227 11.3844 4.13952C11.3675 4.15635 11.35 4.17228 11.3317 4.18731C11.3132 4.2025 11.2941 4.21664 11.2743 4.22974C11.2547 4.24299 11.2343 4.2552 11.2133 4.26637C11.1925 4.27753 11.1709 4.28766 11.149 4.29674C11.1271 4.30582 11.1046 4.31386 11.082 4.32071C11.0592 4.3277 11.0361 4.33336 11.0129 4.33813C10.9895 4.34274 10.9662 4.34616 10.9425 4.34855C10.9188 4.35078 10.8951 4.35197 10.8713 4.35197H6.51861C6.49494 4.35197 6.47127 4.35078 6.44759 4.34855C6.42392 4.34616 6.4004 4.34274 6.37718 4.33813C6.3538 4.33336 6.33088 4.3277 6.3081 4.32071C6.28532 4.31386 6.26299 4.30582 6.2411 4.29674C6.21907 4.28766 6.19763 4.27753 6.17664 4.26637C6.1558 4.2552 6.1354 4.24299 6.1156 4.22974C6.0958 4.21664 6.07674 4.2025 6.05843 4.18731C6.04012 4.17228 6.02255 4.15635 6.00573 4.13952C5.9889 4.1227 5.97298 4.10513 5.95794 4.08682C5.94275 4.06851 5.92861 4.04945 5.91551 4.02965C5.90226 4.00985 5.89005 3.9896 5.87888 3.96861C5.86772 3.94762 5.8576 3.92618 5.84837 3.9043C5.83928 3.88226 5.83139 3.85993 5.8244 3.8373C5.81755 3.81453 5.81174 3.79145 5.80713 3.76822C5.80251 3.74485 5.79909 3.72148 5.7967 3.69781C5.79432 3.67413 5.79328 3.65046 5.79328 3.62664C5.79328 3.60297 5.79432 3.5793 5.7967 3.55563C5.79909 3.53196 5.80251 3.50843 5.80713 3.48521C5.81174 3.46184 5.81755 3.43891 5.8244 3.41613C5.83139 3.39335 5.83928 3.37102 5.84837 3.34914C5.8576 3.3271 5.86772 3.30566 5.87888 3.28482C5.89005 3.26383 5.90226 3.24343 5.91551 3.22378C5.92861 3.20398 5.94275 3.18492 5.95794 3.16646C5.97298 3.14815 5.9889 3.13058 6.00573 3.11376C6.02255 3.09694 6.04012 3.08101 6.05843 3.06597C6.07674 3.05094 6.0958 3.03679 6.1156 3.02354C6.1354 3.01044 6.1558 2.99823 6.17664 2.98707C6.19763 2.97575 6.21907 2.96563 6.2411 2.95655C6.26299 2.94747 6.28532 2.93943 6.3081 2.93258C6.33088 2.92573 6.3538 2.91992 6.37718 2.91531C6.4004 2.91069 6.42392 2.90712 6.44759 2.90489C6.47127 2.9025 6.49494 2.90131 6.51861 2.90131ZM13.0478 7.25328H4.34233C4.31851 7.25328 4.29483 7.25209 4.27116 7.24986C4.24749 7.24748 4.22412 7.24405 4.20074 7.23944C4.17752 7.23468 4.15444 7.22902 4.13166 7.22202C4.10904 7.21517 4.0867 7.20713 4.06467 7.19805C4.04279 7.18897 4.02135 7.17885 4.00036 7.16768C3.97936 7.15652 3.95897 7.14431 3.93932 7.13106C3.91952 7.11796 3.90046 7.10381 3.88215 7.08863C3.86369 7.07359 3.84612 7.05766 3.8293 7.04084C3.81247 7.02401 3.79654 7.00645 3.78151 6.98813C3.76647 6.96982 3.75233 6.95077 3.73908 6.93097C3.72598 6.91117 3.71377 6.89092 3.70245 6.86993C3.69129 6.84894 3.68116 6.8275 3.67208 6.80561C3.663 6.78358 3.65496 6.76125 3.64811 6.73862C3.64126 6.71584 3.63546 6.69276 3.63084 6.66954C3.62623 6.64616 3.62265 6.62279 3.62042 6.59912C3.61804 6.57545 3.61685 6.55178 3.61685 6.52796C3.61685 6.50428 3.61804 6.48061 3.62042 6.45694C3.62265 6.43327 3.62623 6.40975 3.63084 6.38652C3.63546 6.36315 3.64126 6.34022 3.64811 6.31744C3.65496 6.29467 3.663 6.27233 3.67208 6.25045C3.68116 6.22842 3.69129 6.20698 3.70245 6.18613C3.71377 6.16514 3.72598 6.14475 3.73908 6.12495C3.75233 6.10529 3.76647 6.08624 3.78151 6.06778C3.79654 6.04947 3.81247 6.0319 3.8293 6.01508C3.84612 5.99825 3.86369 5.98232 3.88215 5.96729C3.90046 5.95225 3.91952 5.93811 3.93932 5.92486C3.95897 5.91175 3.97936 5.89955 4.00036 5.88838C4.02135 5.87707 4.04279 5.86694 4.06467 5.85786C4.0867 5.84878 4.10904 5.84074 4.13166 5.83389C4.15444 5.82704 4.17752 5.82124 4.20074 5.81662C4.22412 5.81201 4.24749 5.80843 4.27116 5.8062C4.29483 5.80382 4.31851 5.80263 4.34233 5.80263H13.0478C13.0714 5.80263 13.0951 5.80382 13.1188 5.8062C13.1424 5.80843 13.166 5.81201 13.1892 5.81662C13.2126 5.82124 13.2355 5.82704 13.2583 5.83389C13.281 5.84074 13.3034 5.84878 13.3253 5.85786C13.3473 5.86694 13.3687 5.87707 13.3897 5.88838C13.4106 5.89955 13.431 5.91175 13.4508 5.92486C13.4706 5.93811 13.4896 5.95225 13.5079 5.96729C13.5262 5.98232 13.5438 5.99825 13.5606 6.01508C13.5775 6.0319 13.5934 6.04947 13.6084 6.06778C13.6236 6.08624 13.6378 6.10529 13.6509 6.12495C13.6641 6.14475 13.6763 6.16514 13.6875 6.18613C13.6986 6.20698 13.7088 6.22842 13.718 6.25045C13.7271 6.27233 13.735 6.29467 13.742 6.31744C13.7488 6.34022 13.7546 6.36315 13.7592 6.38652C13.7639 6.40975 13.7673 6.43327 13.7697 6.45694C13.772 6.48061 13.7731 6.50428 13.7731 6.52796C13.7731 6.55178 13.772 6.57545 13.7697 6.59912C13.7673 6.62279 13.7639 6.64616 13.7592 6.66954C13.7546 6.69276 13.7488 6.71584 13.742 6.73862C13.735 6.76125 13.7271 6.78358 13.718 6.80561C13.7088 6.8275 13.6986 6.84894 13.6875 6.86993C13.6763 6.89092 13.6641 6.91117 13.6509 6.93097C13.6378 6.95077 13.6236 6.96982 13.6084 6.98813C13.5934 7.00645 13.5775 7.02401 13.5606 7.04084C13.5438 7.05766 13.5262 7.07359 13.5079 7.08863C13.4896 7.10381 13.4706 7.11796 13.4508 7.13106C13.431 7.14431 13.4106 7.15652 13.3897 7.16768C13.3687 7.17885 13.3473 7.18897 13.3253 7.19805C13.3034 7.20713 13.281 7.21517 13.2583 7.22202C13.2355 7.22902 13.2126 7.23468 13.1892 7.23944C13.166 7.24405 13.1424 7.24748 13.1188 7.24986C13.0951 7.25209 13.0714 7.25328 13.0478 7.25328Z" fill="#F7F7F7"/>
</g>
</svg>
