<svg width="24" height="32" viewBox="0 0 24 32" fill="none" xmlns="http://www.w3.org/2000/svg">
<path d="M13.515 13.9806C13.5888 14.2617 13.6 14.5625 13.5548 14.8747L14.9741 15.0506L15.2863 12.7969C15.2296 12.8337 13.7136 13.8329 13.5093 13.9664V13.9721L13.515 13.9806Z" fill="#F7F7F7"/>
<path d="M15.3715 12.2435L16.7822 2.1435L11.6272 1.50195C12.0985 2.86438 14.4034 9.55227 15.3572 12.32L15.3715 12.2435Z" fill="#F7F7F7"/>
<path d="M15.3118 15.757L15.3061 15.7485L13.4041 15.5156C12.984 16.6483 12.7712 16.7249 12.1948 17.2672L14.0059 17.6249L15.3118 15.757Z" fill="#F7F7F7"/>
<path d="M17.174 4.03062C17.1769 4.0192 17.174 4.03909 17.1685 4.06763C17.1712 4.05621 17.1712 4.04479 17.174 4.03062Z" fill="#F7F7F7"/>
<path d="M17.1514 4.20153C17.0691 4.79209 16.734 7.17362 15.5872 15.3661C15.6015 15.3661 15.6185 15.3377 15.6383 15.2922V15.2865L21.4804 6.9437L17.174 4.03125C17.174 4.03971 17.1685 4.07101 17.1598 4.12771C17.1628 4.10783 17.1655 4.08794 17.1685 4.06826C17.1486 4.20724 17.1456 4.22988 17.1514 4.20153Z" fill="#F7F7F7"/>
<path d="M11.4001 18.4175C11.4312 18.548 11.4398 18.7354 11.4312 18.9596L11.979 19.4734L13.9917 18.4033L13.5602 18.1138L11.5164 17.9775C11.4113 18.1279 11.366 18.2925 11.4001 18.4175Z" fill="#F7F7F7"/>
<path d="M20.9492 8.84576C20.9523 8.83987 20.9551 8.83703 20.9581 8.83398C20.9551 8.83703 20.9523 8.84271 20.9492 8.84576Z" fill="#F7F7F7"/>
<path d="M20.958 8.83486C20.9637 8.82614 20.9667 8.82025 20.9726 8.81152C20.9696 8.81741 20.9637 8.82614 20.958 8.83486Z" fill="#F7F7F7"/>
<path d="M20.9494 8.8457C20.9295 8.87405 20.9041 8.91086 20.887 8.9337C20.8984 8.91657 20.9068 8.90535 20.9153 8.89118C20.9267 8.87976 20.9381 8.86263 20.9494 8.8457Z" fill="#F7F7F7"/>
<mask id="mask0_232_1466" style="mask-type:luminance" maskUnits="userSpaceOnUse" x="14" y="8" width="10" height="11">
<path d="M14.3831 8.76855H23.4712V18.1923H14.3831V8.76855Z" fill="white"/>
</mask>
<g mask="url(#mask0_232_1466)">
<path d="M20.9777 8.80566C20.9722 8.81413 20.9523 8.83972 20.9153 8.89366C20.9041 8.91059 20.8927 8.92496 20.887 8.93618C20.887 8.93342 20.887 8.93342 20.887 8.93342C20.887 8.93618 20.8842 8.93618 20.8842 8.93913C20.8755 8.95035 20.8728 8.9533 20.8728 8.95606C20.5236 9.45567 19.1383 11.4342 14.4119 18.1818L23.4929 13.3532L20.9777 8.80566Z" fill="#F7F7F7"/>
</g>
<path d="M15.2608 18.4687L14.7186 18.7555L14.2757 18.9939L14.273 18.9911L14.2474 19.0053H14.2531L12.1326 20.135L22.3687 19.9705L22.1928 14.7842L15.2608 18.4687Z" fill="#F7F7F7"/>
<path d="M7.86038 7.87177C7.54522 7.04853 8.11865 6.0749 9.13205 5.69733C10.1455 5.31681 11.2155 5.67745 11.5222 6.49203C11.8315 7.31822 11.261 8.28891 10.2504 8.66942C9.23697 9.04699 8.16688 8.69501 7.86038 7.87177ZM8.36275 3.11698C8.69484 2.99768 9.06099 3.17367 9.17753 3.50871C9.28816 3.84081 9.11217 4.20124 8.78008 4.31778C8.4535 4.43412 8.08735 4.25814 7.97672 3.92604C7.86038 3.59376 8.03637 3.23332 8.36275 3.11698ZM11.1844 11.21C10.8579 11.3291 10.4917 11.1504 10.3811 10.824C10.2618 10.4919 10.4378 10.1255 10.7671 10.0092C11.0992 9.88991 11.4654 10.0659 11.5819 10.4009C11.6925 10.733 11.5222 11.0992 11.1844 11.21ZM10.5116 13.8301C11.1362 12.7939 11.6811 12.6691 12.5953 12.7854C12.6605 12.8224 12.7484 12.8565 12.8819 12.9728C13.8555 12.6209 14.639 12.3398 14.6646 12.3283L10.4209 0L4.8938 2.00692L9.14052 14.3268C9.25134 14.287 9.79919 14.0912 10.5116 13.8301Z" fill="#F7F7F7"/>
<path d="M9.29662 7.73489C9.14051 7.79178 9.01 7.68961 8.93618 7.53902L9.45843 7.34315C9.46689 7.53055 9.45843 7.67544 9.29662 7.73489ZM9.97517 6.57109C10.1313 6.51145 10.2703 6.63645 10.347 6.78684L9.80469 6.99689C9.79347 6.79255 9.79918 6.63645 9.97517 6.57109ZM9.83324 7.20417L10.4122 6.98271C10.4519 7.17287 10.4321 7.38016 10.347 7.60438L10.6933 7.72642C10.7984 7.4341 10.8181 7.14728 10.7388 6.86637L10.963 6.78113L10.8892 6.58527L10.6734 6.6705C10.5116 6.29018 10.1795 6.07443 9.80469 6.21912C9.40744 6.36951 9.38185 6.7018 9.43855 7.11893V7.13311L8.87929 7.34315C8.83972 7.17858 8.84523 7.01677 8.8907 6.84649L8.53873 6.75574C8.47908 7.00259 8.47908 7.23823 8.54444 7.46815L8.39404 7.52485L8.46786 7.7152L8.61531 7.66127C8.77436 8.0217 9.10646 8.22604 9.4726 8.08706C9.85863 7.94218 9.88422 7.62426 9.83324 7.20417Z" fill="#F7F7F7"/>
<mask id="mask1_232_1466" style="mask-type:luminance" maskUnits="userSpaceOnUse" x="0" y="21" width="9" height="12">
<path d="M0 21.2666H8.18457V32.0006H0V21.2666Z" fill="white"/>
</mask>
<g mask="url(#mask1_232_1466)">
<path d="M4.55893 21.2871L0.508079 23.1208C0.198625 23.2627 0 23.5694 0 23.91V31.1117C0 31.5886 0.386029 31.9747 0.863005 31.9747H3.59376C3.59376 31.9747 5.47292 29.8855 6.36998 29.3091C7.26409 28.7356 8.34284 27.6969 8.1328 26.7374C7.93693 25.7807 4.55893 21.2871 4.55893 21.2871Z" fill="#F7F7F7"/>
</g>
<path d="M10.767 18.5852C10.6676 18.2188 10.7983 17.8216 11.0593 17.495C11.3347 17.1743 12.2942 16.28 12.2942 16.28C13.6737 14.1227 12.3794 13.413 12.3794 13.413C11.4595 13.2626 11.2353 13.8813 10.6365 14.9089C10.029 15.928 9.30221 16.1808 9.30221 16.1808L8.27188 14.3327C8.27188 14.3327 7.26399 15.2611 6.76162 15.7038C6.25354 16.1495 5.78798 17.5092 5.78798 17.5092C5.4616 18.9257 5.12931 19.9364 4.85962 20.5978L5.08403 20.8986C5.83345 21.8978 8.18664 25.0799 8.69472 26.3404C12.2629 23.6862 12.3849 20.8673 12.3849 20.8673H10.2957C10.6534 20.4728 10.8577 18.9598 10.767 18.5852Z" fill="#F7F7F7"/>
</svg>
