<svg width="17" height="17" viewBox="0 0 17 17" fill="none" xmlns="http://www.w3.org/2000/svg">
<path d="M13.0794 13.0597C13.0557 13.0288 13.0299 13 13.002 12.973C12.9741 12.946 12.9444 12.9213 12.9127 12.8987C12.8811 12.8761 12.848 12.856 12.8134 12.8384C12.7788 12.8208 12.7431 12.8058 12.7063 12.7935C12.6694 12.7812 12.632 12.7717 12.5937 12.7649C12.5555 12.7582 12.5169 12.7543 12.4781 12.7534C12.4393 12.7524 12.4006 12.7543 12.3621 12.7591C12.3235 12.7638 12.2856 12.7715 12.2481 12.7818L9.37685 13.574C9.38584 13.5256 9.38986 13.4769 9.38902 13.4277C9.38923 13.3994 9.38796 13.3713 9.38531 13.3432C9.38278 13.315 9.37876 13.2871 9.37336 13.2593C9.36807 13.2315 9.3613 13.2041 9.35326 13.1771C9.34522 13.15 9.33591 13.1233 9.32522 13.0972C9.31454 13.0711 9.30258 13.0455 9.28947 13.0204C9.27624 12.9954 9.26186 12.9712 9.2463 12.9476C9.23075 12.924 9.21404 12.9013 9.19626 12.8793C9.17849 12.8574 9.15966 12.8363 9.13977 12.8162C9.11988 12.7961 9.09904 12.7771 9.07735 12.759C9.05556 12.741 9.03303 12.724 9.00965 12.7082C8.98616 12.6923 8.96204 12.6777 8.93718 12.6643C8.91232 12.6507 8.88693 12.6386 8.8609 12.6276C8.83488 12.6167 8.80833 12.6069 8.78135 12.5986C8.75427 12.5902 8.72697 12.5833 8.69925 12.5776C8.67164 12.5719 8.64371 12.5676 8.61557 12.5647C8.58754 12.5618 8.55929 12.5602 8.53105 12.5601H6.71756C6.6233 12.4675 6.52492 12.3795 6.4224 12.296C6.32 12.2126 6.21389 12.1341 6.10408 12.0605C5.99427 11.9869 5.88139 11.9186 5.76523 11.8555C5.64907 11.7925 5.53026 11.7349 5.40881 11.683C5.28726 11.6309 5.16359 11.5847 5.0378 11.5442C4.91202 11.5038 4.78464 11.4692 4.65568 11.4405C4.52662 11.4118 4.3966 11.3893 4.26542 11.3727C4.13434 11.3562 4.00274 11.3457 3.87071 11.3415H2.80062V11.205C2.80031 11.1843 2.79893 11.1636 2.79671 11.143C2.79438 11.1225 2.791 11.1021 2.78666 11.0818C2.78243 11.0615 2.77714 11.0415 2.7709 11.0218C2.76455 11.002 2.75736 10.9826 2.74921 10.9636C2.74106 10.9445 2.73207 10.9259 2.72213 10.9077C2.71218 10.8896 2.70129 10.872 2.68965 10.8548C2.67801 10.8378 2.66553 10.8213 2.6522 10.8053C2.63897 10.7894 2.6249 10.7742 2.6102 10.7597C2.59539 10.7452 2.57994 10.7314 2.56386 10.7184C2.54778 10.7053 2.53107 10.6931 2.51382 10.6818C2.49647 10.6703 2.4787 10.6597 2.4604 10.6501C2.4421 10.6404 2.42337 10.6316 2.40412 10.6238C2.38497 10.6159 2.3655 10.6091 2.34561 10.603C2.32583 10.5971 2.30573 10.5921 2.28542 10.5881C2.26511 10.5842 2.24458 10.5811 2.22395 10.5791C2.20343 10.5771 2.1827 10.5762 2.16196 10.5762H0.638559C0.617718 10.5762 0.596877 10.5771 0.576036 10.5792C0.555195 10.5812 0.534566 10.5843 0.514042 10.5884C0.493518 10.5925 0.473206 10.5975 0.453212 10.6037C0.433217 10.6097 0.41354 10.6168 0.39418 10.6247C0.374926 10.6328 0.355989 10.6417 0.337581 10.6515C0.319174 10.6614 0.301189 10.6721 0.283839 10.6838C0.266384 10.6954 0.249668 10.7078 0.233482 10.7211C0.217296 10.7343 0.201851 10.7484 0.18704 10.7632C0.172229 10.7779 0.158264 10.7935 0.144935 10.8097C0.131711 10.8257 0.119227 10.8426 0.10759 10.8599C0.0959531 10.8774 0.0852682 10.8952 0.0754295 10.9136C0.0655909 10.9322 0.0565986 10.951 0.0485584 10.9704C0.040624 10.9896 0.033536 11.0093 0.0275059 11.0294C0.0214757 11.0494 0.0163977 11.0696 0.0122718 11.0901C0.00814596 11.1106 0.00507801 11.1313 0.00306796 11.1521C0.00105791 11.1729 0 11.1938 0 11.2147V15.8114C0 15.8323 0.00105791 15.8532 0.00306796 15.8739C0.00507801 15.8947 0.00814596 15.9155 0.0122718 15.9359C0.0163977 15.9564 0.0214757 15.9767 0.0275059 15.9967C0.033536 16.0167 0.040624 16.0364 0.0485584 16.0558C0.0565986 16.075 0.0655909 16.094 0.0754295 16.1124C0.0852682 16.1309 0.0959531 16.1488 0.10759 16.1661C0.119227 16.1836 0.131711 16.2003 0.144935 16.2165C0.158264 16.2326 0.172229 16.2481 0.18704 16.2629C0.201851 16.2777 0.217296 16.2917 0.233482 16.305C0.249668 16.3182 0.266384 16.3307 0.283839 16.3424C0.301189 16.3539 0.319174 16.3647 0.337581 16.3745C0.355989 16.3843 0.374926 16.3933 0.39418 16.4013C0.41354 16.4093 0.433217 16.4164 0.453212 16.4224C0.473206 16.4285 0.493518 16.4335 0.514042 16.4377C0.534566 16.4417 0.555195 16.4448 0.576036 16.4469C0.596877 16.4489 0.617718 16.4499 0.638559 16.4499H2.16196C2.18291 16.4499 2.20375 16.4489 2.22459 16.4469C2.24543 16.4448 2.26606 16.4417 2.28658 16.4377C2.30711 16.4335 2.32742 16.4285 2.34741 16.4224C2.36741 16.4164 2.38708 16.4093 2.40644 16.4013C2.4257 16.3933 2.44464 16.3843 2.46304 16.3745C2.48145 16.3647 2.49944 16.3539 2.51679 16.3424C2.53424 16.3307 2.55096 16.3182 2.56714 16.305C2.58333 16.2917 2.59877 16.2777 2.61358 16.2629C2.6284 16.2481 2.64236 16.2326 2.65569 16.2165C2.66891 16.2003 2.6814 16.1836 2.69303 16.1661C2.70457 16.1488 2.71536 16.1309 2.7252 16.1124C2.73503 16.094 2.74403 16.075 2.75196 16.0558C2.76 16.0364 2.76709 16.0167 2.77312 15.9967C2.77915 15.9767 2.78423 15.9564 2.78835 15.9359C2.79248 15.9155 2.79555 15.8947 2.79756 15.8739C2.79957 15.8532 2.80062 15.8323 2.80062 15.8114V15.7675L5.84986 16.8253C5.94423 16.8578 6.04007 16.8854 6.1373 16.9081C6.23452 16.9309 6.33259 16.9486 6.43161 16.9614C6.53052 16.9743 6.62997 16.9822 6.72973 16.9849C6.8296 16.9877 6.92925 16.9855 7.0288 16.9781C7.12835 16.9708 7.22727 16.9585 7.32565 16.9411C7.42394 16.9238 7.52116 16.9016 7.61722 16.8744C7.71328 16.8473 7.80764 16.8153 7.90053 16.7786C7.99331 16.7418 8.08408 16.7006 8.17273 16.6546L12.8258 14.2369C12.8513 14.2237 12.8758 14.2091 12.8996 14.1932C12.9234 14.1772 12.9463 14.1601 12.9683 14.1417C12.9902 14.1233 13.011 14.1037 13.0308 14.083C13.0507 14.0622 13.0693 14.0405 13.0866 14.0178C13.1041 13.9951 13.1203 13.9715 13.1351 13.947C13.1499 13.9225 13.1635 13.8973 13.1755 13.8714C13.1876 13.8453 13.1983 13.8188 13.2075 13.7917C13.2167 13.7646 13.2244 13.737 13.2305 13.7091C13.2368 13.6812 13.2414 13.6529 13.2445 13.6245C13.2477 13.596 13.2493 13.5674 13.2493 13.5388C13.2493 13.5101 13.2477 13.4815 13.2445 13.4531C13.2414 13.4246 13.2368 13.3964 13.2305 13.3684C13.2244 13.3405 13.2167 13.3129 13.2075 13.2858C13.1983 13.2587 13.1876 13.2322 13.1755 13.2062C13.1633 13.1802 13.1499 13.1551 13.1351 13.1305C13.1202 13.1061 13.1041 13.0824 13.0866 13.0597H13.0794ZM12.7478 13.6032C12.7386 13.6464 12.7206 13.6855 12.6936 13.7205C12.6668 13.7555 12.6336 13.783 12.5943 13.803L7.94115 16.2208C7.86678 16.2594 7.79061 16.2942 7.71275 16.3251C7.63488 16.356 7.55554 16.3829 7.47493 16.4058C7.39431 16.4287 7.31275 16.4474 7.23012 16.462C7.14761 16.4765 7.06456 16.487 6.98099 16.4931C6.89741 16.4992 6.81373 16.5011 6.72994 16.4988C6.64615 16.4965 6.56268 16.4899 6.47953 16.4791C6.39649 16.4683 6.31407 16.4534 6.23251 16.4343C6.15094 16.4151 6.07044 16.392 5.9912 16.3647L2.80062 15.2557V11.8436H3.87071C5.01135 11.8436 5.90593 12.465 6.45435 12.9866C6.4771 13.0079 6.50302 13.0243 6.53211 13.0356C6.5612 13.047 6.59135 13.0525 6.62256 13.0524H8.53105C8.55199 13.0525 8.57283 13.0544 8.59346 13.0582C8.61409 13.0619 8.63419 13.0671 8.65398 13.0742C8.67365 13.0812 8.6927 13.0899 8.711 13.1002C8.7293 13.1103 8.74654 13.122 8.76294 13.1352C8.77923 13.1483 8.79436 13.1627 8.80833 13.1783C8.82218 13.194 8.83477 13.2107 8.84588 13.2285C8.85699 13.2461 8.86662 13.2648 8.87455 13.2841C8.88259 13.3035 8.88894 13.3234 8.89359 13.3438C8.89835 13.3642 8.90132 13.3848 8.90248 13.4058C8.90375 13.4267 8.90322 13.4476 8.90089 13.4684C8.89867 13.4893 8.89465 13.5097 8.88894 13.5299C8.88323 13.5501 8.87593 13.5695 8.86693 13.5885C8.85794 13.6074 8.84747 13.6255 8.83551 13.6427C8.82345 13.6599 8.81012 13.6759 8.79542 13.6909C8.78082 13.7058 8.76495 13.7193 8.74802 13.7317C8.73099 13.744 8.71311 13.7548 8.69439 13.7641H8.66995C8.62541 13.7818 8.57908 13.7908 8.53105 13.7909H5.65975C5.64378 13.7909 5.62791 13.7925 5.61215 13.7955C5.59649 13.7987 5.58125 13.8033 5.56644 13.8094C5.55163 13.8155 5.53767 13.823 5.52434 13.8319C5.51101 13.8408 5.49874 13.851 5.48742 13.8623C5.4761 13.8736 5.46594 13.8859 5.45706 13.8992C5.44817 13.9125 5.44066 13.9266 5.43452 13.9413C5.42839 13.9561 5.42384 13.9713 5.42066 13.987C5.41759 14.0028 5.41601 14.0186 5.41601 14.0346C5.41601 14.0506 5.41759 14.0665 5.42066 14.0821C5.42384 14.0979 5.42839 14.1131 5.43452 14.1279C5.44066 14.1426 5.44817 14.1567 5.45706 14.17C5.46594 14.1834 5.4761 14.1956 5.48742 14.2069C5.49874 14.2183 5.51101 14.2283 5.52434 14.2372C5.53767 14.2462 5.55163 14.2537 5.56644 14.2597C5.58125 14.2659 5.59649 14.2705 5.61215 14.2736C5.62791 14.2768 5.64378 14.2784 5.65975 14.2784H8.53105C8.64773 14.2784 8.75987 14.2556 8.86746 14.2101L12.3797 13.2351C12.4082 13.2272 12.4372 13.2235 12.4667 13.2241C12.4962 13.2249 12.5251 13.2299 12.5531 13.2393C12.5812 13.2486 12.6072 13.2618 12.6312 13.279C12.6552 13.2962 12.6763 13.3165 12.6942 13.34C12.709 13.3582 12.7214 13.3777 12.7313 13.3989C12.7413 13.4201 12.7486 13.4421 12.7533 13.465C12.758 13.488 12.7599 13.511 12.7589 13.5344C12.758 13.5578 12.7543 13.5808 12.7478 13.6032Z" fill="#F7F7F7"/>
<mask id="mask0_232_5016" style="mask-type:luminance" maskUnits="userSpaceOnUse" x="2" y="0" width="15" height="8">
<path d="M2.76245 0.874023H16.0871V7.34678H2.76245V0.874023Z" fill="white"/>
</mask>
<g mask="url(#mask0_232_5016)">
<path d="M15.4487 1.43705H13.9253C13.9044 1.43705 13.8835 1.43811 13.8627 1.44012C13.8419 1.44224 13.8212 1.4453 13.8007 1.44932C13.7802 1.45345 13.7599 1.45853 13.7399 1.46456C13.7199 1.47069 13.7002 1.47768 13.6808 1.48572C13.6616 1.49365 13.6427 1.50264 13.6242 1.51248C13.6058 1.52232 13.5879 1.53311 13.5705 1.54475C13.553 1.55628 13.5363 1.56876 13.5201 1.58199C13.504 1.59532 13.4885 1.60928 13.4737 1.62409C13.4589 1.6389 13.4449 1.65435 13.4316 1.67053C13.4184 1.68672 13.4059 1.70354 13.3943 1.72089C13.3827 1.73824 13.3719 1.75623 13.3621 1.77463C13.3523 1.79304 13.3433 1.81198 13.3353 1.83123C13.3273 1.85059 13.3202 1.87027 13.3142 1.89026C13.3081 1.91026 13.3031 1.93057 13.2989 1.95109C13.2948 1.97162 13.2917 1.99225 13.2897 2.01309C13.2877 2.03382 13.2867 2.05477 13.2867 2.07561V2.11951L10.2374 1.0617C10.143 1.02933 10.0472 1.00183 9.94999 0.97908C9.85277 0.956441 9.7547 0.938668 9.65568 0.925867C9.55666 0.913066 9.45732 0.905237 9.35756 0.902487C9.2578 0.899736 9.15804 0.902064 9.05849 0.909363C8.95894 0.916663 8.86002 0.928935 8.76174 0.946284C8.66346 0.963529 8.56624 0.985745 8.47018 1.01293C8.37412 1.04002 8.27965 1.07197 8.18687 1.10857C8.09398 1.14528 8.00321 1.18654 7.91456 1.23235L3.26882 3.65011C3.24481 3.65942 3.22143 3.67 3.19858 3.68164C3.17562 3.69327 3.1533 3.70597 3.13172 3.71983C3.11003 3.73369 3.08908 3.7485 3.06898 3.76447C3.04878 3.78034 3.02942 3.79716 3.0108 3.81493C2.99228 3.83281 2.97472 3.85143 2.95801 3.8709C2.94129 3.89047 2.92553 3.91078 2.91082 3.93183C2.89612 3.95289 2.88247 3.97468 2.86999 3.997C2.8574 4.01943 2.84587 4.04239 2.8356 4.06598C2.82524 4.08946 2.81614 4.11348 2.8082 4.13792C2.80016 4.16235 2.7935 4.18711 2.78789 4.21218C2.78239 4.23725 2.77816 4.26254 2.77509 4.28803C2.77202 4.31364 2.77023 4.33924 2.7697 4.36484C2.76917 4.39055 2.76991 4.41625 2.77192 4.44185C2.77382 4.46746 2.7771 4.49295 2.78155 4.51824C2.78609 4.54352 2.79181 4.56849 2.79879 4.59324C2.80567 4.618 2.81381 4.64233 2.82312 4.66624C2.83254 4.69025 2.84301 4.71363 2.85465 4.73659C2.86628 4.75944 2.87898 4.78176 2.89284 4.80335C2.9067 4.82503 2.92151 4.84598 2.93738 4.86619C2.95325 4.88639 2.97007 4.90575 2.98784 4.92427C3.00572 4.94288 3.02434 4.96045 3.0438 4.97716C3.06337 4.99388 3.08369 5.00964 3.10474 5.02434C3.12579 5.03905 3.14748 5.0527 3.16991 5.06529C3.19233 5.07787 3.21529 5.0893 3.23878 5.09967C3.26226 5.11004 3.28628 5.11913 3.31072 5.12717C3.33515 5.13511 3.35991 5.14188 3.38498 5.14738C3.41005 5.15299 3.43534 5.15732 3.46094 5.16039C3.48644 5.16335 3.51204 5.16526 3.53774 5.16579C3.56335 5.16632 3.58905 5.16558 3.61466 5.16357C3.64026 5.16166 3.66575 5.15838 3.69104 5.15394C3.71632 5.1495 3.74139 5.14378 3.76615 5.1368C3.7909 5.12992 3.81524 5.12178 3.83915 5.11247L6.71044 4.313C6.70272 4.36145 6.6987 4.41022 6.69827 4.45931C6.69806 4.48756 6.69933 4.5157 6.70198 4.54384C6.70451 4.57198 6.70853 4.59991 6.71393 4.62773C6.71922 4.65545 6.72599 4.68285 6.73403 4.70993C6.74207 4.73701 6.75138 4.76367 6.76207 4.7898C6.77275 4.81604 6.78471 4.84154 6.79782 4.86661C6.81105 4.89158 6.82543 4.91591 6.84099 4.93939C6.85654 4.96299 6.87325 4.98584 6.89103 5.00773C6.9088 5.02963 6.92763 5.05069 6.94752 5.07079C6.96741 5.09089 6.98825 5.10993 7.00994 5.12802C7.03173 5.14611 7.05426 5.16304 7.07764 5.1788C7.10113 5.19467 7.12525 5.20927 7.15011 5.22281C7.17486 5.23625 7.20036 5.24841 7.22639 5.25941C7.25241 5.27042 7.27896 5.28004 7.30594 5.2884C7.33302 5.29676 7.36032 5.30374 7.38804 5.30945C7.41565 5.31506 7.44358 5.3194 7.47172 5.32236C7.49975 5.32522 7.528 5.3268 7.55624 5.32691H9.36729C9.46155 5.41958 9.55994 5.5076 9.66235 5.59096C9.76486 5.67443 9.87097 5.75293 9.98078 5.82656C10.0906 5.90009 10.2035 5.96843 10.3196 6.03148C10.4358 6.09453 10.5546 6.15208 10.676 6.20403C10.7976 6.25608 10.9212 6.30231 11.0471 6.34283C11.1728 6.38334 11.3002 6.41783 11.4292 6.4465C11.5582 6.47517 11.6883 6.49781 11.8194 6.51432C11.9505 6.53082 12.0821 6.54129 12.2141 6.54552H13.2842V6.6821C13.2842 6.70294 13.2853 6.72389 13.2873 6.74462C13.2893 6.76546 13.2924 6.78609 13.2965 6.80662C13.3006 6.82714 13.3057 6.84745 13.3117 6.86745C13.3178 6.88744 13.3249 6.90712 13.3329 6.92637C13.3408 6.94573 13.3498 6.96467 13.3597 6.98308C13.3695 7.00149 13.3802 7.01947 13.3918 7.03682C13.4035 7.05417 13.4159 7.07099 13.4292 7.08718C13.4425 7.10336 13.4565 7.11881 13.4713 7.13362C13.4861 7.14832 13.5015 7.1624 13.5177 7.17572C13.5339 7.18895 13.5506 7.20143 13.5681 7.21296C13.5854 7.2246 13.6034 7.23539 13.6218 7.24523C13.6402 7.25507 13.6592 7.26406 13.6784 7.272C13.6978 7.28004 13.7175 7.28702 13.7374 7.29315C13.7574 7.29918 13.7778 7.30426 13.7983 7.30839C13.8188 7.31241 13.8394 7.31548 13.8603 7.31759C13.8811 7.3196 13.902 7.32066 13.9228 7.32066H15.4462C15.4675 7.32066 15.4885 7.31971 15.5096 7.3177C15.5307 7.31569 15.5516 7.31262 15.5724 7.30849C15.5931 7.30447 15.6137 7.29929 15.634 7.29315C15.6542 7.28702 15.6741 7.27993 15.6936 7.27178C15.7132 7.26364 15.7324 7.25465 15.751 7.2446C15.7696 7.23455 15.7877 7.22365 15.8053 7.2118C15.8228 7.20006 15.8397 7.18736 15.8561 7.17382C15.8724 7.16039 15.888 7.1461 15.9029 7.13097C15.9178 7.11595 15.9319 7.10019 15.9452 7.08379C15.9585 7.06729 15.9709 7.05026 15.9826 7.03248C15.9942 7.01482 16.0049 6.99662 16.0147 6.97789C16.0246 6.95906 16.0333 6.93992 16.0413 6.92024C16.0492 6.90056 16.0561 6.88057 16.062 6.86025C16.0679 6.83994 16.0728 6.81942 16.0766 6.79858C16.0805 6.77774 16.0834 6.75679 16.0851 6.73574C16.0869 6.71458 16.0876 6.69353 16.0873 6.67226V2.07561C16.0873 2.05477 16.0862 2.03382 16.0842 2.01309C16.0822 1.99225 16.0791 1.97162 16.075 1.95109C16.0709 1.93057 16.0658 1.91026 16.0598 1.89026C16.0538 1.87027 16.0467 1.85059 16.0387 1.83123C16.0307 1.81198 16.0217 1.79304 16.0119 1.77463C16.002 1.75623 15.9913 1.73824 15.9797 1.72089C15.9681 1.70354 15.9556 1.68672 15.9424 1.67053C15.929 1.65435 15.9151 1.6389 15.9003 1.62409C15.8854 1.60928 15.87 1.59532 15.8538 1.58199C15.8376 1.56876 15.8209 1.55628 15.8035 1.54475C15.7861 1.53311 15.7681 1.52232 15.7497 1.51248C15.7313 1.50264 15.7124 1.49365 15.6931 1.48572C15.6738 1.47768 15.6541 1.47069 15.6341 1.46456C15.6141 1.45853 15.5938 1.45345 15.5732 1.44932C15.5527 1.4453 15.5321 1.44224 15.5113 1.44012C15.4904 1.43811 15.4696 1.43705 15.4487 1.43705ZM13.2867 6.04841H12.2166C11.0759 6.04841 10.1814 5.42688 9.63294 4.90533C9.61019 4.88396 9.58427 4.86767 9.55518 4.85624C9.52609 4.84492 9.49594 4.83931 9.46473 4.83953H7.55624C7.5317 4.83931 7.50737 4.83678 7.48335 4.83191C7.45934 4.82694 7.43596 4.81974 7.41332 4.81022C7.39068 4.8007 7.3692 4.78906 7.34889 4.77542C7.32847 4.76166 7.30964 4.74611 7.2924 4.72866C7.27505 4.71131 7.2596 4.69237 7.24606 4.67195C7.23252 4.65153 7.22099 4.62995 7.21168 4.60721C7.20226 4.58457 7.19528 4.56119 7.19042 4.53707C7.18566 4.51305 7.18333 4.48872 7.18333 4.46418C7.18322 4.42895 7.18798 4.39446 7.19772 4.36061C7.20734 4.32675 7.22162 4.29491 7.24035 4.26508C7.25918 4.23535 7.28171 4.2088 7.30806 4.18542C7.3344 4.16204 7.36349 4.14289 7.39533 4.12787C7.40189 4.12913 7.40835 4.12913 7.41491 4.12787C7.46029 4.1102 7.50747 4.10121 7.55624 4.10099H10.4275C10.4435 4.10099 10.4594 4.09941 10.4751 4.09634C10.4908 4.09317 10.506 4.08862 10.5208 4.08248C10.5357 4.07634 10.5496 4.06883 10.563 4.05995C10.5763 4.05106 10.5886 4.0409 10.5999 4.02958C10.6112 4.01826 10.6213 4.00599 10.6302 3.99266C10.6391 3.97933 10.6466 3.96537 10.6528 3.95056C10.6589 3.93575 10.6635 3.92051 10.6666 3.90486C10.6697 3.88909 10.6713 3.87333 10.6713 3.85725C10.6713 3.84128 10.6697 3.82541 10.6666 3.80975C10.6635 3.79399 10.6589 3.77875 10.6528 3.76405C10.6466 3.74924 10.6391 3.73517 10.6302 3.72184C10.6213 3.70861 10.6112 3.69623 10.5999 3.68492C10.5886 3.6736 10.5763 3.66355 10.563 3.65466C10.5496 3.64577 10.5357 3.63826 10.5208 3.63212C10.506 3.62599 10.4908 3.62133 10.4751 3.61827C10.4594 3.61509 10.4435 3.61351 10.4275 3.61351H7.55624C7.4403 3.61351 7.329 3.63625 7.22237 3.68185L3.70754 4.65672C3.67908 4.66476 3.6501 4.66835 3.62058 4.66772C3.59106 4.66698 3.56218 4.66201 3.53415 4.65259C3.50611 4.64328 3.48009 4.63006 3.45607 4.61292C3.43206 4.59568 3.41101 4.57536 3.39313 4.55188C3.38646 4.54331 3.38022 4.53442 3.37461 4.52511C3.3689 4.51591 3.36372 4.50639 3.35906 4.49655C3.35451 4.48671 3.35039 4.47666 3.3469 4.4664C3.3433 4.45614 3.34034 4.44577 3.33801 4.43519C3.33558 4.42461 3.33378 4.41393 3.33251 4.40314C3.33134 4.39234 3.33071 4.38155 3.3306 4.37066C3.3306 4.35976 3.33113 4.34897 3.3323 4.33818C3.33346 4.32739 3.33515 4.3167 3.33748 4.30612C3.33981 4.29544 3.34266 4.28507 3.34616 4.2747C3.34965 4.26444 3.35367 4.25439 3.35822 4.24455C3.36277 4.23471 3.36784 4.22509 3.37345 4.21578C3.37906 4.20657 3.38519 4.19758 3.39175 4.18891C3.39842 4.18034 3.4054 4.17209 3.41291 4.16426C3.42042 4.15643 3.42836 4.14902 3.43661 4.14204C3.44497 4.13506 3.45364 4.1285 3.46263 4.12247C3.47162 4.11644 3.48093 4.11094 3.49056 4.10586L8.14614 1.6662C8.2204 1.62737 8.29657 1.59257 8.37444 1.56157C8.4523 1.53047 8.53154 1.50349 8.61226 1.48064C8.69287 1.45768 8.77444 1.43885 8.85695 1.42425C8.93958 1.40965 9.02262 1.39918 9.1062 1.39304C9.18988 1.38691 9.27356 1.385 9.35735 1.38733C9.44114 1.38976 9.52461 1.39632 9.60776 1.40722C9.69091 1.41801 9.77322 1.43314 9.85489 1.45239C9.93645 1.47165 10.0169 1.49492 10.0961 1.52243L13.2867 2.63134V6.04841Z" fill="#F7F7F7"/>
</g>
<path d="M8.04366 6.20801C7.99891 6.20801 7.95416 6.20917 7.90952 6.21129C7.86477 6.21351 7.82012 6.21679 7.77558 6.22123C7.73105 6.22557 7.68661 6.23107 7.64239 6.23763C7.59807 6.24419 7.55406 6.25181 7.51015 6.26059C7.46625 6.26926 7.42256 6.2791 7.37918 6.29C7.3357 6.30089 7.29264 6.31274 7.2498 6.32575C7.20695 6.33877 7.16442 6.35284 7.12232 6.36786C7.08021 6.38299 7.03843 6.39907 6.99706 6.41621C6.9557 6.43334 6.91486 6.45143 6.87434 6.47058C6.83393 6.48973 6.79394 6.50983 6.75448 6.53088C6.71502 6.55204 6.67609 6.57405 6.63769 6.59711C6.59929 6.62007 6.56152 6.64398 6.52428 6.66894C6.48704 6.6938 6.45044 6.71951 6.41457 6.74617C6.3786 6.77283 6.34327 6.80034 6.30868 6.82879C6.27408 6.85715 6.24023 6.88634 6.20712 6.91639C6.1739 6.94643 6.14152 6.97733 6.10989 7.00896C6.07826 7.04059 6.04737 7.07307 6.01733 7.10618C5.98728 7.13929 5.95798 7.17325 5.92962 7.20785C5.90127 7.24244 5.87366 7.27767 5.847 7.31364C5.82034 7.34961 5.79463 7.3861 5.76977 7.42334C5.74491 7.46058 5.7209 7.49835 5.69794 7.53675C5.67488 7.57515 5.65287 7.61409 5.63182 7.65355C5.61066 7.69301 5.59056 7.733 5.57141 7.77341C5.55226 7.81393 5.53417 7.85476 5.51704 7.89613C5.4999 7.93749 5.48382 7.97928 5.46869 8.02138C5.45367 8.06349 5.4396 8.10602 5.42658 8.14886C5.41357 8.1916 5.40172 8.23477 5.39083 8.27814C5.37993 8.32162 5.37009 8.36521 5.36142 8.40911C5.35264 8.45301 5.34502 8.49713 5.33846 8.54135C5.3319 8.58568 5.3264 8.63 5.32206 8.67454C5.31762 8.71908 5.31434 8.76372 5.31212 8.80847C5.3099 8.85312 5.30884 8.89787 5.30884 8.94262C5.30884 8.98737 5.3099 9.03212 5.31212 9.07676C5.31434 9.12151 5.31762 9.16616 5.32206 9.2107C5.3264 9.25523 5.3319 9.29956 5.33846 9.34389C5.34502 9.38811 5.35264 9.43222 5.36142 9.47613C5.37009 9.52003 5.37993 9.56362 5.39083 9.6071C5.40172 9.65047 5.41357 9.69363 5.42658 9.73648C5.4396 9.77922 5.45367 9.82175 5.46869 9.86385C5.48382 9.90606 5.4999 9.94775 5.51704 9.98911C5.53417 10.0305 5.55226 10.0713 5.57141 10.1118C5.59056 10.1522 5.61066 10.1922 5.63182 10.2317C5.65287 10.2712 5.67488 10.3101 5.69794 10.3485C5.7209 10.3869 5.74491 10.4247 5.76977 10.4619C5.79463 10.4991 5.82034 10.5356 5.847 10.5716C5.87366 10.6076 5.90127 10.6428 5.92962 10.6774C5.95798 10.712 5.98728 10.7459 6.01733 10.7791C6.04737 10.8123 6.07826 10.8446 6.10989 10.8763C6.14152 10.9079 6.1739 10.9388 6.20712 10.9688C6.24023 10.9989 6.27408 11.0281 6.30868 11.0565C6.34327 11.0849 6.3786 11.1124 6.41457 11.1391C6.45044 11.1657 6.48704 11.1915 6.52428 11.2164C6.56152 11.2413 6.59929 11.2652 6.63769 11.2881C6.67609 11.3112 6.71502 11.3332 6.75448 11.3544C6.79394 11.3754 6.83393 11.3955 6.87434 11.4147C6.91486 11.4338 6.9557 11.4519 6.99706 11.469C7.03843 11.4862 7.08021 11.5023 7.12232 11.5174C7.16442 11.5324 7.20695 11.5465 7.2498 11.5595C7.29264 11.5725 7.3357 11.5845 7.37918 11.5952C7.42256 11.6061 7.46625 11.616 7.51015 11.6247C7.55406 11.6334 7.59807 11.641 7.64239 11.6476C7.68661 11.6542 7.73105 11.6597 7.77558 11.6641C7.82012 11.6684 7.86477 11.6717 7.90952 11.674C7.95416 11.6762 7.99891 11.6772 8.04366 11.6772C8.08841 11.6772 8.13316 11.6762 8.1778 11.674C8.22255 11.6717 8.2672 11.6684 8.31174 11.6641C8.35627 11.6597 8.40071 11.6542 8.44493 11.6476C8.48925 11.641 8.53326 11.6334 8.57717 11.6247C8.62107 11.616 8.66476 11.6061 8.70814 11.5952C8.75162 11.5845 8.79468 11.5725 8.83752 11.5595C8.88037 11.5465 8.92289 11.5324 8.965 11.5174C9.00711 11.5023 9.04889 11.4862 9.09026 11.469C9.13162 11.4519 9.17246 11.4338 9.21298 11.4147C9.25339 11.3955 9.29338 11.3754 9.33284 11.3544C9.3723 11.3332 9.41123 11.3112 9.44963 11.2881C9.48803 11.2652 9.5258 11.2413 9.56304 11.2164C9.60028 11.1915 9.63688 11.1657 9.67275 11.1391C9.70872 11.1124 9.74405 11.0849 9.77864 11.0565C9.81324 11.0281 9.84709 10.9989 9.8802 10.9688C9.91342 10.9388 9.9458 10.9079 9.97743 10.8763C10.0091 10.8446 10.0399 10.8123 10.07 10.7791C10.1 10.7459 10.1293 10.712 10.1577 10.6774C10.186 10.6428 10.2137 10.6076 10.2403 10.5716C10.267 10.5356 10.2927 10.4991 10.3175 10.4619C10.3424 10.4247 10.3664 10.3869 10.3894 10.3485C10.4124 10.3101 10.4344 10.2712 10.4555 10.2317C10.4767 10.1922 10.4968 10.1522 10.5159 10.1118C10.5351 10.0713 10.5531 10.0305 10.5703 9.98911C10.5874 9.94775 10.6035 9.90606 10.6186 9.86385C10.6337 9.82175 10.6477 9.77922 10.6607 9.73648C10.6737 9.69363 10.6856 9.65047 10.6965 9.6071C10.7074 9.56362 10.7172 9.52003 10.7259 9.47613C10.7347 9.43222 10.7423 9.38811 10.7489 9.34389C10.7554 9.29956 10.7609 9.25523 10.7653 9.2107C10.7697 9.16616 10.773 9.12151 10.7752 9.07676C10.7773 9.03212 10.7785 8.98737 10.7785 8.94262C10.7784 8.89787 10.7773 8.85312 10.7751 8.80847C10.7729 8.76383 10.7695 8.71919 10.765 8.67465C10.7607 8.63011 10.7551 8.58578 10.7485 8.54146C10.742 8.49724 10.7343 8.45323 10.7255 8.40932C10.7168 8.36542 10.707 8.32183 10.6961 8.27835C10.6852 8.23498 10.6732 8.19192 10.6602 8.14907C10.6472 8.10623 10.6331 8.06381 10.618 8.0217C10.6029 7.9796 10.5868 7.93781 10.5696 7.89655C10.5525 7.85519 10.5343 7.81435 10.5152 7.77383C10.496 7.73342 10.4759 7.69343 10.4549 7.65408C10.4337 7.61461 10.4117 7.57568 10.3886 7.53728C10.3657 7.49888 10.3417 7.46111 10.3168 7.42398C10.2919 7.38674 10.2662 7.35014 10.2396 7.31427C10.2129 7.2783 10.1853 7.24307 10.157 7.20848C10.1286 7.17389 10.0993 7.14003 10.0693 7.10692C10.0392 7.0737 10.0084 7.04133 9.97679 7.0097C9.94516 6.97807 9.91268 6.94717 9.87957 6.91713C9.84646 6.88709 9.8125 6.85789 9.7779 6.82953C9.74342 6.80108 9.70808 6.77357 9.67222 6.74691C9.63625 6.72025 9.59964 6.69454 9.56251 6.66968C9.52527 6.64482 9.48751 6.62081 9.4491 6.59785C9.4107 6.57479 9.37177 6.55278 9.33231 6.53162C9.29295 6.51057 9.25296 6.49037 9.21255 6.47122C9.17203 6.45207 9.1312 6.43398 9.08983 6.41684C9.04847 6.3997 9.00679 6.38362 8.96468 6.36849C8.92258 6.35337 8.88005 6.3393 8.83731 6.32628C8.79446 6.31327 8.7513 6.30132 8.70793 6.29042C8.66455 6.27952 8.62086 6.26968 8.57706 6.26101C8.53316 6.25223 8.48904 6.24451 8.44482 6.23795C8.4006 6.23139 8.35617 6.22589 8.31163 6.22144C8.26709 6.217 8.22255 6.21372 8.1778 6.21139C8.13316 6.20917 8.08841 6.20811 8.04366 6.20801ZM8.04366 8.69887C8.06672 8.69887 8.08978 8.69993 8.11285 8.70205C8.1358 8.70406 8.15876 8.70713 8.18151 8.71115C8.20425 8.71527 8.22679 8.72035 8.249 8.72638C8.27132 8.73252 8.29333 8.7395 8.31502 8.74754C8.3367 8.75547 8.35797 8.76447 8.37881 8.7743C8.39975 8.78425 8.42007 8.79504 8.44006 8.80668C8.45995 8.81842 8.47931 8.8309 8.49814 8.84434C8.51697 8.85767 8.53517 8.87195 8.55273 8.88687C8.57029 8.90189 8.58722 8.91765 8.6034 8.93416C8.61959 8.95066 8.63504 8.9678 8.64963 8.98568C8.66434 9.00355 8.6782 9.02196 8.69121 9.04111C8.70422 9.06015 8.71639 9.07983 8.72771 9.09993C8.73903 9.12003 8.7494 9.14066 8.75881 9.16171C8.76833 9.18287 8.7769 9.20424 8.78441 9.22614C8.79203 9.24793 8.79859 9.27004 8.8043 9.29247C8.80991 9.3149 8.81456 9.33743 8.81816 9.36028C8.82176 9.38314 8.8244 9.40599 8.82599 9.42905C8.82768 9.45211 8.82821 9.47517 8.82779 9.49834C8.82736 9.52141 8.82588 9.54447 8.82345 9.56742C8.82102 9.59038 8.81753 9.61323 8.81308 9.63587C8.80853 9.65851 8.80303 9.68094 8.79658 9.70316C8.79013 9.72527 8.78272 9.74716 8.77436 9.76875C8.76601 9.79022 8.75659 9.81138 8.74633 9.83201C8.73617 9.85275 8.72496 9.87295 8.7129 9.89263C8.70094 9.91241 8.68804 9.93156 8.67428 9.95007C8.66053 9.96869 8.64604 9.98668 8.6307 10.0039C8.61536 10.0213 8.59938 10.0378 8.58256 10.0537C8.56574 10.0696 8.54829 10.0847 8.5302 10.099C8.51211 10.1134 8.49338 10.1269 8.47402 10.1395C8.45477 10.1522 8.43498 10.1641 8.41457 10.175C8.39425 10.186 8.37341 10.1959 8.35215 10.205C8.33099 10.2141 8.30941 10.2223 8.2874 10.2295V10.4513C8.2874 10.4673 8.28582 10.4832 8.28275 10.4988C8.27958 10.5146 8.27492 10.5298 8.26889 10.5445C8.26275 10.5593 8.25524 10.5734 8.24636 10.5867C8.23747 10.6 8.22731 10.6123 8.21599 10.6236C8.20467 10.635 8.1924 10.645 8.17907 10.6539C8.16574 10.6628 8.15167 10.6703 8.13697 10.6764C8.12216 10.6826 8.10692 10.6872 8.09116 10.6903C8.0755 10.6935 8.05963 10.6951 8.04366 10.6951C8.02769 10.6951 8.01182 10.6935 7.99616 10.6903C7.9804 10.6872 7.96516 10.6826 7.95035 10.6764C7.93565 10.6703 7.92158 10.6628 7.90825 10.6539C7.89492 10.645 7.88264 10.635 7.87133 10.6236C7.86001 10.6123 7.84985 10.6 7.84096 10.5867C7.83208 10.5734 7.82457 10.5593 7.81843 10.5445C7.81229 10.5298 7.80774 10.5146 7.80457 10.4988C7.8015 10.4832 7.79992 10.4673 7.79992 10.4513V10.2295C7.76067 10.217 7.72269 10.2014 7.68598 10.1829C7.64916 10.1644 7.61404 10.1431 7.58061 10.1191C7.54718 10.0951 7.51586 10.0687 7.48667 10.0397C7.45736 10.0107 7.4306 9.9797 7.40616 9.94648C7.38183 9.91326 7.36025 9.87845 7.34131 9.84185C7.32248 9.80524 7.3065 9.76748 7.2936 9.72833C7.28069 9.6893 7.27085 9.64941 7.26429 9.60879C7.25763 9.56817 7.25414 9.52733 7.25392 9.48618C7.25392 9.4701 7.25551 9.45433 7.25858 9.43857C7.26175 9.42291 7.26641 9.40768 7.27244 9.39287C7.27857 9.37806 7.28609 9.36399 7.29497 9.35076C7.30386 9.33743 7.31401 9.32516 7.32533 9.31384C7.33665 9.30252 7.34893 9.29237 7.36226 9.28348C7.37559 9.27459 7.38966 9.26708 7.40436 9.26095C7.41917 9.25481 7.43441 9.25026 7.45017 9.24709C7.46583 9.24402 7.48169 9.24243 7.49767 9.24243C7.51364 9.24243 7.52951 9.24402 7.54527 9.24709C7.56093 9.25026 7.57617 9.25481 7.59098 9.26095C7.60579 9.26708 7.61975 9.27459 7.63308 9.28348C7.64641 9.29237 7.65868 9.30252 7.67 9.31384C7.68132 9.32516 7.69148 9.33743 7.70037 9.35076C7.70925 9.36399 7.71676 9.37806 7.7229 9.39287C7.72904 9.40768 7.73358 9.42291 7.73676 9.43857C7.73983 9.45433 7.74141 9.4701 7.74141 9.48618C7.74173 9.50575 7.74395 9.52521 7.74808 9.54436C7.7521 9.56362 7.75802 9.58224 7.76585 9.60033C7.77357 9.61831 7.78299 9.63545 7.79399 9.65174C7.8051 9.66793 7.81769 9.68295 7.83165 9.6967C7.84562 9.71046 7.86085 9.72273 7.87725 9.73352C7.89365 9.74441 7.91089 9.75351 7.92909 9.76092C7.94728 9.76843 7.96601 9.77404 7.98526 9.77784C8.00452 9.78155 8.02398 9.78345 8.04366 9.78345C8.06217 9.78176 8.08026 9.77848 8.09814 9.7734C8.11602 9.76832 8.13327 9.76176 8.14987 9.75351C8.16648 9.74526 8.18214 9.73553 8.19695 9.72442C8.21187 9.71321 8.22552 9.70083 8.238 9.68708C8.25048 9.67343 8.2617 9.65872 8.27143 9.64296C8.28116 9.6272 8.28941 9.61069 8.29618 9.59334C8.30285 9.5761 8.30793 9.55833 8.31131 9.54013C8.3148 9.52183 8.3165 9.50342 8.3165 9.48491C8.3165 9.46639 8.3148 9.44799 8.31131 9.42979C8.30793 9.41149 8.30285 9.39371 8.29618 9.37647C8.28941 9.35923 8.28116 9.34262 8.27143 9.32685C8.2617 9.31109 8.25048 9.29639 8.238 9.28274C8.22552 9.26899 8.21187 9.25661 8.19695 9.24539C8.18214 9.23429 8.16648 9.22455 8.14987 9.2163C8.13327 9.20805 8.11602 9.20149 8.09814 9.19641C8.08026 9.19133 8.06217 9.18806 8.04366 9.18636C8.02049 9.18657 7.99732 9.18573 7.97415 9.18393C7.95109 9.18213 7.92803 9.17927 7.90518 9.17536C7.88233 9.17145 7.85969 9.16658 7.83726 9.16066C7.81483 9.15473 7.79262 9.14785 7.77082 9.14003C7.74903 9.1322 7.72755 9.12331 7.7065 9.11358C7.68555 9.10385 7.66493 9.09305 7.64482 9.08152C7.62472 9.06989 7.60526 9.0574 7.58622 9.04407C7.56728 9.03074 7.54898 9.01657 7.5312 9.00165C7.51354 8.98663 7.49651 8.97097 7.48011 8.95447C7.46382 8.93796 7.44826 8.92083 7.43345 8.90295C7.41864 8.88507 7.40468 8.86655 7.39156 8.84741C7.37844 8.82836 7.36617 8.80869 7.35474 8.78848C7.34332 8.76827 7.33285 8.74764 7.32332 8.72649C7.3137 8.70533 7.30513 8.68385 7.29751 8.66195C7.28989 8.64005 7.28323 8.61784 7.27752 8.5953C7.2718 8.57288 7.26715 8.55013 7.26355 8.52728C7.25985 8.50432 7.2572 8.48137 7.25562 8.4582C7.25403 8.43503 7.2535 8.41186 7.25392 8.38869C7.25435 8.36552 7.25583 8.34236 7.25837 8.31929C7.26091 8.29623 7.2644 8.27338 7.26895 8.25063C7.2735 8.22789 7.2791 8.20536 7.28556 8.18314C7.29212 8.16082 7.29973 8.13892 7.3082 8.11734C7.31666 8.09576 7.32607 8.0746 7.33655 8.05386C7.34692 8.03313 7.35813 8.01292 7.3704 7.99314C7.38257 7.97335 7.39558 7.95421 7.40944 7.93569C7.4233 7.91707 7.438 7.89919 7.45355 7.88184C7.469 7.8646 7.48519 7.8481 7.50222 7.83223C7.51914 7.81636 7.53671 7.80134 7.55501 7.78706C7.57331 7.77277 7.59225 7.75944 7.61171 7.74685C7.63118 7.73427 7.65117 7.72252 7.6717 7.71173C7.69222 7.70094 7.71327 7.6911 7.73464 7.68211C7.75601 7.67312 7.77781 7.66518 7.79992 7.6582V7.43636C7.79992 7.42038 7.8015 7.40451 7.80457 7.38886C7.80774 7.3732 7.81229 7.35796 7.81843 7.34315C7.82457 7.32834 7.83208 7.31427 7.84096 7.30105C7.84985 7.28772 7.86001 7.27534 7.87133 7.26402C7.88264 7.2527 7.89492 7.24265 7.90825 7.23376C7.92158 7.22488 7.93565 7.21737 7.95035 7.21123C7.96516 7.2051 7.9804 7.20044 7.99616 7.19737C8.01182 7.1942 8.02769 7.19272 8.04366 7.19272C8.05963 7.19272 8.0755 7.1942 8.09116 7.19737C8.10692 7.20044 8.12216 7.2051 8.13697 7.21123C8.15167 7.21737 8.16574 7.22488 8.17907 7.23376C8.1924 7.24265 8.20467 7.2527 8.21599 7.26402C8.22731 7.27534 8.23747 7.28772 8.24636 7.30105C8.25524 7.31427 8.26275 7.32834 8.26889 7.34315C8.27492 7.35796 8.27958 7.3732 8.28275 7.38886C8.28582 7.40451 8.2874 7.42038 8.2874 7.43636V7.6582C8.32623 7.67111 8.36379 7.68698 8.40018 7.7057C8.43657 7.72453 8.47127 7.74601 8.50417 7.77023C8.53718 7.79436 8.56818 7.82101 8.59706 7.85C8.62583 7.87899 8.65228 7.91009 8.67629 7.9432C8.70031 7.97642 8.72168 8.01112 8.74019 8.04762C8.75881 8.08412 8.77447 8.12178 8.78716 8.16061C8.79986 8.19954 8.80949 8.23921 8.81605 8.27962C8.8225 8.32003 8.82588 8.36066 8.8261 8.4016C8.8261 8.41757 8.82451 8.43344 8.82144 8.4491C8.81827 8.46476 8.81361 8.47999 8.80748 8.4948C8.80145 8.50961 8.79393 8.52368 8.78505 8.53701C8.77606 8.55024 8.76601 8.56261 8.75469 8.57393C8.74337 8.58525 8.73109 8.5953 8.71776 8.60419C8.70443 8.61308 8.69036 8.62059 8.67566 8.62672C8.66085 8.63286 8.64561 8.63752 8.62985 8.64058C8.61419 8.64376 8.59833 8.64524 8.58235 8.64524C8.56638 8.64524 8.55051 8.64376 8.53474 8.64058C8.51909 8.63752 8.50385 8.63286 8.48904 8.62672C8.47423 8.62059 8.46027 8.61308 8.44694 8.60419C8.43361 8.5953 8.42134 8.58525 8.41002 8.57393C8.3987 8.56261 8.38854 8.55024 8.37965 8.53701C8.37077 8.52368 8.36326 8.50961 8.35712 8.4948C8.35098 8.47999 8.34644 8.46476 8.34326 8.4491C8.34019 8.43344 8.33861 8.41757 8.33861 8.4016C8.33903 8.38192 8.33766 8.36246 8.33416 8.3432C8.33078 8.32384 8.32549 8.30501 8.31819 8.28682C8.311 8.26862 8.30211 8.25127 8.29142 8.23477C8.28074 8.21837 8.26847 8.20313 8.25471 8.18917C8.24096 8.1751 8.22594 8.16262 8.20965 8.15172C8.19336 8.14072 8.17622 8.13151 8.15802 8.124C8.13993 8.11649 8.12121 8.11088 8.10195 8.10718C8.0827 8.10337 8.06323 8.10157 8.04366 8.10179C8.02409 8.10179 8.00462 8.10369 7.98537 8.1075C7.96622 8.11131 7.9475 8.11702 7.9294 8.12453C7.91131 8.13204 7.89407 8.14125 7.87778 8.15214C7.86149 8.16293 7.84636 8.17531 7.8325 8.18917C7.81864 8.20313 7.80626 8.21816 7.79537 8.23445C7.78447 8.25074 7.77527 8.26798 7.76776 8.28608C7.76035 8.30417 7.75464 8.32289 7.75083 8.34204C7.74702 8.36129 7.74512 8.38076 7.74512 8.40033C7.74512 8.4199 7.74702 8.43937 7.75083 8.45862C7.75464 8.47777 7.76035 8.49649 7.76776 8.51459C7.77527 8.53268 7.78447 8.54992 7.79537 8.56621C7.80626 8.5825 7.81864 8.59763 7.8325 8.61149C7.84636 8.62535 7.86149 8.63773 7.87778 8.64862C7.89407 8.65952 7.91131 8.66872 7.9294 8.67613C7.9475 8.68364 7.96622 8.68935 7.98537 8.69316C8.00462 8.69697 8.02409 8.69887 8.04366 8.69887Z" fill="#F7F7F7"/>
</svg>
