<svg width="24" height="24" viewBox="0 0 24 24" fill="none" xmlns="http://www.w3.org/2000/svg">
<path fill-rule="evenodd" clip-rule="evenodd" d="M14.1932 8.47402C14.1932 8.99982 14.6195 9.42607 15.1453 9.42607H16.6551L13.2412 12.84L11.0582 10.658C10.686 10.2857 10.0843 10.2857 9.71211 10.658L4.67304 15.697C4.30133 16.0687 4.30133 16.6714 4.67304 17.0431C5.04477 17.4148 5.64748 17.4148 6.01918 17.043L10.3852 12.6762L12.5681 14.8592C12.9403 15.2314 13.542 15.2314 13.9143 14.8592L18.0013 10.7722V12.2821C18.0013 12.8078 18.4275 13.2341 18.9533 13.2341C19.4791 13.2341 19.9053 12.8078 19.9053 12.2821V7.52197H15.1453C14.6195 7.52197 14.1932 7.94822 14.1932 8.47402Z" fill="#3D992B"/>
</svg>
