<svg width="18" height="14" viewBox="0 0 18 14" fill="none" xmlns="http://www.w3.org/2000/svg">
<path d="M17.9939 9.69528C17.9028 8.95721 17.7761 8.29077 17.6181 7.71681C17.5122 7.318 17.2523 6.96388 16.8869 6.71937C16.0457 6.1538 15.1702 5.77943 14.59 5.56643C15.2054 4.94624 15.6014 4.05494 15.6014 3.08002C15.6014 1.35288 14.2834 0 12.6009 0C10.9903 0 9.71717 1.24063 9.61088 2.86126C9.41448 2.82125 9.21011 2.79993 9.00036 2.79993C8.79073 2.79993 8.58662 2.82101 8.38983 2.86126C8.28341 1.24063 7.01037 0 5.39998 0C3.71744 0 2.39947 1.35288 2.39947 3.08002C2.39947 4.05494 2.79549 4.94624 3.41089 5.56643C2.83066 5.77943 1.95544 6.1538 1.11449 6.71913C0.748505 6.96364 0.488684 7.318 0.383421 7.7143C0.224628 8.29101 0.0980558 8.95721 0.00691336 9.69552C-0.0507246 10.1696 0.257106 10.6252 0.741059 10.7795C1.40075 10.9849 2.44029 11.1151 3.82578 11.17C3.75043 11.524 3.67212 11.9633 3.60678 12.4956C3.54889 12.9705 3.85787 13.426 4.34183 13.5791C5.22835 13.8583 6.79561 14 8.99984 14C11.2039 14 12.7713 13.8583 13.6584 13.5791C14.1417 13.426 14.4511 12.9705 14.3929 12.4952C14.3274 11.9629 14.2491 11.5234 14.1742 11.17C15.5597 11.1151 16.5992 10.9849 17.2609 10.7789C17.7428 10.6252 18.0509 10.1696 17.993 9.69528H17.9939ZM12.6009 0.559938C13.9695 0.559938 15.0013 1.64327 15.0013 3.08002C15.0013 4.57151 13.8796 5.87994 12.6009 5.87994C12.398 5.87994 12.1956 5.84724 11.996 5.78339C11.96 4.54072 11.2425 3.5047 10.2019 3.04947C10.2167 1.62818 11.2425 0.559938 12.6009 0.559938ZM11.4005 5.87994C11.4005 7.37155 10.279 8.67999 9.00036 8.67999C7.7218 8.67999 6.60023 7.37155 6.60023 5.87994C6.60023 4.44332 7.63207 3.35999 9.00036 3.35999C10.3688 3.35999 11.4005 4.44332 11.4005 5.87994ZM5.39998 0.559938C6.75864 0.559938 7.78444 1.62818 7.79882 3.04947C6.75838 3.5047 6.0408 4.54072 6.00473 5.78339C5.80524 5.84724 5.60242 5.87994 5.39998 5.87994C4.12129 5.87994 2.99947 4.57151 2.99947 3.08002C2.99947 1.64327 4.0313 0.559938 5.39998 0.559938ZM0.932972 10.2491C0.715513 10.18 0.576618 9.97381 0.602677 9.75938C0.690867 9.04681 0.812433 8.40589 0.965064 7.85147C1.03657 7.58216 1.21359 7.34184 1.46404 7.17413C2.41808 6.53297 3.41628 6.1538 3.92206 5.98585C4.3616 6.27252 4.86622 6.44024 5.39959 6.44024C5.6132 6.44024 5.82565 6.41053 6.03541 6.3577C6.14041 7.14358 6.49792 7.84955 7.01127 8.36672C6.43104 8.58008 5.5553 8.95469 4.715 9.51942C4.34991 9.76381 4.09061 10.1183 3.98599 10.5129C3.977 10.5442 3.96763 10.5804 3.958 10.6153C2.2408 10.5532 1.36442 10.3835 0.932715 10.2491H0.932972ZM13.4667 13.0488C12.8997 13.2274 11.6645 13.4399 9.0001 13.4399C6.33566 13.4399 5.10049 13.2272 4.53412 13.0488C4.31602 12.9799 4.17674 12.7739 4.20293 12.5594C4.31423 11.6561 4.46172 11.0253 4.56737 10.6515C4.63874 10.3818 4.81551 10.1415 5.06506 9.97417C6.0182 9.33373 7.01641 8.95433 7.52282 8.78577C7.96236 9.07221 8.46698 9.24029 9.0001 9.24029C9.53322 9.24029 10.0381 9.07257 10.4774 8.78577C10.9838 8.95433 11.9823 9.33373 12.9354 9.97441C13.1847 10.1415 13.3615 10.3818 13.434 10.6557C13.5385 11.0255 13.686 11.6564 13.7973 12.5594C13.8235 12.7741 13.6839 12.9803 13.4665 13.0492L13.4667 13.0488ZM17.0695 10.2485C16.6358 10.3835 15.7598 10.5532 14.0422 10.6153C14.0331 10.5818 14.0238 10.5471 14.0155 10.5167C13.9096 10.1181 13.6503 9.76381 13.2855 9.51942C12.4449 8.95469 11.5692 8.57972 10.9889 8.36672C11.5019 7.84955 11.8595 7.14358 11.9648 6.3577C12.1746 6.41029 12.387 6.44024 12.6006 6.44024C13.134 6.44024 13.6386 6.27252 14.0781 5.98585C14.5839 6.15404 15.5824 6.53321 16.5368 7.17437C16.7866 7.34184 16.9636 7.58216 17.0357 7.85398C17.1878 8.40613 17.3093 9.04706 17.3975 9.75938C17.4236 9.97417 17.2847 10.1802 17.0693 10.2489L17.0695 10.2485Z" fill="#F7F7F7"/>
</svg>
