<svg width="15" height="14" viewBox="0 0 15 14" fill="none" xmlns="http://www.w3.org/2000/svg">
<path d="M13.5551 6.11501L6.79545 12.869C6.7682 12.8991 6.74016 12.9286 6.71134 12.9574C6.68261 12.9862 6.65318 13.0142 6.62297 13.0416C6.59285 13.0689 6.56203 13.0955 6.53061 13.1214C6.49919 13.1472 6.46715 13.1722 6.43443 13.1965C6.40179 13.2207 6.36854 13.2443 6.33478 13.2668C6.30092 13.2895 6.26655 13.3113 6.23165 13.3323C6.19684 13.3532 6.16143 13.3733 6.12558 13.3925C6.08972 13.4118 6.05335 13.4301 6.01663 13.4476C5.97983 13.465 5.94268 13.4816 5.90509 13.4972C5.8675 13.5128 5.82957 13.5275 5.79129 13.5413C5.75292 13.5551 5.71438 13.568 5.6754 13.5799C5.63651 13.5917 5.59728 13.6026 5.55778 13.6126C5.51837 13.6226 5.4787 13.6316 5.43877 13.6396C5.39884 13.6477 5.35874 13.6547 5.31854 13.6608C5.27827 13.6668 5.2379 13.6719 5.19736 13.676C5.15691 13.6801 5.11629 13.6832 5.07566 13.6853C5.03504 13.6874 4.99433 13.6885 4.95361 13.6886C4.9129 13.6888 4.87228 13.6879 4.83156 13.686C4.79094 13.6841 4.75031 13.6812 4.70978 13.6774C4.66924 13.6736 4.62887 13.6687 4.5886 13.6629C4.54832 13.657 4.50821 13.6503 4.4682 13.6424C4.42827 13.6346 4.38851 13.6259 4.34901 13.6161C4.30952 13.6064 4.27019 13.5957 4.23122 13.584C4.19224 13.5724 4.15353 13.5598 4.11516 13.5463C4.07679 13.5326 4.03877 13.5182 4.0011 13.5028C3.96342 13.4873 3.92618 13.471 3.88929 13.4538C3.8524 13.4365 3.81594 13.4184 3.78 13.3994C3.74398 13.3804 3.70847 13.3605 3.67349 13.3398C3.63851 13.319 3.60405 13.2974 3.57011 13.275C3.53608 13.2525 3.50275 13.2292 3.46993 13.2052C3.43712 13.1811 3.40492 13.1562 3.37332 13.1306C3.34172 13.1049 3.31082 13.0786 3.28052 13.0514C3.25327 13.0209 3.22679 12.9899 3.2011 12.9582C3.17531 12.9265 3.1504 12.8942 3.12627 12.8613C3.10214 12.8283 3.07879 12.7949 3.0563 12.7608C3.03382 12.7267 3.01212 12.6921 2.99137 12.657C2.97054 12.6219 2.95058 12.5863 2.93156 12.5502C2.91247 12.5141 2.89433 12.4776 2.87705 12.4406C2.85969 12.4036 2.84337 12.3662 2.82792 12.3285C2.81247 12.2907 2.79797 12.2525 2.78434 12.2141C2.7708 12.1756 2.75813 12.1368 2.74641 12.0977C2.73478 12.0586 2.72401 12.0192 2.7142 11.9796C2.70448 11.9399 2.69571 11.9001 2.6879 11.8601C2.68009 11.82 2.67323 11.7798 2.66733 11.7394C2.66151 11.699 2.65665 11.6585 2.65275 11.6179C2.64893 11.5772 2.64606 11.5365 2.64415 11.4957C2.64224 11.4549 2.64137 11.4141 2.64155 11.3733C2.64163 11.3325 2.64276 11.2917 2.64485 11.251C2.64693 11.2102 2.65005 11.1696 2.65413 11.129C2.6583 11.0884 2.66334 11.0479 2.66941 11.0075C2.67549 10.9672 2.68261 10.927 2.69059 10.887C2.69867 10.847 2.70769 10.8072 2.71768 10.7676C2.72766 10.728 2.7386 10.6887 2.75049 10.6496C2.76247 10.6107 2.77531 10.572 2.78912 10.5335C2.80292 10.4951 2.81768 10.457 2.8333 10.4194C2.84901 10.3817 2.86559 10.3444 2.88304 10.3075C2.90058 10.2707 2.91889 10.2342 2.93816 10.1982C2.95743 10.1622 2.97757 10.1267 2.99858 10.0917C3.01959 10.0568 3.04146 10.0223 3.06412 9.98836C3.08686 9.95442 3.11038 9.921 3.13469 9.88828C3.159 9.85546 3.18408 9.82326 3.21004 9.79175C3.2359 9.76015 3.26255 9.72925 3.28998 9.69904C3.31742 9.66875 3.34554 9.63914 3.37436 9.61033C3.40327 9.58142 3.43278 9.55321 3.46299 9.52578L10.2226 2.81232C10.2534 2.77934 10.2858 2.74791 10.3197 2.71805C10.3536 2.68819 10.3889 2.66006 10.4255 2.63359C10.4621 2.6072 10.5 2.58263 10.539 2.55989C10.5781 2.53715 10.6181 2.51631 10.6592 2.49748C10.7002 2.47864 10.7422 2.4618 10.7849 2.44704C10.8276 2.43229 10.8709 2.41961 10.9148 2.40902C10.9587 2.39843 11.0031 2.3901 11.0479 2.38385C11.0926 2.3776 11.1376 2.37352 11.1827 2.37161C11.2278 2.36979 11.273 2.37005 11.3181 2.37256C11.3632 2.37508 11.4081 2.37986 11.4528 2.38671C11.4974 2.39357 11.5417 2.4026 11.5855 2.4138C11.6292 2.42499 11.6724 2.43828 11.7149 2.45364C11.7573 2.46909 11.799 2.48645 11.8398 2.5059C11.8806 2.52534 11.9204 2.5467 11.9591 2.56996C11.9978 2.59331 12.0352 2.6184 12.0715 2.64539C12.1078 2.6723 12.1427 2.70095 12.1761 2.73133C12.1921 2.74782 12.2076 2.76475 12.2227 2.78203C12.2378 2.79939 12.2525 2.8171 12.2666 2.83515C12.2809 2.85321 12.2946 2.87161 12.3079 2.89036C12.3211 2.90911 12.3339 2.92821 12.3461 2.94756C12.3585 2.96701 12.3702 2.98671 12.3815 3.00677C12.3928 3.02673 12.4035 3.04704 12.4138 3.06762C12.424 3.08819 12.4337 3.10894 12.4429 3.13003C12.4521 3.15104 12.4607 3.1723 12.4688 3.19383C12.4769 3.21536 12.4844 3.23697 12.4915 3.25894C12.4984 3.28081 12.5048 3.30286 12.5107 3.32499C12.5165 3.34722 12.5218 3.36961 12.5266 3.39201C12.5313 3.41449 12.5355 3.43706 12.539 3.4598C12.5426 3.48246 12.5456 3.5052 12.548 3.52812C12.5504 3.55095 12.5522 3.57378 12.5534 3.5967C12.5547 3.6197 12.5553 3.64262 12.5554 3.66562C12.5555 3.68854 12.555 3.71154 12.5539 3.73446C12.5527 3.75737 12.5511 3.78029 12.5488 3.80312C12.5465 3.82595 12.5436 3.84878 12.5402 3.87144C12.5368 3.89418 12.5328 3.91675 12.5282 3.93932C12.5236 3.9618 12.5185 3.9842 12.5127 4.00642C12.507 4.02864 12.5007 4.05069 12.4938 4.07265C12.4869 4.09453 12.4796 4.11631 12.4716 4.13784C12.4636 4.15937 12.4551 4.18072 12.4461 4.20182C12.4369 4.22291 12.4274 4.24374 12.4172 4.2644C12.4072 4.28498 12.3965 4.30538 12.3854 4.32543C12.3742 4.34548 12.3626 4.36527 12.3503 4.3848C12.3382 4.40425 12.3255 4.42343 12.3124 4.44227C12.2992 4.46111 12.2856 4.4796 12.2715 4.49774C12.2574 4.51588 12.2428 4.53368 12.2279 4.55104C12.2129 4.5684 12.1975 4.58541 12.1816 4.60208C12.1657 4.61866 12.1494 4.63489 12.1327 4.65069C12.116 4.66649 12.0989 4.68177 12.0815 4.6967L6.34936 10.289C6.33304 10.3024 6.31559 10.3142 6.2971 10.3244C6.27861 10.3346 6.25926 10.343 6.2392 10.3496C6.21906 10.3561 6.19858 10.3608 6.17757 10.3635C6.15665 10.3661 6.13564 10.3669 6.11455 10.3656C6.09337 10.3644 6.07262 10.3612 6.05214 10.3561C6.03156 10.351 6.01177 10.344 5.99259 10.3352C5.9734 10.3263 5.95518 10.3157 5.93799 10.3035C5.9208 10.2911 5.90483 10.2774 5.89025 10.2621C5.87558 10.247 5.86255 10.2305 5.85101 10.2128C5.83946 10.195 5.82966 10.1765 5.82167 10.1569C5.8136 10.1374 5.80743 10.1173 5.80318 10.0966C5.79893 10.0759 5.79667 10.055 5.79632 10.0338C5.79597 10.0128 5.79762 9.99184 5.80118 9.971C5.80483 9.95017 5.8103 9.92986 5.81776 9.91006C5.82514 9.89036 5.83434 9.87144 5.84528 9.85338C5.85622 9.83533 5.8688 9.8184 5.88295 9.80269L11.6083 4.21718C11.6283 4.20286 11.6474 4.18767 11.6658 4.17144C11.6841 4.1552 11.7016 4.1381 11.7182 4.12005C11.7349 4.10208 11.7506 4.08324 11.7652 4.06362C11.7799 4.04409 11.7936 4.02378 11.8063 4.00277C11.8189 3.98177 11.8305 3.96024 11.8409 3.93802C11.8514 3.91588 11.8607 3.89322 11.8688 3.87013C11.877 3.84704 11.8839 3.82361 11.8897 3.79973C11.8955 3.77595 11.9 3.7519 11.9033 3.72769C11.9067 3.70338 11.9087 3.67899 11.9095 3.65451C11.9104 3.63003 11.91 3.60555 11.9083 3.58116C11.9067 3.55668 11.9037 3.53237 11.8996 3.50824C11.8955 3.48411 11.8902 3.46024 11.8836 3.43663C11.877 3.41302 11.8692 3.38975 11.8603 3.36692C11.8514 3.34418 11.8414 3.32187 11.8302 3.30008C11.819 3.27821 11.8067 3.25711 11.7934 3.23654C11.78 3.21597 11.7656 3.19618 11.7502 3.17708C11.7324 3.16223 11.7139 3.14826 11.6948 3.13524C11.6757 3.12222 11.6559 3.11015 11.6356 3.09895C11.6152 3.08784 11.5944 3.07777 11.5731 3.06866C11.5518 3.05954 11.5301 3.05147 11.508 3.04444C11.4858 3.03749 11.4635 3.03159 11.4408 3.02673C11.4181 3.02187 11.3953 3.01814 11.3722 3.01553C11.3492 3.01293 11.3261 3.01145 11.3029 3.01111C11.2797 3.01067 11.2566 3.01145 11.2335 3.01336C11.2104 3.01519 11.1874 3.01822 11.1646 3.0223C11.1417 3.02638 11.1192 3.03159 11.0968 3.03784C11.0745 3.04418 11.0526 3.05147 11.031 3.05989C11.0094 3.06831 10.9882 3.07777 10.9676 3.08828C10.9469 3.09869 10.9268 3.11015 10.9072 3.12256C10.8876 3.13498 10.8687 3.14835 10.8504 3.16258C10.8322 3.17682 10.8146 3.19192 10.7978 3.20789C10.781 3.22387 10.765 3.24062 10.7498 3.25815L3.99025 9.97152C3.96776 9.99114 3.9458 10.0112 3.92436 10.0319C3.90292 10.0524 3.88191 10.0736 3.86151 10.0952C3.84111 10.1168 3.82115 10.139 3.80188 10.1616C3.78252 10.1843 3.76368 10.2073 3.74545 10.2309C3.72731 10.2544 3.7096 10.2784 3.69259 10.3028C3.67558 10.3272 3.65908 10.352 3.64328 10.3772C3.62748 10.4024 3.61229 10.4279 3.59771 10.4539C3.58313 10.4799 3.56915 10.5062 3.55587 10.5328C3.54259 10.5595 3.53 10.5864 3.51802 10.6136C3.50604 10.6409 3.49476 10.6684 3.48408 10.6962C3.47349 10.724 3.4636 10.752 3.45431 10.7803C3.44511 10.8086 3.43651 10.8371 3.4287 10.8658C3.4208 10.8945 3.41368 10.9233 3.40726 10.9524C3.40084 10.9815 3.39511 11.0107 3.39007 11.04C3.38512 11.0694 3.38078 11.0988 3.37722 11.1283C3.37367 11.1579 3.37089 11.1875 3.36872 11.2172C3.36663 11.2469 3.36525 11.2766 3.36455 11.3063C3.36394 11.3361 3.36403 11.3658 3.36481 11.3956C3.36559 11.4253 3.36716 11.455 3.36941 11.4847C3.37167 11.5143 3.37462 11.5439 3.37835 11.5735C3.38209 11.603 3.38651 11.6325 3.39163 11.6617C3.39676 11.6911 3.40266 11.7202 3.40926 11.7492C3.41585 11.7782 3.42306 11.8071 3.43113 11.8358C3.43912 11.8644 3.4478 11.8929 3.45717 11.9211C3.46655 11.9494 3.47662 11.9773 3.48738 12.0051C3.49814 12.0328 3.50952 12.0603 3.52167 12.0875C3.53373 12.1147 3.5465 12.1416 3.55995 12.1681C3.57341 12.1947 3.58747 12.2209 3.60214 12.2468C3.61681 12.2727 3.63217 12.2982 3.64814 12.3233C3.66403 12.3484 3.68061 12.3732 3.6978 12.3975C3.71498 12.4218 3.73269 12.4457 3.75101 12.4691C3.76941 12.4925 3.78825 12.5155 3.80778 12.5381C3.83026 12.5574 3.85327 12.576 3.87662 12.5942C3.90005 12.6123 3.92393 12.6299 3.94823 12.647C3.97254 12.6639 3.99719 12.6803 4.02228 12.6961C4.04736 12.7119 4.0728 12.7271 4.09858 12.7417C4.12445 12.7562 4.15058 12.7701 4.17705 12.7834C4.20353 12.7967 4.23035 12.8094 4.25743 12.8214C4.2846 12.8333 4.31195 12.8447 4.33964 12.8554C4.36724 12.8661 4.39519 12.876 4.42332 12.8853C4.45144 12.8946 4.47983 12.9033 4.50839 12.9112C4.53695 12.9192 4.56568 12.9264 4.59459 12.933C4.62349 12.9395 4.65257 12.9453 4.68174 12.9504C4.71091 12.9556 4.74025 12.96 4.76967 12.9637C4.7991 12.9674 4.82853 12.9705 4.85813 12.9727C4.88764 12.975 4.91724 12.9766 4.94693 12.9774C4.97653 12.9783 5.00613 12.9784 5.03582 12.9778C5.06542 12.9772 5.09502 12.9759 5.12462 12.9739C5.15422 12.9719 5.18373 12.9691 5.21316 12.9656C5.24259 12.9621 5.27193 12.958 5.30118 12.9531C5.33044 12.9483 5.35952 12.9426 5.38851 12.9364C5.4175 12.93 5.44623 12.9231 5.47488 12.9154C5.50353 12.9077 5.532 12.8993 5.56021 12.8903C5.58842 12.8812 5.61637 12.8714 5.64415 12.861C5.67184 12.8506 5.69936 12.8395 5.72653 12.8277C5.75379 12.816 5.7807 12.8036 5.80726 12.7904C5.83391 12.7774 5.86021 12.7637 5.88608 12.7494C5.91203 12.7351 5.93764 12.72 5.96281 12.7045C5.98808 12.6889 6.0129 12.6727 6.03729 12.6559C6.06177 12.6391 6.08573 12.6218 6.10934 12.6038C6.13287 12.5858 6.15604 12.5674 6.1787 12.5483C6.20144 12.5292 6.22358 12.5096 6.24537 12.4895C6.26707 12.4694 6.28834 12.4487 6.309 12.4275C6.32974 12.4063 6.34997 12.3846 6.36959 12.3625L13.1292 5.6085C13.1646 5.5769 13.1991 5.54453 13.2329 5.51128C13.2666 5.47803 13.2995 5.44401 13.3317 5.4092C13.3638 5.37439 13.395 5.3388 13.4254 5.30243C13.4558 5.26605 13.4852 5.22899 13.5138 5.19123C13.5423 5.15347 13.57 5.11501 13.5967 5.07586C13.6234 5.03671 13.6492 4.99696 13.6739 4.95659C13.6987 4.91623 13.7225 4.87526 13.7453 4.83376C13.768 4.79227 13.7898 4.75017 13.8106 4.70763C13.8312 4.66501 13.8509 4.62196 13.8696 4.57838C13.8882 4.53489 13.9058 4.49088 13.9223 4.44652C13.9388 4.40216 13.9542 4.35737 13.9685 4.31223C13.9829 4.2671 13.9961 4.22161 14.0082 4.17586C14.0204 4.13003 14.0313 4.08402 14.0412 4.03767C14.0511 3.9914 14.0599 3.94487 14.0674 3.89809C14.0751 3.85138 14.0816 3.80451 14.0869 3.75746C14.0922 3.71041 14.0964 3.66319 14.0994 3.61597C14.1025 3.56866 14.1044 3.52144 14.1052 3.47404C14.1059 3.42673 14.1054 3.37934 14.104 3.33203C14.1024 3.28472 14.0996 3.23741 14.0958 3.19027C14.092 3.14305 14.0869 3.09592 14.0808 3.04904C14.0746 3.00208 14.0674 2.95529 14.059 2.90868C14.0506 2.86206 14.041 2.81571 14.0303 2.76953C14.0197 2.72343 14.0079 2.6776 13.9949 2.63203C13.9821 2.58645 13.968 2.54123 13.9529 2.49635C13.9378 2.45138 13.9217 2.40694 13.9044 2.36284C13.8871 2.31874 13.8688 2.27508 13.8494 2.23185C13.83 2.18862 13.8096 2.14591 13.7882 2.10373C13.7667 2.06145 13.7442 2.01979 13.7207 1.97873C13.6972 1.93758 13.6727 1.89704 13.6473 1.85711C13.6218 1.8171 13.5954 1.77786 13.568 1.73914C13.5407 1.70052 13.5124 1.66258 13.4831 1.62526C13.454 1.58793 13.4238 1.55138 13.3928 1.51562C13.3566 1.48385 13.3195 1.45303 13.2817 1.42317C13.244 1.39331 13.2054 1.3644 13.1662 1.33637C13.127 1.30841 13.087 1.28142 13.0465 1.25546C13.0059 1.22942 12.9647 1.20442 12.9229 1.18046C12.881 1.15659 12.8387 1.13368 12.7957 1.1118C12.7528 1.08993 12.7093 1.06918 12.6653 1.04947C12.6213 1.02977 12.5769 1.01119 12.532 0.993658C12.4871 0.97621 12.4418 0.959804 12.3961 0.944613C12.3503 0.929335 12.3042 0.915272 12.2579 0.902252C12.2114 0.889318 12.1647 0.877512 12.1177 0.866922C12.0707 0.856245 12.0234 0.846783 11.976 0.83845C11.9285 0.830203 11.8809 0.823085 11.833 0.817095C11.7852 0.811193 11.7372 0.806418 11.6891 0.802859C11.6411 0.7993 11.5929 0.796956 11.5448 0.795741C11.4966 0.794613 11.4484 0.794613 11.4002 0.795828C11.3521 0.797043 11.3039 0.799474 11.2559 0.803033C11.2078 0.806679 11.1599 0.811453 11.112 0.817443C11.0642 0.823432 11.0165 0.83055 10.9691 0.83897C10.9216 0.847304 10.8744 0.856765 10.8273 0.867443C10.7803 0.878206 10.7336 0.890012 10.6872 0.903033C10.6409 0.916054 10.5948 0.930203 10.5491 0.945481C10.5034 0.960759 10.458 0.977165 10.4132 0.9947C10.3683 1.01223 10.3238 1.03081 10.2799 1.0506C10.2359 1.07031 10.1925 1.09114 10.1495 1.11302C10.1066 1.13489 10.0642 1.15789 10.0225 1.18185C9.9807 1.20581 9.93946 1.2309 9.89893 1.25694C9.85839 1.28289 9.81854 1.30998 9.77931 1.33793C9.74007 1.36597 9.70162 1.39496 9.66386 1.42491C9.6261 1.45477 9.58903 1.48558 9.55283 1.51736C9.51655 1.54913 9.48113 1.58177 9.44658 1.61527C9.41195 1.64878 9.37818 1.68315 9.34528 1.71831C9.31238 1.75355 9.28035 1.78949 9.24919 1.8263L0.921408 10.1471C0.905697 10.163 0.888596 10.1772 0.870106 10.1896C0.85153 10.202 0.831999 10.2125 0.811426 10.2211C0.790853 10.2297 0.769586 10.2361 0.747711 10.2405C0.725836 10.2449 0.7037 10.247 0.681391 10.247C0.659082 10.247 0.637033 10.2449 0.615158 10.2405C0.593283 10.2361 0.572016 10.2297 0.551443 10.2211C0.53087 10.2125 0.511339 10.202 0.492763 10.1896C0.474273 10.1772 0.457172 10.163 0.441461 10.1471C0.426009 10.1312 0.412207 10.114 0.400141 10.0954C0.387988 10.0768 0.377832 10.0573 0.369499 10.0367C0.361165 10.0162 0.354829 9.99505 0.350575 9.97326C0.346322 9.95156 0.344238 9.9296 0.344238 9.90737C0.344238 9.88524 0.346322 9.86328 0.350575 9.84149C0.354829 9.81979 0.361165 9.79861 0.369499 9.77803C0.377832 9.75746 0.387988 9.73793 0.400141 9.71935C0.412207 9.70078 0.426009 9.68359 0.441461 9.66762L8.77601 1.34001C8.81542 1.29687 8.85578 1.25468 8.89719 1.21354C8.9386 1.1723 8.98096 1.1322 9.02436 1.09305C9.06768 1.0539 9.11195 1.01588 9.15717 0.978901C9.2024 0.942009 9.24849 0.906158 9.29545 0.871436C9.34242 0.836713 9.39025 0.803206 9.43886 0.770741C9.48747 0.738363 9.53677 0.7072 9.58695 0.677252C9.63703 0.647217 9.6879 0.618484 9.73938 0.590967C9.79094 0.563449 9.84311 0.537234 9.89589 0.512234C9.94875 0.487321 10.0021 0.463623 10.056 0.441227C10.11 0.418918 10.1645 0.397824 10.2195 0.37812C10.2744 0.358415 10.3299 0.340099 10.3858 0.323085C10.4417 0.306071 10.498 0.290359 10.5546 0.276123C10.6113 0.2618 10.6682 0.248953 10.7255 0.237408C10.7828 0.225949 10.8402 0.21588 10.8981 0.207113C10.9558 0.198432 11.0138 0.19114 11.0719 0.185238C11.13 0.179422 11.1882 0.174908 11.2466 0.17187C11.3049 0.168831 11.3633 0.167182 11.4218 0.167008C11.4802 0.166835 11.5385 0.16805 11.5969 0.170654C11.6553 0.173345 11.7135 0.177425 11.7717 0.182894C11.8298 0.188363 11.8878 0.19522 11.9457 0.203554C12.0035 0.211887 12.0611 0.221522 12.1185 0.232633C12.1758 0.243745 12.2329 0.256245 12.2896 0.270133C12.3463 0.284022 12.4027 0.2993 12.4587 0.315967C12.5147 0.332547 12.5703 0.350515 12.6254 0.369873C12.6805 0.389231 12.7351 0.40989 12.7892 0.431852C12.8434 0.453901 12.8969 0.477165 12.9499 0.501818C13.0028 0.526384 13.0552 0.552252 13.1069 0.579422C13.1586 0.606592 13.2097 0.634977 13.26 0.664665C13.3103 0.694265 13.3599 0.725081 13.4087 0.7572C13.4575 0.789231 13.5056 0.822477 13.5527 0.856852C13.6 0.891227 13.6463 0.926731 13.6918 0.963363C13.7373 0.999995 13.7818 1.03776 13.8255 1.07656C15.1774 2.42065 14.9948 4.68324 13.5551 6.11501Z" fill="#383F76"/>
</svg>
