<svg width="34" height="32" viewBox="0 0 34 32" fill="none" xmlns="http://www.w3.org/2000/svg">
<mask id="mask0_232_1531" style="mask-type:luminance" maskUnits="userSpaceOnUse" x="0" y="0" width="34" height="32">
<path d="M0.734131 0H33.6177V32H0.734131V0Z" fill="white"/>
</mask>
<g mask="url(#mask0_232_1531)">
<path d="M27.5808 17.4134C27.0614 17.9678 26.3345 18.3503 25.4326 18.4874L25.2604 18.5225V19.7367C25.2604 19.9089 25.1233 20.046 24.9481 20.046H23.6698C23.4946 20.046 23.3575 19.9089 23.3575 19.7367V18.5225L23.1823 18.4874C22.006 18.2802 20.967 17.7608 20.1 16.9288C19.9599 16.8238 19.9599 16.6165 20.0651 16.4794L21.1392 15.1951C21.2091 15.1279 21.2763 15.093 21.3464 15.093V14.9878L21.3813 15.093C21.4515 15.093 21.5535 15.1279 21.5886 15.163C21.9711 15.5074 22.4205 15.7846 22.87 15.9598C23.8741 16.3744 24.881 16.4093 25.4005 15.9949C25.6427 15.8197 25.78 15.5775 25.78 15.2652C25.78 15.163 25.78 15.0229 25.745 14.9529C25.7099 14.8507 25.6778 14.7807 25.6078 14.6755C25.5377 14.6085 25.4677 14.5033 25.3655 14.4333C25.2604 14.3662 25.1554 14.2962 25.0181 14.226C24.881 14.1561 24.7088 14.0889 24.5336 14.0188C24.3586 13.9488 24.1543 13.8787 23.9119 13.8117L23.839 13.7766C23.6668 13.7065 23.4946 13.6716 23.3575 13.6014C23.2173 13.5693 23.0422 13.4994 22.87 13.4292L22.8 13.3941C22.5955 13.3242 22.4205 13.257 22.2834 13.1871C22.1433 13.1169 21.9711 13.0497 21.7989 12.9447C21.6237 12.8397 21.4866 12.7725 21.3464 12.6675C21.2442 12.5624 21.1041 12.4602 20.967 12.3201C20.8269 12.183 20.7246 12.0428 20.6517 11.9057C20.5845 11.7656 20.4795 11.6285 20.4123 11.4533C20.3423 11.2811 20.3073 11.1089 20.2722 10.9016C20.2373 10.6915 20.2373 10.5193 20.2373 10.277C20.2373 9.37512 20.5145 8.61336 21.1041 7.99153C21.6237 7.43706 22.3504 7.08967 23.2522 6.91747L23.4246 6.88258V5.56616C23.4246 5.39396 23.5617 5.25385 23.7367 5.25385H25.0181C25.1903 5.25385 25.3304 5.39396 25.3304 5.56616V6.98762L25.4677 7.01971C25.9201 7.12474 26.4047 7.29695 26.8541 7.50702C27.2714 7.7143 27.6509 7.92157 27.9983 8.16374C28.0683 8.19881 28.1033 8.30385 28.1354 8.37101C28.1354 8.47605 28.1354 8.54321 28.0683 8.61336L27.0293 9.8975C26.9241 10.0348 26.7519 10.0697 26.6117 9.96467C25.78 9.44508 24.9832 9.16784 24.2213 9.16784C23.8069 9.16784 23.4595 9.23799 23.2522 9.41019C23.0422 9.58519 22.905 9.79247 22.905 10.0697C22.905 10.3471 23.0422 10.5893 23.2845 10.7615C23.5617 10.9367 24.0142 11.144 24.6709 11.351C24.9481 11.4563 25.1903 11.5233 25.4005 11.5934C25.6078 11.6634 25.8149 11.7335 26.0573 11.8356C26.2994 11.9408 26.5067 12.0108 26.6789 12.113C26.8541 12.183 27.0293 12.288 27.1985 12.4253C27.3737 12.5303 27.5487 12.6675 27.6509 12.7725C27.791 12.8747 27.8931 13.0497 27.9983 13.1871C28.1004 13.3593 28.2054 13.5343 28.2726 13.7065C28.3455 13.8787 28.3776 14.0889 28.4478 14.2962C28.4826 14.5033 28.5177 14.7456 28.5177 14.9878C28.4478 16.027 28.1354 16.7917 27.5808 17.4134ZM17.9869 19.6316C17.9869 19.8738 17.8117 20.046 17.5696 20.046H15.5263C15.2841 20.046 15.1119 19.8738 15.1119 19.6316V12.6675C15.1119 12.4253 15.2841 12.2529 15.5263 12.2529H17.5696C17.8117 12.2529 17.9869 12.4253 17.9869 12.6675V19.6316ZM13.4132 19.6316C13.4132 19.8738 13.241 20.046 12.9987 20.046H10.9526C10.7104 20.046 10.5382 19.8738 10.5382 19.6316V14.7106C10.5382 14.4684 10.7104 14.2962 10.9526 14.2962H12.9987C13.241 14.2962 13.4132 14.4684 13.4132 14.7106V19.6316ZM9.91361 10.6594L7.10876 14.4333C6.90148 14.7106 6.48413 14.7807 6.20671 14.5734C5.92947 14.3662 5.8623 13.9488 6.06958 13.6716L9.25689 9.3781C9.35913 9.23799 9.49906 9.13277 9.67126 9.13277H9.77648C9.91361 9.13277 10.0537 9.16784 10.1558 9.27288L12.5142 11.0387L14.9367 7.81653L14.105 7.19489C13.9677 7.08967 13.8977 6.91747 13.9328 6.77736C13.9677 6.60515 14.07 6.46803 14.245 6.43295L17.0851 5.46112C17.2252 5.42605 17.3623 5.42605 17.5024 5.53109C17.6045 5.63612 17.6746 5.77344 17.6746 5.91355L17.5345 8.82344C17.5345 8.99564 17.4323 9.13277 17.2922 9.20292C17.155 9.27288 16.9828 9.27288 16.8427 9.16784L16.0108 8.5462L13.206 12.2852C13.1009 12.4253 12.9638 12.5303 12.7914 12.5303C12.6164 12.5624 12.4442 12.5303 12.3041 12.4253L9.91361 10.6594ZM8.80447 19.6316C8.80447 19.8738 8.63227 20.046 8.3901 20.046H6.34682C6.10465 20.046 5.92947 19.8738 5.92947 19.6316V16.7566C5.92947 16.5143 6.10465 16.3393 6.34682 16.3393H8.3901C8.63227 16.3393 8.80447 16.5143 8.80447 16.7566V19.6316ZM30.5608 0.0234375H3.81641C2.12051 0.0234375 0.734131 1.40683 0.734131 3.10571V22.3665C0.734131 24.0652 2.12051 25.4516 3.81641 25.4516H8.35503V30.2677C8.35503 30.9244 8.7373 31.5139 9.32406 31.7912C9.56921 31.8934 9.77648 31.9634 10.0186 31.9634C10.3981 31.9634 10.7804 31.8262 11.0927 31.5488L18.2642 25.4516H30.5259C32.2246 25.4516 33.611 24.0652 33.611 22.3665V3.10571C33.6431 1.40982 32.2597 0.0234375 30.5608 0.0234375Z" fill="#F7F7F7"/>
</g>
</svg>
