<svg width="21" height="32" viewBox="0 0 21 32" fill="none" xmlns="http://www.w3.org/2000/svg">
<path d="M6.07382 10.9602C5.70457 10.9602 5.40332 10.6591 5.40332 10.2897C5.40332 7.57952 7.61073 5.375 10.3211 5.375C10.6903 5.375 10.9887 5.67318 10.9887 6.04262C10.9887 6.41187 10.6903 6.71023 10.3211 6.71023C8.34653 6.71023 6.7528 8.31532 6.7528 10.2783C6.74144 10.6591 6.44037 10.9602 6.07382 10.9602Z" fill="#F7F7F7"/>
<path d="M10.2983 21.9313C9.40625 21.9313 8.55951 21.6075 7.87783 21.0279L6.40622 19.7125L6.19589 19.7012L2.69312 30.494L6.21862 27.707L7.32097 31.9997L10.5993 21.9086C10.4999 21.9199 10.3977 21.9313 10.2983 21.9313Z" fill="#F7F7F7"/>
<path d="M12.696 21.0167C12.4174 21.2611 12.105 21.4515 11.7812 21.6077L10.7214 24.8633L13.4659 31.119L14.1335 26.7496L17.9261 29.1674L13.9004 19.9912L12.696 21.0167Z" fill="#F7F7F7"/>
<mask id="mask0_232_1540" style="mask-type:luminance" maskUnits="userSpaceOnUse" x="0" y="0" width="21" height="21">
<path d="M0 0H20.6194V20.6182H0V0Z" fill="white"/>
</mask>
<g mask="url(#mask0_232_1540)">
<path d="M10.3101 16.5795C6.8412 16.5795 4.04303 13.7586 4.04303 10.3124C4.04303 6.8551 6.8412 4.04827 10.3101 4.04827C13.7674 4.04827 16.5771 6.84374 16.5771 10.3124C16.5771 13.7586 13.7787 16.5795 10.3101 16.5795ZM20.0543 8.78688L18.4492 6.95738L18.2589 4.47146C18.1708 3.33519 17.2675 2.43181 16.131 2.34089L13.6651 2.17331L11.8271 0.568042C11.3924 0.178945 10.8554 0 10.3214 0C9.7873 0 9.22756 0.190309 8.78164 0.556677L6.92076 2.19604L4.50031 2.35226C3.36404 2.44029 2.43775 3.34367 2.36109 4.48282L2.15941 6.96875L0.57705 8.78688C-0.181481 9.65617 -0.192846 10.9261 0.554321 11.8068L2.18214 13.679L2.34972 16.1335C2.43775 17.2698 3.35268 18.1732 4.48894 18.2614L6.95485 18.4319L8.78164 20.0341C9.21619 20.4261 9.77594 20.6052 10.3101 20.6052C10.844 20.6052 11.381 20.4147 11.8158 20.0341L13.6566 18.4319L16.1196 18.2614C17.2561 18.1732 18.1822 17.2584 18.2504 16.1222L18.4037 13.6931L20.0429 11.8181C20.8242 10.9488 20.8014 9.65617 20.0543 8.78688Z" fill="#F7F7F7"/>
</g>
</svg>
