<svg width="20" height="17" viewBox="0 0 20 17" fill="none" xmlns="http://www.w3.org/2000/svg">
<mask id="mask0_232_4606" style="mask-type:luminance" maskUnits="userSpaceOnUse" x="8" y="0" width="9" height="8">
<path d="M8.92261 0H16.8732V7.95372H8.92261V0Z" fill="white"/>
</mask>
<g mask="url(#mask0_232_4606)">
<path d="M12.8979 7.93526C15.0852 7.93526 16.8649 6.15555 16.8649 3.96818C16.8649 1.78068 15.0852 0.000976562 12.8979 0.000976562C10.7104 0.000976562 8.93066 1.78068 8.93066 3.96818C8.93066 6.15555 10.7104 7.93526 12.8979 7.93526ZM9.59029 3.96818C9.59029 2.14432 11.074 0.660602 12.8979 0.660602C14.7216 0.660602 16.2053 2.14432 16.2053 3.96818C16.2053 5.79191 14.7216 7.27563 12.8979 7.27563C11.074 7.27563 9.59029 5.79191 9.59029 3.96818Z" fill="#F7F7F7"/>
</g>
<path d="M11.9287 5.78528C12.1 5.95258 12.3284 6.07033 12.5793 6.12218L12.5767 6.47272C12.5755 6.64975 12.7183 6.79477 12.8952 6.79599H12.8977C13.0733 6.79599 13.2173 6.65312 13.2186 6.47745L13.2212 6.1211C13.4713 6.06844 13.6987 5.95029 13.8691 5.78299C14.0669 5.58881 14.1759 5.34008 14.1759 5.08285V4.9412C14.1759 4.59917 13.9833 4.27577 13.6607 4.07606L12.5165 3.36769C12.3824 3.28451 12.3054 3.16825 12.3054 3.04821V2.82676C12.3054 2.719 12.3651 2.6153 12.4734 2.53495C12.5916 2.44732 12.7501 2.39898 12.9197 2.39898C13.0894 2.39898 13.2478 2.44718 13.366 2.53495C13.4743 2.6153 13.5339 2.719 13.5339 2.82676V3.0767C13.5339 3.25372 13.678 3.39767 13.8549 3.39767C14.0319 3.39767 14.1759 3.25372 14.1759 3.0767V2.82676C14.1759 2.33794 13.7878 1.91516 13.2406 1.79269V1.46159C13.2406 1.28457 13.0966 1.14062 12.9197 1.14062C12.7428 1.14062 12.5987 1.28457 12.5987 1.46159V1.79269C12.0516 1.91516 11.6635 2.33794 11.6635 2.82676V3.04821C11.6635 3.39024 11.856 3.71364 12.1786 3.91335L13.3229 4.62172C13.4571 4.7049 13.5339 4.8213 13.5339 4.94107V5.08285C13.5339 5.19061 13.4743 5.29431 13.366 5.37465C13.2478 5.46229 13.0894 5.51049 12.9197 5.51049H12.8761C12.7063 5.51049 12.5479 5.46229 12.4298 5.37465C12.3214 5.29431 12.2617 5.19061 12.2617 5.08285V4.94512C12.2617 4.76809 12.1177 4.62415 11.9407 4.62415C11.7638 4.62415 11.6199 4.76809 11.6199 4.94512V5.08285C11.6197 5.3413 11.7294 5.5907 11.9287 5.78528Z" fill="#F7F7F7"/>
<mask id="mask1_232_4606" style="mask-type:luminance" maskUnits="userSpaceOnUse" x="0" y="8" width="20" height="9">
<path d="M0 8.26562H19.9497V16.1267H0V8.26562Z" fill="white"/>
</mask>
<g mask="url(#mask1_232_4606)">
<path d="M19.5897 8.89C19.1422 8.39281 18.4276 8.34326 17.9251 8.7736L14.9783 11.1572C14.9796 11.128 14.98 11.0988 14.9796 11.0694C14.9679 10.3587 14.4098 9.78053 13.7354 9.78053H10.4637C10.2751 9.78053 10.0972 9.67156 9.9878 9.48926C9.96417 9.44984 9.93163 9.41716 9.89544 9.38867C8.55593 8.33192 6.7557 8.19337 5.21433 8.87852L4.6445 9.13184H3.49997V8.60913C3.49997 8.42171 3.34779 8.26953 3.16024 8.26953H0.339847C0.152289 8.26953 0.000244141 8.42171 0.000244141 8.60913V14.8909C0.000244141 15.0785 0.152289 15.2306 0.339847 15.2306H3.16024C3.34779 15.2306 3.49984 15.0785 3.49984 14.8909V14.352H4.66408L8.69232 15.631C9.60594 15.9687 10.3718 16.1376 11.1377 16.1376C11.7516 16.1376 12.3656 16.0292 13.0556 15.8121C13.1189 15.7922 13.183 15.7713 13.2477 15.7494C13.3875 15.6958 13.5233 15.632 13.654 15.5589C13.7619 15.4987 13.8639 15.4287 13.9596 15.3507L19.5884 10.7586C19.607 10.7433 19.6239 10.7263 19.6389 10.7075C20.0576 10.1843 20.0359 9.38583 19.5897 8.89ZM2.82063 14.5514H0.679449V8.94887H2.82063V14.5514ZM19.128 10.2576L13.8782 14.5406C13.4196 14.9147 12.8822 15.1803 12.306 15.315C11.1647 15.582 10.2238 15.4741 8.92079 14.9914C8.91566 14.9895 8.91053 14.9877 8.90553 14.9861L4.81936 13.6887C4.78614 13.6782 4.75144 13.6728 4.7166 13.6728H3.49997V9.81118H4.71674C4.76413 9.81118 4.81126 9.80119 4.8546 9.78188L5.49033 9.49926C6.78892 8.922 8.26292 9.0735 9.44606 9.90246C9.68304 10.2529 10.0583 10.4599 10.4637 10.4599H13.7354C14.0413 10.4599 14.2947 10.7383 14.3004 11.0806C14.3035 11.2696 14.2353 11.4492 14.1133 11.5733C14.0533 11.6344 13.9832 11.6784 13.9086 11.7032C13.8119 11.7189 13.7138 11.7267 13.6147 11.7267H9.97524C9.78863 11.7267 9.63308 11.8753 9.63065 12.0619C9.62822 12.2516 9.78121 12.4061 9.97025 12.4061H13.7645C13.8666 12.4061 13.967 12.3924 14.0638 12.366C14.4873 12.2895 14.8871 12.1047 15.2385 11.8204L18.3562 9.2986C18.359 9.29631 18.3619 9.29388 18.3647 9.29158C18.5839 9.102 18.8867 9.12428 19.0848 9.34438C19.3037 9.5877 19.3206 9.99036 19.128 10.2576Z" fill="#F7F7F7"/>
</g>
</svg>
