<svg width="23" height="22" viewBox="0 0 23 22" fill="none" xmlns="http://www.w3.org/2000/svg">
<path d="M18.1227 17.7478C18.0523 18.3875 17.387 18.8108 16.3749 19.454C14.6185 20.5705 12.8643 20.6888 12.1155 20.7336C9.79727 20.8712 8.09094 20.1578 7.20148 19.7738C5.68296 19.118 4.9237 18.7906 4.7989 18.1742C4.49603 16.677 7.93526 13.9504 11.5152 13.9087C14.8829 13.8693 18.2934 16.1908 18.1227 17.7478Z" fill="#F7F7F7"/>
<path d="M20.9552 10.6564C20.9263 14.6436 18.4128 18.3279 14.6325 19.6821C10.8519 21.0365 6.49464 19.8495 3.91707 16.7229C1.37796 13.6443 1.07401 9.14635 3.11719 5.73184C5.17859 2.28643 9.31314 0.435077 13.2568 1.24561C17.7069 2.15948 20.9222 6.12738 20.9541 10.6564C20.9594 11.342 22.0258 11.3441 22.0206 10.6564C21.9885 6.21912 19.2106 2.20859 15.0482 0.65053C10.8808 -0.908458 5.99222 0.405268 3.16198 3.83476C0.317836 7.28233 -0.107665 12.2676 2.19591 16.1184C4.48868 19.9508 9.01876 21.9536 13.3986 21.1228C18.3733 20.1791 21.9843 15.6801 22.0206 10.6564C22.0258 9.96956 20.9594 9.96956 20.9541 10.6564H20.9552Z" fill="#F7F7F7"/>
<path d="M15.6934 8.1026C15.6934 8.17503 15.6915 8.24747 15.688 8.3199C15.6844 8.39218 15.6792 8.46447 15.6721 8.53659C15.665 8.60872 15.656 8.68069 15.6454 8.75236C15.6348 8.82402 15.6223 8.89537 15.6083 8.96657C15.5941 9.03762 15.5782 9.10836 15.5606 9.17863C15.543 9.2489 15.5236 9.31871 15.5026 9.38806C15.4816 9.45741 15.4589 9.52629 15.4345 9.59455C15.41 9.66267 15.384 9.73031 15.3562 9.79734C15.3284 9.86422 15.2991 9.93048 15.2682 9.99596C15.2371 10.0616 15.2046 10.1263 15.1704 10.1903C15.1363 10.254 15.1005 10.3172 15.0632 10.3793C15.026 10.4415 14.9873 10.5027 14.9469 10.5629C14.9066 10.6232 14.8649 10.6825 14.8218 10.7407C14.7786 10.7989 14.7341 10.8561 14.6881 10.912C14.6421 10.9681 14.5948 11.0229 14.546 11.0766C14.4973 11.1304 14.4475 11.1829 14.3962 11.234C14.3449 11.2853 14.2924 11.3353 14.2388 11.384C14.1851 11.4326 14.1302 11.4799 14.0742 11.5259C14.0181 11.5719 13.961 11.6164 13.9027 11.6597C13.8445 11.7029 13.7853 11.7446 13.7251 11.7848C13.6647 11.8251 13.6036 11.8638 13.5415 11.9011C13.4792 11.9384 13.4162 11.9741 13.3523 12.0083C13.2883 12.0424 13.2236 12.075 13.1581 12.106C13.0927 12.1369 13.0264 12.1664 12.9594 12.1941C12.8923 12.2219 12.8248 12.248 12.7566 12.2724C12.6883 12.2968 12.6196 12.3195 12.5501 12.3405C12.4807 12.3615 12.4109 12.3809 12.3406 12.3985C12.2704 12.4161 12.1996 12.4319 12.1286 12.4461C12.0574 12.4602 11.986 12.4727 11.9144 12.4833C11.8427 12.4938 11.7707 12.5028 11.6986 12.5099C11.6265 12.517 11.5542 12.5223 11.4818 12.5258C11.4095 12.5294 11.3371 12.5312 11.2645 12.5312C11.192 12.5312 11.1196 12.5294 11.0472 12.5258C10.9749 12.5223 10.9026 12.517 10.8305 12.5099C10.7583 12.5028 10.6864 12.4938 10.6147 12.4833C10.543 12.4727 10.4715 12.4602 10.4005 12.4461C10.3294 12.4319 10.2587 12.4161 10.1884 12.3985C10.1182 12.3809 10.0483 12.3615 9.97884 12.3405C9.9095 12.3195 9.84077 12.2968 9.7725 12.2724C9.70424 12.248 9.63659 12.2219 9.56971 12.1941C9.50268 12.1664 9.43643 12.1369 9.37094 12.106C9.30546 12.075 9.24074 12.0424 9.1768 12.0083C9.11286 11.9741 9.04985 11.9384 8.9876 11.9011C8.92552 11.8638 8.8642 11.8251 8.80397 11.7848C8.74373 11.7446 8.68458 11.7029 8.62635 11.6597C8.56813 11.6164 8.51098 11.5719 8.45492 11.5259C8.39885 11.4799 8.34402 11.4326 8.29028 11.384C8.23668 11.3353 8.18417 11.2853 8.13289 11.234C8.08162 11.1829 8.03173 11.1304 7.98293 11.0766C7.93428 11.0229 7.88701 10.9681 7.84099 10.912C7.79496 10.8561 7.75048 10.7989 7.70724 10.7407C7.66415 10.6825 7.62229 10.6232 7.58214 10.5629C7.54183 10.5027 7.50306 10.4415 7.46584 10.3793C7.42862 10.3172 7.39278 10.254 7.35865 10.1903C7.32452 10.1263 7.29193 10.0616 7.26089 9.99596C7.23 9.93048 7.2005 9.86422 7.17285 9.79734C7.14505 9.73031 7.11895 9.66267 7.09455 9.59455C7.07014 9.52629 7.04744 9.45741 7.02644 9.38806C7.00543 9.31871 6.98597 9.2489 6.96836 9.17863C6.95076 9.10836 6.935 9.03762 6.92079 8.96657C6.90674 8.89537 6.89423 8.82402 6.88357 8.75236C6.87307 8.68069 6.86411 8.60872 6.85701 8.53659C6.8499 8.46447 6.84465 8.39218 6.8411 8.3199C6.83755 8.24747 6.83569 8.17503 6.83569 8.1026C6.83569 8.03001 6.83755 7.95757 6.8411 7.88529C6.84465 7.81285 6.8499 7.74057 6.85701 7.66845C6.86411 7.59632 6.87307 7.52435 6.88357 7.45268C6.89423 7.38102 6.90674 7.30967 6.92079 7.23847C6.935 7.16742 6.95076 7.09668 6.96836 7.02641C6.98597 6.95614 7.00543 6.88633 7.02644 6.81698C7.04744 6.74763 7.07014 6.67875 7.09455 6.61048C7.11895 6.54237 7.14505 6.47473 7.17285 6.4077C7.2005 6.34082 7.23 6.27456 7.26089 6.20908C7.29193 6.14359 7.32452 6.07872 7.35865 6.01494C7.39278 5.951 7.42862 5.88798 7.46584 5.82574C7.50306 5.76365 7.54183 5.70234 7.58214 5.6421C7.62229 5.58187 7.66415 5.52256 7.70724 5.46433C7.75048 5.40611 7.79496 5.34912 7.84099 5.29305C7.88701 5.23699 7.93428 5.18216 7.98293 5.12841C8.03173 5.07466 8.08162 5.02231 8.13289 4.97103C8.18417 4.91975 8.23668 4.86971 8.29028 4.82106C8.34402 4.77241 8.39885 4.72515 8.45492 4.67912C8.51098 4.6331 8.56813 4.58862 8.62635 4.54537C8.68458 4.50228 8.74373 4.46043 8.80397 4.42027C8.8642 4.37996 8.92552 4.34119 8.9876 4.30397C9.04985 4.26675 9.11286 4.23092 9.1768 4.19679C9.24074 4.16265 9.30546 4.13006 9.37094 4.09902C9.43643 4.06813 9.50268 4.03879 9.56971 4.01099C9.63659 3.98319 9.70424 3.95724 9.7725 3.93268C9.84077 3.90828 9.9095 3.88557 9.97884 3.86457C10.0483 3.84357 10.1182 3.82426 10.1884 3.80665C10.2587 3.78905 10.3294 3.77314 10.4005 3.75893C10.4715 3.74487 10.543 3.73236 10.6147 3.72186C10.6864 3.7112 10.7583 3.70225 10.8305 3.69514C10.9026 3.68804 10.9749 3.68279 11.0472 3.67923C11.1196 3.67568 11.192 3.67383 11.2645 3.67383C11.3371 3.67383 11.4095 3.67568 11.4818 3.67923C11.5542 3.68279 11.6265 3.68804 11.6986 3.69514C11.7707 3.70225 11.8427 3.7112 11.9144 3.72186C11.986 3.73236 12.0574 3.74487 12.1286 3.75893C12.1996 3.77314 12.2704 3.78905 12.3406 3.80665C12.4109 3.82426 12.4807 3.84357 12.5501 3.86457C12.6196 3.88557 12.6883 3.90828 12.7566 3.93268C12.8248 3.95724 12.8923 3.98319 12.9594 4.01099C13.0264 4.03879 13.0927 4.06813 13.1581 4.09902C13.2236 4.13006 13.2883 4.16265 13.3523 4.19679C13.4162 4.23092 13.4792 4.26675 13.5415 4.30397C13.6036 4.34119 13.6647 4.37996 13.7251 4.42027C13.7853 4.46043 13.8445 4.50228 13.9027 4.54537C13.961 4.58862 14.0181 4.6331 14.0742 4.67912C14.1302 4.72515 14.1851 4.77241 14.2388 4.82106C14.2924 4.86971 14.3449 4.91975 14.3962 4.97103C14.4475 5.02231 14.4973 5.07466 14.546 5.12841C14.5948 5.18216 14.6421 5.23699 14.6881 5.29305C14.7341 5.34912 14.7786 5.40611 14.8218 5.46433C14.8649 5.52256 14.9066 5.58187 14.9469 5.6421C14.9873 5.70234 15.026 5.76365 15.0632 5.82574C15.1005 5.88798 15.1363 5.951 15.1704 6.01494C15.2046 6.07872 15.2371 6.14359 15.2682 6.20908C15.2991 6.27456 15.3284 6.34082 15.3562 6.4077C15.384 6.47473 15.41 6.54237 15.4345 6.61048C15.4589 6.67875 15.4816 6.74763 15.5026 6.81698C15.5236 6.88633 15.543 6.95614 15.5606 7.02641C15.5782 7.09668 15.5941 7.16742 15.6083 7.23847C15.6223 7.30967 15.6348 7.38102 15.6454 7.45268C15.656 7.52435 15.665 7.59632 15.6721 7.66845C15.6792 7.74057 15.6844 7.81285 15.688 7.88529C15.6915 7.95757 15.6934 8.03001 15.6934 8.1026Z" fill="#F7F7F7"/>
</svg>
