<svg width="18" height="18" viewBox="0 0 18 18" fill="none" xmlns="http://www.w3.org/2000/svg">
<path fill-rule="evenodd" clip-rule="evenodd" d="M16.6275 6.29712C16.7624 6.29712 16.9024 6.33392 17.0139 6.41125C17.1185 6.48381 17.1967 6.59338 17.1967 6.72439V9.59944H14.9675C13.7836 9.59944 12.8196 10.5631 12.8196 11.7473C12.8196 12.9313 13.7836 13.895 14.9675 13.895H17.1967V16.77C17.1967 16.901 17.1185 17.0106 17.0139 17.0831C16.9024 17.1605 16.7624 17.1973 16.6275 17.1973H2.05368C1.64211 17.1973 1.21866 17.0778 0.88972 16.8251C0.595892 16.5993 0.392334 16.2737 0.392334 15.8963V13.7555L5.72526 13.7489V14.6325L5.64644 14.6539C5.37478 14.7277 5.15807 14.931 5.06802 15.1983C5.03895 15.285 5.02505 15.3752 5.02505 15.4666C5.02505 15.9305 5.40215 16.3094 5.86644 16.3094C6.33137 16.3094 6.70942 15.9315 6.70942 15.4666C6.70942 15.0865 6.45389 14.7532 6.08793 14.6535L6.00922 14.6321V13.6065C6.00922 13.5688 5.99543 13.5324 5.96859 13.5056C5.94144 13.4785 5.90474 13.4641 5.86655 13.4642L0.392334 13.4707V11.8897H8.27127L8.29291 11.9683C8.39315 12.3336 8.72612 12.5897 9.10619 12.5897C9.57101 12.5897 9.94916 12.2123 9.94916 11.7473C9.94916 11.2823 9.57111 10.9045 9.10619 10.9045C8.72612 10.9045 8.39304 11.161 8.29291 11.5263L8.27127 11.6049H0.392334V10.0805L5.86644 10.087C5.90463 10.0871 5.94133 10.0726 5.96849 10.0456C5.99532 10.0188 6.00911 9.98238 6.00911 9.94461V8.91908L6.08793 8.89765C6.45399 8.79826 6.70942 8.46455 6.70942 8.08448C6.70942 7.61966 6.33126 7.24182 5.86634 7.24182C5.40215 7.24182 5.02505 7.62072 5.02505 8.08448C5.02505 8.46465 5.28059 8.79794 5.64655 8.89765L5.72526 8.91908V9.80226L0.392334 9.79568V5.56477L0.57298 5.73746C0.966094 6.11318 1.51535 6.29712 2.05368 6.29712H16.6275ZM15.1501 11.1098C14.799 11.1098 14.514 11.3962 14.514 11.7471C14.514 12.098 14.799 12.3846 15.1501 12.3846C15.502 12.3846 15.788 12.0991 15.788 11.7471C15.788 11.3953 15.5019 11.1098 15.1501 11.1098ZM7.60225 6.0122L7.31129 5.81681C6.57152 5.31995 6.12728 4.49183 6.12728 3.59995C6.12728 2.12922 7.3236 0.931842 8.79454 0.931842C10.2653 0.931842 11.4635 2.129 11.4635 3.59995C11.4635 4.49289 11.0167 5.32048 10.2778 5.81681L9.98682 6.0122H10.9111L10.9416 5.98483C11.6183 5.37522 12.0037 4.51103 12.0037 3.59995C12.0037 1.83072 10.5637 0.391602 8.79454 0.391602C7.02531 0.391602 5.58704 1.83093 5.58704 3.59995C5.58704 4.51145 5.97124 5.37564 6.64928 5.98494L6.67972 6.0122H7.60225Z" fill="#F2B80C"/>
<mask id="mask0_232_1326" style="mask-type:luminance" maskUnits="userSpaceOnUse" x="0" y="0" width="18" height="18">
<path d="M0 0H17.5966V17.589H0V0Z" fill="white"/>
</mask>
<g mask="url(#mask0_232_1326)">
<path fill-rule="evenodd" clip-rule="evenodd" d="M7.93491 3.59987C7.93491 4.07339 8.32028 4.45876 8.79433 4.45876C9.02377 4.45876 9.23995 4.36934 9.40076 4.20694C9.49952 4.10977 9.65704 4.10977 9.7542 4.20694C9.85137 4.30453 9.85137 4.46226 9.7542 4.55942C9.63688 4.67695 9.50121 4.76988 9.35547 4.83649V5.20956C9.35547 5.34703 9.24324 5.45883 9.10587 5.45883C8.96851 5.45883 8.85628 5.34703 8.85628 5.20956V4.95572C8.81608 4.95752 8.77428 4.95752 8.73238 4.95572V5.20956C8.73238 5.34703 8.62016 5.45883 8.48279 5.45883C8.34542 5.45883 8.23319 5.34703 8.23319 5.20956V4.83575C7.76413 4.6218 7.43752 4.14817 7.43752 3.59987C7.43752 3.05114 7.76413 2.57762 8.23319 2.36399V1.99029C8.23319 1.85239 8.34542 1.74101 8.48279 1.74101C8.62016 1.74101 8.73238 1.85249 8.73238 1.99029V2.24412C8.77428 2.24232 8.81608 2.24232 8.85628 2.24412V1.99029C8.85628 1.85239 8.96851 1.74101 9.10587 1.74101C9.24324 1.74101 9.35547 1.85249 9.35547 1.99029V2.36303C9.50121 2.42954 9.63688 2.52289 9.7542 2.64C9.85137 2.73758 9.85137 2.89521 9.7542 2.99248C9.65704 3.09007 9.49952 3.09007 9.40076 2.99248C9.23985 2.83051 9.02377 2.74109 8.79433 2.74109C8.32028 2.74109 7.93491 3.12646 7.93491 3.59987ZM15.1499 11.2166C15.4431 11.2166 15.6809 11.4544 15.6809 11.7471C15.6809 12.0398 15.443 12.2777 15.1499 12.2777C14.8584 12.2777 14.6206 12.0398 14.6206 11.7471C14.6205 11.4544 14.8584 11.2166 15.1499 11.2166ZM14.1213 11.7471C14.1213 12.3147 14.5837 12.7761 15.1499 12.7761C15.7177 12.7761 16.1801 12.3146 16.1801 11.7471C16.1801 11.1796 15.7178 10.7181 15.1499 10.7181C14.5837 10.7181 14.1213 11.1796 14.1213 11.7471ZM17.0897 9.991H14.9674C13.9991 9.991 13.2117 10.7789 13.2117 11.7471C13.2117 12.7152 13.9991 13.5031 14.9674 13.5031H17.0897V9.991ZM5.86613 8.53554C5.61823 8.53554 5.41552 8.33294 5.41552 8.0844C5.41552 7.83587 5.61823 7.63327 5.86613 7.63327C6.11572 7.63327 6.31843 7.83587 6.31843 8.0844C6.31843 8.33294 6.11572 8.53554 5.86613 8.53554ZM8.65527 11.7471C8.65527 11.4982 8.85798 11.296 9.10587 11.296C9.35547 11.296 9.55648 11.4983 9.55648 11.7471C9.55648 11.9956 9.35547 12.1979 9.10587 12.1979C8.85798 12.1979 8.65527 11.9956 8.65527 11.7471ZM5.86613 15.0152C6.11572 15.0152 6.31843 15.2178 6.31843 15.4664C6.31843 15.7149 6.11572 15.9175 5.86613 15.9175C5.61823 15.9175 5.41552 15.7149 5.41552 15.4664C5.41552 15.4173 5.4239 15.3689 5.43897 15.3229C5.50091 15.1388 5.6718 15.0152 5.86613 15.0152ZM16.6273 17.0904C16.8786 17.0904 17.0897 16.9437 17.0897 16.7699V14.0016H14.9673C13.7243 14.0016 12.7125 12.9901 12.7125 11.7471C12.7125 10.5041 13.7243 9.49255 14.9673 9.49255H17.0897V6.7242C17.0897 6.55045 16.8786 6.40375 16.6273 6.40375H2.05347C1.43198 6.40375 0.87583 6.17484 0.498945 5.8145V9.68868L5.61823 9.69505V9.00057C5.21451 8.89047 4.91803 8.52164 4.91803 8.0844C4.91803 7.56103 5.3435 7.13482 5.86613 7.13482C6.39046 7.13482 6.81593 7.56103 6.81593 8.0844C6.81593 8.52164 6.51945 8.89089 6.11572 9.00057V9.94443C6.11572 10.0106 6.09058 10.0741 6.0437 10.121C5.99681 10.1676 5.93317 10.1936 5.86613 10.1936L0.498945 10.1872V11.4979H8.1896C8.30013 11.0948 8.66874 10.7975 9.10587 10.7975C9.6302 10.7975 10.0558 11.2237 10.0558 11.7471C10.0558 12.2704 9.63031 12.6963 9.10587 12.6963C8.66863 12.6963 8.30013 12.3993 8.1896 11.9963H0.498945V13.3635L5.86613 13.3572C5.93317 13.3572 5.99681 13.3831 6.0437 13.4298C6.09058 13.4767 6.11572 13.5402 6.11572 13.6064V14.5503C6.51945 14.6603 6.81593 15.0291 6.81593 15.4664C6.81593 15.9899 6.39046 16.4161 5.86613 16.4161C5.3435 16.4161 4.91792 15.9899 4.91792 15.4664C4.91792 15.3632 4.93299 15.2613 4.96661 15.1641C5.06876 14.8582 5.31666 14.6325 5.61823 14.5506V13.8556L0.498945 13.8621V15.8962C0.498945 16.5549 1.19575 17.0904 2.05347 17.0904H16.6273ZM2.05347 3.51702H5.19605C5.19436 3.54471 5.19436 3.57218 5.19436 3.59987C5.19436 4.45017 5.49423 5.26302 6.03033 5.9053H2.05347C1.19575 5.9053 0.498945 5.36941 0.498945 4.71111C0.498945 4.05281 1.19575 3.51702 2.05347 3.51702ZM8.79433 5.87613C10.049 5.87613 11.0709 4.85505 11.0709 3.59987C11.0709 2.34447 10.0491 1.32329 8.79433 1.32329C7.53957 1.32329 6.51775 2.34447 6.51775 3.59987C6.51775 4.85505 7.53968 5.87613 8.79433 5.87613ZM8.79433 0.498234C7.08398 0.498234 5.69355 1.88973 5.69355 3.59987C5.69355 4.48178 6.06544 5.3168 6.72046 5.9053H7.25147C6.50937 5.40686 6.02026 4.55942 6.02026 3.59987C6.02026 2.06952 7.26494 0.824946 8.79433 0.824946C10.3237 0.824946 11.5701 2.06952 11.5701 3.59987C11.5701 4.55942 11.0793 5.40696 10.3372 5.9053H10.8699C11.5232 5.3168 11.8967 4.48178 11.8967 3.59987C11.8967 1.88973 10.5047 0.498234 8.79433 0.498234ZM14.2453 3.51702C14.4949 3.51702 14.7077 3.66362 14.7077 3.83748V5.9053H11.56C12.096 5.26302 12.3943 4.45017 12.3943 3.59987C12.3943 3.57218 12.3943 3.54482 12.3943 3.51702H14.2453ZM16.6273 5.9053H15.2052V3.83748C15.2052 3.38592 14.7746 3.01858 14.2453 3.01858H12.3473C12.0676 1.30907 10.5817 0 8.79433 0C7.00697 0 5.52107 1.30907 5.24124 3.01858H2.05347C0.921017 3.01858 -0.000244141 3.77797 -0.000244141 4.71111V15.8962C-0.000244141 16.8294 0.921124 17.5888 2.05347 17.5888H16.6273C17.1585 17.5888 17.5889 17.2214 17.5889 16.7699V6.72431C17.5889 6.27275 17.1585 5.9053 16.6273 5.9053Z" fill="#23252F"/>
</g>
</svg>
